<svg xmlns="http://www.w3.org/2000/svg" viewBox="0 0 701.24 139.48"><defs><style>.cls-1{fill:#fffbc4;}</style></defs><title>kumo-hidari-ue</title><g id="Layer_2" data-name="Layer 2"><g id="文字"><path class="cls-1" d="M677.74,0H17.82V45.48H319.53A23.44,23.44,0,0,1,327.85,47H677.74a23.5,23.5,0,0,0,0-47Z"/><path class="cls-1" d="M17.82,92.48H319.53A23.5,23.5,0,0,0,327.85,47h-310Z"/><path class="cls-1" d="M17.82,47V45.48H0A23.44,23.44,0,0,0,8.32,47Z"/><path class="cls-1" d="M17.82,45.48V47h310a23.44,23.44,0,0,0-8.32-1.52Z"/><path class="cls-1" d="M17.82,139.48h379.4a23.5,23.5,0,1,0,0-47H17.82Z"/></g></g></svg>