<svg xmlns="http://www.w3.org/2000/svg" viewBox="0 0 896.37 215.48"><defs><style>.cls-1{fill:#fffbc4;}</style></defs><title>kumo-migi-ue</title><g id="Layer_2" data-name="Layer 2"><g id="文字"><path class="cls-1" d="M803.09,47H133.67a23.5,23.5,0,0,1,0-47H803.09a23.5,23.5,0,0,1,0,47Z"/><path class="cls-1" d="M692.92,94H23.5a23.5,23.5,0,0,1,0-47H692.92a23.5,23.5,0,0,1,0,47Z"/><path class="cls-1" d="M740.39,168.48H71a23.5,23.5,0,0,1,0-47H740.39a23.5,23.5,0,0,1,0,47Z"/><path class="cls-1" d="M872.87,215.48H203.45a23.5,23.5,0,0,1,0-47H872.87a23.5,23.5,0,0,1,0,47Z"/></g></g></svg>