<svg xmlns="http://www.w3.org/2000/svg" xmlns:xlink="http://www.w3.org/1999/xlink" viewBox="0 0 187.61 226.18">
  <defs>
    <linearGradient id="c" x1="93.81" y1="226.18" x2="93.81" y2="107.14" gradientUnits="userSpaceOnUse">
      <stop offset="0" stop-color="#fce9f2"/>
      <stop offset=".03" stop-color="#fcdeeb"/>
      <stop offset=".13" stop-color="#fdc0d8"/>
      <stop offset=".24" stop-color="#fea6c8"/>
      <stop offset=".36" stop-color="#fe93bb"/>
      <stop offset=".5" stop-color="#ff85b3"/>
      <stop offset=".68" stop-color="#ff7dae"/>
      <stop offset="1" stop-color="#ff7bac"/>
    </linearGradient>
    <pattern id="d" width="30.19" height="28.48" patternTransform="matrix(-2.55 -.1 -.06 1.67 -199.05 -130.4)" patternUnits="userSpaceOnUse" viewBox="0 0 30.19 28.48">
      <path fill="none" d="M0 0h30.19v28.48H0z"/>
      <path fill="#933" d="M0 22.79h30.19v4.18H0z"/>
      <path fill="#43b0ca" d="M0 26.96h30.19v1.52H0z"/>
      <path fill="#933" d="M0 17.09h30.19v4.18H0z"/>
      <path fill="#43b0ca" d="M0 21.27h30.19v1.52H0z"/>
      <path fill="#933" d="M0 11.39h30.19v4.18H0z"/>
      <path fill="#43b0ca" d="M0 15.57h30.19v1.52H0z"/>
      <path fill="#933" d="M0 5.7h30.19v4.18H0z"/>
      <path fill="#43b0ca" d="M0 9.87h30.19v1.52H0z"/>
      <path fill="#933" d="M0 0h30.19v4.18H0z"/>
      <path fill="#43b0ca" d="M0 4.18h30.19V5.7H0z"/>
    </pattern>
    <pattern id="e" width="30.19" height="28.48" patternTransform="matrix(2.55 .1 -.06 1.67 -133.32 -127.92)" patternUnits="userSpaceOnUse" viewBox="0 0 30.19 28.48">
      <path fill="none" d="M0 0h30.19v28.48H0z"/>
      <path fill="#933" d="M0 22.79h30.19v4.18H0z"/>
      <path fill="#43b0ca" d="M0 26.96h30.19v1.52H0z"/>
      <path fill="#933" d="M0 17.09h30.19v4.18H0z"/>
      <path fill="#43b0ca" d="M0 21.27h30.19v1.52H0z"/>
      <path fill="#933" d="M0 11.39h30.19v4.18H0z"/>
      <path fill="#43b0ca" d="M0 15.57h30.19v1.52H0z"/>
      <path fill="#933" d="M0 5.7h30.19v4.18H0z"/>
      <path fill="#43b0ca" d="M0 9.87h30.19v1.52H0z"/>
      <path fill="#933" d="M0 0h30.19v4.18H0z"/>
      <path fill="#43b0ca" d="M0 4.18h30.19V5.7H0z"/>
    </pattern>
    <radialGradient id="a" cx="48.48" cy="1344.54" r="13.4" gradientTransform="matrix(1 0 0 .72 0 -858.69)" gradientUnits="userSpaceOnUse">
      <stop offset="0" stop-color="#df7261"/>
      <stop offset=".38" stop-color="#df7362" stop-opacity=".99"/>
      <stop offset=".52" stop-color="#e07767" stop-opacity=".96"/>
      <stop offset=".62" stop-color="#e27f70" stop-opacity=".91"/>
      <stop offset=".7" stop-color="#e48a7b" stop-opacity=".83"/>
      <stop offset=".77" stop-color="#e8988b" stop-opacity=".73"/>
      <stop offset=".83" stop-color="#eba99e" stop-opacity=".61"/>
      <stop offset=".88" stop-color="#f0bdb5" stop-opacity=".47"/>
      <stop offset=".93" stop-color="#f5d5d0" stop-opacity=".3"/>
      <stop offset=".98" stop-color="#fbefed" stop-opacity=".11"/>
      <stop offset="1" stop-color="#fff" stop-opacity="0"/>
    </radialGradient>
    <radialGradient id="f" cx="113.94" cy="1346.42" r="13.4" xlink:href="#a"/>
    <linearGradient id="b" x1="40.76" y1="192.29" x2="40.76" y2="107.14" gradientUnits="userSpaceOnUse">
      <stop offset="0" stop-color="#fce9f2"/>
      <stop offset=".12" stop-color="#fdc9dd"/>
      <stop offset=".26" stop-color="#feadcc"/>
      <stop offset=".4" stop-color="#fe97be"/>
      <stop offset=".56" stop-color="#ff87b4"/>
      <stop offset=".74" stop-color="#ff7eae"/>
      <stop offset="1" stop-color="#ff7bac"/>
    </linearGradient>
    <linearGradient id="g" x1="146.85" y1="192.29" x2="146.85" y2="107.14" xlink:href="#b"/>
  </defs>
  <path d="M23.67 67.91c-.66 5.35-1.54 10.74-1.9 16.26-1.52 23.46-1.36 64.75.39 94 .25 4.23 2 16.53 2 16.53L63.21 217s-11.52-48.7-13.83-61.32c-3.6-19.7-5.16-56.12-5.77-73-.68-.49-1.37-.9-2.05-1.47-7.39-6.31-9.69-6.36-17.89-13.3zm113.54 81.79c-1.44 13.68-9.62 67.27-9.62 67.27l37.18-35s.92-13.17.89-17.6c-.15-21.7-2.67-65.46-4.12-89.12-11.25 3.37-14.61 5.42-22.59 7.49.31 16.26.27 47.91-1.74 66.96z" fill="#1a1a1a"/>
  <path d="M160.53 68c-6.22-23.84-15-43.41-30.59-55.37a62 62 0 0 0-19.68-9.7A65.39 65.39 0 0 0 91.79 0a48.69 48.69 0 0 0-6 .4 66.77 66.77 0 0 0-35.94 16.91C36.73 29.67 29 47.48 23.67 67.91a40.9 40.9 0 0 0 17.89 14c.68.27 1.37.46 2.05.69 16.34 5.55 34.21.14 46.08-12.72a49.39 49.39 0 0 0 7.1-10c.35.79.7 1.57 1.1 2.34a41.4 41.4 0 0 0 21.41 19.7 40.76 40.76 0 0 0 20 2.58 45 45 0 0 0 22.22-9.23c-.58-4.41-.99-7.27-.99-7.27z" fill="#1a1a1a"/>
  <ellipse cx="94.15" cy="132.66" rx="10.73" ry="13.62" transform="rotate(-45 94.15 132.662)" fill="#ff7bac"/>
  <path d="M182 189.68l-28.2-82.54S127.85 129 111 126.5l-17.14 13-17.14-13c-16.9 2.45-42.85-19.37-42.85-19.37L5.66 189.68c-11.26 38.44 88.15 36.49 88.15 36.49s99.42 1.96 88.19-36.49z" fill="url(#c)"/>
  <path d="M91.45 158.8s-.74-.71-2-2l-1-1.08c-.39-.37-.79-.79-1.22-1.22-.87-.87-1.82-1.86-2.92-2.9l-1.7-1.6-1.86-1.68c-1.24-1.19-2.65-2.32-4.06-3.54-.71-.6-1.47-1.16-2.21-1.77s-1.5-1.2-2.3-1.76l-2.38-1.73-2.46-1.63c-.8-.58-1.68-1-2.51-1.55s-1.67-1-2.53-1.46-1.69-.93-2.54-1.37l-2.54-1.22c-.82-.44-1.68-.72-2.5-1.09s-1.62-.72-2.42-1c-1.6-.57-3.11-1.18-4.55-1.58l-2.06-.64-1.89-.48c-1.19-.3-2.23-.6-3.1-.75-1.74-.36-2.75-.61-2.75-.61s1-.11 2.82-.2c.45 0 1-.07 1.5-.06s1.13 0 1.76.06l2 .08 2.21.29c.77.12 1.59.17 2.41.37l2.55.56c.89.17 1.75.49 2.66.75s1.84.54 2.74.92l2.81 1.09c.93.4 1.84.87 2.76 1.32a29.65 29.65 0 0 1 2.74 1.48c.89.54 1.83 1 2.68 1.62l2.59 1.76c.84.61 1.64 1.27 2.45 1.9s1.58 1.29 2.33 2 1.51 1.31 2.19 2c1.37 1.39 2.7 2.71 3.83 4.09.57.68 1.15 1.32 1.67 2l1.43 1.83c1 1.21 1.71 2.43 2.39 3.49.34.53.66 1 .94 1.48l.72 1.3a78.46 78.46 0 0 1 1.32 2.53z" fill="#325f67"/>
  <path d="M91.41 159.76l-.26-.71c-.16-.46-.41-1.15-.76-2s-.81-1.82-1.36-2.93-1.27-2.31-2.1-3.58a48.3 48.3 0 0 0-2.9-3.9 53.32 53.32 0 0 0-3.71-3.92 57.25 57.25 0 0 0-4.4-3.73 58.76 58.76 0 0 0-4.92-3.35c-1.71-1-3.46-2-5.23-2.89s-3.55-1.67-5.32-2.34-3.49-1.29-5.15-1.82-3.27-.94-4.76-1.28-2.88-.63-4.11-.86-2.33-.4-3.23-.52-1.62-.21-2.1-.27l-.75-.1.74-.13c.49-.06 1.2-.24 2.12-.31l1.53-.16c.56 0 1.16-.05 1.81-.08a39.12 39.12 0 0 1 4.35.09 44.15 44.15 0 0 1 5.13.63 49 49 0 0 1 5.62 1.4 47.22 47.22 0 0 1 5.82 2.18 49.38 49.38 0 0 1 5.69 3 47.82 47.82 0 0 1 5.25 3.75 42.73 42.73 0 0 1 4.53 4.32 39.35 39.35 0 0 1 3.57 4.64 31.21 31.21 0 0 1 2.5 4.6 26.81 26.81 0 0 1 1.49 4.14 23.64 23.64 0 0 1 .68 3.3 17.49 17.49 0 0 1 .2 2.13z" fill="url(#d)"/>
  <path d="M90.49 160.3v-.78c0-.5 0-1.26-.08-2.17a29.05 29.05 0 0 0-.41-3.25 28.74 28.74 0 0 0-1.1-4 29.34 29.34 0 0 0-2-4.45 36.82 36.82 0 0 0-3-4.51 46.66 46.66 0 0 0-3.94-4.28 53.63 53.63 0 0 0-4.71-3.86c-1.64-1.2-3.35-2.3-5.08-3.33s-3.49-1.94-5.26-2.73-3.48-1.52-5.15-2.14-3.27-1.16-4.78-1.58q-1.13-.33-2.17-.59c-.69-.18-1.35-.37-2-.49-1.25-.28-2.36-.51-3.27-.68s-1.64-.28-2.14-.37l-.76-.14.77-.11c.5 0 1.24-.2 2.18-.25a33.55 33.55 0 0 1 3.42-.12 36.76 36.76 0 0 1 4.45.28 44 44 0 0 1 5.23.89 46.78 46.78 0 0 1 5.7 1.71l1.46.55 1.46.63c1 .41 1.94.92 2.91 1.41a49.5 49.5 0 0 1 5.62 3.52 44.77 44.77 0 0 1 5 4.37 37.38 37.38 0 0 1 4.1 5 31.49 31.49 0 0 1 2.86 5.37 25 25 0 0 1 1.48 5.23 21.41 21.41 0 0 1 .34 4.54 19.73 19.73 0 0 1-.39 3.46 14.93 14.93 0 0 1-.54 2.13z" fill="#fff"/>
  <path d="M91.44 158.8s.52-.89 1.5-2.39l.81-1.24c.31-.44.67-.9 1.05-1.41.76-1 1.6-2.16 2.65-3.3l1.55-1.82c.56-.62 1.19-1.21 1.81-1.85 1.23-1.29 2.66-2.51 4.13-3.79.73-.65 1.54-1.22 2.33-1.84s1.6-1.24 2.47-1.79 1.7-1.16 2.59-1.71l2.71-1.56c.9-.54 1.87-.94 2.79-1.41a29.79 29.79 0 0 1 2.84-1.27c1-.38 1.9-.78 2.85-1.11l2.85-.9c.93-.31 1.88-.49 2.8-.71s1.81-.45 2.71-.55l2.59-.37c.83-.13 1.65-.12 2.43-.19l2.23-.12 2 .07c.63 0 1.22 0 1.76.07s1 .12 1.49.17c1.79.23 2.8.42 2.8.42s-1 .18-2.79.4c-.88.08-1.94.3-3.15.51l-1.92.34-2.1.48c-1.47.29-3 .78-4.65 1.23-.82.2-1.64.52-2.49.8s-1.72.52-2.57.9l-2.62 1c-.88.37-1.74.79-2.63 1.17s-1.76.83-2.64 1.27-1.78.84-2.62 1.36l-2.58 1.44-2.5 1.54c-.84.5-1.64 1-2.43 1.58s-1.59 1-2.34 1.6c-1.49 1.11-3 2.13-4.31 3.22l-2 1.54-1.81 1.5c-1.18 1-2.2 1.87-3.14 2.67-.47.4-.9.79-1.31 1.13l-1.1 1c-1.24 1.27-2.04 1.92-2.04 1.92z" fill="#325f67"/>
  <path d="M91.41 159.76l.09-.75a17.47 17.47 0 0 1 .36-2.11 23.66 23.66 0 0 1 .93-3.24 26.81 26.81 0 0 1 1.8-4 31.23 31.23 0 0 1 2.84-4.4 39.39 39.39 0 0 1 3.91-4.36 42.78 42.78 0 0 1 4.84-4 47.78 47.78 0 0 1 5.52-3.34 49.4 49.4 0 0 1 5.9-2.56 47.27 47.27 0 0 1 6-1.73 49.07 49.07 0 0 1 5.72-.93 44.11 44.11 0 0 1 5.16-.24 39.19 39.19 0 0 1 4.34.24c.64.08 1.24.13 1.79.22l1.51.27c.91.14 1.61.37 2.09.47l.73.19h-.76c-.49 0-1.21 0-2.12.11s-2 .15-3.26.27-2.65.31-4.17.54-3.14.57-4.84.92-3.47.86-5.28 1.43-3.64 1.21-5.48 1.93-3.66 1.57-5.44 2.48a58.77 58.77 0 0 0-5.16 3 57.45 57.45 0 0 0-4.66 3.39 53.24 53.24 0 0 0-4 3.63 48.36 48.36 0 0 0-3.18 3.67c-.92 1.2-1.71 2.35-2.36 3.41s-1.19 2-1.58 2.82-.71 1.47-.91 1.92z" fill="url(#e)"/>
  <path d="M91.28 159.71l-.17-.7a13 13 0 0 1-.35-2 16.53 16.53 0 0 1-.08-3.23 17.79 17.79 0 0 1 .22-2l.2-1.08.3-1.11c.18-.77.5-1.51.78-2.32a24.54 24.54 0 0 1 1.13-2.36 26.41 26.41 0 0 1 3.21-4.65 31.62 31.62 0 0 1 4.31-4.2 38.44 38.44 0 0 1 5.09-3.5 44.1 44.1 0 0 1 5.52-2.68 46.17 46.17 0 0 1 11-2.92 41 41 0 0 1 4.9-.39 34.36 34.36 0 0 1 4.13.09c1.23.07 2.29.23 3.16.36s1.54.3 2 .38l.7.16-2.72.27c-.86.09-1.9.22-3.08.39-.59.07-1.22.18-1.87.3s-1.35.22-2.06.37-1.45.29-2.21.48-1.54.37-2.34.58c-1.6.42-3.26.93-5 1.51s-3.41 1.28-5.12 2a54.37 54.37 0 0 0-5 2.57 44.5 44.5 0 0 0-4.69 3.08 37.65 37.65 0 0 0-4.09 3.53 29.57 29.57 0 0 0-3.27 3.83 24.28 24.28 0 0 0-2.32 3.89l-.44.94-.35.93a16.1 16.1 0 0 0-.57 1.77 22.82 22.82 0 0 0-.64 3 19.33 19.33 0 0 0-.22 2z" fill="#fff"/>
  <path d="M150.83 71.17c.48 16.48-5 39-15 49.72-11 11.67-19.12 11.29-37 11.81-16 .47-37.69-3.8-49.24-12.46C35.42 109.66 33 92.87 32.5 74.65c-1-33.11 27.13-60.8 62.77-61.85 17.6-.52 29.8 6.83 38.56 18.06 8.99 11.53 16.5 23.56 17 40.31z" fill="#fbebd8"/>
  <ellipse cx="48.48" cy="107.48" rx="13.4" ry="9.63" opacity=".54" fill="url(#a)"/>
  <ellipse cx="113.94" cy="108.84" rx="13.4" ry="9.63" opacity=".54" fill="url(#f)"/>
  <path d="M63.24 103.26c5 0 5-7.71 0-7.71s-5 7.71 0 7.71zm36.46 0c5 0 5-7.71 0-7.71s-5 7.71 0 7.71z"/>
  <ellipse cx="60.88" cy="90.64" rx="2.36" ry=".66" transform="rotate(-16.3 59.765 89.395)"/>
  <ellipse cx="100.93" cy="91.64" rx=".66" ry="2.36" transform="rotate(-63.48 100.939 91.641)"/>
  <path d="M79.76 106.52a9.12 9.12 0 0 0 .2 4M76 120a23.52 23.52 0 0 1 11.88.91" fill="none" stroke="#000" stroke-linecap="round" stroke-miterlimit="10" stroke-width="1.18"/>
  <path d="M107 147.76a79.82 79.82 0 0 1 11-8l2.71-1.49c.87-.52 1.8-.85 2.66-1.28a48.66 48.66 0 0 1 5.07-2c1.63-.55 3.2-.91 4.63-1.32s2.81-.55 4-.73l3.3-.32c1-.09 1.79 0 2.46-.06h2.06l-2-.2c-.67 0-1.5-.19-2.47-.2H137c-1.26.08-2.65.25-4.18.39-.76.11-1.53.28-2.34.44s-1.67.28-2.51.55a54.94 54.94 0 0 0-11.11 4.26 72.34 72.34 0 0 0-11.78 7.74 99.24 99.24 0 0 0-11.32 10.9 133.07 133.07 0 0 0-10.14 13.26c-3.12 4.78-6.05 9.78-8.72 14.91s-5 10.42-7.1 15.71-3.91 10.58-5.56 15.68q-1.31 4.26-2.39 8.39l3.29.35c.77-2.51 1.6-5.06 2.44-7.66s1.77-5.07 2.73-7.63 2-5.15 3.06-7.71c2.08-5.18 4.53-10.29 7.09-15.34s5.4-9.94 8.4-14.62a153.06 153.06 0 0 1 9.62-13.14A112.68 112.68 0 0 1 107 147.76z" fill="#43b0ca"/>
  <ellipse cx="76.84" cy="163.97" rx="7.47" ry="9.47" transform="rotate(-45 76.84 163.972)" fill="#fbebd8"/>
  <path d="M33.82 107.14s34.69 46.4 47.7 48.13c0 0-30.35 57.67-81.52 29.05z" fill="url(#b)"/>
  <ellipse cx="110.66" cy="163.97" rx="9.47" ry="7.47" transform="rotate(-45 110.656 163.965)" fill="#fbebd8"/>
  <path d="M153.79 107.14s-34.69 46.4-47.7 48.13c0 0 30.35 57.67 81.52 29.05z" fill="url(#g)"/>
  <path d="M159.34 79.5c-6.14-23.53-21.89-55-37.25-66.84C111.88 4.82 97.7.13 85.37 1.6c-13.76 1.65-29.07 8-38.76 19.75C33.47 37.26 27.81 52.49 25.68 76c0 0-.54 19.59 2.57 32.94 2.45 10.47 15.63 37.28 15.63 37.28l12.78-2.56s-10.69-15.35-15.44-33c-2.25-8.39-3.36-19-4.1-26.17 16 5.42 33.59.1 45.25-12.54a48.34 48.34 0 0 0 6.39-8.79l.76-.68c.29.65.59 1.31.92 1.94a40.72 40.72 0 0 0 21.06 19.35 40.09 40.09 0 0 0 19.69 2.54h.26c.1 6.64-.8 19.38-2.55 26.88-1.43 6.13-12 31.43-12 31.43l11.8 1.38s3.62-7.43 6.08-13.16c7.86-18.29 24.56-53.34 24.56-53.34z" fill="#1a1a1a"/>
</svg>
