<svg xmlns="http://www.w3.org/2000/svg" xmlns:xlink="http://www.w3.org/1999/xlink" viewBox="0 0 187.61 300.1">
  <defs>
    <linearGradient id="c" x1="93.81" y1="300.1" x2="93.81" y2="181.05" gradientUnits="userSpaceOnUse">
      <stop offset="0" stop-color="#ebd065"/>
      <stop offset=".01" stop-color="#e2cd68"/>
      <stop offset=".08" stop-color="#b3ba7a"/>
      <stop offset=".15" stop-color="#89a889"/>
      <stop offset=".22" stop-color="#649997"/>
      <stop offset=".3" stop-color="#458da3"/>
      <stop offset=".39" stop-color="#2b83ac"/>
      <stop offset=".49" stop-color="#187bb3"/>
      <stop offset=".6" stop-color="#0a75b8"/>
      <stop offset=".74" stop-color="#0272bb"/>
      <stop offset="1" stop-color="#0071bc"/>
    </linearGradient>
    <linearGradient id="a" x1="40.76" y1="266.2" x2="40.76" y2="181.05" gradientUnits="userSpaceOnUse">
      <stop offset="0" stop-color="#d3edf9"/>
      <stop offset=".29" stop-color="#dce3c4"/>
      <stop offset=".62" stop-color="#e4d991"/>
      <stop offset=".86" stop-color="#e9d271"/>
      <stop offset="1" stop-color="#ebd065"/>
    </linearGradient>
    <linearGradient id="d" x1="146.85" y1="266.2" x2="146.85" y2="181.05" xlink:href="#a"/>
    <radialGradient id="b" cx="49.02" cy="1222.14" r="13.13" gradientTransform="matrix(1 0 0 .72 0 -713.94)" gradientUnits="userSpaceOnUse">
      <stop offset="0" stop-color="#df7261"/>
      <stop offset=".27" stop-color="#df7363" stop-opacity=".99"/>
      <stop offset=".41" stop-color="#e07868" stop-opacity=".95"/>
      <stop offset=".52" stop-color="#e28172" stop-opacity=".89"/>
      <stop offset=".62" stop-color="#e58d80" stop-opacity=".81"/>
      <stop offset=".71" stop-color="#e99d91" stop-opacity=".69"/>
      <stop offset=".79" stop-color="#edb1a7" stop-opacity=".56"/>
      <stop offset=".87" stop-color="#f2c8c1" stop-opacity=".39"/>
      <stop offset=".94" stop-color="#f8e2de" stop-opacity=".21"/>
      <stop offset="1" stop-color="#fff" stop-opacity="0"/>
    </radialGradient>
    <radialGradient id="e" cx="140.17" cy="1222.6" r="13.13" xlink:href="#b"/>
  </defs>
  <ellipse cx="92.84" cy="207.89" rx="7.47" ry="9.47" transform="rotate(-45 92.83 207.888)" fill="#fbebd8"/>
  <path d="M165.16 143.62c0 35.53-30.15 64.32-71.81 64.32s-71.71-28.8-71.71-64.32S51.7 79.3 93.36 79.3s71.8 28.8 71.8 64.32z" fill="#fbebd8"/>
  <ellipse cx="21.64" cy="154.44" rx="8.47" ry="10.82" transform="rotate(-19.18 21.637 154.415)" fill="#fbebd8"/>
  <ellipse cx="163.98" cy="154.44" rx="10.82" ry="8.47" transform="rotate(-70.82 163.989 154.445)" fill="#fbebd8"/>
  <path d="M182 263.6l-28.2-82.55s-26 21.82-42.85 19.37l-17.14 13-17.14-13c-16.9 2.45-42.85-19.37-42.85-19.37L5.66 263.6c-11.27 38.4 88.15 36.48 88.15 36.48S193.23 302 182 263.6z" fill="url(#c)"/>
  <ellipse cx="76.84" cy="237.89" rx="7.47" ry="9.47" transform="rotate(-45 76.838 237.893)" fill="#fbebd8"/>
  <ellipse cx="110.66" cy="237.89" rx="9.47" ry="7.47" transform="rotate(-45 110.655 237.885)" fill="#fbebd8"/>
  <path d="M33.82 181.05s34.69 46.4 47.7 48.13c0 0-30.35 57.67-81.52 29.05z" fill="url(#a)"/>
  <path d="M153.79 181.05s-34.69 46.4-47.7 48.13c0 0 30.35 57.67 81.52 29.05z" fill="url(#d)"/>
  <path d="M68.7 158.53c5.21 0 5.22-8.1 0-8.1s-5.22 8.1 0 8.1zm50.3 0c5.21 0 5.22-8.1 0-8.1s-5.22 8.1 0 8.1z"/>
  <path d="M94.87 159.7a11 11 0 0 0 .24 4.82m-6.83 12.42a28.39 28.39 0 0 1 14.34 1.1" fill="none" stroke="#000" stroke-linecap="round" stroke-miterlimit="10" stroke-width="1.42"/>
  <path d="M43.57 120.82C53.7 98.89 73.06 86.27 86.83 92.63a18 18 0 0 1 5.7 4.18 18.66 18.66 0 0 1 5.28-4.7c13.31-7.87 34.06 2.59 46.36 23.38a65.67 65.67 0 0 1 6.47 14.72l14.87.52c-6.53-23.05-15.78-42-32.11-53.54-10.86-7.69-26.82-12.2-40-12.2-14.74 0-32.23 6.52-44 16.74-15.52 13.43-23.8 33.5-29.53 56.34l18.77-2.18a67 67 0 0 1 4.93-15.07z" fill="#1a1a1a"/>
  <ellipse cx="65.43" cy="141.25" rx="3.33" ry=".94" transform="rotate(-18.74 65.458 141.282)"/>
  <ellipse cx="121.9" cy="141.25" rx=".94" ry="3.33" transform="rotate(-70.12 121.9 141.245)"/>
  <path d="M108.76 55.14H80.12A29 29 0 0 0 72 75.82h45a29 29 0 0 0-8.24-20.68zM62 43.46s1-.17 2.73-.4 4.22-.51 7.21-.75c6-.53 13.92-.85 21.87-.86s15.91.32 21.87.85c3 .24 5.47.53 7.21.75s2.73.4 2.73.4-1 .17-2.73.4-4.22.52-7.21.75c-6 .53-13.92.85-21.87.85s-15.91-.32-21.87-.86c-3-.24-5.47-.52-7.21-.75S62 43.46 62 43.46z" fill="#b3b3b3"/>
  <path d="M106 24.65c0 20.89-4.95 37.83-11.06 37.83S83.86 45.54 83.86 24.65 88.81 0 94.91 0 106 3.76 106 24.65z" fill="#b3b3b3"/>
  <ellipse cx="49.02" cy="164.29" rx="13.13" ry="9.43" opacity=".44" fill="url(#b)"/>
  <ellipse cx="140.17" cy="164.62" rx="13.13" ry="9.43" opacity=".44" fill="url(#e)"/>
</svg>
