<svg xmlns="http://www.w3.org/2000/svg" xmlns:xlink="http://www.w3.org/1999/xlink" viewBox="0 0 187.61 300.1"><defs><style>.cls-1{fill:#fbebd8;}.cls-2{fill:url(#名称未設定グラデーション_95);}.cls-3{fill:url(#名称未設定グラデーション_91);}.cls-4{fill:url(#名称未設定グラデーション_91-2);}.cls-5{fill:none;stroke:#000;stroke-linecap:round;stroke-miterlimit:10;stroke-width:1.42px;}.cls-6{fill:#1a1a1a;}.cls-7{fill:#b3b3b3;}.cls-8,.cls-9{opacity:0.44;}.cls-8{fill:url(#名称未設定グラデーション_70);}.cls-9{fill:url(#名称未設定グラデーション_70-2);}</style><linearGradient id="名称未設定グラデーション_95" x1="93.81" y1="300.1" x2="93.81" y2="181.05" gradientUnits="userSpaceOnUse"><stop offset="0" stop-color="#ebd065"/><stop offset="0.01" stop-color="#e2cd68"/><stop offset="0.08" stop-color="#b3ba7a"/><stop offset="0.15" stop-color="#89a889"/><stop offset="0.22" stop-color="#649997"/><stop offset="0.3" stop-color="#458da3"/><stop offset="0.39" stop-color="#2b83ac"/><stop offset="0.49" stop-color="#187bb3"/><stop offset="0.6" stop-color="#0a75b8"/><stop offset="0.74" stop-color="#0272bb"/><stop offset="1" stop-color="#0071bc"/></linearGradient><linearGradient id="名称未設定グラデーション_91" x1="40.76" y1="266.2" x2="40.76" y2="181.05" gradientUnits="userSpaceOnUse"><stop offset="0" stop-color="#d3edf9"/><stop offset="0.29" stop-color="#dce3c4"/><stop offset="0.62" stop-color="#e4d991"/><stop offset="0.86" stop-color="#e9d271"/><stop offset="1" stop-color="#ebd065"/></linearGradient><linearGradient id="名称未設定グラデーション_91-2" x1="146.85" y1="266.2" x2="146.85" y2="181.05" xlink:href="#名称未設定グラデーション_91"/><radialGradient id="名称未設定グラデーション_70" cx="49.02" cy="-235.22" r="13.13" gradientTransform="translate(0 333.32) scale(1 0.72)" gradientUnits="userSpaceOnUse"><stop offset="0" stop-color="#df7261"/><stop offset="0.27" stop-color="#df7363" stop-opacity="0.99"/><stop offset="0.41" stop-color="#e07868" stop-opacity="0.95"/><stop offset="0.52" stop-color="#e28172" stop-opacity="0.89"/><stop offset="0.62" stop-color="#e58d80" stop-opacity="0.81"/><stop offset="0.71" stop-color="#e99d91" stop-opacity="0.69"/><stop offset="0.79" stop-color="#edb1a7" stop-opacity="0.56"/><stop offset="0.87" stop-color="#f2c8c1" stop-opacity="0.39"/><stop offset="0.94" stop-color="#f8e2de" stop-opacity="0.21"/><stop offset="1" stop-color="#fff" stop-opacity="0"/></radialGradient><radialGradient id="名称未設定グラデーション_70-2" cx="140.17" cy="-234.76" r="13.13" xlink:href="#名称未設定グラデーション_70"/></defs><title>emperor</title><g id="Layer_2" data-name="Layer 2"><g id="文字"><ellipse class="cls-1" cx="92.84" cy="207.89" rx="7.47" ry="9.47" transform="translate(-119.81 126.53) rotate(-45)"/><path class="cls-1" d="M165.16,143.62c0,35.53-30.15,64.32-71.81,64.32s-71.71-28.8-71.71-64.32S51.7,79.3,93.36,79.3,165.16,108.1,165.16,143.62Z"/><ellipse class="cls-1" cx="21.64" cy="154.44" rx="8.47" ry="10.82" transform="translate(-49.53 15.68) rotate(-19.18)"/><ellipse class="cls-1" cx="163.98" cy="154.44" rx="10.82" ry="8.47" transform="translate(-35.76 258.59) rotate(-70.82)"/><path class="cls-2" d="M182,263.6,153.8,181.05s-26,21.82-42.85,19.37l-17.14,13-17.14-13c-16.9,2.45-42.85-19.37-42.85-19.37L5.66,263.6C-5.61,302,93.81,300.08,93.81,300.08S193.23,302,182,263.6Z"/><ellipse class="cls-1" cx="76.84" cy="237.89" rx="7.47" ry="9.47" transform="translate(-145.71 124.01) rotate(-45)"/><ellipse class="cls-1" cx="110.66" cy="237.89" rx="9.47" ry="7.47" transform="translate(-135.8 147.92) rotate(-45)"/><path class="cls-3" d="M33.82,181.05s34.69,46.4,47.7,48.13c0,0-30.35,57.67-81.52,29.05Z"/><path class="cls-4" d="M153.79,181.05s-34.69,46.4-47.7,48.13c0,0,30.35,57.67,81.52,29.05Z"/><path d="M68.7,158.53c5.21,0,5.22-8.1,0-8.1s-5.22,8.1,0,8.1Z"/><path d="M119,158.53c5.21,0,5.22-8.1,0-8.1s-5.22,8.1,0,8.1Z"/><path class="cls-5" d="M94.87,159.7a11,11,0,0,0,.24,4.82"/><path class="cls-5" d="M90.28,176.58a28.39,28.39,0,0,0,14.34-1.1"/><path class="cls-6" d="M43.57,120.82C53.7,98.89,73.06,86.27,86.83,92.63a18,18,0,0,1,5.7,4.18,18.66,18.66,0,0,1,5.28-4.7c13.31-7.87,34.06,2.59,46.36,23.38a65.67,65.67,0,0,1,6.47,14.72l14.87.52c-6.53-23.05-15.78-42-32.11-53.54-10.86-7.69-26.82-12.2-40-12.2-14.74,0-32.23,6.52-44,16.74C33.88,95.16,25.6,115.23,19.87,138.07l18.77-2.18A67,67,0,0,1,43.57,120.82Z"/><ellipse cx="65.43" cy="137.25" rx="3.33" ry="0.94"/><ellipse cx="121.9" cy="137.25" rx="3.33" ry="0.94"/><path class="cls-7" d="M108.76,55.14H80.12A29,29,0,0,0,72,75.82h45A29,29,0,0,0,108.76,55.14Z"/><path class="cls-7" d="M62,43.46s1-.17,2.73-.4,4.22-.51,7.21-.75c6-.53,13.92-.85,21.87-.86s15.91.32,21.87.85c3,.24,5.47.53,7.21.75s2.73.4,2.73.4-1,.17-2.73.4-4.22.52-7.21.75c-6,.53-13.92.85-21.87.85s-15.91-.32-21.87-.86c-3-.24-5.47-.52-7.21-.75S62,43.46,62,43.46Z"/><path class="cls-7" d="M106,24.65c0,20.89-4.95,37.83-11.06,37.83S83.86,45.54,83.86,24.65,88.81,0,94.91,0,106,3.76,106,24.65Z"/><ellipse class="cls-8" cx="49.02" cy="164.29" rx="13.13" ry="9.43"/><ellipse class="cls-9" cx="140.17" cy="164.62" rx="13.13" ry="9.43"/></g></g></svg>