<svg xmlns="http://www.w3.org/2000/svg" xmlns:xlink="http://www.w3.org/1999/xlink" viewBox="0 0 128.68 229.56"><defs><style>.cls-1,.cls-14{fill:none;}.cls-2{fill:#e2489f;}.cls-3{fill:#43b0ca;}.cls-4{fill:#e6e6e6;}.cls-5{fill:#fbebd8;}.cls-6{fill:#ff7bac;}.cls-7{fill:#325f67;}.cls-8{fill:url(#新規パターン_4);}.cls-9{fill:#fff;}.cls-10{fill:url(#新規パターン_4-3);}.cls-11,.cls-12{opacity:0.54;}.cls-11{fill:url(#名称未設定グラデーション_59);}.cls-12{fill:url(#名称未設定グラデーション_59-2);}.cls-13{fill:#1a1a1a;}.cls-14{stroke:#000;stroke-linecap:round;stroke-miterlimit:10;stroke-width:0.85px;}</style><pattern id="新規パターン_4" data-name="新規パターン 4" width="30.19" height="28.48" patternTransform="matrix(-1.71, 0, 0, 1.71, -68.15, -40.07)" patternUnits="userSpaceOnUse" viewBox="0 0 30.19 28.48"><rect class="cls-1" width="30.19" height="28.48"/><rect class="cls-2" y="22.79" width="30.19" height="4.18"/><rect class="cls-3" y="26.96" width="30.19" height="1.52"/><rect class="cls-2" y="17.09" width="30.19" height="4.18"/><rect class="cls-3" y="21.27" width="30.19" height="1.52"/><rect class="cls-2" y="11.39" width="30.19" height="4.18"/><rect class="cls-3" y="15.57" width="30.19" height="1.52"/><rect class="cls-2" y="5.7" width="30.19" height="4.18"/><rect class="cls-3" y="9.87" width="30.19" height="1.52"/><rect class="cls-2" width="30.19" height="4.18"/><rect class="cls-3" y="4.18" width="30.19" height="1.52"/></pattern><pattern id="新規パターン_4-3" data-name="新規パターン 4" width="30.19" height="28.48" patternTransform="translate(-24.1 -40.07) scale(1.71)" patternUnits="userSpaceOnUse" viewBox="0 0 30.19 28.48"><rect class="cls-1" width="30.19" height="28.48"/><rect class="cls-2" y="22.79" width="30.19" height="4.18"/><rect class="cls-3" y="26.96" width="30.19" height="1.52"/><rect class="cls-2" y="17.09" width="30.19" height="4.18"/><rect class="cls-3" y="21.27" width="30.19" height="1.52"/><rect class="cls-2" y="11.39" width="30.19" height="4.18"/><rect class="cls-3" y="15.57" width="30.19" height="1.52"/><rect class="cls-2" y="5.7" width="30.19" height="4.18"/><rect class="cls-3" y="9.87" width="30.19" height="1.52"/><rect class="cls-2" width="30.19" height="4.18"/><rect class="cls-3" y="4.18" width="30.19" height="1.52"/></pattern><radialGradient id="名称未設定グラデーション_59" cx="37.6" cy="-255.49" r="9.71" gradientTransform="translate(0 261.5) scale(1 0.72)" gradientUnits="userSpaceOnUse"><stop offset="0" stop-color="#df7261"/><stop offset="0.38" stop-color="#df7362" stop-opacity="0.99"/><stop offset="0.52" stop-color="#e07767" stop-opacity="0.96"/><stop offset="0.62" stop-color="#e27f70" stop-opacity="0.91"/><stop offset="0.7" stop-color="#e48a7b" stop-opacity="0.83"/><stop offset="0.77" stop-color="#e8988b" stop-opacity="0.73"/><stop offset="0.83" stop-color="#eba99e" stop-opacity="0.61"/><stop offset="0.88" stop-color="#f0bdb5" stop-opacity="0.47"/><stop offset="0.93" stop-color="#f5d5d0" stop-opacity="0.3"/><stop offset="0.98" stop-color="#fbefed" stop-opacity="0.11"/><stop offset="1" stop-color="#fff" stop-opacity="0"/></radialGradient><radialGradient id="名称未設定グラデーション_59-2" cx="85.05" cy="-254.13" r="9.71" xlink:href="#名称未設定グラデーション_59"/></defs><title>hime</title><g id="Layer_2" data-name="Layer 2"><g id="人物"><path class="cls-3" d="M33.18,224c-4.38-19.32-4.17-40.82,2.54-59.08A29.11,29.11,0,0,1,44.21,153l14.88,5c-2.13,1.71-4.36,5.42-6.25,7.76a63.74,63.74,0,0,0-10.77,20.32c-3.94,11.64-3.58,26.22-.56,36.57Z"/><path class="cls-3" d="M83.58,224c-4.38-19.32-4.17-40.82,2.54-59.08A29.11,29.11,0,0,1,94.62,153l14.88,5c-2.13,1.71-4.36,5.42-6.25,7.76a63.74,63.74,0,0,0-10.77,20.32c-3.94,11.64-3.58,26.22-.56,36.57Z"/><polygon class="cls-4" points="42.63 225.32 22.81 229.56 21.53 225.45 41.35 221.2 42.63 225.32"/><polygon class="cls-4" points="92.98 225.32 73.16 229.56 71.88 225.45 91.7 221.2 92.98 225.32"/><ellipse class="cls-5" cx="4.32" cy="156.79" rx="4.31" ry="5.47"/><path class="cls-6" d="M16.54,214.47S14.13,158,8.63,154.74c-1.85-1.11-8.63-.31-8.63-.31,0-30.74,9.64-65.76,28.21-65.76l1.11,17.25c-.63,6-.94,4.3-1.43,11.16-.21,3,.78,95.33.78,95.33S26.82,212.56,16.54,214.47Z"/><ellipse class="cls-5" cx="124.37" cy="156.79" rx="4.31" ry="5.47"/><path class="cls-6" d="M111.82,214.47s2.41-56.43,7.91-59.73c1.85-1.11,8.63-.31,8.63-.31,0-30.74-9.64-65.76-28.21-65.76L99,105.91c.63,6,.94,4.3,1.43,11.16.21,3-.78,95.33-.78,95.33S101.54,212.56,111.82,214.47Z"/><path class="cls-6" d="M106.54,208.82c4.38,6.36-88.52,6.36-84.05,0-4.47,6.36-6-127.11-1.36-120.76-4.61-6.36,92.19-6.36,87.58,0C113.32,81.71,110.92,215.18,106.54,208.82Z"/><path class="cls-7" d="M63.26,116.22s-.5-.63-1.3-1.78c-.41-.57-.88-1.28-1.45-2.05s-1.2-1.66-1.87-2.62-1.46-2-2.26-3-1.67-2.19-2.61-3.3l-1.4-1.71L50.87,100l-.75-.86-.8-.82c-.53-.55-1-1.13-1.6-1.65l-1.66-1.58c-.55-.53-1.14-1-1.7-1.49l-.85-.73-.88-.67c-.59-.43-1.14-.91-1.74-1.3s-1.18-.77-1.74-1.17-1.17-.68-1.73-1l-.84-.48c-.29-.13-.57-.26-.85-.4-.56-.26-1.09-.55-1.62-.78l-1.55-.58A9,9,0,0,0,31.16,86c-.91-.22-1.7-.56-2.38-.65-1.35-.26-2.14-.46-2.14-.46s.78-.11,2.2-.22a17.9,17.9,0,0,1,2.56,0,23.3,23.3,0,0,1,3.32.49c.6.14,1.21.34,1.85.52l1,.3,1,.4c.65.28,1.34.54,2,.86s1.32.71,2,1.08,1.31.84,2,1.27l1,.67.94.75c.62.51,1.29,1,1.88,1.55l1.79,1.67c.58.57,1.12,1.19,1.68,1.78a23.58,23.58,0,0,1,1.58,1.83c.5.62,1,1.24,1.48,1.86l1.33,1.89c.9,1.22,1.58,2.53,2.31,3.7s1.27,2.37,1.82,3.44,1,2.11,1.34,3,.66,1.7.9,2.35C63,115.45,63.26,116.22,63.26,116.22Z"/><path class="cls-8" d="M63.26,117.2s-.29-.79-.74-2.18c-.22-.7-.47-1.55-.86-2.47l-.58-1.47a15.9,15.9,0,0,0-.66-1.61l-.8-1.72-.41-.9-.49-.9-1-1.87c-.37-.62-.78-1.24-1.18-1.87-.75-1.3-1.74-2.49-2.64-3.77-.49-.61-1-1.19-1.53-1.8-.26-.3-.5-.62-.77-.9l-.84-.84c-.57-.55-1.07-1.17-1.69-1.66l-1.77-1.54a39.91,39.91,0,0,0-3.72-2.62A35.72,35.72,0,0,0,39.82,87c-.61-.31-1.25-.48-1.84-.74a11.84,11.84,0,0,0-1.75-.64A27,27,0,0,0,33,84.85a21.38,21.38,0,0,0-2.55-.4c-1.43-.11-2.28-.21-2.28-.21s.8-.2,2.27-.47a14.64,14.64,0,0,1,2.67-.22,18.45,18.45,0,0,1,3.5.2,13.3,13.3,0,0,1,2,.36c.68.17,1.4.31,2.1.55l2.15.79.56.2.53.27,1.08.55a15.87,15.87,0,0,1,2.16,1.22c.7.46,1.42.91,2.11,1.42l2,1.63a25.84,25.84,0,0,1,1.87,1.79l.91.93c.3.31.55.66.83,1,.55.67,1.09,1.33,1.6,2a37.38,37.38,0,0,1,2.61,4.24c.36.72.76,1.4,1.06,2.12l.84,2.1a30,30,0,0,1,1.23,3.94,29.33,29.33,0,0,1,.66,3.42,16.79,16.79,0,0,1,.26,2.63C63.26,116.36,63.26,117.2,63.26,117.2Z"/><path class="cls-9" d="M63.85,117.79s-.11-.83-.24-2.27a18.5,18.5,0,0,0-.32-2.57L63,111.42l-.13-.82-.23-.85a35.71,35.71,0,0,0-1.1-3.69l-.71-2c-.32-.64-.62-1.3-.93-2l-.47-1-.57-1c-.39-.65-.74-1.33-1.15-2a38.22,38.22,0,0,0-2.78-3.72l-.74-.9c-.25-.3-.54-.56-.81-.84-.56-.54-1.07-1.12-1.63-1.64s-1.17-1-1.73-1.48a6.42,6.42,0,0,0-.88-.69l-.9-.64A39.13,39.13,0,0,0,44.66,86l-1.78-.83L42,84.75c-.28-.13-.57-.21-.85-.31a24.83,24.83,0,0,0-3.11-1,19.88,19.88,0,0,0-2.49-.55c-1.41-.19-2.25-.35-2.25-.35s.81-.15,2.27-.33a13.89,13.89,0,0,1,2.66-.06,11.44,11.44,0,0,1,1.65.1l1.81.3c.31.06.65.1,1,.18l1,.29c.66.2,1.35.42,2,.66a29.11,29.11,0,0,1,4.17,2,30,30,0,0,1,4.07,2.88c.64.55,1.25,1.16,1.86,1.76a17.67,17.67,0,0,1,1.74,1.91,22.94,22.94,0,0,1,1.59,2l1.4,2.15c.44.72.79,1.5,1.17,2.23l.55,1.11c.16.38.29.77.43,1.14.27.76.55,1.5.8,2.23l.52,2.21a23.42,23.42,0,0,1,.58,4.08l.09.93,0,.9-.06,1.65a13.24,13.24,0,0,1-.3,2.61C64,117,63.85,117.79,63.85,117.79Z"/><path class="cls-7" d="M63.26,116.22s.23-.77.7-2.09c.25-.66.49-1.47.9-2.35s.81-1.92,1.34-3,1.12-2.25,1.82-3.44,1.41-2.48,2.31-3.7l1.33-1.89c.48-.62,1-1.24,1.48-1.86A23.48,23.48,0,0,1,74.71,96c.56-.59,1.09-1.21,1.68-1.78l1.79-1.67c.59-.57,1.26-1,1.88-1.55l.94-.75,1-.67c.67-.43,1.29-.91,2-1.27s1.34-.74,2-1.08,1.36-.58,2-.86l1-.4,1-.3c.64-.18,1.25-.38,1.85-.52a23.29,23.29,0,0,1,3.32-.49,17.89,17.89,0,0,1,2.56,0c1.42.11,2.2.22,2.2.22s-.8.19-2.14.46c-.68.1-1.47.43-2.38.65a9,9,0,0,0-1.42.49l-1.55.58c-.53.23-1.06.51-1.62.78-.28.14-.56.26-.85.4l-.84.48c-.56.34-1.16.64-1.73,1s-1.15.78-1.74,1.17-1.15.87-1.74,1.3l-.88.67-.85.73c-.56.5-1.16,1-1.7,1.49l-1.66,1.58c-.55.53-1.06,1.11-1.6,1.65l-.8.82-.75.86-1.49,1.69-1.4,1.71c-.95,1.1-1.77,2.25-2.61,3.3s-1.54,2.11-2.26,3-1.3,1.84-1.87,2.62-1,1.49-1.45,2.05C63.75,115.59,63.26,116.22,63.26,116.22Z"/><path class="cls-10" d="M63.26,117.2s0-.84.07-2.3a16.79,16.79,0,0,1,.26-2.63,29.28,29.28,0,0,1,.66-3.42,29.94,29.94,0,0,1,1.23-3.94l.84-2.1c.3-.71.7-1.4,1.06-2.12A37.41,37.41,0,0,1,70,96.46c.51-.68,1.05-1.34,1.6-2,.28-.33.53-.68.83-1l.91-.93a25.89,25.89,0,0,1,1.87-1.79l2-1.63c.69-.51,1.41-1,2.11-1.42a15.87,15.87,0,0,1,2.16-1.22l1.08-.55.53-.27.56-.2,2.15-.79c.7-.24,1.42-.38,2.1-.55a13.29,13.29,0,0,1,2-.36,18.45,18.45,0,0,1,3.5-.2,14.64,14.64,0,0,1,2.67.22c1.46.27,2.27.47,2.27.47s-.85.1-2.28.21a21.37,21.37,0,0,0-2.55.4,27,27,0,0,0-3.19.81,11.83,11.83,0,0,0-1.75.64c-.59.26-1.23.43-1.84.74A35.74,35.74,0,0,0,83,89.1a39.94,39.94,0,0,0-3.72,2.62l-1.77,1.54c-.62.48-1.12,1.11-1.69,1.66l-.84.84c-.28.28-.51.6-.77.9-.5.61-1,1.19-1.53,1.8-.89,1.28-1.89,2.47-2.64,3.77-.39.64-.81,1.25-1.18,1.87l-1,1.87-.49.9-.41.9-.8,1.72a15.85,15.85,0,0,0-.66,1.61l-.58,1.47c-.39.92-.64,1.78-.86,2.47C63.55,116.42,63.26,117.2,63.26,117.2Z"/><path class="cls-9" d="M62.67,117.79s-.18-.81-.44-2.24a13.22,13.22,0,0,1-.3-2.61l-.06-1.65,0-.9.09-.93a23.41,23.41,0,0,1,.58-4.08l.52-2.21c.24-.73.52-1.47.8-2.23.14-.38.27-.76.43-1.14l.55-1.11c.38-.74.72-1.51,1.16-2.23l1.4-2.15a22.94,22.94,0,0,1,1.59-2,17.7,17.7,0,0,1,1.74-1.91c.62-.6,1.22-1.21,1.86-1.76a30,30,0,0,1,4.07-2.88,29.1,29.1,0,0,1,4.17-2c.7-.24,1.39-.46,2-.66l1-.29c.32-.08.65-.12,1-.18l1.81-.3a11.44,11.44,0,0,1,1.65-.1,13.89,13.89,0,0,1,2.66.06c1.46.19,2.27.33,2.27.33s-.84.15-2.25.35a19.87,19.87,0,0,0-2.49.55,24.84,24.84,0,0,0-3.11,1c-.28.1-.57.19-.85.31l-.85.42L81.86,86a39.16,39.16,0,0,0-3.58,2.27l-.9.64a6.39,6.39,0,0,0-.88.69q-.85.75-1.73,1.48c-.56.52-1.08,1.1-1.63,1.64-.27.28-.56.54-.81.84l-.74.9a38.19,38.19,0,0,0-2.78,3.72c-.42.64-.76,1.32-1.15,2l-.57,1-.47,1c-.31.67-.61,1.33-.93,2l-.71,2a35.66,35.66,0,0,0-1.1,3.69l-.23.85-.13.82-.28,1.53a18.49,18.49,0,0,0-.32,2.57C62.78,117,62.67,117.79,62.67,117.79Z"/><path class="cls-3" d="M46.13,194.46s0-2.07-.08-5.7c0-1.81,0-4,.15-6.55l.18-4,.35-4.46a179.76,179.76,0,0,1,3.11-21.08c.85-3.81,1.78-7.74,3-11.67s2.55-7.87,4.06-11.76,3.33-7.66,5.23-11.31a99.09,99.09,0,0,1,6.35-10.27A72.35,72.35,0,0,1,75.79,99a55.4,55.4,0,0,1,7.84-6.42,39.26,39.26,0,0,1,7.61-3.91c1.19-.45,2.35-.77,3.4-1.09s2.06-.46,3-.62l2.42-.28c.7-.08,1.31,0,1.79-.06l1.49,0-1.49.12c-.48.05-1.08.05-1.78.17l-2.38.4c-.88.2-1.84.48-2.89.74s-2.14.73-3.29,1.22A35.54,35.54,0,0,0,87.9,91a43.81,43.81,0,0,0-3.75,2.33,54.34,54.34,0,0,0-7.5,6.5,80.87,80.87,0,0,0-7,8.61,107.24,107.24,0,0,0-6.13,10.18c-1.86,3.6-3.58,7.35-5.11,11.17s-2.92,7.71-4.06,11.61c-.62,1.93-1.12,3.89-1.66,5.8s-1,3.84-1.42,5.72c-.83,3.78-1.6,7.45-2.18,11s-1.06,6.83-1.42,9.91l-.48,4.43-.36,4c-.22,2.51-.31,4.71-.44,6.52Z"/><path class="cls-5" d="M103.1,52.1c0,12,5.46,24.93-2.94,32.79S77.06,95.57,64.08,95.57c-11.63,0-25.33-3.72-33.52-10.24-10-8-13.28-20-13.28-33.23,0-24,20.95-43.47,46.79-43.47,12.76,0,21.44,5.58,27.55,13.9C97.91,31.07,103.1,39.95,103.1,52.1Z"/><ellipse class="cls-11" cx="37.6" cy="77.91" rx="9.71" ry="6.98"/><ellipse class="cls-12" cx="85.05" cy="78.89" rx="9.71" ry="6.98"/><path d="M48.3,74.84c3.59,0,3.6-5.59,0-5.59s-3.6,5.59,0,5.59Z"/><path d="M74.72,74.84c3.59,0,3.6-5.59,0-5.59s-3.6,5.59,0,5.59Z"/><path class="cls-13" d="M10.19,49.22C9.71,53.09,9.07,57,8.81,61c-1.1,17-1,46.93.28,68.15.18,3.07,1.45,12,1.45,12l28.3,16.12s-8.35-35.3-10-44.45c-2.61-14.28-3.74-40.68-4.18-52.9-.5-.36-1-.65-1.49-1.07C17.8,54.29,16.13,54.25,10.19,49.22Z"/><path class="cls-13" d="M92.49,108.51c-1,9.92-7,48.76-7,48.76l27-25.35s.66-9.55.64-12.75c-.11-15.73-1.93-47.45-3-64.6C102,57,99.53,58.49,93.75,60,94,71.78,93.95,94.7,92.49,108.51Z"/><path class="cls-13" d="M109.39,49.27C104.88,32,98.49,17.81,87.21,9.14a44.93,44.93,0,0,0-14.27-7A47.4,47.4,0,0,0,59.57,0a35.29,35.29,0,0,0-4.34.29A48.4,48.4,0,0,0,29.17,12.55c-9.51,9-15.08,21.86-19,36.67a29.65,29.65,0,0,0,13,10.16c.49.2,1,.33,1.49.5,11.84,4,24.8.1,33.4-9.22a35.8,35.8,0,0,0,5.15-7.24c.25.57.51,1.14.79,1.69A30,30,0,0,0,79.51,59.38,29.54,29.54,0,0,0,94,61.25a32.59,32.59,0,0,0,16.11-6.69C109.69,51.36,109.39,49.27,109.39,49.27Z"/><ellipse cx="46.58" cy="65.7" rx="1.71" ry="0.48"/><ellipse cx="75.61" cy="65.7" rx="1.71" ry="0.48"/><path class="cls-14" d="M60.27,77.21a6.61,6.61,0,0,0,.15,2.9"/><path class="cls-14" d="M57.51,87.35a17.05,17.05,0,0,0,8.61-.66"/><path class="cls-13" d="M108.39,48.69C103.94,31.63,97.64,17.63,86.5,9.08c-7.4-5.69-18.28-9-27.28-9-10,0-22,4.82-30,12.39C18.68,22.37,13,37.21,9.13,54.11c0,0-1,21.8.28,31.66.18,1.43,1.43,5.57,1.43,5.57l27.94,7.49s-8.24-16.4-9.89-20.65a66,66,0,0,1-4-17c11.63,3.93,24.35.07,32.8-9.09a35,35,0,0,0,4.63-6.37l.55-.49c.21.47.43.95.66,1.41a29.52,29.52,0,0,0,15.26,14,29.06,29.06,0,0,0,14.27,1.84l.19,0a64.83,64.83,0,0,1-1.57,15.63c-1,4.44-6.88,21.84-6.88,21.84l26.6-11.36s.66-4.28.63-5.71C111.91,72.9,108.39,48.69,108.39,48.69Z"/></g></g></svg>