<svg xmlns="http://www.w3.org/2000/svg" viewBox="0 0 1522.93 720"><defs><style>.cls-1{fill:#bdf5e0;}.cls-2,.cls-3,.cls-4{fill:none;stroke:#ffc7de;stroke-miterlimit:10;}.cls-2{stroke-width:60px;}.cls-3{stroke-width:30px;}.cls-4{stroke-width:9px;}</style></defs><title>background-baby</title><g id="Layer_2" data-name="Layer 2"><g id="背景"><rect class="cls-1" x="112.56" width="1280" height="720"/><polyline class="cls-2" points="10.74 149.34 198.42 221.34 386.1 149.34 573.78 221.34 761.45 149.34 949.13 221.34 1136.81 149.34 1324.5 221.34 1512.18 149.34"/><polyline class="cls-3" points="10.74 483.69 198.42 555.69 386.1 483.69 573.78 555.69 761.45 483.69 949.13 555.69 1136.81 483.69 1324.5 555.69 1512.18 483.69"/><polyline class="cls-3" points="10.74 58.67 198.42 130.68 386.1 58.67 573.78 130.68 761.45 58.67 949.13 130.68 1136.81 58.67 1324.5 130.68 1512.18 58.67"/><polyline class="cls-2" points="10.74 314.76 198.42 386.76 386.1 314.76 573.78 386.76 761.45 314.76 949.13 386.76 1136.81 314.76 1324.5 386.76 1512.18 314.76"/><polyline class="cls-2" points="10.74 576.81 198.42 648.81 386.1 576.81 573.78 648.81 761.45 576.81 949.13 648.81 1136.81 576.81 1324.5 648.81 1512.18 576.81"/><polyline class="cls-4" points="10.74 217.57 198.42 289.57 386.1 217.57 573.78 289.57 761.45 217.57 949.13 289.57 1136.81 217.57 1324.5 289.57 1512.18 217.57"/><polyline class="cls-4" points="10.74 249.08 198.42 321.08 386.1 249.08 573.78 321.08 761.45 249.08 949.13 321.08 1136.81 249.08 1324.5 321.08 1512.18 249.08"/><polyline class="cls-4" points="10.74 387.1 198.42 459.1 386.1 387.1 573.78 459.1 761.45 387.1 949.13 459.1 1136.81 387.1 1324.5 459.1 1512.18 387.1"/><polyline class="cls-4" points="10.74 521.7 198.42 593.7 386.1 521.7 573.78 593.7 761.45 521.7 949.13 593.7 1136.81 521.7 1324.5 593.7 1512.18 521.7"/><polyline class="cls-4" points="10.74 91.97 198.42 163.97 386.1 91.97 573.78 163.97 761.45 91.97 949.13 163.97 1136.81 91.97 1324.5 163.97 1512.18 91.97"/><polyline class="cls-4" points="10.74 422.5 198.42 494.5 386.1 422.5 573.78 494.5 761.45 422.5 949.13 494.5 1136.81 422.5 1324.5 494.5 1512.18 422.5"/></g></g></svg>