<svg xmlns="http://www.w3.org/2000/svg" xmlns:xlink="http://www.w3.org/1999/xlink" viewBox="0 0 200.93 343.35"><defs><style>.cls-1{fill:#ff7bac;}.cls-2,.cls-7{fill:none;stroke-miterlimit:10;}.cls-2{stroke:#fff;stroke-width:0.82px;}.cls-3{fill:#fbebd8;}.cls-4,.cls-5{opacity:0.54;}.cls-4{fill:url(#名称未設定グラデーション_18);}.cls-5{fill:url(#名称未設定グラデーション_18-2);}.cls-6{fill:#1a1a1a;}.cls-7{stroke:#000;stroke-linecap:round;stroke-width:1.64px;}</style><radialGradient id="名称未設定グラデーション_18" cx="44.61" cy="141.56" r="23.29" gradientUnits="userSpaceOnUse"><stop offset="0" stop-color="#ff7bac"/><stop offset="0.37" stop-color="#ff7cad" stop-opacity="0.99"/><stop offset="0.51" stop-color="#ff7faf" stop-opacity="0.97"/><stop offset="0.6" stop-color="#ff86b3" stop-opacity="0.92"/><stop offset="0.68" stop-color="#ff8eb8" stop-opacity="0.85"/><stop offset="0.75" stop-color="#ff9abf" stop-opacity="0.77"/><stop offset="0.8" stop-color="#ffa8c8" stop-opacity="0.66"/><stop offset="0.86" stop-color="#ffb9d3" stop-opacity="0.53"/><stop offset="0.91" stop-color="#ffccdf" stop-opacity="0.39"/><stop offset="0.95" stop-color="#ffe3ed" stop-opacity="0.22"/><stop offset="0.99" stop-color="#fffafc" stop-opacity="0.04"/><stop offset="1" stop-color="#fff" stop-opacity="0"/></radialGradient><radialGradient id="名称未設定グラデーション_18-2" cx="158.41" cy="144.84" r="23.29" xlink:href="#名称未設定グラデーション_18"/></defs><title>hime-baby</title><g id="Layer_2" data-name="Layer 2"><g id="人物"><path class="cls-1" d="M191.56,192.13c0,72.83-61.77,151.22-110.44,151.22S15.32,265,15.32,192.13,54.77,60.26,103.44,60.26,191.56,119.3,191.56,192.13Z"/><path class="cls-1" d="M101.45,52.67c-47.57,0-86.14,62.12-86.14,138.76a212.63,212.63,0,0,0,7.23,55.66c13.64,17,31,28.3,51,31.65,43.75,7.32,87.9-25.56,113.87-78.88.1-2.79.17-5.6.17-8.43C187.59,114.79,149,52.67,101.45,52.67Z"/><path class="cls-2" d="M107.34,200.87c-3.87-5.73-7.76-11.5-12.54-16.5S84.28,175.11,77.68,173"/><path class="cls-2" d="M106.73,200.69a60.55,60.55,0,0,1,31.7-26.27"/><path class="cls-3" d="M181.72,96.74c0,22.95,10.49,47.87-5.64,63s-44.35,20.5-69.26,20.5c-22.32,0-48.63-7.15-64.34-19.67C23.26,145.23,17,122.1,17,96.74c0-46.09,40.22-83.46,89.83-83.46C131.31,13.28,148,24,159.71,40,171.75,56.37,181.72,73.41,181.72,96.74Z"/><circle class="cls-4" cx="44.61" cy="141.56" r="23.29"/><circle class="cls-5" cx="158.41" cy="144.84" r="23.29"/><path class="cls-6" d="M120.17,70.69c6.23,11.82,13,17,22.56,23.73.79.56,1.62,1,2.43,1.48l48.62-1.3c-8.66-33.17-20.92-60.41-42.57-77C136.81,6.49,115.65,0,98.14,0,78.59,0,55.41,9.38,39.78,24.09,19.27,43.4,8.3,72.28.7,105.15l94.79-7.92c.56-.57,1.14-1.13,1.68-1.72C105.86,86.22,113.51,82.57,120.17,70.69Z"/><path class="cls-6" d="M58.37,192.13,4,177.56s-2.44-8.05-2.79-10.83C-1.19,147.56.7,105.15.7,105.15L31.54,86.57s-4.87,33.3,7.58,65.39C42.33,160.23,58.37,192.13,58.37,192.13Z"/><path class="cls-6" d="M148,194.23l51.74-22.09s1.28-8.32,1.23-11.11c-.3-19.33-7.14-66.43-7.14-66.43l-34.17-8.66s9.52,32.28,1.72,65.81C159.33,160.39,148,194.23,148,194.23Z"/><path d="M76.5,143.24c6.33,0,6.34-9.84,0-9.84s-6.34,9.84,0,9.84Z"/><path d="M127.24,143.24c6.33,0,6.34-9.84,0-9.84s-6.34,9.84,0,9.84Z"/><path class="cls-7" d="M102.77,145a12.7,12.7,0,0,0,.28,5.56"/><path class="cls-7" d="M97.48,164.42A32.74,32.74,0,0,0,114,163.16"/></g></g></svg>