<svg xmlns="http://www.w3.org/2000/svg" xmlns:xlink="http://www.w3.org/1999/xlink" viewBox="0 0 284.4 532.55"><defs><style>.cls-1{fill:#d7bb5e;}.cls-2{fill:url(#名称未設定グラデーション_64);}</style><linearGradient id="名称未設定グラデーション_64" x1="77.6" y1="523.51" x2="77.6" y2="-6.3" gradientTransform="matrix(0.9, -0.43, 0.43, 0.9, -71.24, 66.93)" gradientUnits="userSpaceOnUse"><stop offset="0" stop-color="#8cc63f"/><stop offset="0.26" stop-color="#b1d335"/><stop offset="0.58" stop-color="#d9e22a"/><stop offset="0.84" stop-color="#f3eb23"/><stop offset="1" stop-color="#fcee21"/></linearGradient></defs><title>take-hidari</title><g id="Layer_2" data-name="Layer 2"><g id="オブジェクト"><path class="cls-1" d="M24.12,195.44c24.94,85.78,91.79,141.75,149.32,125A76.07,76.07,0,0,0,201.73,305L63.83,18.63C20,46.54,2.18,120,24.12,195.44Z"/><path class="cls-2" d="M173.44,320.47c-57.53,16.72-124.38-39.25-149.32-125C2.18,120,20,46.54,63.83,18.63L54.86,0C5.81,31.83-14.08,114.43,10.61,199.37a261.55,261.55,0,0,0,28.7,65l72.94,151.49,8.92,18.52,47.29,98.21L284.4,476.72,201.73,305A76.07,76.07,0,0,1,173.44,320.47Z"/></g></g></svg>