<svg xmlns="http://www.w3.org/2000/svg" xmlns:xlink="http://www.w3.org/1999/xlink" viewBox="0 0 380.19 678.23"><defs><style>.cls-1,.cls-12{fill:none;}.cls-2{fill:#e2489f;}.cls-3{fill:#43b0ca;}.cls-4{fill:#e6e6e6;}.cls-5{fill:#fbebd8;}.cls-6{fill:#ff7bac;}.cls-7{fill:#325f67;}.cls-8{fill:url(#新規パターン_4);}.cls-9{fill:#fff;}.cls-10{fill:url(#新規パターン_4-3);}.cls-11{fill:#1a1a1a;}.cls-12{stroke:#000;stroke-linecap:round;stroke-miterlimit:10;stroke-width:2.52px;}</style><pattern id="新規パターン_4" data-name="新規パターン 4" width="30.19" height="28.48" patternTransform="matrix(-5.05, 0, 0, 5.05, -156.91, 326.55)" patternUnits="userSpaceOnUse" viewBox="0 0 30.19 28.48"><rect class="cls-1" width="30.19" height="28.48"/><rect class="cls-2" y="22.79" width="30.19" height="4.18"/><rect class="cls-3" y="26.96" width="30.19" height="1.52"/><rect class="cls-2" y="17.09" width="30.19" height="4.18"/><rect class="cls-3" y="21.27" width="30.19" height="1.52"/><rect class="cls-2" y="11.39" width="30.19" height="4.18"/><rect class="cls-3" y="15.57" width="30.19" height="1.52"/><rect class="cls-2" y="5.7" width="30.19" height="4.18"/><rect class="cls-3" y="9.87" width="30.19" height="1.52"/><rect class="cls-2" width="30.19" height="4.18"/><rect class="cls-3" y="4.18" width="30.19" height="1.52"/></pattern><pattern id="新規パターン_4-3" data-name="新規パターン 4" width="30.19" height="28.48" patternTransform="translate(-26.76 326.55) scale(5.05)" patternUnits="userSpaceOnUse" viewBox="0 0 30.19 28.48"><rect class="cls-1" width="30.19" height="28.48"/><rect class="cls-2" y="22.79" width="30.19" height="4.18"/><rect class="cls-3" y="26.96" width="30.19" height="1.52"/><rect class="cls-2" y="17.09" width="30.19" height="4.18"/><rect class="cls-3" y="21.27" width="30.19" height="1.52"/><rect class="cls-2" y="11.39" width="30.19" height="4.18"/><rect class="cls-3" y="15.57" width="30.19" height="1.52"/><rect class="cls-2" y="5.7" width="30.19" height="4.18"/><rect class="cls-3" y="9.87" width="30.19" height="1.52"/><rect class="cls-2" width="30.19" height="4.18"/><rect class="cls-3" y="4.18" width="30.19" height="1.52"/></pattern></defs><title>hime_1</title><g id="Layer_2" data-name="Layer 2"><g id="人物"><path class="cls-3" d="M98,661.7c-12.93-57.09-12.31-120.61,7.5-174.56C110,474.88,119.47,461,130.63,452l44,14.82c-6.3,5.06-12.88,16-18.47,22.94-13.92,17.2-23.83,36.46-31.81,60-11.64,34.38-10.57,77.47-1.65,108.06Z"/><path class="cls-3" d="M247,661.7c-12.93-57.09-12.31-120.61,7.5-174.56C259,474.88,268.39,461,279.55,452l44,14.82c-6.3,5.06-12.88,16-18.47,22.94-13.92,17.2-23.83,36.46-31.81,60-11.64,34.38-10.57,77.47-1.65,108.06Z"/><polygon class="cls-4" points="125.94 665.69 67.4 678.23 63.61 666.08 122.16 653.54 125.94 665.69"/><polygon class="cls-4" points="274.71 665.69 216.16 678.23 212.38 666.08 270.92 653.54 274.71 665.69"/><ellipse class="cls-5" cx="12.76" cy="463.25" rx="12.74" ry="16.17"/><path class="cls-6" d="M48.87,633.65S41.74,466.91,25.5,457.17C20,453.89,0,456.24,0,456.24c0-90.81,28.47-194.3,83.35-194.3l3.27,51c-1.85,17.81-2.78,12.71-4.23,33-.63,8.84,2.3,281.65,2.3,281.65S79.23,628,48.87,633.65Z"/><ellipse class="cls-5" cx="367.45" cy="463.25" rx="12.74" ry="16.17"/><path class="cls-6" d="M330.36,633.65s7.13-166.74,23.37-176.47c5.47-3.28,25.5-.93,25.5-.93,0-90.81-28.47-194.3-83.35-194.3l-3.27,51c1.85,17.81,2.78,12.71,4.23,33,.63,8.84-2.3,281.65-2.3,281.65S300,628,330.36,633.65Z"/><path class="cls-6" d="M314.78,617c12.94,18.78-261.53,18.78-248.33,0-13.2,18.78-17.65-375.55-4-356.78-13.62-18.78,272.38-18.78,258.76,0C334.81,241.4,327.73,635.73,314.78,617Z"/><path class="cls-7" d="M186.9,343.38l-1-1.37-2.8-3.91-4.29-6-5.56-7.75c-2.05-2.81-4.28-5.84-6.69-9-1.23-1.56-2.41-3.21-3.72-4.82L160.88,308l-2-2.49c-1.34-1.68-2.77-3.33-4.16-5L152.53,298c-.72-.85-1.45-1.7-2.21-2.52-3-3.36-6.1-6.65-9.31-9.84s-6.55-6.23-9.9-9.13-6.83-5.52-10.26-8a112.63,112.63,0,0,0-10.26-6.47,101.37,101.37,0,0,0-9.79-4.83c-1.57-.63-3.07-1.3-4.54-1.79l-2.14-.78L92.07,254l-1.94-.61-1.83-.49-1.7-.46L85,252.11l-2.66-.61-2-.37-1.67-.34,1.69-.24,2-.26c.81-.09,1.73-.13,2.78-.19.52,0,1.08-.07,1.66-.08l1.82,0,2,0,2.12.15c.73.06,1.49.11,2.27.2l2.39.33c1.65.19,3.34.61,5.14,1a77.29,77.29,0,0,1,11.25,3.54,86.1,86.1,0,0,1,11.83,5.8c1,.56,2,1.16,3,1.79s2,1.24,2.93,1.92l2.91,2,2.83,2.18a124.69,124.69,0,0,1,10.82,9.56,141.82,141.82,0,0,1,9.64,10.65c3,3.65,5.77,7.38,8.28,11.09l1.86,2.76c.6.92,1.17,1.85,1.74,2.76,1.15,1.82,2.21,3.63,3.23,5.41s2,3.53,2.86,5.22,1.72,3.36,2.5,5c1.53,3.21,2.88,6.18,4,8.86s2,5,2.69,7,1.16,3.51,1.51,4.56Z"/><path class="cls-8" d="M186.9,346.28l-.56-1.69c-.36-1.1-.85-2.74-1.53-4.78s-1.51-4.46-2.58-7.23l-.79-2.14-.92-2.23-.94-2.35c-.32-.8-.71-1.6-1.07-2.42l-1.1-2.52c-.38-.85-.82-1.7-1.23-2.57l-1.27-2.65L173.5,313c-.92-1.82-2-3.63-3-5.5s-2.21-3.71-3.4-5.57c-2.4-3.72-5-7.43-7.87-11.09A135.89,135.89,0,0,0,150,280.36,124.16,124.16,0,0,0,139.71,271a121,121,0,0,0-11-7.82,104,104,0,0,0-11.11-6,88.29,88.29,0,0,0-10.62-4.1c-.85-.26-1.67-.55-2.49-.78l-2.41-.63c-1.57-.47-3.09-.7-4.52-1s-2.79-.46-4-.71-2.42-.35-3.48-.46-2-.25-2.84-.29L85.12,249l-1.78-.13,1.72-.45a41,41,0,0,1,5-1c1.08-.17,2.29-.37,3.61-.46s2.76-.27,4.3-.25,3.19-.05,4.92.09l2.67.18c.91.09,1.83.23,2.78.34,1.91.21,3.85.65,5.88,1,1,.18,2,.51,3.06.77s2.09.53,3.13.9a83.65,83.65,0,0,1,12.8,5.3l3.2,1.74c1.08.58,2.09,1.27,3.16,1.91,2.14,1.26,4.15,2.75,6.2,4.23a103,103,0,0,1,11.49,10.07A110.14,110.14,0,0,1,167,285c1.44,2.05,2.88,4.08,4.14,6.2s2.5,4.19,3.63,6.28a105.75,105.75,0,0,1,5.62,12.47l1.1,3c.34,1,.64,2,.94,3s.6,1.93.86,2.87l.72,2.8c.48,1.82.85,3.59,1.16,5.27l.47,2.45.33,2.34c.47,3,.62,5.68.79,7.84.1,1.08.11,2,.11,2.89l0,2.14C186.9,345.66,186.9,346.28,186.9,346.28Z"/><path class="cls-9" d="M188.65,348l-.16-1.76c-.11-1.14-.19-2.85-.42-5l-.4-3.46c-.14-1.25-.39-2.61-.6-4-.12-.72-.21-1.46-.35-2.22l-.47-2.33-.47-2.45-.62-2.53-.64-2.63-.79-2.69c-.49-1.83-1.15-3.68-1.79-5.58s-1.44-3.8-2.18-5.76l-1.29-2.91-.64-1.48-.72-1.45a111.48,111.48,0,0,0-6.53-11.65l-1.89-2.84c-.64-.94-1.35-1.85-2-2.79l-1-1.4-1.08-1.35c-.73-.89-1.41-1.82-2.18-2.68a112.21,112.21,0,0,0-9.48-9.94,114.08,114.08,0,0,0-10.35-8.39,108.76,108.76,0,0,0-10.63-6.59c-.88-.47-1.77-.89-2.63-1.33s-1.73-.86-2.59-1.23l-2.54-1.14c-.84-.36-1.69-.64-2.5-1-1.63-.69-3.24-1.18-4.77-1.69s-3-.87-4.41-1.3-2.73-.62-4-1-2.38-.49-3.42-.67-2-.37-2.79-.46l-2.09-.26-1.75-.24,1.73-.34a39.79,39.79,0,0,1,5-.71c1.08-.1,2.29-.24,3.6-.24.66,0,1.34,0,2.06,0s1.45,0,2.21,0a64.33,64.33,0,0,1,10.22,1.23,74.49,74.49,0,0,1,11.79,3.38,85.83,85.83,0,0,1,12.37,6c1,.6,2,1.26,3.06,1.92l1.53,1,1.49,1.08c1,.73,2,1.43,3,2.2l2.9,2.38a95.61,95.61,0,0,1,10.72,10.79A96.22,96.22,0,0,1,178.88,285c.67,1.06,1.23,2.18,1.83,3.27s1.18,2.18,1.68,3.3l1.55,3.31c.48,1.11.9,2.24,1.34,3.35l.65,1.65.56,1.67,1.08,3.29.88,3.28c.29,1.08.58,2.14.77,3.21.41,2.14.87,4.19,1.09,6.22l.38,3c.09,1,.16,1.94.21,2.88l.17,2.75q0,1.35,0,2.63t0,2.49c0,.81-.08,1.59-.13,2.35-.13,1.52-.15,2.92-.36,4.23l-.51,3.57a24.91,24.91,0,0,1-.53,2.82l-.47,2.07Z"/><path class="cls-7" d="M186.89,343.38l.5-1.63c.35-1.05.81-2.62,1.51-4.56s1.57-4.33,2.69-7,2.43-5.65,4-8.86c.79-1.6,1.61-3.26,2.5-5s1.84-3.45,2.86-5.22,2.08-3.59,3.23-5.41c.57-.91,1.14-1.84,1.74-2.76l1.86-2.76c2.51-3.71,5.27-7.45,8.28-11.09a141.77,141.77,0,0,1,9.64-10.65,124.65,124.65,0,0,1,10.82-9.56l2.83-2.18,2.91-2c1-.68,2-1.29,2.93-1.92s2-1.24,3-1.79a86.09,86.09,0,0,1,11.83-5.8,77.3,77.3,0,0,1,11.25-3.54c1.8-.35,3.48-.76,5.14-1l2.39-.33c.78-.09,1.54-.14,2.27-.2l2.12-.15,2,0,1.82,0c.58,0,1.13.05,1.66.08,1,.06,2,.1,2.78.19l2,.26,1.69.24-1.67.34-2,.37-2.66.61-1.56.36-1.7.46-1.83.49-1.94.61-2.06.65-2.14.78c-1.47.49-3,1.16-4.54,1.79a101.34,101.34,0,0,0-9.79,4.83,112.64,112.64,0,0,0-10.26,6.47c-3.43,2.44-6.89,5.07-10.26,8s-6.72,5.9-9.9,9.13-6.34,6.48-9.31,9.84c-.76.82-1.48,1.68-2.21,2.52l-2.18,2.51c-1.39,1.71-2.82,3.36-4.16,5l-2,2.49L211,310.52c-1.31,1.61-2.5,3.26-3.72,4.82-2.4,3.16-4.63,6.19-6.69,9L195,332.09l-4.29,6-2.8,3.91Z"/><path class="cls-10" d="M186.89,346.28s0-.62,0-1.78c0-.58,0-1.3,0-2.14s0-1.8.11-2.89c.17-2.17.31-4.85.79-7.84l.33-2.34.47-2.45c.31-1.69.68-3.45,1.16-5.27l.72-2.8c.26-.95.57-1.9.86-2.87s.6-2,.94-3l1.1-3A105.75,105.75,0,0,1,199,297.44c1.14-2.09,2.3-4.22,3.63-6.28s2.7-4.14,4.14-6.2a110.16,110.16,0,0,1,9.81-11.66,103,103,0,0,1,11.49-10.07c2-1.48,4.06-3,6.2-4.23,1.06-.64,2.08-1.33,3.16-1.91l3.2-1.74a83.64,83.64,0,0,1,12.8-5.3c1-.37,2.1-.61,3.13-.9s2-.6,3.06-.77c2-.4,4-.84,5.88-1,.95-.12,1.87-.26,2.78-.34l2.67-.18c1.73-.14,3.38-.09,4.92-.09s3,.15,4.3.25,2.53.29,3.61.46a41,41,0,0,1,5,1l1.72.45-1.78.13-2.12.13c-.83,0-1.78.2-2.84.29s-2.22.21-3.48.46-2.62.35-4,.71-3,.56-4.52,1l-2.41.63c-.82.23-1.64.52-2.49.78a88.31,88.31,0,0,0-10.62,4.1,103.93,103.93,0,0,0-11.11,6,121,121,0,0,0-11,7.82,124.12,124.12,0,0,0-10.28,9.39,135.9,135.9,0,0,0-9.22,10.49c-2.83,3.65-5.47,7.36-7.87,11.09-1.19,1.86-2.3,3.74-3.4,5.57s-2.11,3.67-3,5.5l-1.41,2.68-1.27,2.65c-.42.87-.85,1.72-1.23,2.57l-1.1,2.52c-.36.82-.75,1.62-1.07,2.42l-.94,2.35-.92,2.23-.79,2.14c-1.07,2.77-1.88,5.2-2.58,7.23s-1.17,3.68-1.53,4.78Z"/><path class="cls-9" d="M185.14,348l-.41-1.72-.47-2.07a24.91,24.91,0,0,1-.53-2.82l-.51-3.57c-.21-1.31-.23-2.71-.36-4.23-.05-.76-.12-1.54-.13-2.35s0-1.64,0-2.49,0-1.73,0-2.63l.17-2.75c.06-.94.12-1.9.21-2.88l.38-3c.22-2,.68-4.09,1.09-6.22.18-1.07.48-2.13.77-3.21l.88-3.28,1.08-3.29.56-1.67.65-1.65c.44-1.1.86-2.23,1.34-3.35l1.55-3.31c.5-1.12,1.09-2.21,1.68-3.3s1.16-2.21,1.83-3.27a90.7,90.7,0,0,1,19.48-23.21l2.9-2.38c1-.77,2-1.47,3-2.2l1.49-1.08,1.53-1c1-.66,2-1.32,3.06-1.92a85.83,85.83,0,0,1,12.37-6,74.5,74.5,0,0,1,11.79-3.38,64.34,64.34,0,0,1,10.22-1.23c.76-.05,1.5-.06,2.21,0s1.4,0,2.06,0c1.31,0,2.52.15,3.6.24a39.78,39.78,0,0,1,5,.71l1.73.34-1.75.24-2.09.26c-.82.09-1.75.3-2.79.46s-2.19.34-3.42.67-2.57.51-4,1-2.89.73-4.41,1.3-3.14,1-4.77,1.69c-.81.34-1.66.62-2.5,1l-2.54,1.14c-.86.37-1.73.79-2.59,1.23s-1.75.86-2.63,1.33a108.79,108.79,0,0,0-10.63,6.59,114,114,0,0,0-10.35,8.39A112.13,112.13,0,0,0,211.4,279c-.76.86-1.45,1.79-2.18,2.68l-1.08,1.35-1,1.4c-.66.94-1.37,1.84-2,2.79l-1.89,2.84a111.48,111.48,0,0,0-6.53,11.65l-.72,1.45-.64,1.48-1.29,2.91c-.74,2-1.55,3.86-2.18,5.76s-1.3,3.75-1.79,5.58l-.79,2.69-.64,2.63-.62,2.53-.47,2.45-.47,2.33c-.14.76-.22,1.5-.35,2.22-.21,1.44-.47,2.8-.6,4l-.4,3.46c-.23,2.11-.31,3.81-.42,5Z"/><path class="cls-3" d="M136.3,574.54l-.1-4.4c-.07-2.87-.15-7.09-.13-12.46s.13-11.89.42-19.36.72-15.91,1.54-25.09,1.87-19.11,3.4-29.57,3.4-21.45,5.83-32.73,5.3-22.86,8.76-34.48,7.47-23.28,12-34.75c2.29-5.73,4.76-11.38,7.31-17s5.31-11.06,8.15-16.43A269,269,0,0,1,202.3,318c3.4-4.69,6.88-9.21,10.49-13.47s7.34-8.26,11.1-12,7.63-7.21,11.5-10.39a142.64,142.64,0,0,1,11.67-8.58,124.75,124.75,0,0,1,11.5-6.72c1.91-.91,3.74-1.86,5.6-2.62.92-.39,1.82-.8,2.72-1.17l2.68-1a96.84,96.84,0,0,1,18.78-5,90.35,90.35,0,0,1,12.43-1.12l4.41,0-4.4.24a104.88,104.88,0,0,0-12.27,1.78,95.45,95.45,0,0,0-18.28,5.79l-2.58,1.13c-.87.4-1.73.84-2.62,1.26-1.78.83-3.54,1.84-5.37,2.81-3.59,2.07-7.33,4.31-11,7A156.48,156.48,0,0,0,226.47,295c-3.6,3.77-7.15,7.78-10.6,12s-6.81,8.73-10.08,13.39S199.41,330,196.37,335s-5.89,10.22-8.71,15.51-5.42,10.73-8,16.23-4.9,11.11-7.15,16.78c-4.54,11.3-8.56,22.81-12,34.3s-6.56,22.9-9.09,34.06-4.69,22-6.43,32.36-3.12,20.19-4.21,29.29-1.91,17.48-2.51,24.91-1,13.93-1.28,19.28-.47,9.56-.54,12.43Z"/><path class="cls-5" d="M304.61,153.93c0,35.31,16.14,73.67-8.68,96.89-25,23.42-68.25,31.55-106.59,31.55-34.35,0-74.84-11-99-30.26C60.75,228.55,51.09,193,51.09,153.93,51.09,83,113,25.48,189.34,25.48c37.7,0,63.36,16.49,81.41,41.08C289.27,91.8,304.61,118,304.61,153.93Z"/><path d="M142.69,221.13c10.62,0,10.64-16.51,0-16.51s-10.64,16.51,0,16.51Z"/><path d="M220.77,221.13c10.62,0,10.64-16.51,0-16.51s-10.64,16.51,0,16.51Z"/><path class="cls-11" d="M30.1,145.42c-1.42,11.45-3.29,23-4.06,34.83-3.25,50.23-2.91,138.66.83,201.35.54,9.07,4.29,35.4,4.29,35.4l83.63,47.63S90.1,360.35,85.16,333.31C77.46,291.13,74.11,213.13,72.8,177c-1.46-1.06-2.94-1.92-4.39-3.16C52.58,160.4,47.66,160.29,30.1,145.42Z"/><path class="cls-11" d="M273.25,320.58c-3.09,29.3-20.6,144.05-20.6,144.05l79.63-74.91s2-28.21,1.9-37.68c-.33-46.46-5.71-140.19-8.82-190.85-24.1,7.22-31.29,11.61-48.37,16C277.63,212.07,277.56,279.78,273.25,320.58Z"/><path class="cls-11" d="M323.18,145.58C309.86,94.53,291,52.61,257.67,27c-11.88-9.12-26.76-16.14-42.15-20.77A140,140,0,0,0,176,0a104.27,104.27,0,0,0-12.83.85c-27,3.35-56.27,16.74-77,36.23C58.08,63.53,41.62,101.67,30.1,145.42a87.59,87.59,0,0,0,38.31,30c1.45.58,2.93,1,4.39,1.49,35,11.89,73.26.31,98.68-27.25a105.76,105.76,0,0,0,15.21-21.38c.75,1.69,1.5,3.37,2.35,5a88.67,88.67,0,0,0,45.86,42.14A87.29,87.29,0,0,0,277.77,181a96.28,96.28,0,0,0,47.58-19.77C324.08,151.75,323.18,145.58,323.18,145.58Z"/><ellipse cx="137.63" cy="194.1" rx="5.05" ry="1.42" transform="translate(-51.72 50) rotate(-17.39)"/><ellipse cx="226.44" cy="195.62" rx="1.42" ry="5.05" transform="translate(-46.33 318.66) rotate(-65.1)"/><path class="cls-12" d="M178.07,228.12a19.54,19.54,0,0,0,.43,8.55"/><path class="cls-12" d="M169.92,256.94a50.38,50.38,0,0,1,25.44,1.95"/><path class="cls-11" d="M320.24,143.84c-13.15-50.38-31.78-91.76-64.66-117C233.71,10,201.57.16,175,.16c-29.69,0-64.9,14.25-88.64,36.6C55.18,66.08,38.51,109.94,27,159.87c0,0-2.87,64.42.82,93.54.53,4.21,4.24,16.45,4.24,16.45L114.56,292S90.2,243.54,85.33,231a195,195,0,0,1-11.71-50.35c34.36,11.6,71.93.21,96.89-26.85A103.51,103.51,0,0,0,184.19,135l1.63-1.45c.63,1.4,1.26,2.8,2,4.16a87.2,87.2,0,0,0,45.1,41.44A85.85,85.85,0,0,0,275,184.55l.56-.08A191.55,191.55,0,0,1,271,230.64c-3.05,13.12-20.33,64.53-20.33,64.53l78.59-33.55s1.94-12.63,1.87-16.88C330.64,215.38,320.24,143.84,320.24,143.84Z"/></g></g></svg>