<svg xmlns="http://www.w3.org/2000/svg" viewBox="0 0 109.23 194.54"><defs><style>.cls-1{fill:#43b0ca;}</style></defs><title>namida</title><g id="Layer_2" data-name="Layer 2"><g id="人物"><path class="cls-1" d="M106.35,14.59,100,0,93.71,14.59l-2.89,6.67a9.2,9.2,0,0,0,18.41,0Z"/><path class="cls-1" d="M15.52,30.59,9.2,16,2.89,30.59,0,37.26a9.2,9.2,0,0,0,18.41,0Z"/><path class="cls-1" d="M106.35,110.34,100,95.74l-6.32,14.59L90.82,117a9.2,9.2,0,0,0,18.41,0Z"/><path class="cls-1" d="M106.35,178.67,100,164.08l-6.32,14.59-2.89,6.67a9.2,9.2,0,0,0,18.41,0Z"/><path class="cls-1" d="M15.52,77.36,9.2,62.77,2.89,77.36,0,84a9.2,9.2,0,0,0,18.41,0Z"/><path class="cls-1" d="M15.52,148.21,9.2,133.62,2.89,148.21,0,154.88a9.2,9.2,0,0,0,18.41,0Z"/></g></g></svg>