<svg xmlns="http://www.w3.org/2000/svg" xmlns:xlink="http://www.w3.org/1999/xlink" viewBox="0 0 115.62 184.93"><defs><style>.cls-1{fill:#fbebd8;}.cls-2{fill:url(#名称未設定グラデーション_95);}.cls-3{fill:url(#名称未設定グラデーション_91);}.cls-4{fill:url(#名称未設定グラデーション_91-2);}.cls-5{fill:none;stroke:#000;stroke-linecap:round;stroke-miterlimit:10;stroke-width:0.88px;}.cls-6{fill:#1a1a1a;}.cls-7{fill:#b3b3b3;}.cls-8,.cls-9{opacity:0.44;}.cls-8{fill:url(#名称未設定グラデーション_70);}.cls-9{fill:url(#名称未設定グラデーション_70-2);}</style><linearGradient id="名称未設定グラデーション_95" x1="57.81" y1="184.93" x2="57.81" y2="111.57" gradientUnits="userSpaceOnUse"><stop offset="0" stop-color="#ebd065"/><stop offset="0.01" stop-color="#e2cd68"/><stop offset="0.08" stop-color="#b3ba7a"/><stop offset="0.15" stop-color="#89a889"/><stop offset="0.22" stop-color="#649997"/><stop offset="0.3" stop-color="#458da3"/><stop offset="0.39" stop-color="#2b83ac"/><stop offset="0.49" stop-color="#187bb3"/><stop offset="0.6" stop-color="#0a75b8"/><stop offset="0.74" stop-color="#0272bb"/><stop offset="1" stop-color="#0071bc"/></linearGradient><linearGradient id="名称未設定グラデーション_91" x1="25.12" y1="164.05" x2="25.12" y2="111.57" gradientUnits="userSpaceOnUse"><stop offset="0" stop-color="#d3edf9"/><stop offset="0.29" stop-color="#dce3c4"/><stop offset="0.62" stop-color="#e4d991"/><stop offset="0.86" stop-color="#e9d271"/><stop offset="1" stop-color="#ebd065"/></linearGradient><linearGradient id="名称未設定グラデーション_91-2" x1="90.5" y1="164.05" x2="90.5" y2="111.57" xlink:href="#名称未設定グラデーション_91"/><radialGradient id="名称未設定グラデーション_70" cx="30.21" cy="568.65" r="8.09" gradientTransform="translate(0 -307.39) scale(1 0.72)" gradientUnits="userSpaceOnUse"><stop offset="0" stop-color="#df7261"/><stop offset="0.27" stop-color="#df7363" stop-opacity="0.99"/><stop offset="0.41" stop-color="#e07868" stop-opacity="0.95"/><stop offset="0.52" stop-color="#e28172" stop-opacity="0.89"/><stop offset="0.62" stop-color="#e58d80" stop-opacity="0.81"/><stop offset="0.71" stop-color="#e99d91" stop-opacity="0.69"/><stop offset="0.79" stop-color="#edb1a7" stop-opacity="0.56"/><stop offset="0.87" stop-color="#f2c8c1" stop-opacity="0.39"/><stop offset="0.94" stop-color="#f8e2de" stop-opacity="0.21"/><stop offset="1" stop-color="#fff" stop-opacity="0"/></radialGradient><radialGradient id="名称未設定グラデーション_70-2" cx="86.38" cy="568.93" r="8.09" xlink:href="#名称未設定グラデーション_70"/></defs><title>emperor_1</title><g id="Layer_2" data-name="Layer 2"><g id="人物"><ellipse class="cls-1" cx="57.21" cy="128.11" rx="4.6" ry="5.84" transform="translate(-73.83 77.98) rotate(-45)"/><path class="cls-1" d="M101.78,88.51c0,21.89-18.58,39.64-44.25,39.64S13.34,110.4,13.34,88.51,31.86,48.87,57.53,48.87,101.78,66.61,101.78,88.51Z"/><ellipse class="cls-1" cx="13.34" cy="95.17" rx="5.22" ry="6.67" transform="translate(-30.52 9.66) rotate(-19.18)"/><ellipse class="cls-1" cx="101.05" cy="95.17" rx="6.67" ry="5.22" transform="translate(-22.04 159.36) rotate(-70.82)"/><path class="cls-2" d="M112.13,162.44,94.78,111.57s-16,13.45-26.4,11.94l-10.56,8-10.56-8c-10.41,1.51-26.4-11.94-26.4-11.94L3.49,162.44c-6.94,23.69,54.32,22.48,54.32,22.48S119.08,186.13,112.13,162.44Z"/><ellipse class="cls-1" cx="47.35" cy="146.6" rx="4.6" ry="5.84" transform="translate(-89.79 76.42) rotate(-45)"/><ellipse class="cls-1" cx="68.19" cy="146.6" rx="5.84" ry="4.6" transform="translate(-83.69 91.16) rotate(-45)"/><path class="cls-3" d="M20.84,111.57s21.38,28.59,29.39,29.66c0,0-18.71,35.54-50.24,17.9Z"/><path class="cls-4" d="M94.77,111.57S73.4,140.16,65.38,141.23c0,0,18.71,35.54,50.24,17.9Z"/><path d="M42.34,97.69c3.21,0,3.22-5,0-5s-3.22,5,0,5Z"/><path d="M73.32,97.69c3.21,0,3.22-5,0-5s-3.22,5,0,5Z"/><path class="cls-5" d="M58.46,98.41a6.78,6.78,0,0,0,.15,3"/><path class="cls-5" d="M55.63,108.82a17.49,17.49,0,0,0,8.83-.68"/><path class="cls-6" d="M26.85,74.45C33.09,60.94,45,53.16,53.51,57.08A11.1,11.1,0,0,1,57,59.66a11.5,11.5,0,0,1,3.25-2.89c8.2-4.85,21,1.6,28.57,14.41a40.47,40.47,0,0,1,4,9.07l9.16.32c-4-14.21-9.72-25.87-19.79-33-6.69-4.74-16.53-7.52-24.67-7.52-9.09,0-19.86,4-27.12,10.32C20.88,58.64,15.78,71,12.25,85.08l11.57-1.34A41.27,41.27,0,0,1,26.85,74.45Z"/><ellipse cx="40.32" cy="84.58" rx="2.05" ry="0.58"/><ellipse cx="75.12" cy="84.58" rx="2.05" ry="0.58"/><path class="cls-7" d="M67,34H49.38a17.89,17.89,0,0,0-5,12.74H72.05A17.89,17.89,0,0,0,67,34Z"/><path class="cls-7" d="M38.21,26.78s2.45-.41,6.13-.7c1.84-.16,4-.29,6.28-.38,1.15,0,2.34-.1,3.54-.11l3.66,0,3.66,0c1.21,0,2.39.07,3.54.1,2.3.09,4.44.22,6.28.38,3.68.29,6.13.71,6.13.71s-2.45.41-6.13.71c-1.84.16-4,.29-6.28.38-1.15,0-2.34.1-3.54.1l-3.66,0-3.66,0c-1.21,0-2.39-.07-3.54-.11-2.3-.09-4.44-.22-6.28-.38C40.66,27.19,38.21,26.78,38.21,26.78Z"/><path class="cls-7" d="M65.3,15.19c0,12.87-3.05,23.31-6.81,23.31s-6.81-10.44-6.81-23.31S54.73,0,58.49,0,65.3,2.32,65.3,15.19Z"/><ellipse class="cls-8" cx="30.21" cy="101.24" rx="8.09" ry="5.81"/><ellipse class="cls-9" cx="86.38" cy="101.44" rx="8.09" ry="5.81"/></g></g></svg>