<svg xmlns="http://www.w3.org/2000/svg" xmlns:xlink="http://www.w3.org/1999/xlink" viewBox="0 0 377.03 377.03"><defs><style>.cls-1{fill:url(#名称未設定グラデーション_2);}.cls-2{fill:#f6e600;}.cls-3{fill:#c6b309;}.cls-4{fill:#e2cc03;}</style><radialGradient id="名称未設定グラデーション_2" cx="188.52" cy="188.52" r="188.52" gradientUnits="userSpaceOnUse"><stop offset="0" stop-color="#f6e600" stop-opacity="0.5"/><stop offset="0.43" stop-color="#f6e604" stop-opacity="0.49"/><stop offset="0.59" stop-color="#f7e812" stop-opacity="0.46"/><stop offset="0.7" stop-color="#f7ea2a" stop-opacity="0.42"/><stop offset="0.79" stop-color="#f9ee4e" stop-opacity="0.35"/><stop offset="0.86" stop-color="#faf27b" stop-opacity="0.26"/><stop offset="0.93" stop-color="#fcf8b3" stop-opacity="0.15"/><stop offset="0.99" stop-color="#fffef5" stop-opacity="0.02"/><stop offset="1" stop-color="#fff" stop-opacity="0"/></radialGradient></defs><title>tsuki</title><g id="Layer_2" data-name="Layer 2"><g id="オブジェクト"><path class="cls-1" d="M377,188.52C377,255.7,342.91,324.6,290,358c-29.09,18.36-64.55,19-101.49,19-39,0-82-16.62-112.12-36.95C26.25,306.21,0,253.59,0,188.52,0,126.58,28.21,65.33,74.34,31c31.4-23.4,72-31,114.18-31,69.22,0,125.8,31,158.58,86.56C363.62,114.59,377,153.62,377,188.52Z"/><path class="cls-2" d="M317.95,188.52c0,46.12-23.43,93.43-59.75,116.35-20,12.6-44.32,13.08-69.68,13.08-26.81,0-56.32-11.41-77-25.37-34.43-23.26-52.45-59.38-52.45-104.06,0-42.53,19.37-84.57,51-108.17,21.56-16.06,49.44-21.26,78.39-21.26,47.52,0,86.37,21.25,108.87,59.43C308.74,137.76,317.95,164.56,317.95,188.52Z"/><path class="cls-3" d="M247.45,99.4c0,6.9-3.51,14-8.94,17.41-3,1.89-6.63,2-10.43,2a22,22,0,0,1-11.52-3.8c-5.15-3.48-7.85-8.89-7.85-15.57,0-6.36,2.9-12.65,7.64-16.18,3.23-2.4,7.4-3.18,11.73-3.18,7.11,0,12.92,3.18,16.29,8.89A22.07,22.07,0,0,1,247.45,99.4Z"/><path class="cls-4" d="M244.43,97.85c0,5.83-3,11.8-7.55,14.7-2.52,1.59-5.6,1.65-8.8,1.65a18.58,18.58,0,0,1-9.72-3.2c-4.35-2.94-6.63-7.5-6.63-13.15a17.27,17.27,0,0,1,6.45-13.66c2.72-2,6.25-2.69,9.9-2.69,6,0,10.91,2.68,13.75,7.51A18.63,18.63,0,0,1,244.43,97.85Z"/><path class="cls-4" d="M279.22,133.8c-2.06,2.06-6.26,2.09-10.53-.13-2.35-1.22-4.55-3.37-6.82-5.63a32.62,32.62,0,0,1-5.75-8c-2-4.11-2-7.34-.05-9.33s5.5-2.05,9.39-.28a29.55,29.55,0,0,1,8,6c4.25,4.24,6.78,8.65,7.09,12.37C280.66,130.71,280.29,132.73,279.22,133.8Z"/><path class="cls-3" d="M247.7,131.41c-2.06,2.06-4.88,3.46-7,3.38a4.08,4.08,0,0,1-2.72-1.54,5.17,5.17,0,0,1-1.23-3.48,9,9,0,0,1,3-6.26,10.54,10.54,0,0,1,6.39-3.28,4.37,4.37,0,0,1,3.35,1.44c1.46,1.45,1.7,3.59.68,6A12.65,12.65,0,0,1,247.7,131.41Z"/></g></g></svg>