<svg xmlns="http://www.w3.org/2000/svg" viewBox="0 0 1016.93 197.01"><defs><style>.cls-1{fill:#211c36;}</style></defs><title>yama</title><g id="Layer_2" data-name="Layer 2"><g id="オブジェクト"><path class="cls-1" d="M703.61,124.9c-22-42.08-45.95-85.36-85.57-113.23C607.28,4.11,593.94-2.4,581,.86c-14,3.54-22.2,17-28.88,29.31l-18.49,34c-2.89,5.32-6.33,11.11-12.28,13-3.45,1.11-7.23.7-10.75-.19-14.8-3.71-26-14.95-37.2-24.88s-24.94-19.48-40.2-18.45c-15.89,1.08-28.35,13.3-37.58,25.71C365.76,99.57,353.05,148.69,342,197H740.41Q722.34,160.81,703.61,124.9Z"/><path class="cls-1" d="M361.56,124.9C339.6,82.83,315.62,39.54,276,11.68,265.23,4.11,251.89-2.4,239,.86c-14,3.54-22.2,17-28.88,29.31l-18.49,34c-2.89,5.32-6.33,11.11-12.28,13-3.45,1.11-7.23.7-10.75-.19-14.8-3.71-26-14.95-37.2-24.88s-24.94-19.48-40.2-18.45C75.27,34.75,62.81,47,53.58,59.38,23.71,99.57,11,148.69,0,197H398.36Q380.29,160.81,361.56,124.9Z"/><path class="cls-1" d="M980.14,124.9c-22-42.08-45.95-85.36-85.57-113.23C883.81,4.11,870.46-2.4,857.55.86c-14,3.54-22.2,17-28.88,29.31l-18.49,34c-2.89,5.32-6.33,11.11-12.28,13-3.45,1.11-7.23.7-10.75-.19-14.8-3.71-26-14.95-37.2-24.88S725,32.64,709.74,33.67c-15.89,1.08-28.35,13.3-37.58,25.71C642.28,99.57,629.58,148.69,618.57,197h398.36Q998.86,160.81,980.14,124.9Z"/></g></g></svg>