<svg xmlns="http://www.w3.org/2000/svg" viewBox="0 0 374.08 135.47"><defs><style>.cls-1{fill:#f2f2f2;opacity:0.74;}</style></defs><title>kumo-migi</title><g id="Layer_2" data-name="Layer 2"><g id="オブジェクト"><path class="cls-1" d="M306.48,101.61h-59a8.47,8.47,0,1,1,0-16.93h8.2v-.2a16.92,16.92,0,0,0-2.45-33.67h-5.75a8.47,8.47,0,1,1,0-16.93H357.14a16.93,16.93,0,1,0,0-33.87H120.86a16.93,16.93,0,0,0,0,33.87h2a8.47,8.47,0,0,1,0,16.93H16.93a16.93,16.93,0,0,0,0,33.87H71.69a8.47,8.47,0,0,1,0,16.93H68.2v.13a16.93,16.93,0,0,0,2,33.74H306.48a16.93,16.93,0,1,0,0-33.87Z"/></g></g></svg>