<svg xmlns="http://www.w3.org/2000/svg" viewBox="0 0 320.25 941.33"><defs><style>.cls-1{fill:#211c36;}</style></defs><title>kusa</title><g id="Layer_2" data-name="Layer 2"><g id="オブジェクト"><path class="cls-1" d="M138.41,440.46s-1.61-1.91-3.92-4.84c-1.15-1.47-2.5-3.17-3.92-5s-2.89-3.84-4.37-5.84c-.74-1-1.52-2-2.29-2.92a31.42,31.42,0,0,1-2.15-2.87,30.48,30.48,0,0,1-2.75-5.75c-.33-.89-.59-1.73-.79-2.49s-.36-1.44-.46-2a15.55,15.55,0,0,1-.25-1.85l.5-.31a15.59,15.59,0,0,1,1.55,1c.47.34,1,.78,1.6,1.3S122.4,410,123,410.7a30.48,30.48,0,0,1,3.95,5,31.38,31.38,0,0,1,1.62,3.2c.51,1.12,1,2.24,1.6,3.35,1.13,2.21,2.29,4.4,3.3,6.5s2,4.05,2.78,5.73c1.6,3.37,2.61,5.66,2.61,5.66Z"/><path class="cls-1" d="M108.71,434.24s.08-1.67.28-4.15c.09-1.24.2-2.69.35-4.24s.33-3.19.51-4.84.17-3.33.45-4.85a19.43,19.43,0,0,1,1.3-4.05,18.89,18.89,0,0,1,1.48-2.76,9.6,9.6,0,0,1,.75-1l.41.08a9.57,9.57,0,0,1,.31,1.22,18.91,18.91,0,0,1,.33,3.11,19.41,19.41,0,0,1-.33,4.24c-.33,1.51-1,3.06-1.43,4.66s-.9,3.19-1.37,4.67-.9,2.87-1.29,4.06c-.76,2.37-1.32,3.94-1.32,3.94Z"/><path class="cls-1" d="M140.69,415.63s-1.54-.63-3.81-1.66c-1.14-.5-2.47-1.09-3.88-1.75s-2.9-1.38-4.39-2.1-3.08-1.28-4.42-2.05a19.42,19.42,0,0,1-3.38-2.59,18.88,18.88,0,0,1-2.1-2.32,9.59,9.59,0,0,1-.7-1l.21-.36a9.54,9.54,0,0,1,1.25.12,18.89,18.89,0,0,1,3,.74,19.41,19.41,0,0,1,3.89,1.74c1.31.82,2.55,2,3.91,2.91s2.7,1.92,3.94,2.86,2.4,1.81,3.39,2.58c2,1.51,3.27,2.57,3.27,2.57Z"/><path class="cls-1" d="M0,941.33l.4-2.68c.27-1.76.64-4.39,1.2-7.79C2.72,924,4.29,914,6.55,901.35s5.06-28.08,8.5-45.7,7.49-37.46,12.14-59.06S37.11,751.64,43,727s12.31-50.54,19.34-77.26c3.46-13.37,7.16-26.92,10.94-40.63L79,588.46l6-20.83c4.09-13.92,8.16-28,12.5-42s8.7-28.12,13.2-42.16c9.1-28.06,18.49-56,28.36-83.37l7.41-20.4,7.6-20.1c5.11-13.3,10.21-26.42,15.48-39.23,10.44-25.66,21.17-50.22,32-73.24,2.67-5.76,5.42-11.4,8.12-17s5.4-11,8.11-16.34,5.45-10.55,8.12-15.67,5.39-10.1,8.06-15c10.73-19.45,21.28-36.9,31.27-51.94l3.69-5.55c1.22-1.81,2.48-3.56,3.68-5.29,2.44-3.45,4.69-6.82,7.08-9.92l6.73-9,6.38-8c2-2.55,4-4.85,5.89-7s3.62-4.25,5.32-6.1c3.45-3.67,6.29-6.84,8.73-9.3l7.58-7.41-6.54,8.32c-2.12,2.71-4.56,6.2-7.52,10.2-1.47,2-2.91,4.28-4.53,6.62s-3.37,4.82-5.05,7.55l-5.45,8.51-5.74,9.49c-1,1.64-2,3.33-3,5.09l-3.05,5.32c-1,1.81-2.11,3.63-3.15,5.51L273.09,136c-8.53,15.63-17.58,33.58-26.83,53.45-4.62,9.94-9.35,20.33-14,31.18-2.32,5.44-4.78,10.92-7.11,16.56s-4.79,11.33-7.13,17.16c-9.55,23.24-19.12,48-28.68,73.69Q182.2,347.37,175,367.34t-14.11,40.45c-9.29,27.29-18.57,55.09-27.49,83q-6.81,20.9-13.32,41.85l-12.94,41.62L94.69,615.32l-12,40.14c-7.82,26.38-15.34,51.9-22.37,76.14L40.57,799.95Z"/><path class="cls-1" d="M7.67,825.94l1-9c.73-5.85,1.74-14.43,3.27-25.32s3.34-24.13,5.72-39.26l3.81-24.11c1.35-8.49,2.93-17.38,4.52-26.68l5.14-29C33,662.62,35,652.3,37,641.69c4.14-21.21,8.68-43.55,13.72-66.59q3.74-17.29,7.86-35t8.5-35.81c5.84-24.07,12.19-48.43,18.82-72.72S99.6,383.07,107,359.4l5.56-17.66,5.71-17.43L124,307.15c2-5.67,3.91-11.3,5.91-16.86,7.92-22.27,16.09-43.61,24.34-63.66l3.09-7.46,3.12-7.32,3.08-7.2,3.14-7,3.11-6.92,3.14-6.76,3.09-6.63,3.11-6.46c2.05-4.26,4.07-8.43,6.13-12.47s4-8,6.05-11.8c4-7.64,8-14.78,11.78-21.48,7.58-13.38,14.88-24.64,21-33.8,3.16-4.52,5.88-8.62,8.5-12s4.68-6.38,6.56-8.66l5.66-7.05L240,71.13c-3.2,4.94-7.65,12.33-13.11,21.82s-11.61,21.29-18.31,35c-3.3,6.87-6.78,14.19-10.25,22-1.77,3.88-3.52,7.91-5.33,12s-3.61,8.33-5.42,12.65l-2.75,6.55-2.72,6.72-2.76,6.85-2.72,7-2.78,7.12L171,216.1l-2.79,7.37L165.48,231c-7.42,20.17-14.82,41.59-22.14,63.87l-5.46,16.87-5.43,17.15q-5.33,17.31-10.66,35c-7,23.62-13.92,47.69-20.51,71.85s-13,48.36-19.21,72.25l-9,35.53-8.59,34.74c-5.57,22.83-10.84,44.94-15.76,65.92l-7.13,30.58L35,703.39,23.66,753.5l-8.58,38.69Z"/><path class="cls-1" d="M32.29,467.44l-1.62-6.52c-.54-2.12-1.08-4.77-1.72-7.9-.31-1.56-.7-3.25-1-5.05l-1-5.75a284.18,284.18,0,0,1-3.12-29.57,346.68,346.68,0,0,1,.09-38.7,399.85,399.85,0,0,1,5.31-45.58A465.62,465.62,0,0,1,41,278.45c2.54-8.53,5.28-17.16,8.4-25.77,1.49-4.33,3.16-8.63,4.78-13,.8-2.17,1.72-4.3,2.58-6.47s1.73-4.33,2.66-6.47c1.83-4.3,3.66-8.62,5.62-12.9s3.94-8.56,6-12.83c4.19-8.48,8.5-16.95,13.13-25.25a499.86,499.86,0,0,1,30.32-47.93q8.17-11.43,16.9-22.13c5.85-7.09,11.69-14,17.84-20.53s12.22-12.85,18.55-18.69,12.63-11.44,19-16.61c3.22-2.55,6.38-5.07,9.61-7.43s6.4-4.67,9.58-6.87c6.43-4.3,12.72-8.34,19-11.81s12.44-6.57,18.38-9.29,11.76-4.92,17.31-6.7A155.18,155.18,0,0,1,289.89,1c2.07-.22,4-.53,5.84-.64L300.9.08C304.11,0,306.84,0,309,0s3.89.22,5,.28l1.71.1-6.63,1c-2.14.41-4.78.89-7.85,1.57l-4.9,1.23c-1.75.4-3.56,1-5.49,1.56a176.52,176.52,0,0,0-26.75,10.64c-2.51,1.17-5,2.58-7.61,3.93s-5.18,3-7.87,4.49c-5.27,3.28-10.8,6.71-16.29,10.73a312.25,312.25,0,0,0-33.77,28c-5.62,5.4-11.35,11-16.89,17-2.82,3-5.54,6.09-8.37,9.16l-4.13,4.75q-2.09,2.38-4.11,4.85L161,104.19l-4,5c-1.37,1.67-2.69,3.39-4,5.12s-2.68,3.44-4,5.2c-2.61,3.53-5.26,7-7.8,10.69s-5.14,7.26-7.69,10.93q-7.52,11.13-14.68,22.71l-1.8,2.89-1.75,2.92-3.49,5.85c-2.25,4-4.56,7.88-6.73,11.88C96.1,203.29,88,219.65,80.65,236c-3.62,8.2-7.15,16.38-10.39,24.55S64,276.88,61.11,284.92c-5.6,16.15-10.41,32-14.31,47.2Q45.36,337.83,44,343.4c-.81,3.73-1.68,7.39-2.42,11-1.53,7.23-2.84,14.27-3.95,21C35.41,389,34,401.57,33.05,412.75c-.2,2.8-.44,5.51-.59,8.13l-.39,7.58c-.12,2.43-.14,4.77-.21,7l-.1,3.28q0,1.6,0,3.12c0,4.05,0,7.68,0,10.83s.09,5.85.23,8Z"/><path class="cls-1" d="M13.39,562.57s0-.46,0-1.36,0-2.22.06-4l.16-2.9c0-1.07.13-2.24.26-3.49s.22-2.61.38-4l.6-4.57c.93-6.43,2.3-14.22,4.39-23s4.77-18.66,8.08-29.29S34.56,467.92,39,456s9.49-24.37,15-37.11c2.71-6.39,5.59-12.82,8.53-19.32L67,389.78,71.68,380c6.24-13.15,12.9-26.35,19.68-39.48s13.88-26.1,21.06-38.75l5.37-9.45,5.43-9.29c3.63-6.14,7.21-12.2,10.86-18.1,7.23-11.82,14.45-23.11,21.49-33.7s13.95-20.43,20.52-29.39,12.84-17,18.63-23.94,11.12-12.78,15.72-17.39a88.59,88.59,0,0,1,11.4-9.92,31,31,0,0,1,3.38-2.1l1.2-.63-1.07.84a39,39,0,0,0-2.93,2.6,105.24,105.24,0,0,0-9.6,11.31c-3.87,5.09-8.26,11.52-13.16,19s-10.23,16-15.9,25.41-11.72,19.67-18,30.58S153,260,146.29,272l-10.1,18.33L126,309.2c-6.81,12.72-13.73,25.63-20.47,38.65s-13.44,26-19.95,38.9L76,405.93l-9.14,18.8c-5.94,12.38-11.58,24.38-16.76,35.84S40.17,482.92,36,493.06c-8.41,20.27-14.51,37.51-18,49.84-1.73,6.17-2.89,11.08-3.59,14.45Z"/><path class="cls-1" d="M75.77,78.64S78.87,80,83.44,82c2.28,1,4.95,2.27,7.77,3.62S97,88.49,100,90c1.5.74,3,1.43,4.54,2.09a42.25,42.25,0,0,1,4.34,2.12,31.4,31.4,0,0,1,3.71,2.56c1.14.88,2.18,1.78,3.11,2.65s1.76,1.71,2.47,2.5,1.3,1.52,1.78,2.13.84,1.13,1.07,1.49.36.57.36.57l-.41.68s-.24,0-.67,0-1.05-.11-1.82-.25-1.7-.3-2.72-.58-2.16-.59-3.37-1-2.49-.91-3.8-1.5a31.44,31.44,0,0,1-4-2.07,42.26,42.26,0,0,1-3.91-2.84c-1.3-1-2.62-2.05-4-3-2.71-2-5.44-3.87-7.94-5.76S84,86,82,84.51c-4-3.06-6.59-5.18-6.59-5.18Z"/><path class="cls-1" d="M84.24,118.62s2.1-.79,5.28-1.87c1.59-.54,3.44-1.17,5.43-1.8s4.12-1.29,6.26-1.94c1.07-.33,2.12-.69,3.16-1.06a26.93,26.93,0,0,1,3.08-1,26.15,26.15,0,0,1,5.7-.53c.85,0,1.64,0,2.35.12s1.33.15,1.84.25a13.67,13.67,0,0,1,1.64.39l.12.55a13.66,13.66,0,0,1-1.34,1c-.43.3-1,.63-1.58,1s-1.32.72-2.1,1.07a26.16,26.16,0,0,1-5.43,1.84,26.88,26.88,0,0,1-3.2.38c-1.1.08-2.21.18-3.32.32-2.21.27-4.42.58-6.5.78s-4,.41-5.7.57c-3.34.3-5.58.44-5.58.44Z"/><path class="cls-1" d="M108.31,73.13s1.45,1.72,3.54,4.34c1,1.32,2.26,2.85,3.52,4.51s2.6,3.45,3.93,5.24c.66.89,1.37,1.77,2.07,2.62a26.91,26.91,0,0,1,1.94,2.58,26.16,26.16,0,0,1,2.42,5.19c.28.8.51,1.56.68,2.25s.3,1.3.38,1.82a13.67,13.67,0,0,1,.19,1.68l-.48.29a13.69,13.69,0,0,1-1.42-.92c-.43-.31-.92-.7-1.46-1.16s-1.12-1-1.71-1.61a26.15,26.15,0,0,1-3.56-4.49,26.87,26.87,0,0,1-1.44-2.89c-.45-1-.91-2-1.42-3-1-2-2-4-2.92-5.86s-1.74-3.65-2.45-5.17c-1.41-3-2.29-5.11-2.29-5.11Z"/><path class="cls-1" d="M195.84,404.37s-1.12-3.17-2.65-8c-.76-2.39-1.65-5.19-2.55-8.19s-1.82-6.21-2.75-9.42c-.46-1.6-1-3.2-1.51-4.76a42.24,42.24,0,0,1-1.35-4.64,31.37,31.37,0,0,1-.6-4.47c-.11-1.44-.15-2.81-.13-4.08s.08-2.46.18-3.51.24-2,.37-2.75.27-1.38.38-1.8.18-.65.18-.65l.78-.16s.16.18.41.53.63.86,1,1.51.92,1.46,1.4,2.4,1,2,1.52,3.17,1,2.45,1.45,3.82a31.39,31.39,0,0,1,1.16,4.36,42.18,42.18,0,0,1,.53,4.8c.11,1.65.25,3.32.44,5,.38,3.32.8,6.63,1.08,9.75s.57,6,.79,8.54c.42,5,.61,8.36.61,8.36Z"/><path class="cls-1" d="M211.06,378.29s-1.65-1.53-4-3.88c-1.19-1.18-2.58-2.55-4-4.05s-3-3.11-4.53-4.73c-.77-.81-1.57-1.59-2.37-2.35a26.91,26.91,0,0,1-2.23-2.32,26.13,26.13,0,0,1-3-4.86c-.38-.76-.69-1.49-.94-2.16s-.46-1.26-.6-1.76a13.71,13.71,0,0,1-.39-1.64l.44-.35a13.68,13.68,0,0,1,1.52.74c.46.25,1,.58,1.59,1s1.23.86,1.89,1.4a26.15,26.15,0,0,1,4.07,4,26.88,26.88,0,0,1,1.77,2.69c.57.95,1.15,1.9,1.77,2.83,1.23,1.86,2.49,3.69,3.61,5.47s2.17,3.42,3.06,4.84c1.77,2.85,2.89,4.79,2.89,4.79Z"/><path class="cls-1" d="M228.59,131.65s1.56.66,3.87,1.72c1.16.52,2.51,1.13,3.93,1.82s2.94,1.43,4.45,2.18,3.12,1.34,4.48,2.13a20.69,20.69,0,0,1,3.44,2.63,19.93,19.93,0,0,1,2.15,2.34,10,10,0,0,1,.72,1l-.21.35a10,10,0,0,1-1.26-.15,20,20,0,0,1-3.07-.8,20.69,20.69,0,0,1-3.94-1.81c-1.34-.83-2.6-2-4-3s-2.75-2-4-2.91-2.45-1.84-3.45-2.62c-2-1.53-3.34-2.61-3.34-2.61Z"/><path class="cls-1" d="M245,128.87s.73.87,1.78,2.2,2.44,3.1,3.77,4.92c.66.91,1.45,1.74,2,2.62a13,13,0,0,1,1.22,2.62,10.74,10.74,0,0,1,.63,2.9l-.24.15a10.73,10.73,0,0,1-2.31-1.87,13,13,0,0,1-1.8-2.27c-.54-.9-.92-2-1.44-3-1-2-2-4-2.71-5.58s-1.17-2.57-1.17-2.57Z"/><path class="cls-1" d="M96.5,293.51s1.58-1.63,4-4c1.22-1.18,2.63-2.56,4.18-4s3.21-3,4.87-4.49c.83-.76,1.64-1.55,2.42-2.34a27.18,27.18,0,0,1,2.39-2.21,26.43,26.43,0,0,1,5-3c.78-.37,1.52-.67,2.2-.91s1.28-.44,1.79-.57a13.85,13.85,0,0,1,1.67-.36l.34.45a13.82,13.82,0,0,1-.78,1.52c-.26.46-.61,1-1,1.58s-.89,1.23-1.45,1.89a26.44,26.44,0,0,1-4.15,4,27.23,27.23,0,0,1-2.75,1.74c-1,.55-1.94,1.13-2.89,1.73-1.9,1.21-3.78,2.44-5.6,3.54s-3.5,2.13-5,3c-2.92,1.73-4.9,2.83-4.9,2.83Z"/><path class="cls-1" d="M91.07,272.47s2.16-.7,5.42-1.64c1.63-.47,3.53-1,5.57-1.57s4.23-1.11,6.41-1.67c1.09-.28,2.18-.6,3.24-.93a27.22,27.22,0,0,1,3.15-.82,26.43,26.43,0,0,1,5.79-.27c.86,0,1.66.13,2.37.23s1.33.22,1.85.34a13.84,13.84,0,0,1,1.64.47l.09.56a13.83,13.83,0,0,1-1.4,1c-.45.28-1,.59-1.64.92s-1.37.66-2.17,1a26.45,26.45,0,0,1-5.57,1.6,27.22,27.22,0,0,1-3.25.24c-1.11,0-2.24.08-3.37.17-2.25.17-4.49.38-6.6.48s-4.09.23-5.78.31c-3.39.15-5.66.19-5.66.19Z"/></g></g></svg>