<svg xmlns="http://www.w3.org/2000/svg" xmlns:xlink="http://www.w3.org/1999/xlink" viewBox="0 0 62.78 93.98"><defs><style>.cls-1,.cls-14{fill:none;}.cls-2{fill:#e2489f;}.cls-3{fill:#43b0ca;}.cls-4{fill:#e6e6e6;}.cls-5{fill:#fbebd8;}.cls-6{fill:#ff7bac;}.cls-7{fill:#325f67;}.cls-8{fill:url(#新規パターン_4);}.cls-9{fill:#fff;}.cls-10{fill:url(#新規パターン_4-3);}.cls-11,.cls-12{opacity:0.54;}.cls-11{fill:url(#名称未設定グラデーション_18);}.cls-12{fill:url(#名称未設定グラデーション_18-2);}.cls-13{fill:#1a1a1a;}.cls-14{stroke:#000;stroke-linecap:round;stroke-miterlimit:10;stroke-width:0.36px;}</style><pattern id="新規パターン_4" data-name="新規パターン 4" width="30.19" height="28.48" patternTransform="matrix(-0.66, -0.27, -0.27, 0.66, 22.08, 38.83)" patternUnits="userSpaceOnUse" viewBox="0 0 30.19 28.48"><rect class="cls-1" width="30.19" height="28.48"/><rect class="cls-2" y="22.79" width="30.19" height="4.18"/><rect class="cls-3" y="26.96" width="30.19" height="1.52"/><rect class="cls-2" y="17.09" width="30.19" height="4.18"/><rect class="cls-3" y="21.27" width="30.19" height="1.52"/><rect class="cls-2" y="11.39" width="30.19" height="4.18"/><rect class="cls-3" y="15.57" width="30.19" height="1.52"/><rect class="cls-2" y="5.7" width="30.19" height="4.18"/><rect class="cls-3" y="9.87" width="30.19" height="1.52"/><rect class="cls-2" width="30.19" height="4.18"/><rect class="cls-3" y="4.18" width="30.19" height="1.52"/></pattern><pattern id="新規パターン_4-3" data-name="新規パターン 4" width="30.19" height="28.48" patternTransform="translate(39.18 45.82) rotate(22.23) scale(0.72)" patternUnits="userSpaceOnUse" viewBox="0 0 30.19 28.48"><rect class="cls-1" width="30.19" height="28.48"/><rect class="cls-2" y="22.79" width="30.19" height="4.18"/><rect class="cls-3" y="26.96" width="30.19" height="1.52"/><rect class="cls-2" y="17.09" width="30.19" height="4.18"/><rect class="cls-3" y="21.27" width="30.19" height="1.52"/><rect class="cls-2" y="11.39" width="30.19" height="4.18"/><rect class="cls-3" y="15.57" width="30.19" height="1.52"/><rect class="cls-2" y="5.7" width="30.19" height="4.18"/><rect class="cls-3" y="9.87" width="30.19" height="1.52"/><rect class="cls-2" width="30.19" height="4.18"/><rect class="cls-3" y="4.18" width="30.19" height="1.52"/></pattern><radialGradient id="名称未設定グラデーション_18" cx="28.14" cy="-58.33" r="4.07" gradientTransform="matrix(0, 1, -0.72, 0, -12.08, -0.17)" gradientUnits="userSpaceOnUse"><stop offset="0" stop-color="#ff7bac"/><stop offset="0.37" stop-color="#ff7cad" stop-opacity="0.99"/><stop offset="0.51" stop-color="#ff7faf" stop-opacity="0.97"/><stop offset="0.6" stop-color="#ff86b3" stop-opacity="0.92"/><stop offset="0.68" stop-color="#ff8eb8" stop-opacity="0.85"/><stop offset="0.75" stop-color="#ff9abf" stop-opacity="0.77"/><stop offset="0.8" stop-color="#ffa8c8" stop-opacity="0.66"/><stop offset="0.86" stop-color="#ffb9d3" stop-opacity="0.53"/><stop offset="0.91" stop-color="#ffccdf" stop-opacity="0.39"/><stop offset="0.95" stop-color="#ffe3ed" stop-opacity="0.22"/><stop offset="0.99" stop-color="#fffafc" stop-opacity="0.04"/><stop offset="1" stop-color="#fff" stop-opacity="0"/></radialGradient><radialGradient id="名称未設定グラデーション_18-2" cx="48.04" cy="-57.75" r="4.07" gradientTransform="matrix(0, 1, -0.72, 0, 6.6, -12.16)" xlink:href="#名称未設定グラデーション_18"/></defs><title>hime</title><g id="Layer_2" data-name="Layer 2"><g id="人物"><path class="cls-3" d="M5,84c1.37-8.2,4.86-16.51,10.36-22.53a12.21,12.21,0,0,1,5.18-3.27l5,4.31a24,24,0,0,0-3.66,2,26.73,26.73,0,0,0-7.4,6.18,27.47,27.47,0,0,0-6,14.11Z"/><path class="cls-3" d="M24.52,92c1.37-8.2,4.86-16.51,10.36-22.53a12.21,12.21,0,0,1,5.18-3.27l5,4.31a24,24,0,0,0-3.66,2A26.73,26.73,0,0,0,34,78.67a27.47,27.47,0,0,0-6,14.11Z"/><polygon class="cls-4" points="8.41 85.99 0.04 84.5 0.2 82.7 8.56 84.19 8.41 85.99"/><polygon class="cls-4" points="27.95 93.98 19.59 92.48 19.74 90.69 28.11 92.18 27.95 93.98"/><ellipse class="cls-5" cx="4.4" cy="53.32" rx="2.3" ry="1.81" transform="translate(-46.62 37.22) rotate(-67.77)"/><path class="cls-6" d="M0,77.64S8,55.35,6.4,53.2c-.54-.72-3.3-1.49-3.3-1.49C8,39.78,17.28,27.71,24.49,30.66l-2.31,6.87c-1.2,2.24-1,1.52-2.33,4.11C19.3,42.76,5,78.76,5,78.76S4.29,78.53,0,77.64Z"/><ellipse class="cls-5" cx="51.01" cy="72.36" rx="2.3" ry="1.81" transform="translate(-35.27 92.21) rotate(-67.77)"/><path class="cls-6" d="M37,92.76s9.89-21.53,12.55-21.93c.9-.14,3.4,1.25,3.4,1.25,4.88-11.93,6.69-27.06-.52-30l-3.17,6.52c-.71,2.44-.32,1.82-1.21,4.56C47.64,54.34,32.61,90,32.61,90S33.3,90.39,37,92.76Z"/><path class="cls-6" d="M35.85,89.72C36.51,92.9.45,78.16,3.22,76.39.45,78.16,21,26.11,21.85,29.29c-.81-3.18,36.77,12.18,34,13.89C58.62,41.47,36.51,92.9,35.85,89.72Z"/><path class="cls-7" d="M33.72,46.92s-.09-.33-.22-.9L33,43.68c-.25-1-.52-2.07-.88-3.24-.17-.59-.38-1.18-.58-1.78s-.45-1.2-.69-1.79-.51-1.18-.81-1.73-.6-1.09-.92-1.6-.65-1-1-1.4-.7-.8-1-1.17-.66-.66-1-.89-.57-.49-.82-.63l-.76-.52s.32.09.89.26a7.5,7.5,0,0,1,1,.42,9.76,9.76,0,0,1,1.21.72,10.63,10.63,0,0,1,1.28,1.07,11.29,11.29,0,0,1,1.25,1.39c.21.25.38.53.57.8a6.41,6.41,0,0,1,.53.86c.34.59.63,1.21.92,1.83s.5,1.27.69,1.92a18.09,18.09,0,0,1,.49,1.9c.16.62.22,1.23.31,1.8s.12,1.12.16,1.63a21.77,21.77,0,0,1,0,2.44C33.75,46.58,33.72,46.92,33.72,46.92Z"/><path class="cls-8" d="M33.57,47.3s0-.35.06-1c0-.3.06-.68.06-1.1s0-.88,0-1.39,0-1.06-.1-1.64-.13-1.18-.25-1.8-.29-1.24-.43-1.88a16.47,16.47,0,0,0-.66-1.87,15.58,15.58,0,0,0-.83-1.79,17.37,17.37,0,0,0-1-1.61,16.19,16.19,0,0,0-1.13-1.39c-.41-.39-.78-.79-1.18-1.1A11.29,11.29,0,0,0,27,29.94a8.93,8.93,0,0,0-.92-.56l-.85-.44,1,.18a6.16,6.16,0,0,1,1.07.34,7.74,7.74,0,0,1,1.33.63,10.62,10.62,0,0,1,1.44,1,11,11,0,0,1,1.39,1.39,12.63,12.63,0,0,1,1.24,1.7,16.58,16.58,0,0,1,1,1.94,17.89,17.89,0,0,1,.67,2.05,15.48,15.48,0,0,1,.34,2.06,11.88,11.88,0,0,1,.07,1.94,12.51,12.51,0,0,1-.15,1.72,12.34,12.34,0,0,1-.29,1.43,7.06,7.06,0,0,1-.32,1.06C33.7,47,33.57,47.3,33.57,47.3Z"/><path class="cls-9" d="M33.7,47.62s.09-.34.27-.92a7.69,7.69,0,0,0,.28-1c.07-.41.22-.84.26-1.34a15,15,0,0,0,.16-1.61l0-.87c0-.3,0-.6,0-.91A16.79,16.79,0,0,0,34.44,39a13.9,13.9,0,0,0-.49-1.89,13.75,13.75,0,0,0-.7-1.82,16.78,16.78,0,0,0-.92-1.65c-.31-.53-.7-1-1-1.45s-.72-.84-1.1-1.16a10.44,10.44,0,0,0-1-.88,8.36,8.36,0,0,0-.88-.61l-.82-.49s.33.07.93.23a5.82,5.82,0,0,1,1,.4,7.31,7.31,0,0,1,1.28.71,10.88,10.88,0,0,1,1.37,1.07A11.59,11.59,0,0,1,33.36,33a12.25,12.25,0,0,1,1.12,1.76,14.83,14.83,0,0,1,.82,2,15.34,15.34,0,0,1,.49,2.1c.06.35.07.71.1,1.05a6.37,6.37,0,0,1,0,1l0,1-.15.94a9.81,9.81,0,0,1-.42,1.68,9,9,0,0,1-.55,1.35,5.53,5.53,0,0,1-.53,1C33.9,47.33,33.7,47.62,33.7,47.62Z"/><path class="cls-7" d="M33.72,46.92s.21-.26.6-.7A21.74,21.74,0,0,1,36,44.49c.38-.33.79-.7,1.25-1s.94-.74,1.49-1.07a18.13,18.13,0,0,1,1.68-1c.58-.33,1.21-.6,1.83-.89s1.28-.49,1.94-.67a6.4,6.4,0,0,1,1-.24c.33-.06.65-.14,1-.18a11.28,11.28,0,0,1,1.87-.12,10.65,10.65,0,0,1,1.67.13,9.76,9.76,0,0,1,1.37.34,7.49,7.49,0,0,1,1,.39c.53.27.82.43.82.43L52,40.4c-.28-.07-.64-.07-1-.12s-.84,0-1.32-.05-1,0-1.55.12-1.11.18-1.7.3-1.18.3-1.77.5-1.2.42-1.79.67-1.19.49-1.75.79-1.13.56-1.66.86c-1.07.58-2,1.18-2.9,1.69l-2,1.29Z"/><path class="cls-10" d="M33.56,47.3s.14-.32.39-.88a7.05,7.05,0,0,1,.52-1,12.39,12.39,0,0,1,.8-1.22,12.57,12.57,0,0,1,1.1-1.33,11.9,11.9,0,0,1,1.41-1.33,15.54,15.54,0,0,1,1.68-1.23,17.93,17.93,0,0,1,1.92-1,16.53,16.53,0,0,1,2-.71,12.6,12.6,0,0,1,2.07-.35,11,11,0,0,1,2,0,10.63,10.63,0,0,1,1.73.29,7.74,7.74,0,0,1,1.39.48,6.14,6.14,0,0,1,1,.51c.52.34.8.54.8.54l-.92-.28a9,9,0,0,0-1.05-.25,11.3,11.3,0,0,0-1.37-.19c-.5-.05-1,0-1.61,0a16.28,16.28,0,0,0-1.78.2,17.44,17.44,0,0,0-1.86.43,15.62,15.62,0,0,0-1.85.69,16.51,16.51,0,0,0-1.78.87c-.55.36-1.13.65-1.62,1s-1,.73-1.44,1.11-.83.76-1.22,1.1-.67.7-1,1-.53.59-.73.82C33.8,47,33.56,47.3,33.56,47.3Z"/><path class="cls-9" d="M33.24,47.43s.06-.34.19-.94a5.57,5.57,0,0,1,.3-1.06,9.08,9.08,0,0,1,.56-1.35,9.79,9.79,0,0,1,.87-1.49l.55-.77.67-.74a6.38,6.38,0,0,1,.74-.72c.26-.23.52-.47.81-.68a15.31,15.31,0,0,1,1.82-1.15,14.83,14.83,0,0,1,2-.85,12.26,12.26,0,0,1,2-.47,11.58,11.58,0,0,1,1.94-.14,10.89,10.89,0,0,1,1.73.2,7.32,7.32,0,0,1,1.41.39,5.83,5.83,0,0,1,1,.45c.54.31.83.49.83.49l-.93-.22a8.35,8.35,0,0,0-1.06-.18,10.43,10.43,0,0,0-1.36-.11c-.5,0-1,0-1.6.05s-1.15.14-1.75.31a16.74,16.74,0,0,0-1.81.54,17.75,17.75,0,0,0-3.44,1.81A16.89,16.89,0,0,0,37.25,42c-.23.21-.44.42-.67.62l-.59.65a15,15,0,0,0-1,1.26c-.32.39-.52.8-.76,1.14a7.71,7.71,0,0,0-.53.95C33.42,47.12,33.24,47.43,33.24,47.43Z"/><path class="cls-3" d="M14.66,74.57l.88-2.22c.3-.7.65-1.56,1.09-2.52s.94-2.05,1.55-3.21a74.09,74.09,0,0,1,4.56-7.69c.94-1.34,1.93-2.72,3-4.05s2.23-2.66,3.43-3.93S31.7,48.5,33,47.39a43.54,43.54,0,0,1,4.09-3,29.68,29.68,0,0,1,4.21-2.19A23.23,23.23,0,0,1,45.38,41,16.25,16.25,0,0,1,49,40.66c.53,0,1,.08,1.49.12s.87.15,1.25.23a12.91,12.91,0,0,1,1.69.53l.58.22-.59-.19a12.83,12.83,0,0,0-1.7-.44c-.37-.06-.79-.11-1.24-.17s-.95-.06-1.47,0a18.67,18.67,0,0,0-3.49.44,22.79,22.79,0,0,0-3.94,1.33,34.82,34.82,0,0,0-4.08,2.23,42.91,42.91,0,0,0-4,3c-1.29,1.11-2.55,2.29-3.75,3.54s-2.36,2.53-3.43,3.86-2.08,2.66-3,4-1.8,2.64-2.58,3.91-1.49,2.49-2.12,3.62-1.19,2.2-1.67,3.14-.87,1.78-1.21,2.46Z"/><path class="cls-5" d="M59.36,28.34C57.46,33,57.53,38.89,53,40.61s-10.66.48-15.7-1.58c-4.51-1.84-9.24-5.46-11.39-9.29-2.62-4.68-2-9.88.12-15,3.81-9.32,15-13.55,25.06-9.45A13.56,13.56,0,0,1,59.6,15C60.68,19.36,61.29,23.62,59.36,28.34Z"/><ellipse class="cls-11" cx="29.84" cy="27.97" rx="2.93" ry="4.07" transform="translate(-7.34 45.01) rotate(-67.77)"/><ellipse class="cls-12" cx="48.1" cy="35.88" rx="2.93" ry="4.07" transform="translate(-3.31 66.83) rotate(-67.77)"/><path d="M34.92,28.56a1.17,1.17,0,0,0,0-2.34,1.17,1.17,0,0,0,0,2.34Z"/><path d="M45.18,32.76a1.17,1.17,0,0,0,0-2.34,1.17,1.17,0,0,0,0,2.34Z"/><path class="cls-13" d="M23.75,12.48c-.8,1.43-1.67,2.85-2.4,4.36a275.88,275.88,0,0,0-10.7,26.5c-.42,1.22-1.34,4.88-1.34,4.88L17.74,59s2.36-15,3.16-18.85c1.25-6,5-16.38,6.77-21.2-.14-.22-.28-.41-.41-.65C25.9,15.66,25.26,15.38,23.75,12.48Z"/><path class="cls-13" d="M46.29,48.56c-2,3.68-10.44,17.82-10.44,17.82l14.48-5.57s1.77-3.6,2.27-4.85c2.45-6.12,6.78-18.73,9.09-25.55-3.55-.35-4.73-.15-7.22-.49A202.54,202.54,0,0,1,46.29,48.56Z"/><path class="cls-13" d="M62.25,28.24c1-7.42.76-13.94-2.24-19.1a18.84,18.84,0,0,0-4.42-5,19.88,19.88,0,0,0-4.86-2.94A14.8,14.8,0,0,0,49,.63a20.3,20.3,0,0,0-12.06.63c-5.11,2-9.32,6.1-13.19,11.22a12.43,12.43,0,0,0,3.42,6c.16.15.33.29.5.43A13.3,13.3,0,0,0,42.1,20.63a15,15,0,0,0,3.15-2c0,.26,0,.52,0,.78a12.59,12.59,0,0,0,3.76,8,12.39,12.39,0,0,0,5.34,3,13.67,13.67,0,0,0,7.31,0C62,29.1,62.25,28.24,62.25,28.24Z"/><ellipse cx="35.26" cy="24.66" rx="0.2" ry="0.72" transform="translate(-0.9 47.97) rotate(-67.77)"/><ellipse cx="46.53" cy="29.26" rx="0.2" ry="0.72" transform="translate(1.84 61.27) rotate(-67.77)"/><path class="cls-14" d="M38.75,31.3a2.77,2.77,0,0,0-.4,1.15"/><path class="cls-14" d="M36.07,34.8a7.15,7.15,0,0,0,3.45,1.11"/></g></g></svg>