<svg xmlns="http://www.w3.org/2000/svg" viewBox="0 0 127.42 133.31"><defs><style>.cls-1{fill:#fff;}</style></defs><title>kumo-3</title><g id="Layer_2" data-name="Layer 2"><g id="人物"><path class="cls-1" d="M0,91.24C0,86,2.52,81.16,6.73,77.37a12.92,12.92,0,0,1-2.66-7.73c0-4.81,2.83-9.12,7.3-12-4.48-2.36-7.3-5.79-7.3-9.61,0-7.13,9.85-12.92,22-12.92.91,0,1.81,0,2.7.1a31.43,31.43,0,0,1-1.17-8.54C27.6,11.94,37.56,0,49.85,0,60.74,0,69.79,9.37,71.72,21.74a27.75,27.75,0,0,1,14.8-4.2c14.32,0,25.93,10.49,25.93,23.44a21.76,21.76,0,0,1-4.34,13c6,2.93,10,8.37,10,14.6S114,80.35,107.9,83.26c11.66,4.61,19.52,13.3,19.52,23.27,0,14.79-17.31,26.79-38.67,26.79-10.24,0-19.54-2.76-26.46-7.26a25.92,25.92,0,0,1-15.51,4.7c-11.44,0-20.71-6.24-20.71-13.94a9.73,9.73,0,0,1,.72-3.65C11.71,111.91,0,102.57,0,91.24Z"/></g></g></svg>