<svg xmlns="http://www.w3.org/2000/svg" viewBox="0 0 206.21 215.74"><defs><style>.cls-1{fill:#f2f2f2;}</style></defs><title>kumo-1</title><g id="Layer_2" data-name="Layer 2"><g id="人物"><path class="cls-1" d="M206.21,147.66c0-8.51-4.08-16.31-10.89-22.45a20.91,20.91,0,0,0,4.3-12.51c0-7.79-4.59-14.76-11.81-19.45,7.25-3.83,11.81-9.37,11.81-15.55,0-11.55-15.94-20.91-35.6-20.91-1.48,0-2.94.06-4.37.16a50.87,50.87,0,0,0,1.9-13.81c0-23.83-16.12-43.14-36-43.14C107.92,0,93.26,15.16,90.14,35.19a44.9,44.9,0,0,0-24-6.79c-23.18,0-42,17-42,37.93a35.22,35.22,0,0,0,7,21C21.55,92.07,15,100.87,15,111S21.7,130,31.59,134.74C12.72,142.2,0,156.26,0,172.39c0,23.94,28,43.35,62.58,43.35,16.57,0,31.62-4.47,42.81-11.75,6.14,4.67,15.11,7.61,25.1,7.61C149,211.6,164,201.51,164,189a15.74,15.74,0,0,0-1.17-5.9C187.25,181.1,206.21,166,206.21,147.66Z"/></g></g></svg>