<svg width="700" height="700" xmlns="http://www.w3.org/2000/svg">
  <defs>
    <style>.cls-2{fill:#f6e600;}.cls-3{fill:#c6b309;}.cls-4{fill:#e2cc03;}</style>
  </defs>
  <path d="m500.94583,416.91806c0,75.93005 -38.57007,153.82022 -98.37009,191.56021c-32.87988,20.75 -73,21.52991 -114.70996,21.52991c-44.13,0 -92.71997,-18.78992 -126.72998,-41.76001c-56.67999,-38.28992 -86.35999,-97.77008 -86.35999,-171.3201c0,-70 31.88995,-139.23999 84,-178.08003c35.5,-26.45003 81.39001,-35.00002 129.05994,-35.00002c78.23999,0 142.19003,35.00002 179.23996,97.84006c18.67004,31.66998 33.87012,75.78003 33.87012,115.22998z" class="cls-2"/>
  <path d="m384.84576,270.19809c0,11.35999 -5.77002,23 -14.71997,28.66003c-4.92004,3.09998 -10.92004,3.21997 -17.16003,3.21997c-6.59998,0 -13.87,-2.81006 -19,-6.25c-8.47998,-5.72998 -12.92004,-14.63 -12.92004,-25.63c0,-10.47998 4.77002,-20.83003 12.57007,-26.65004c5.31006,-4 12.17993,-5.23999 19.31006,-5.23999c11.70996,0 21.27991,5.23999 26.81995,14.64001c2.82996,4.76003 5.09998,11.34999 5.09998,17.25002z" class="cls-3"/>
  <path d="m379.87579,267.64804c0,9.59003 -4.87,19.43005 -12.42993,24.20001c-4.15015,2.62 -9.22009,2.72003 -14.49011,2.72003c-5.57996,0 -11.70996,-2.37 -16,-5.28003c-7.16003,-4.83997 -10.91003,-12.34998 -10.91003,-21.64001c0,-8.83997 4,-17.58998 10.62012,-22.50002c4.46997,-3.33997 10.28003,-4.43994 16.28003,-4.43994c9.87988,0 18,4.41998 22.63989,12.35999a30.68,30.68 0 0 1 4.29004,14.57997z" class="cls-4"/>
  <path d="m437.15579,326.8381c-3.39001,3.39996 -10.31006,3.43994 -17.34009,-0.21002c-3.86987,-2 -7.48996,-5.54999 -11.21994,-9.27002a53.7,53.7 0 0 1 -9.46997,-13.16998c-3.35999,-6.77002 -3.35999,-12.08002 -0.08008,-15.37c3.12012,-3.13 9.06006,-3.38 15.46005,-0.47003c4.34998,2 8.83997,5.69 13.10999,9.95001c7,7 11.16003,14.25 11.67004,20.37c0.23999,3.04004 -0.33997,6.40002 -2.13,8.17004z" class="cls-4"/>
  <path d="m385.2558,322.90805c-3.39001,3.40002 -8,5.70007 -11.55994,5.56006c-1.93005,-0.08002 -3.19006,-1.27002 -4.47009,-2.54004a8.51,8.51 0 0 1 -2,-5.73999c0,-3.44 1.72009,-7 5,-10.29999c3.12,-3.13 7.19006,-5.25 10.52002,-5.40002a7.2,7.2 0 0 1 5.51001,2.38c2.40002,2.39001 2.79004,5.90997 1.12,9.85004a20.83,20.83 0 0 1 -4.12,6.18994z" class="cls-3"/>
</svg>
