<svg xmlns="http://www.w3.org/2000/svg" viewBox="0 0 53.52 192.35"><defs><style>.cls-1{fill:#c6b309;}.cls-2{fill:#e2cc03;}</style></defs><title>kizu</title><g id="Layer_2" data-name="Layer 2"><g id="オブジェクト"><path class="cls-1" d="M43.51,98.43c3,37.28,12.81,52.61,9.23,71.54-2,10.41-21.1,21-24.64,21.28-3.74.3-2.85,4.64-6.65-6.4C15.13,166.44,14,124.84,4.05,90c-9.61-33.6.5-57.24,3.39-76.66C9.41.13,11.5.34,15.54,0c6.64-.53,19.64,10.8,25.27,41.4C43.64,56.84,41.95,79.07,43.51,98.43Z"/><path class="cls-2" d="M35.76,82.6c.73,9.09,4.47,27.08,4.83,35.91a329,329,0,0,1-2.72,54.56c-.43,3.14.67,6.39,0,7.77-1.19,2.47-7.95-.85-9.5-.73-2.55.21-6-7.36-8.71-16.72-1.17-4-2.29-8.65-3.35-13.81-3-14.84-2.33-40-4.15-62.57-2.34-29-6-52.08-4.3-68.42C9,7.47,11.39,3.71,14.14,3.49c4.52-.36,9.38,13.84,13.62,39.72C29.9,56.25,34.44,66.25,35.76,82.6Z"/></g></g></svg>