<svg xmlns="http://www.w3.org/2000/svg">
  <g>
    <defs>
      <style>.cls-2{fill:#f6e600;}.cls-3{fill:#c6b309;}.cls-4{fill:#e2cc03;}.cls-5{fill:#241714;}.cls-6,.cls-7,.cls-8{fill:none;stroke:#241714;stroke-linecap:round;stroke-miterlimit:10;}.cls-6{stroke-width:2.87px;}.cls-7{stroke-width:1.92px;}.cls-8{stroke-width:3.38px;}</style>
    </defs>
    <g>
      <path id="svg_11" d="m500.94583,416.91806c0,75.93005 -38.57007,153.82022 -98.37009,191.56021c-32.87988,20.75 -73,21.52991 -114.70996,21.52991c-44.13,0 -92.71997,-18.78992 -126.72998,-41.76001c-56.67999,-38.28992 -86.35999,-97.77008 -86.35999,-171.3201c0,-70 31.88995,-139.23999 84,-178.08003c35.5,-26.45003 81.39001,-35.00002 129.05994,-35.00002c78.23999,0 142.19003,35.00002 179.23996,97.84006c18.67004,31.66998 33.87012,75.78003 33.87012,115.22998z" class="cls-2"/>
      <path id="svg_12" d="m384.84576,270.19809c0,11.35999 -5.77002,23 -14.71997,28.66003c-4.92004,3.09998 -10.92004,3.21997 -17.16003,3.21997c-6.59998,0 -13.87,-2.81006 -19,-6.25c-8.47998,-5.72998 -12.92004,-14.63 -12.92004,-25.63c0,-10.47998 4.77002,-20.83003 12.57007,-26.65004c5.31006,-4 12.17993,-5.23999 19.31006,-5.23999c11.70996,0 21.27991,5.23999 26.81995,14.64001c2.82996,4.76003 5.09998,11.34999 5.09998,17.25002z" class="cls-3"/>
      <path id="svg_13" d="m379.87579,267.64804c0,9.59003 -4.87,19.43005 -12.42993,24.20001c-4.15015,2.62 -9.22009,2.72003 -14.49011,2.72003c-5.57996,0 -11.70996,-2.37 -16,-5.28003c-7.16003,-4.83997 -10.91003,-12.34998 -10.91003,-21.64001c0,-8.83997 4,-17.58998 10.62012,-22.50002c4.46997,-3.33997 10.28003,-4.43994 16.28003,-4.43994c9.87988,0 18,4.41998 22.63989,12.35999a30.68,30.68 0 0 1 4.29004,14.57997z" class="cls-4"/>
      <path id="svg_14" d="m437.15579,326.8381c-3.39001,3.39996 -10.31006,3.43994 -17.34009,-0.21002c-3.86987,-2 -7.48996,-5.54999 -11.21994,-9.27002a53.7,53.7 0 0 1 -9.46997,-13.16998c-3.35999,-6.77002 -3.35999,-12.08002 -0.08008,-15.37c3.12012,-3.13 9.06006,-3.38 15.46005,-0.47003c4.34998,2 8.83997,5.69 13.10999,9.95001c7,7 11.16003,14.25 11.67004,20.37c0.23999,3.04004 -0.33997,6.40002 -2.13,8.17004z" class="cls-4"/>
      <path id="svg_15" d="m385.2558,322.90805c-3.39001,3.40002 -8,5.70007 -11.55994,5.56006c-1.93005,-0.08002 -3.19006,-1.27002 -4.47009,-2.54004a8.51,8.51 0 0 1 -2,-5.73999c0,-3.44 1.72009,-7 5,-10.29999c3.12,-3.13 7.19006,-5.25 10.52002,-5.40002a7.2,7.2 0 0 1 5.51001,2.38c2.40002,2.39001 2.79004,5.90997 1.12,9.85004a20.83,20.83 0 0 1 -4.12,6.18994z" class="cls-3"/>
      <path id="svg_16" d="m189.14581,221.92802c3.14001,-28.92998 -15.55005,-55.16002 -32.91003,-78.49998s-35.28998,-50.52996 -30.28998,-79.18995a34.59,34.59 0 0 1 6.06,-15.10001c9,-11.91001 27.60999,-13.19999 40.72998,-6.00001s21.57996,20.72001 27.16003,34.57006c7.37,18.32996 10.78003,37.99997 13.30005,57.5799a683.67999,683.67999 0 0 1 5.5,78.80005" class="cls-2"/>
      <path id="svg_17" d="m410.08575,240.63802a299.29999,299.29999 0 0 1 36.86008,-70.15999c11.61987,-16.40997 26.70996,-32.69 46.61987,-35.53998c12.70007,-1.82001 25.79001,2.29999 36.35007,9.57996s18.78003,17.52002 25.40991,28.5c12.43005,20.59003 19.66003,46.10004 11.80005,68.82008c-2.66992,7.71997 -7.48999,15.27998 -15,18.40999c-10.44995,4.34003 -22.43994,-1.11005 -31.25,-8.21004c-15.91,-12.81 -26.84995,-31.00003 -42.73996,-43.8c-3.16003,-2.54999 -6.76001,-5 -10.82007,-5.14001c-7.16992,-0.29999 -12.54993,6.27002 -16.3999,12.33002a247,247 0 0 0 -21.63,42.73001" class="cls-2"/>
      <ellipse id="svg_18" ry="7.74" rx="6.92" cy="412.34808" cx="159.68581" class="cls-5"/>
      <ellipse id="svg_19" ry="7.74" rx="6.92" cy="412.34808" cx="328.26581" class="cls-5"/>
      <path id="svg_20" d="m233.67584,453.7081c5.75,0.70996 8,5.58997 5,10.82996l-9.96008,17.17001c-3,5.24002 -8,5.24002 -11,0l-9.91992,-17.18002c-3,-5.23999 -0.79004,-10.10999 5,-10.82996a102.47,102.47 0 0 1 20.88,0.01001z" class="cls-5"/>
      <line id="svg_21" y2="507.97808" x2="224.49581" y1="484.22808" x1="222.89581" class="cls-6"/>
      <path id="svg_22" d="m199.34576,517.78821" class="cls-7"/>
      <path id="svg_23" d="m174.27582,490.37811c12.41003,12.09012 38.56995,20.43015 69,20.43015s56.60999,-8.34003 69,-20.43015" class="cls-8"/>
    </g>
  </g>
</svg>
