<svg xmlns="http://www.w3.org/2000/svg" viewBox="0 0 224.62 225.51"><defs><style>.cls-1{fill:none;}.cls-2{fill:#20c4bb;}.cls-3{fill:#ff931e;}.cls-4{fill:#e2cc03;}.cls-5{fill:#fcf200;}.cls-6{fill:#d9e021;}.cls-7{fill:#1aa399;}.cls-8{fill:#dbcb05;}</style></defs><title>kuruma</title><g id="Layer_2" data-name="Layer 2"><g id="人物"><polygon class="cls-1" points="159.1 55.49 167.83 165.46 208.37 151.9 174.41 50.36 159.1 55.49"/><polygon class="cls-1" points="12.53 104.51 159.1 55.49 159.1 55.49 12.5 104.52 46.46 206.05 167.83 165.46 165.76 139.46 159.1 55.49 12.53 104.51"/><polygon class="cls-1" points="174.41 50.36 174.41 50.36 159.1 55.49 159.1 55.49 174.41 50.36"/><path class="cls-2" d="M4,90.12c3.42.12,6.76.67,7.85,3.91a6.19,6.19,0,0,1-.94,5.71l1.6,4.77,148.58-49-8.56-39.61C138,5,120.94,1.63,101.09,8.27a63.38,63.38,0,0,0-24.54,15,2.8,2.8,0,0,1-.05.4c9.62.91,23.41,20.75,32.35,47.47L73.95,82.83C64.83,55.57,64,31,71.65,25a2.81,2.81,0,0,1-.35-.46,63.37,63.37,0,0,0-27.79,2.87C15,37-1.89,64.28,3.39,90.12,3.55,90.11,3.74,90.11,4,90.12Z"/><path class="cls-3" d="M57.59,215.84c1.16,3.47,8.59,4.11,16.59,1.43s13.55-7.66,12.39-11.12c0-.05,0-.1-.07-.15l-28.94,9.68C57.57,215.74,57.57,215.79,57.59,215.84Z"/><path class="cls-3" d="M116.21,196.24c1.16,3.47,8.59,4.11,16.59,1.43s13.55-7.66,12.39-11.12c0-.05,0-.1-.07-.15l-28.94,9.68C116.19,196.13,116.19,196.19,116.21,196.24Z"/><path class="cls-4" d="M12.5,104.52l-3.08,1c-.71-1.25-1.34-2.41-1.91-3.55a6.16,6.16,0,0,1-3.21,0L39.85,208.26l6.61-2.21Z"/><path class="cls-4" d="M7.93,101.88l-.42.12c.57,1.14,1.2,2.3,1.91,3.55l3.08-1-1.6-4.77A6.17,6.17,0,0,1,7.93,101.88Z"/><path class="cls-5" d="M6.08,98.89c-.43-1-.83-2.08-1.21-3.19a47.46,47.46,0,0,1-1.49-5.58c-1.82.1,1.38,1.28-.68,3.86-1,1.24-3.17,2.36-2.62,4a6.19,6.19,0,0,0,4.21,4l-.75-2.24Z"/><path class="cls-5" d="M6.08,98.89l4.08-1.37.74,2.22A6.19,6.19,0,0,0,11.84,94c-1.09-3.25-4.42-3.8-7.85-3.91-.26,0-.45,0-.61,0A47.46,47.46,0,0,0,4.87,95.7C5.24,96.81,5.64,97.86,6.08,98.89Z"/><path class="cls-5" d="M7.51,102c-.53-1-1-2.07-1.44-3.11l-2.53.84L4.3,102A6.16,6.16,0,0,0,7.51,102Z"/><path class="cls-5" d="M10.9,99.74l-.74-2.22L6.08,98.89c.44,1,.91,2.06,1.44,3.11l.42-.12A6.17,6.17,0,0,0,10.9,99.74Z"/><path class="cls-6" d="M46.46,206.05h0l-6.61,2.21h0l-15.68,5.25,4,12,29.38-9.83c-.95-3.46,4.54-8.33,12.42-11s15.2-2,16.52,1.29l29.68-9.93c-.95-3.46,4.54-8.33,12.42-11s15.2-2,16.52,1.29l23.74-7.94-1-13Z"/><path class="cls-6" d="M70,204.72c-7.88,2.64-13.37,7.51-12.42,11L86.5,206C85.17,202.67,77.86,202.08,70,204.72Z"/><path class="cls-6" d="M128.6,185.12c-7.88,2.64-13.37,7.51-12.42,11l28.94-9.68C143.79,183.07,136.48,182.48,128.6,185.12Z"/><path class="cls-2" d="M215.91,78.68l-.48-5a6.19,6.19,0,0,1-3.18-4.84c-.16-1.7,2.21-2.3,3.45-3.28a3.3,3.3,0,0,0,.85-1,48.45,48.45,0,0,0-10.89-23.43l-5.83,39.06Z"/><path class="cls-3" d="M219,198.65l-30.38,2.9c0,.05,0,.11,0,.16.35,3.64,7.44,5.94,15.84,5.14s14.92-4.41,14.58-8C219,198.76,219,198.71,219,198.65Z"/><path class="cls-4" d="M217.13,74.31a6.18,6.18,0,0,1-1.7-.64l.48,5,.91-.09C217,77.07,217.07,75.66,217.13,74.31Z"/><path class="cls-5" d="M217.17,71.15l5-.48.22,2.35a6.19,6.19,0,0,0,2.22-5.37c-.33-3.41-3.45-4.7-6.76-5.58-2.54-.68-.25.7-1.28,2.51.17,1,.32,2.09.42,3.15S217.14,70,217.17,71.15Z"/><path class="cls-5" d="M212.25,68.83a6.19,6.19,0,0,0,3.18,4.84l-.22-2.33,2-.19c0-1.13-.08-2.25-.19-3.42s-.25-2.11-.42-3.15a3.3,3.3,0,0,1-.85,1C214.46,66.54,212.09,67.13,212.25,68.83Z"/><path class="cls-5" d="M217.17,71.15c0,1,0,2.08,0,3.16A6.2,6.2,0,0,0,222.37,73l-.22-2.35Z"/><path class="cls-5" d="M217.17,71.15l-2,.19.22,2.33a6.18,6.18,0,0,0,1.7.64C217.18,73.23,217.19,72.19,217.17,71.15Z"/><polygon class="cls-6" points="46.46 206.05 46.46 206.05 39.85 208.26 39.85 208.26 46.46 206.05"/><polygon class="cls-6" points="208.37 151.9 214.98 149.69 214.98 149.69 208.37 151.9 208.37 151.9"/><path class="cls-7" d="M74.62,25.8a2.83,2.83,0,0,1-3-.76C64,31,64.83,55.57,73.95,82.83l34.9-11.72C99.9,44.38,86.12,24.54,76.5,23.63A2.82,2.82,0,0,1,74.62,25.8Z"/><path class="cls-8" d="M71.35,16a2.83,2.83,0,0,1,3,.8A9.5,9.5,0,0,0,78,6c-1.66-5-6.78-5.82-12-6-4.72-.16,1.46,1.6-2,5.93-1.51,1.9-4.85,3.61-4,6.1a9.5,9.5,0,0,0,9.5,6.47A2.83,2.83,0,0,1,71.35,16Z"/><path class="cls-5" d="M72.82,20.42a2.82,2.82,0,0,1,1.7,0,2.82,2.82,0,0,0-.16-3.57,9.35,9.35,0,0,1-4.94,1.68,2.83,2.83,0,0,0,2,2.92A2.82,2.82,0,0,1,72.82,20.42Z"/><path class="cls-5" d="M74.36,16.82a2.83,2.83,0,0,0-4.94,1.68,9.35,9.35,0,0,0,4.94-1.68Z"/><path class="cls-5" d="M73.54,24l.26-.09a6.42,6.42,0,0,1,2.37-.3l.38-.39a2.8,2.8,0,0,0-2-2.83,2.81,2.81,0,0,1-3.08,1,2.8,2.8,0,0,0-.15,3.15l.85.11A6.22,6.22,0,0,1,73.54,24Z"/><path class="cls-5" d="M71.65,25c.16-.13.33-.24.5-.35l-.85-.11A2.81,2.81,0,0,0,71.65,25Z"/><path class="cls-5" d="M76.5,23.63a2.8,2.8,0,0,0,.05-.4l-.38.39Z"/><path class="cls-5" d="M76.16,23.61a6.42,6.42,0,0,0-2.37.3l-.26.09a6.22,6.22,0,0,0-1.39.69c.86.12,1.72.25,2.56.4C75.18,24.58,75.68,24.1,76.16,23.61Z"/><path class="cls-5" d="M74.71,25.08c-.85-.15-1.71-.28-2.56-.4-.17.11-.34.22-.5.35a2.82,2.82,0,0,0,4.84-1.4l-.33,0C75.68,24.1,75.18,24.58,74.71,25.08Z"/><path class="cls-5" d="M73.15,21.4a2.82,2.82,0,0,0,1.38-1,2.81,2.81,0,0,0-3.08,1A2.81,2.81,0,0,0,73.15,21.4Z"/></g></g></svg>