<svg xmlns="http://www.w3.org/2000/svg" xmlns:xlink="http://www.w3.org/1999/xlink" viewBox="0 0 258.89 536.19"><defs><style>.cls-1{fill:#d7bb5e;}.cls-2{fill:url(#名称未設定グラデーション_64);}</style><linearGradient id="名称未設定グラデーション_64" x1="177.06" y1="528.02" x2="177.06" y2="-1.78" gradientTransform="translate(77.59 -40.7) rotate(20.79)" gradientUnits="userSpaceOnUse"><stop offset="0" stop-color="#8cc63f"/><stop offset="0.26" stop-color="#b1d335"/><stop offset="0.58" stop-color="#d9e22a"/><stop offset="0.84" stop-color="#f3eb23"/><stop offset="1" stop-color="#fcee21"/></linearGradient></defs><title>take-migi</title><g id="Layer_2" data-name="Layer 2"><g id="オブジェクト"><path class="cls-1" d="M200.15,27.29a74.57,74.57,0,0,0-19.65-8L67.65,316.5c48.62,5.11,107.75-31.8,144.58-94.83C257.29,144.54,251.88,57.51,200.15,27.29Z"/><path class="cls-2" d="M210.74,9.18A84.31,84.31,0,0,0,187.84,0L180.5,19.33a74.56,74.56,0,0,1,19.65,8c51.73,30.22,57.14,117.25,12.08,194.37-36.83,63-96,99.94-144.58,94.83L0,494.64l109.43,41.55,38.7-101.9.25.1,81.3-214.08-.46-.18C274.82,135.23,267.25,42.19,210.74,9.18Z"/></g></g></svg>