<svg xmlns="http://www.w3.org/2000/svg" viewBox="0 0 258.89 536.19">
  <defs>
    <linearGradient id="grad" x1="177.06" y1="528.02" x2="177.06" y2="-1.78"
      gradientTransform="rotate(20.79 149.728 191.131)"
      gradientUnits="userSpaceOnUse">
      <stop offset="0" stop-color="#8cc63f"/>
      <stop offset=".26" stop-color="#b1d335"/>
      <stop offset=".58" stop-color="#d9e22a"/>
      <stop offset=".84" stop-color="#f3eb23"/>
      <stop offset="1" stop-color="#fcee21"/>
    </linearGradient>
  </defs>
  <path fill="#d7bb5e" d="M200.15 27.29a74.57 74.57 0 0 0-19.65-8L67.65 316.5c48.62 5.11 107.75-31.8 144.58-94.83 45.06-77.13 39.65-164.16-12.08-194.38z"/>
  <path fill="url(#grad)" d="M210.74 9.18A84.31 84.31 0 0 0 187.84 0l-7.34 19.33a74.56 74.56 0 0 1 19.65 8c51.73 30.22 57.14 117.25 12.08 194.37-36.83 63-96 99.94-144.58 94.83L0 494.64l109.43 41.55 38.7-101.9.25.1 81.3-214.08-.46-.18c45.6-84.9 38.03-177.94-18.48-210.95z"/>
</svg>
