<svg width="129" height="57" xmlns="http://www.w3.org/2000/svg">
 <g>
  <title>Layer 1</title>
  <defs>
   <style>.cls-1{fill:#bdf5e0;}.cls-2,.cls-3,.cls-4{fill:none;stroke:#ffc7de;stroke-miterlimit:10;}.cls-2{stroke-width:60px;}.cls-3{stroke-width:30px;}.cls-4{stroke-width:9px;}</style>
  </defs>
  <g transform="matrix(0.0875505, 0, 0, 0.0875505, 0, 0)" id="svg_5">
   <polyline id="svg_9" points="-10.929073333740234,111.61929368972778 176.7508544921875,183.61929368972778 364.4311218261719,111.61929368972778 552.1110229492188,183.61929368972778 739.7809448242188,111.61929368972778 927.4608764648438,183.61929368972778 1115.1407470703125,111.61929368972778 1302.8306884765625,183.61929368972778 1490.5108642578125,111.61929368972778 " class="cls-2"/>
   <polyline id="svg_10" points="-10.929073333740234,445.96907091140747 176.7508544921875,517.9689793586731 364.4311218261719,445.96907091140747 552.1110229492188,517.9689793586731 739.7809448242188,445.96907091140747 927.4608764648438,517.9689793586731 1115.1407470703125,445.96907091140747 1302.8306884765625,517.9689793586731 1490.5108642578125,445.96907091140747 " class="cls-3"/>
   <polyline id="svg_11" points="-10.929073333740234,20.94925546646118 176.7508544921875,92.95913743972778 364.4311218261719,20.94925546646118 552.1110229492188,92.95913743972778 739.7809448242188,20.94925546646118 927.4608764648438,92.95913743972778 1115.1407470703125,20.94925546646118 1302.8306884765625,92.95913743972778 1490.5108642578125,20.94925546646118 " class="cls-3"/>
   <polyline id="svg_12" points="-10.929073333740234,277.03913927078247 176.7508544921875,349.03913927078247 364.4311218261719,277.03913927078247 552.1110229492188,349.03913927078247 739.7809448242188,277.03913927078247 927.4608764648438,349.03913927078247 1115.1407470703125,277.03913927078247 1302.8306884765625,349.03913927078247 1490.5108642578125,277.03913927078247 " class="cls-2"/>
   <polyline id="svg_13" points="-10.929073333740234,539.0890355110168 176.7508544921875,611.0890355110168 364.4311218261719,539.0890355110168 552.1110229492188,611.0890355110168 739.7809448242188,539.0890355110168 927.4608764648438,611.0890355110168 1115.1407470703125,539.0890355110168 1302.8306884765625,611.0890355110168 1490.5108642578125,539.0890355110168 " class="cls-2"/>
   <polyline id="svg_14" points="-10.929073333740234,179.84927415847778 176.7508544921875,251.8493046760559 364.4311218261719,179.84927415847778 552.1110229492188,251.8493046760559 739.7809448242188,179.84927415847778 927.4608764648438,251.8493046760559 1115.1407470703125,179.84927415847778 1302.8306884765625,251.8493046760559 1490.5108642578125,179.84927415847778 " class="cls-4"/>
   <polyline id="svg_15" points="-10.929073333740234,211.35928392410278 176.7508544921875,283.35920763015747 364.4311218261719,211.35928392410278 552.1110229492188,283.35920763015747 739.7809448242188,211.35928392410278 927.4608764648438,283.35920763015747 1115.1407470703125,211.35928392410278 1302.8306884765625,283.35920763015747 1490.5108642578125,211.35928392410278 " class="cls-4"/>
   <polyline id="svg_16" points="-10.929073333740234,349.37922716140747 176.7508544921875,421.37922716140747 364.4311218261719,349.37922716140747 552.1110229492188,421.37922716140747 739.7809448242188,349.37922716140747 927.4608764648438,421.37922716140747 1115.1407470703125,349.37922716140747 1302.8306884765625,421.37922716140747 1490.5108642578125,349.37922716140747 " class="cls-4"/>
   <polyline id="svg_17" points="-10.929073333740234,483.97908067703247 176.7508544921875,555.9789280891418 364.4311218261719,483.97908067703247 552.1110229492188,555.9789280891418 739.7809448242188,483.97908067703247 927.4608764648438,555.9789280891418 1115.1407470703125,483.97908067703247 1302.8306884765625,555.9789280891418 1490.5108642578125,483.97908067703247 " class="cls-4"/>
   <polyline id="svg_18" points="-10.929073333740234,54.24917650222778 176.7508544921875,126.24917650222778 364.4311218261719,54.24917650222778 552.1110229492188,126.24917650222778 739.7809448242188,54.24917650222778 927.4608764648438,126.24917650222778 1115.1407470703125,54.24917650222778 1302.8306884765625,126.24917650222778 1490.5108642578125,54.24917650222778 " class="cls-4"/>
   <polyline id="svg_19" points="-10.929073333740234,384.77912950515747 176.7508544921875,456.77912950515747 364.4311218261719,384.77912950515747 552.1110229492188,456.77912950515747 739.7809448242188,384.77912950515747 927.4608764648438,456.77912950515747 1115.1407470703125,384.77912950515747 1302.8306884765625,456.77912950515747 1490.5108642578125,384.77912950515747 " class="cls-4"/>
  </g>
 </g>
</svg>
