<svg xmlns="http://www.w3.org/2000/svg" xmlns:xlink="http://www.w3.org/1999/xlink" viewBox="0 0 250.32 414.77"><defs><style>.cls-1{fill:#fff;}.cls-2{fill:#d7bb5e;}.cls-3{fill:#fbebd8;}.cls-4{fill:#d9473e;}.cls-5{fill:#ffc7de;}.cls-6,.cls-7{opacity:0.54;}.cls-6{fill:url(#名称未設定グラデーション_59);}.cls-7{fill:url(#名称未設定グラデーション_59-2);}.cls-8{fill:none;stroke:#000;stroke-linecap:round;stroke-miterlimit:10;stroke-width:1.64px;}.cls-9{fill:#1a1a1a;}</style><radialGradient id="名称未設定グラデーション_59" cx="63.77" cy="141.56" r="23.29" gradientUnits="userSpaceOnUse"><stop offset="0" stop-color="#df7261"/><stop offset="0.38" stop-color="#df7362" stop-opacity="0.99"/><stop offset="0.52" stop-color="#e07767" stop-opacity="0.96"/><stop offset="0.62" stop-color="#e27f70" stop-opacity="0.91"/><stop offset="0.7" stop-color="#e48a7b" stop-opacity="0.83"/><stop offset="0.77" stop-color="#e8988b" stop-opacity="0.73"/><stop offset="0.83" stop-color="#eba99e" stop-opacity="0.61"/><stop offset="0.88" stop-color="#f0bdb5" stop-opacity="0.47"/><stop offset="0.93" stop-color="#f5d5d0" stop-opacity="0.3"/><stop offset="0.98" stop-color="#fbefed" stop-opacity="0.11"/><stop offset="1" stop-color="#fff" stop-opacity="0"/></radialGradient><radialGradient id="名称未設定グラデーション_59-2" cx="177.57" cy="144.84" r="23.29" xlink:href="#名称未設定グラデーション_59"/></defs><title>hime-girl</title><g id="Layer_2" data-name="Layer 2"><g id="人物"><path class="cls-1" d="M75.55,403.88C67,366.3,67.44,324.47,80.48,289A56.63,56.63,0,0,1,97,265.83L126,275.59c-4.15,3.33-8.48,10.55-12.16,15.1-9.17,11.33-15.69,24-20.94,39.52-7.67,22.64-7,51-1.09,71.15Z"/><path class="cls-1" d="M162.59,403.88c-8.51-37.59-8.11-79.41,4.94-114.93A56.63,56.63,0,0,1,184,265.83L213,275.59c-4.15,3.33-8.48,10.55-12.16,15.1-9.17,11.33-15.69,24-20.94,39.52-7.67,22.64-7,51-1.09,71.15Z"/><polygon class="cls-2" points="93.92 406.51 55.37 414.77 52.88 406.77 91.43 398.51 93.92 406.51"/><polygon class="cls-2" points="180.87 406.51 142.32 414.77 139.83 406.77 178.37 398.51 180.87 406.51"/><ellipse class="cls-3" cx="8.4" cy="301.23" rx="8.39" ry="10.65"/><ellipse class="cls-3" cx="241.93" cy="301.23" rx="8.39" ry="10.65"/><path class="cls-4" d="M193.44,374.19c7.26,10.92-146.71,10.92-139.31,0-7.4,10.92-9.9-218.3-2.26-207.39-7.64-10.92,152.8-10.92,145.16,0C204.68,155.89,200.71,385.1,193.44,374.19Z"/><path class="cls-1" d="M123.05,224.21l-.37-1.11-1-3.14c-.46-1.34-1-2.94-1.69-4.76l-.52-1.41-.61-1.47c-.42-1-.82-2.07-1.33-3.14s-1-2.22-1.54-3.35l-.84-1.74-.93-1.77c-1.23-2.39-2.68-4.82-4.23-7.29s-3.32-4.89-5.18-7.3a89.4,89.4,0,0,0-6.07-6.91A81.71,81.71,0,0,0,92,174.64a79.62,79.62,0,0,0-7.22-5.15,68.43,68.43,0,0,0-7.31-3.94,58.16,58.16,0,0,0-7-2.7c-.56-.17-1.1-.36-1.64-.51l-1.59-.41c-1-.31-2-.48-3-.69s-1.84-.29-2.66-.46-1.6-.23-2.29-.3c-1.39-.16-2.5-.24-3.26-.28l-1.17-.09,1.14-.29a27,27,0,0,1,3.27-.67,34.62,34.62,0,0,1,5.2-.46,40.93,40.93,0,0,1,6.82.39,47.52,47.52,0,0,1,7.94,1.79,55.1,55.1,0,0,1,8.43,3.49c1.4.74,2.81,1.52,4.18,2.4s2.73,1.81,4.08,2.79a67.82,67.82,0,0,1,7.56,6.63,72.49,72.49,0,0,1,6.46,7.68c1,1.35,1.9,2.69,2.73,4.08s1.65,2.76,2.39,4.14a69.67,69.67,0,0,1,3.7,8.21c.5,1.34,1,2.64,1.35,3.93s.75,2.53,1,3.73.56,2.36.76,3.47l.3,1.62.22,1.54c.33,2,.42,3.74.53,5.16s.06,2.54.09,3.31Z"/><path class="cls-5" d="M124.2,225.35l-.11-1.16c-.07-.75-.12-1.87-.28-3.26s-.34-3-.65-4.95c-.12-1-.32-2-.55-3l-.32-1.61-.41-1.67-.42-1.73L121,206.2c-.32-1.21-.75-2.42-1.18-3.68s-.95-2.5-1.44-3.79-1.07-2.58-1.75-3.84a71.9,71.9,0,0,0-15.91-21.5,75.09,75.09,0,0,0-6.81-5.52,71.57,71.57,0,0,0-7-4.34,61.36,61.36,0,0,0-6.76-3.08C79,160,78,159.67,77,159.33s-2-.59-2.9-.86-1.8-.39-2.61-.61-1.57-.32-2.25-.44c-1.37-.25-2.46-.39-3.21-.47l-1.16-.16,1.14-.22a26.2,26.2,0,0,1,3.28-.47,34.63,34.63,0,0,1,5.18-.14,41.6,41.6,0,0,1,6.73.8A49.06,49.06,0,0,1,88.92,159a56.53,56.53,0,0,1,8.14,3.95c.68.39,1.34.83,2,1.26s1.34.88,2,1.36,1.33.94,2,1.45l1.91,1.57a63,63,0,0,1,7.06,7.1,63.39,63.39,0,0,1,5.77,8.18c.83,1.43,1.62,2.86,2.31,4.33l1,2.18c.31.73.59,1.48.88,2.2.61,1.45,1,2.93,1.51,4.36s.82,2.86,1.08,4.27.58,2.76.72,4.1l.25,2c.06.64.1,1.28.14,1.89l.11,1.81q0,.89,0,1.73c0,1.13,0,2.19-.1,3.19s-.08,1.92-.23,2.79l-.34,2.35c-.19,1.41-.52,2.47-.66,3.22Z"/><path class="cls-1" d="M123,224.21s0-.41,0-1.17,0-1.88.09-3.31.2-3.19.53-5.16l.22-1.54.3-1.62c.2-1.11.45-2.27.76-3.47s.63-2.46,1-3.73.84-2.6,1.35-3.93a69.59,69.59,0,0,1,3.7-8.21c.75-1.38,1.51-2.78,2.39-4.14s1.77-2.73,2.73-4.08a72.52,72.52,0,0,1,6.46-7.68,67.85,67.85,0,0,1,7.56-6.63c1.35-1,2.67-2,4.08-2.79s2.78-1.66,4.18-2.4a55.1,55.1,0,0,1,8.43-3.49,47.53,47.53,0,0,1,7.94-1.79,40.93,40.93,0,0,1,6.82-.39,34.62,34.62,0,0,1,5.2.46,27,27,0,0,1,3.27.67l1.14.29-1.17.09c-.76,0-1.87.11-3.26.28-.7.07-1.46.14-2.29.3s-1.72.22-2.66.46-1.94.38-3,.69l-1.59.41c-.54.15-1.08.34-1.64.51a58.16,58.16,0,0,0-7,2.7,68.43,68.43,0,0,0-7.31,3.94,79.62,79.62,0,0,0-7.22,5.15,81.71,81.71,0,0,0-6.77,6.18,89.5,89.5,0,0,0-6.07,6.91c-1.86,2.4-3.6,4.85-5.18,7.3s-3,4.9-4.23,7.29l-.93,1.77-.84,1.74c-.58,1.14-1.06,2.27-1.54,3.35s-.91,2.14-1.33,3.14l-.61,1.47-.52,1.41c-.69,1.83-1.23,3.43-1.69,4.76l-1,3.14Z"/><path class="cls-5" d="M121.9,225.35l-.27-1.13c-.14-.75-.47-1.81-.66-3.22l-.34-2.35c-.14-.86-.15-1.79-.23-2.79s-.11-2.06-.1-3.19q0-.85,0-1.73l.11-1.81c0-.62.08-1.25.14-1.89l.25-2c.14-1.34.45-2.69.72-4.1s.71-2.81,1.08-4.27.9-2.91,1.51-4.36c.29-.73.57-1.47.88-2.2l1-2.18c.68-1.46,1.48-2.9,2.31-4.33a59.72,59.72,0,0,1,12.83-15.28l1.91-1.57c.64-.51,1.32-1,2-1.45s1.31-.94,2-1.36,1.33-.87,2-1.26a56.53,56.53,0,0,1,8.14-3.95,49.06,49.06,0,0,1,7.76-2.23,41.6,41.6,0,0,1,6.73-.8,34.63,34.63,0,0,1,5.18.14,26.21,26.21,0,0,1,3.27.47l1.14.22-1.16.16c-.75.08-1.84.22-3.21.47-.69.12-1.44.22-2.25.44s-1.69.33-2.61.61-1.9.48-2.9.86-2.07.66-3.14,1.12a61.35,61.35,0,0,0-6.76,3.08,71.63,71.63,0,0,0-7,4.34,75.09,75.09,0,0,0-6.81,5.52,71.67,71.67,0,0,0-15.91,21.5c-.68,1.27-1.15,2.59-1.75,3.84s-1,2.54-1.44,3.79-.86,2.47-1.18,3.68l-.52,1.77-.42,1.73-.41,1.67-.32,1.61c-.23,1-.43,2-.55,3-.31,1.9-.5,3.56-.65,4.95s-.21,2.51-.28,3.26Z"/><path class="cls-4" d="M217.51,346.41s4.69-42.78,15.39-49.19c3.6-2.16,16.79-.61,16.79-.61,0-59.79-18.75-127.92-54.88-127.92l-2.15,33.55c1.22,11.73,1.83,8.37,2.78,21.71.42,5.82-1.51,118.44-1.51,118.44S197.52,342.69,217.51,346.41Z"/><path class="cls-4" d="M29.18,348.41s-1.69-44.78-12.39-51.19c-3.6-2.16-16.79-.61-16.79-.61,0-59.79,18.75-127.92,54.88-127.92L57,202.25C55.81,214,55.2,210.62,54.24,224c-.42,5.82-1.49,120.44-1.49,120.44S49.16,344.69,29.18,348.41Z"/><path class="cls-5" d="M197,166.7c3-3.36-32.4-3.36-34,0,1.59-3.36,4.54,30.46,2.84,32.5,1.7-2-84.51-2-82.83,0-1.68-2,1.1-35.86,2.66-32.5-1.57-3.36-35.34-3.36-32.45,0-2.89-3.36-8.39,168.2-5.28,164.84-3.11,3.36,155.45,3.36,152.34,0C203.44,334.9,200,163.34,197,166.7Z"/><path class="cls-3" d="M200.88,96.74c0,22.95,10.49,47.87-5.64,63S150.89,180.2,126,180.2c-22.32,0-48.63-7.15-64.34-19.67-19.21-15.31-25.49-38.44-25.49-63.8,0-46.09,40.22-83.46,89.83-83.46,24.5,0,41.17,10.72,52.9,26.69C190.91,56.37,200.88,73.41,200.88,96.74Z"/><circle class="cls-6" cx="63.77" cy="141.56" r="23.29"/><circle class="cls-7" cx="177.57" cy="144.84" r="23.29"/><path d="M95.66,143.24c6.33,0,6.34-9.84,0-9.84s-6.34,9.84,0,9.84Z"/><path d="M146.4,143.24c6.33,0,6.34-9.84,0-9.84s-6.34,9.84,0,9.84Z"/><path class="cls-8" d="M121.93,145a12.7,12.7,0,0,0,.28,5.56"/><path class="cls-8" d="M116.64,164.42a32.74,32.74,0,0,0,16.53-1.27"/><path class="cls-9" d="M212.95,94.6c-8.66-33.17-20.92-60.41-42.57-77C156,6.49,134.81,0,117.3,0,97.75,0,74.57,9.38,58.94,24.09,38.43,43.4,27.46,72.28,19.86,105.15c0,0-1.89,42.41.54,61.59.35,2.77,2.79,10.83,2.79,10.83l54.34,14.57s-16-31.9-19.25-40.17a128.37,128.37,0,0,1-7.71-33.15c22.62,7.64,47.36.14,63.79-17.68a68.15,68.15,0,0,0,9-12.39l1.07-1c.41.92.83,1.84,1.29,2.74a57.41,57.41,0,0,0,29.69,27.28,56.52,56.52,0,0,0,27.76,3.58l.37,0a126.11,126.11,0,0,1-3.05,30.39c-2,8.64-13.39,42.48-13.39,42.48l51.74-22.09s1.28-8.32,1.23-11.11C219.79,141.7,212.95,94.6,212.95,94.6Z"/></g></g></svg>