<svg xmlns="http://www.w3.org/2000/svg">
  <path style="fill: white;" d="m67.17023,24.85543a13.95561,13.95561 0 0 0 -17.58129,-8.96234a13.80295,13.80295 0 0 0 -1.78744,0.73781a13.95561,13.95561 0 1 0 -27.61226,0a14.13373,14.13373 0 0 0 -1.81292,-0.73148a13.95561,13.95561 0 0 0 -8.59985,26.54363a14.25458,14.25458 0 0 0 1.90824,0.45805a13.95561,13.95561 0 1 0 22.33931,16.22637a14.57901,14.57901 0 0 0 1.01128,1.64754a13.95561,13.95561 0 1 0 21.32779,-17.88033a13.85388,13.85388 0 0 0 10.81342,-18.03934l-0.00638,0l0.00009,0.00009zm-29.01167,5.24128a1.47573,1.47573 0 0 1 1.19577,-0.63602a1.47573,1.47573 0 0 1 1.45023,1.27213a1.43756,1.43756 0 0 1 -0.2607,1.09416a1.45661,1.45661 0 0 1 -1.19595,0.63611a1.48208,1.48208 0 0 1 -0.87134,-0.27995a1.46937,1.46937 0 0 1 -0.32439,-2.06091l0.00633,-0.02544l0.00005,-0.00009zm-9.08962,0.63611a1.48208,1.48208 0 0 1 1.45662,-1.27213a1.47573,1.47573 0 1 1 -1.45662,1.27213zm5.87101,15.26601a1.47573,1.47573 0 1 1 1.47581,-1.47567a1.47573,1.47573 0 0 1 -1.50124,1.49477l0.02544,-0.0191zm2.63333,-8.19904c-0.48978,1.43122 7.77924,12.37816 7.49939,12.56265c-0.90954,0.63606 -7.87457,-11.06789 -9.75117,-10.87711s-9.5412,11.60215 -9.9419,11.25232s7.41032,-11.34764 7.41032,-12.65807s-11.25227,-4.78336 -13.50396,-5.72472s-1.41212,-0.89057 1.96554,0.23531s11.39851,3.75927 12.38451,2.48714c0.63611,-0.78873 0.75053,-2.54435 0.75053,-2.54435s0.22274,-10.9024 0.75072,-11.25233c0.42614,-0.28619 0.55971,10.59721 0.55971,10.59721s-0.37536,3.09767 1.69193,3.46656s13.89842,-4.27444 13.99383,-3.81648c0.13371,0.76973 -13.09682,4.19827 -13.81567,6.29724l0.00638,-0.02539l-0.00014,0zm5.90925,1.99088a1.46937,1.46937 0 0 1 -1.39931,1.01781a1.52024,1.52024 0 0 1 -0.45801,-0.06998a1.47573,1.47573 0 1 1 1.77472,-2.07362a1.46296,1.46296 0 0 1 0.07626,1.17033l0.00633,-0.04454zm-16.13729,-1.90824a1.5457,1.5457 0 0 1 0.45796,-0.06988a1.47573,1.47573 0 0 1 0.458,2.88141a1.58387,1.58387 0 0 1 -0.458,0.06998a1.47573,1.47573 0 0 1 -0.45796,-2.88146l0,-0.00005z"/>
</svg>
