<svg xmlns="http://www.w3.org/2000/svg" xmlns:xlink="http://www.w3.org/1999/xlink" viewBox="0 0 250.32 446.54"><defs><style>.cls-1,.cls-14{fill:none;}.cls-2{fill:#e2489f;}.cls-3{fill:#43b0ca;}.cls-4{fill:#e6e6e6;}.cls-5{fill:#fbebd8;}.cls-6{fill:#ff7bac;}.cls-7{fill:#325f67;}.cls-8{fill:url(#新規パターン_4);}.cls-9{fill:#fff;}.cls-10{fill:url(#新規パターン_4-3);}.cls-11,.cls-12{opacity:0.54;}.cls-11{fill:url(#名称未設定グラデーション_60);}.cls-12{fill:url(#名称未設定グラデーション_60-2);}.cls-13{fill:#1a1a1a;}.cls-14{stroke:#000;stroke-linecap:round;stroke-miterlimit:10;stroke-width:1.66px;}</style><pattern id="新規パターン_4" data-name="新規パターン 4" width="30.19" height="28.48" patternTransform="matrix(-3.32, 0, 0, 3.32, -130.18, -26.07)" patternUnits="userSpaceOnUse" viewBox="0 0 30.19 28.48"><rect class="cls-1" width="30.19" height="28.48"/><rect class="cls-2" y="22.79" width="30.19" height="4.18"/><rect class="cls-3" y="26.96" width="30.19" height="1.52"/><rect class="cls-2" y="17.09" width="30.19" height="4.18"/><rect class="cls-3" y="21.27" width="30.19" height="1.52"/><rect class="cls-2" y="11.39" width="30.19" height="4.18"/><rect class="cls-3" y="15.57" width="30.19" height="1.52"/><rect class="cls-2" y="5.7" width="30.19" height="4.18"/><rect class="cls-3" y="9.87" width="30.19" height="1.52"/><rect class="cls-2" width="30.19" height="4.18"/><rect class="cls-3" y="4.18" width="30.19" height="1.52"/></pattern><pattern id="新規パターン_4-3" data-name="新規パターン 4" width="30.19" height="28.48" patternTransform="translate(-44.5 -26.07) scale(3.32)" patternUnits="userSpaceOnUse" viewBox="0 0 30.19 28.48"><rect class="cls-1" width="30.19" height="28.48"/><rect class="cls-2" y="22.79" width="30.19" height="4.18"/><rect class="cls-3" y="26.96" width="30.19" height="1.52"/><rect class="cls-2" y="17.09" width="30.19" height="4.18"/><rect class="cls-3" y="21.27" width="30.19" height="1.52"/><rect class="cls-2" y="11.39" width="30.19" height="4.18"/><rect class="cls-3" y="15.57" width="30.19" height="1.52"/><rect class="cls-2" y="5.7" width="30.19" height="4.18"/><rect class="cls-3" y="9.87" width="30.19" height="1.52"/><rect class="cls-2" width="30.19" height="4.18"/><rect class="cls-3" y="4.18" width="30.19" height="1.52"/></pattern><radialGradient id="名称未設定グラデーション_60" cx="73.13" cy="61.19" r="18.89" gradientTransform="translate(0 107.58) scale(1 0.72)" gradientUnits="userSpaceOnUse"><stop offset="0" stop-color="#df7261"/><stop offset="0.38" stop-color="#df7362" stop-opacity="0.99"/><stop offset="0.52" stop-color="#e07767" stop-opacity="0.96"/><stop offset="0.62" stop-color="#e27f70" stop-opacity="0.91"/><stop offset="0.7" stop-color="#e48a7b" stop-opacity="0.83"/><stop offset="0.77" stop-color="#e8988b" stop-opacity="0.73"/><stop offset="0.83" stop-color="#eba99e" stop-opacity="0.61"/><stop offset="0.88" stop-color="#f0bdb5" stop-opacity="0.47"/><stop offset="0.93" stop-color="#f5d5d0" stop-opacity="0.3"/><stop offset="0.98" stop-color="#fbefed" stop-opacity="0.11"/><stop offset="1" stop-color="#fff" stop-opacity="0"/></radialGradient><radialGradient id="名称未設定グラデーション_60-2" cx="165.43" cy="63.85" r="18.89" xlink:href="#名称未設定グラデーション_60"/></defs><title>hime-lady</title><g id="Layer_2" data-name="Layer 2"><g id="人物"><path class="cls-3" d="M64.55,435.65c-8.51-37.59-8.11-79.41,4.94-114.93A56.63,56.63,0,0,1,86,297.61L115,307.36c-4.15,3.33-8.48,10.55-12.16,15.1-9.17,11.33-15.69,24-20.94,39.52-7.67,22.64-7,51-1.09,71.15Z"/><path class="cls-3" d="M162.59,435.65c-8.51-37.59-8.11-79.41,4.94-114.93A56.63,56.63,0,0,1,184,297.61L213,307.36c-4.15,3.33-8.48,10.55-12.16,15.1-9.17,11.33-15.69,24-20.94,39.52-7.67,22.64-7,51-1.09,71.15Z"/><polygon class="cls-4" points="82.92 438.29 44.37 446.54 41.88 438.54 80.43 430.29 82.92 438.29"/><polygon class="cls-4" points="180.87 438.29 142.32 446.54 139.83 438.54 178.37 430.29 180.87 438.29"/><ellipse class="cls-5" cx="8.4" cy="305" rx="8.39" ry="10.65"/><path class="cls-6" d="M32.18,417.19S27.48,307.41,16.79,301c-3.6-2.16-16.79-.61-16.79-.61,0-59.79,18.75-127.92,54.88-127.92L57,206c-1.22,11.73-1.83,8.37-2.78,21.71-.42,5.82,1.51,185.44,1.51,185.44S52.16,413.46,32.18,417.19Z"/><ellipse class="cls-5" cx="241.93" cy="305" rx="8.39" ry="10.65"/><path class="cls-6" d="M217.51,417.19S222.2,307.41,232.9,301c3.6-2.16,16.79-.61,16.79-.61,0-59.79-18.75-127.92-54.88-127.92L192.66,206c1.22,11.73,1.83,8.37,2.78,21.71.42,5.82-1.51,185.44-1.51,185.44S197.52,413.46,217.51,417.19Z"/><path class="cls-6" d="M207.25,406.2c8.52,12.36-172.19,12.36-163.5,0-8.69,12.36-11.62-247.26-2.65-234.9-9-12.36,179.33-12.36,170.37,0C220.43,158.94,215.77,418.56,207.25,406.2Z"/><path class="cls-7" d="M123.05,226.08s-.95-1.25-2.5-3.48l-2.82-4c-1.08-1.53-2.34-3.23-3.67-5.1s-2.82-3.85-4.4-5.93-3.26-4.25-5.05-6.44c-.88-1.11-1.82-2.19-2.74-3.32s-1.9-2.22-2.89-3.31c-2-2.21-4-4.38-6.13-6.48s-4.31-4.1-6.52-6-4.49-3.64-6.75-5.24a74.12,74.12,0,0,0-6.75-4.26,66.71,66.71,0,0,0-6.44-3.18c-1-.42-2-.85-3-1.18s-1.88-.7-2.76-1l-1.28-.39-1.21-.32c-.77-.23-1.49-.41-2.15-.54l-1.76-.4-1.31-.25-1.1-.22,1.11-.16a27.58,27.58,0,0,1,3.18-.29c.69,0,1.45-.06,2.29,0a24.37,24.37,0,0,1,2.7.13,43.36,43.36,0,0,1,6.46,1A50.91,50.91,0,0,1,75,168a56.71,56.71,0,0,1,7.79,3.82c1.31.74,2.59,1.58,3.87,2.45l1.91,1.33,1.86,1.43a82.08,82.08,0,0,1,7.13,6.29,93.37,93.37,0,0,1,6.35,7c2,2.4,3.8,4.86,5.45,7.3s3.15,4.87,4.49,7.2,2.51,4.6,3.53,6.7,1.88,4.08,2.6,5.84,1.3,3.32,1.78,4.59.77,2.31,1,3Z"/><path class="cls-8" d="M123.05,228l-.37-1.11-1-3.14c-.46-1.34-1-2.94-1.69-4.76l-.52-1.41-.61-1.47c-.42-1-.82-2.07-1.33-3.14s-1-2.22-1.54-3.35l-.84-1.74-.93-1.77c-1.23-2.39-2.68-4.82-4.23-7.29s-3.32-4.89-5.18-7.3a89.4,89.4,0,0,0-6.07-6.91A81.71,81.71,0,0,0,92,178.41a79.62,79.62,0,0,0-7.22-5.15,68.43,68.43,0,0,0-7.31-3.94,58.17,58.17,0,0,0-7-2.7c-.56-.17-1.1-.36-1.64-.51l-1.59-.41c-1-.31-2-.48-3-.69s-1.84-.29-2.66-.46-1.6-.23-2.29-.3c-1.39-.16-2.5-.24-3.26-.28l-1.17-.09,1.14-.29a27,27,0,0,1,3.27-.67,34.62,34.62,0,0,1,5.2-.46,40.93,40.93,0,0,1,6.82.39,47.53,47.53,0,0,1,7.94,1.79,55.1,55.1,0,0,1,8.43,3.49c1.4.74,2.81,1.52,4.18,2.4s2.73,1.81,4.08,2.79a67.82,67.82,0,0,1,7.56,6.63,72.49,72.49,0,0,1,6.46,7.68c1,1.35,1.9,2.69,2.73,4.08s1.65,2.76,2.39,4.14a69.67,69.67,0,0,1,3.7,8.21c.5,1.34,1,2.64,1.35,3.93s.75,2.53,1,3.73.56,2.36.76,3.47l.3,1.62.22,1.54c.33,2,.42,3.74.53,5.16s.06,2.54.09,3.31Z"/><path class="cls-9" d="M124.2,229.12,124.1,228c-.07-.75-.12-1.87-.28-3.26s-.34-3-.65-4.95c-.12-1-.32-2-.55-3l-.32-1.61-.41-1.67-.42-1.73L121,210c-.32-1.21-.75-2.42-1.18-3.68s-.95-2.5-1.44-3.79-1.07-2.58-1.75-3.84a71.9,71.9,0,0,0-15.91-21.5,75.09,75.09,0,0,0-6.81-5.52,71.57,71.57,0,0,0-7-4.34,61.35,61.35,0,0,0-6.76-3.08C79,163.76,78,163.44,77,163.1s-2-.59-2.9-.86-1.8-.39-2.61-.61-1.57-.32-2.25-.44c-1.37-.25-2.46-.39-3.21-.47l-1.16-.16,1.14-.22a26.2,26.2,0,0,1,3.28-.47,34.63,34.63,0,0,1,5.18-.14,41.6,41.6,0,0,1,6.73.8,49.06,49.06,0,0,1,7.76,2.23,56.53,56.53,0,0,1,8.14,3.95c.68.39,1.34.83,2,1.26s1.34.88,2,1.36,1.33.94,2,1.45l1.91,1.57a63,63,0,0,1,7.06,7.1,63.39,63.39,0,0,1,5.77,8.18c.83,1.43,1.62,2.86,2.31,4.33l1,2.18c.31.73.59,1.48.88,2.2.61,1.45,1,2.93,1.51,4.36s.82,2.86,1.08,4.27.58,2.76.72,4.1l.25,2c.06.64.1,1.28.14,1.89l.11,1.81q0,.89,0,1.73c0,1.13,0,2.19-.1,3.19s-.08,1.92-.23,2.79l-.34,2.35c-.19,1.41-.52,2.47-.66,3.22Z"/><path class="cls-7" d="M123,226.08l.33-1.07c.24-.69.53-1.73,1-3s1-2.86,1.78-4.59,1.58-3.73,2.6-5.84,2.2-4.36,3.53-6.7,2.82-4.77,4.49-7.2,3.47-4.9,5.45-7.3a93.32,93.32,0,0,1,6.35-7,82,82,0,0,1,7.13-6.29l1.86-1.43,1.91-1.33c1.28-.86,2.56-1.71,3.87-2.45a56.69,56.69,0,0,1,7.79-3.82,50.91,50.91,0,0,1,7.41-2.33,43.36,43.36,0,0,1,6.46-1,24.37,24.37,0,0,1,2.7-.13c.83,0,1.6,0,2.29,0a27.59,27.59,0,0,1,3.18.29l1.11.16-1.1.22-1.31.25-1.75.4c-.66.13-1.37.32-2.15.54l-1.21.32-1.28.39c-.88.26-1.8.58-2.76,1s-2,.77-3,1.18a66.69,66.69,0,0,0-6.44,3.18,74.12,74.12,0,0,0-6.75,4.26c-2.26,1.61-4.54,3.34-6.75,5.24s-4.42,3.89-6.52,6-4.18,4.26-6.13,6.48c-1,1.09-1.93,2.22-2.89,3.31s-1.86,2.21-2.74,3.32c-1.79,2.19-3.47,4.36-5.05,6.44s-3.05,4.07-4.4,5.93-2.6,3.56-3.67,5.1l-2.82,4C124,224.83,123,226.08,123,226.08Z"/><path class="cls-10" d="M123,228s0-.41,0-1.17,0-1.88.09-3.31.2-3.19.53-5.16l.22-1.54.3-1.62c.2-1.11.45-2.27.76-3.47s.63-2.46,1-3.73.84-2.6,1.35-3.93a69.59,69.59,0,0,1,3.7-8.21c.75-1.38,1.51-2.78,2.39-4.14s1.77-2.73,2.73-4.08a72.52,72.52,0,0,1,6.46-7.68,67.85,67.85,0,0,1,7.56-6.63c1.35-1,2.67-2,4.08-2.79s2.78-1.66,4.18-2.4a55.1,55.1,0,0,1,8.43-3.49,47.53,47.53,0,0,1,7.94-1.79,40.93,40.93,0,0,1,6.82-.39,34.62,34.62,0,0,1,5.2.46,27,27,0,0,1,3.27.67l1.14.29-1.17.09c-.76,0-1.87.11-3.26.28-.7.07-1.46.14-2.29.3s-1.72.22-2.66.46-1.94.38-3,.69l-1.59.41c-.54.15-1.08.34-1.64.51a58.16,58.16,0,0,0-7,2.7,68.43,68.43,0,0,0-7.31,3.94,79.62,79.62,0,0,0-7.22,5.15,81.71,81.71,0,0,0-6.77,6.18,89.5,89.5,0,0,0-6.07,6.91c-1.86,2.4-3.6,4.85-5.18,7.3s-3,4.9-4.23,7.29l-.93,1.77-.84,1.74c-.58,1.14-1.06,2.27-1.54,3.35s-.91,2.14-1.33,3.14l-.61,1.47-.52,1.41c-.69,1.83-1.23,3.43-1.69,4.76l-1,3.14Z"/><path class="cls-9" d="M121.9,229.12l-.27-1.13c-.14-.75-.47-1.81-.66-3.22l-.34-2.35c-.14-.86-.15-1.79-.23-2.79s-.11-2.06-.1-3.19q0-.85,0-1.73l.11-1.81c0-.62.08-1.25.14-1.89l.25-2c.14-1.34.45-2.69.72-4.1s.71-2.81,1.08-4.27.9-2.91,1.51-4.36c.29-.73.57-1.47.88-2.2l1-2.18c.68-1.46,1.48-2.9,2.31-4.33a59.72,59.72,0,0,1,12.83-15.28l1.91-1.57c.64-.51,1.32-1,2-1.45s1.31-.94,2-1.36,1.33-.87,2-1.26a56.53,56.53,0,0,1,8.14-3.95,49.06,49.06,0,0,1,7.76-2.23,41.6,41.6,0,0,1,6.73-.8,34.63,34.63,0,0,1,5.18.14,26.21,26.21,0,0,1,3.27.47l1.14.22-1.16.16c-.75.08-1.84.22-3.21.47-.69.12-1.44.22-2.25.44s-1.69.33-2.61.61-1.9.48-2.9.86-2.07.66-3.14,1.12a61.35,61.35,0,0,0-6.76,3.08,71.63,71.63,0,0,0-7,4.34,75.09,75.09,0,0,0-6.81,5.52,71.67,71.67,0,0,0-15.91,21.5c-.68,1.27-1.15,2.59-1.75,3.84s-1,2.54-1.44,3.79-.86,2.47-1.18,3.68l-.52,1.77-.42,1.73-.41,1.67-.32,1.61c-.23,1-.43,2-.55,3-.31,1.9-.5,3.56-.65,4.95s-.21,2.51-.28,3.26Z"/><path class="cls-3" d="M89.74,378.27l0-2.9c0-1.89-.1-4.67-.11-8.2l.11-5.85c0-2.13,0-4.44.19-6.9l.35-7.84c.18-2.76.44-5.65.68-8.67.55-6,1.26-12.58,2.26-19.46.42-3.45,1.1-7,1.67-10.57.28-1.81.64-3.62,1-5.44L97,296.9c.84-3.7,1.68-7.47,2.63-11.27s1.95-7.63,3.16-11.43c2.21-7.67,5-15.31,7.89-22.88s6.47-14.9,10.18-22a192.82,192.82,0,0,1,12.36-20,140.71,140.71,0,0,1,14.24-16.76,107.77,107.77,0,0,1,15.25-12.49l3.82-2.36.93-.57,1-.5,1.88-1a70.59,70.59,0,0,1,7.22-3.2l.85-.35.87-.27,1.69-.53c1.11-.34,2.16-.7,3.2-1,2.1-.44,4-.9,5.75-1.21l4.7-.55a15.13,15.13,0,0,1,1.9-.1l1.59,0,2.9-.05-2.89.22-1.57.12a15,15,0,0,0-1.88.21l-4.63.78c-1.71.38-3.58.93-5.63,1.45-1,.32-2,.72-3.11,1.1l-1.64.59-.84.3-.82.38a69.17,69.17,0,0,0-6.94,3.46l-1.81,1-.92.51-.89.59-3.67,2.41a105.71,105.71,0,0,0-14.6,12.64A157.33,157.33,0,0,0,135.49,211a208.65,208.65,0,0,0-11.93,19.8c-3.62,7-7,14.29-9.94,21.74s-5.68,15-7.91,22.59c-1.21,3.76-2.18,7.56-3.24,11.29s-1.88,7.47-2.77,11.13c-1.62,7.35-3.11,14.49-4.24,21.3s-2.05,13.29-2.77,19.29l-.94,8.61-.7,7.79c-.25,2.44-.35,4.74-.49,6.86l-.36,5.83Z"/><path class="cls-5" d="M200.55,101.34c0,23.25,10.63,48.5-5.72,63.79s-44.93,20.77-70.18,20.77c-22.61,0-49.28-7.24-65.19-19.93C40,150.47,33.64,127,33.64,101.34c0-46.7,40.75-84.56,91-84.56,24.82,0,41.71,10.86,53.6,27C190.45,60.44,200.55,77.7,200.55,101.34Z"/><ellipse class="cls-11" cx="73.13" cy="151.55" rx="18.89" ry="13.57"/><ellipse class="cls-12" cx="165.43" cy="153.46" rx="18.89" ry="13.57"/><path d="M93.94,145.59c7,0,7-10.87,0-10.87s-7,10.87,0,10.87Z"/><path d="M145.35,145.59c7,0,7-10.87,0-10.87s-7,10.87,0,10.87Z"/><path class="cls-13" d="M19.82,95.74c-.93,7.54-2.17,15.14-2.67,22.93C15,151.75,15.22,210,17.69,251.24c.36,6,2.83,23.31,2.83,23.31l55.06,31.36s-16.25-68.66-19.5-86.46c-5.07-27.77-7.28-79.12-8.14-102.91-1-.7-1.94-1.27-2.89-2.08C34.62,105.6,31.38,105.53,19.82,95.74Z"/><path class="cls-13" d="M179.91,211.07c-2,19.29-13.56,94.84-13.56,94.84l52.42-49.32S220.06,238,220,231.78c-.22-30.59-3.76-92.3-5.81-125.66-15.87,4.75-20.6,7.65-31.85,10.57C182.79,139.62,182.74,184.2,179.91,211.07Z"/><path class="cls-13" d="M212.78,95.85c-8.77-33.61-21.2-61.21-43.14-78.06-7.82-6-17.62-10.63-27.75-13.68a92.19,92.19,0,0,0-26-4.11,68.65,68.65,0,0,0-8.45.56A94.14,94.14,0,0,0,56.74,24.41C38.24,41.83,27.4,66.94,19.82,95.74A57.67,57.67,0,0,0,45,115.5c1,.38,1.93.65,2.89,1,23,7.83,48.24.2,65-17.94a69.63,69.63,0,0,0,10-14.08c.5,1.11,1,2.22,1.54,3.3a58.38,58.38,0,0,0,30.19,27.74,57.47,57.47,0,0,0,28.23,3.64,63.39,63.39,0,0,0,31.33-13C213.37,99.91,212.78,95.85,212.78,95.85Z"/><ellipse cx="90.62" cy="127.8" rx="3.33" ry="0.94"/><ellipse cx="147.09" cy="127.8" rx="3.33" ry="0.94"/><path class="cls-14" d="M117.24,150.19a12.86,12.86,0,0,0,.28,5.63"/><path class="cls-14" d="M111.87,169.92a33.17,33.17,0,0,0,16.75-1.28"/><path class="cls-13" d="M210.84,94.7c-8.66-33.17-20.92-60.41-42.57-77C153.87,6.6,132.71.11,115.19.11,95.65.11,72.46,9.49,56.84,24.2c-20.51,19.3-31.48,48.18-39.08,81.05,0,0-1.89,42.41.54,61.59.35,2.77,2.79,10.83,2.79,10.83l54.34,14.57s-16-31.9-19.25-40.17a128.37,128.37,0,0,1-7.71-33.15c22.62,7.64,47.36.14,63.79-17.68a68.15,68.15,0,0,0,9-12.39l1.07-1c.41.92.83,1.84,1.29,2.74a57.41,57.41,0,0,0,29.69,27.28,56.52,56.52,0,0,0,27.76,3.58l.37,0a126.11,126.11,0,0,1-3.05,30.39c-2,8.64-13.39,42.48-13.39,42.48l51.74-22.09s1.28-8.32,1.23-11.11C217.69,141.8,210.84,94.7,210.84,94.7Z"/></g></g></svg>