<svg xmlns="http://www.w3.org/2000/svg" width="100%" height="100%" viewBox="198.5 0 375.3 638.33">
  <path fill="none" stroke="#ffc7de" stroke-miterlimit="10" stroke-width="60" d="M10.74 106.73l187.68 72 187.68-72 187.68 72 187.67-72 187.68 72 187.68-72 187.69 72 187.68-72"/>
  <path fill="none" stroke="#ffc7de" stroke-miterlimit="10" stroke-width="30" d="M10.74 441.08l187.68 72 187.68-72 187.68 72 187.67-72 187.68 72 187.68-72 187.69 72 187.68-72M10.74 16.07l187.68 72 187.68-72 187.68 72 187.67-72 187.68 72 187.68-72 187.69 72 187.68-72"/>
  <path fill="none" stroke="#ffc7de" stroke-miterlimit="10" stroke-width="60" d="M10.74 272.15l187.68 72 187.68-72 187.68 72 187.67-72 187.68 72 187.68-72 187.69 72 187.68-72M10.74 534.2l187.68 72 187.68-72 187.68 72 187.67-72 187.68 72 187.68-72 187.69 72 187.68-72"/>
  <path fill="none" stroke="#ffc7de" stroke-miterlimit="10" stroke-width="9" d="M10.74 174.96l187.68 72 187.68-72 187.68 72 187.67-72 187.68 72 187.68-72 187.69 72 187.68-72"/>
  <path fill="none" stroke="#ffc7de" stroke-miterlimit="10" stroke-width="9" d="M10.74 206.47l187.68 72.01 187.68-72.01 187.68 72.01 187.67-72.01 187.68 72.01 187.68-72.01 187.69 72.01 187.68-72.01M10.74 344.49l187.68 72 187.68-72 187.68 72 187.67-72 187.68 72 187.68-72 187.69 72 187.68-72M10.74 479.1l187.68 72 187.68-72 187.68 72 187.67-72 187.68 72 187.68-72 187.69 72 187.68-72M10.74 49.37l187.68 71.99L386.1 49.37l187.68 71.99 187.67-71.99 187.68 71.99 187.68-71.99 187.69 71.99 187.68-71.99"/>
  <path fill="none" stroke="#ffc7de" stroke-miterlimit="10" stroke-width="9" d="M10.74 379.89l187.68 72 187.68-72 187.68 72 187.67-72 187.68 72 187.68-72 187.69 72 187.68-72"/>
</svg>
