<svg xmlns="http://www.w3.org/2000/svg" viewBox="0 0 77.86 1406.28">
  <path d="M25.82 1331.66c0-1.92-5.78-3.5-12.91-3.5S0 1329.75 0 1331.67c0 .19.07.61.19.61h.3v74h.1c.17-2 5.65-3.26 12.41-3.26s12.24 1.26 12.41 3.26h1.07v-74h-.85c.12 0 .19-.43.19-.62z" fill="#7b7031"/>
  <path d="M25.82 1253.56c0-1.92-5.78-3.55-12.91-3.55S0 1251.68 0 1253.59c0 .19.07.68.19.68h.3v74h.1c.17-2 5.65-3.26 12.41-3.26s12.24 1.26 12.41 3.26h1.07v-74h-.85c.12.01.19-.52.19-.71z" fill="#7b7031"/>
  <path d="M25.82 1175.45c0-1.92-5.78-3.6-12.91-3.6S0 1173.6 0 1175.52c0 .19.07.76.19.76h.3v74h.1c.17-2 5.65-3.26 12.41-3.26s12.24 1.26 12.41 3.26h1.07v-74h-.85c.12 0 .19-.63.19-.83z" fill="#7b7031"/>
  <path d="M25.82 1097.35c0-1.92-5.78-3.65-12.91-3.65S0 1095.53 0 1097.44c0 .19.07-.16.19.84h.3v74h.1c.17-2 5.65-3.26 12.41-3.26s12.24 1.26 12.41 3.26h1.07v-74h-.85a3.56 3.56 0 0 1 .19-.93z" fill="#7b7031"/>
  <path d="M25.82 1018.75c0-1.92-5.78-3.45-12.91-3.45S0 1016.83 0 1018.74c0 .19.07.54.19.54h.3v75h.1c.17-2 5.65-3.26 12.41-3.26s12.24 1.26 12.41 3.26h1.07v-75h-.85c.12 0 .19-.33.19-.53zm0-78.1c0-1.92-5.78-3.5-12.91-3.5S0 938.75 0 940.67c0 .19.07.61.19.61h.3v74h.1c.17-2 5.65-3.26 12.41-3.26s12.24 1.26 12.41 3.26h1.07v-74h-.85c.12 0 .19-.43.19-.63z" fill="#7b7031"/>
  <path d="M25.82 862.55c0-1.92-5.78-3.55-12.91-3.55S0 860.68 0 862.59c0 .19.07.69.19.69h.3v74h.1c.17-2 5.66-3.28 12.41-3.28s12.24 1.26 12.41 3.26h1.07v-74h-.85c.12.02.19-.51.19-.71z" fill="#7b7031"/>
  <path d="M25.82 784.65c0-1.92-5.78-3.5-12.91-3.5S0 782.75 0 784.67c0 .19.07.61.19.61h.3v74h.1c.17-2 5.66-3.28 12.41-3.28s12.24 1.26 12.41 3.26h1.07v-74h-.85c.12.02.19-.41.19-.61z" fill="#7b7031"/>
  <path d="M25.82 706.65c0-1.92-5.78-3.5-12.91-3.5S0 704.75 0 706.67c0 .19.07.61.19.61h.3v74h.1c.17-2 5.66-3.28 12.41-3.28s12.24 1.26 12.41 3.26h1.07v-74h-.85c.12.02.19-.41.19-.61z" fill="#7b7031"/>
  <path d="M25.82 628.55c0-1.92-5.78-3.55-12.91-3.55S0 626.68 0 628.59c0 .19.07.69.19.69h.3v74h.1c.17-2 5.66-3.28 12.41-3.28s12.24 1.26 12.41 3.26h1.07v-74h-.85c.12.02.19-.51.19-.71z" fill="#7b7031"/>
  <path d="M26.82 550.45c0-1.92-5.78-3.6-12.91-3.6S1 548.6 1 550.52c0 .19.07.76.19.76h.3v74h.11c.17-2 5.65-3.26 12.41-3.26s12.24 1.26 12.41 3.26h1.07v-74h-.85c.11 0 .18-.63.18-.83z" fill="#7b7031"/>
  <path d="M26.82 472.35c0-1.92-5.78-3.65-12.91-3.65S1 470.53 1 472.44c0 .19.07-.16.19.84h.3v74h.11c.17-2 5.65-3.26 12.41-3.26s12.24 1.26 12.41 3.26h1.07v-74h-.85a3.56 3.56 0 0 1 .18-.93z" fill="#7b7031"/>
  <path d="M26.82 393.75c0-1.92-5.78-3.45-12.91-3.45S1 391.83 1 393.74c0 .19.07.54.19.54h.3v75h.11c.17-2 5.65-3.26 12.41-3.26s12.24 1.26 12.41 3.26h1.07v-75h-.85c.11 0 .18-.33.18-.53zm0-78.1c0-1.92-5.78-3.5-12.91-3.5S1 313.75 1 315.67c0 .19.07.61.19.61h.3v74h.11c.17-2 5.65-3.26 12.41-3.26s12.24 1.26 12.41 3.26h1.07v-74h-.85c.11 0 .18-.43.18-.63z" fill="#7b7031"/>
  <path d="M26.82 237.55c0-1.92-5.78-3.55-12.91-3.55S1 235.68 1 237.59c0 .19.07.69.19.69h.3v74h.11c.17-2 5.65-3.26 12.41-3.26s12.24 1.26 12.41 3.26h1.07v-74h-.85c.11 0 .18-.53.18-.73z" fill="#7b7031"/>
  <path d="M26.82 159.65c0-1.92-5.78-3.5-12.91-3.5S1 157.75 1 159.67c0 .19.07.61.19.61h.3v74h.11c.17-2 5.65-3.26 12.41-3.26s12.24 1.26 12.41 3.26h1.07v-74h-.85c.11 0 .18-.43.18-.63z" fill="#7b7031"/>
  <path d="M26.82 81.65c0-1.92-5.78-3.5-12.91-3.5S1 79.75 1 81.67c0 .19.07.61.19.61h.3v74h.11c.17-2 5.65-3.26 12.41-3.26s12.24 1.26 12.41 3.26h1.07v-74h-.85c.11 0 .18-.43.18-.63z" fill="#7b7031"/>
  <path d="M26.82 3.55C26.82 1.64 21 0 13.91 0S1 1.68 1 3.59c0 .19.07.69.19.69h.3v74h.11C1.76 76.28 7.25 75 14 75s12.24 1.26 12.41 3.26h1.07v-74h-.85c.12.02.19-.51.19-.71zm49.83 788.52s-3.07-.11-7.64-.45l-3.69-.29c-1.31-.1-2.68-.24-4.1-.37s-2.89-.25-4.38-.44l-4.5-.52c-1.51-.17-3-.28-4.54-.35a29.13 29.13 0 0 1-4.37-.48 22 22 0 0 1-3.92-1.17 32.17 32.17 0 0 1-3.4-1.58 29.66 29.66 0 0 1-2.79-1.68 24.6 24.6 0 0 1-2.09-1.57c-.57-.47-1-.88-1.31-1.18s-.45-.47-.45-.47l.21-.92s.21-.09.61-.23 1-.32 1.69-.51a24.59 24.59 0 0 1 2.56-.53 29.67 29.67 0 0 1 3.24-.32 32.17 32.17 0 0 1 3.74 0 22 22 0 0 1 4.06.57 29.14 29.14 0 0 1 4.15 1.42c1.39.58 2.82 1.13 4.26 1.62l4.3 1.45c1.42.46 2.8 1 4.15 1.47s2.64.95 3.87 1.42l3.46 1.32c4.28 1.65 7.1 2.86 7.1 2.86zM49.15 821s-1.55-2.11-3.79-5.33c-1.11-1.61-2.42-3.49-3.77-5.52s-2.78-4.22-4.2-6.4c-.71-1.09-1.46-2.16-2.21-3.21a34.16 34.16 0 0 1-2.07-3.15 33.15 33.15 0 0 1-2.55-6.19 29.8 29.8 0 0 1-1.08-4.77 16.64 16.64 0 0 1-.17-1.94l.53-.29a16.63 16.63 0 0 1 1.53 1.2 29.8 29.8 0 0 1 3.42 3.5 33.15 33.15 0 0 1 3.81 5.5 34.18 34.18 0 0 1 1.52 3.45c.47 1.2 1 2.41 1.49 3.6 1.06 2.38 2.14 4.75 3.08 7s1.84 4.36 2.58 6.17c1.48 3.63 2.41 6.08 2.41 6.08zm15.39-58s-2 1.3-5.12 3.14c-1.55.91-3.35 2-5.31 3.08s-4.05 2.24-6.15 3.38c-1 .57-2.08 1.19-3.08 1.81a24.35 24.35 0 0 1-3 1.66 18 18 0 0 1-3.06 1 26.31 26.31 0 0 1-2.88.56 24.07 24.07 0 0 1-2.54.22 19.77 19.77 0 0 1-2 0 13.78 13.78 0 0 1-1.86-.22l-.27-.65a13.78 13.78 0 0 1 1.15-1.47 19.78 19.78 0 0 1 1.35-1.51 24.09 24.09 0 0 1 1.95-1.64 26.31 26.31 0 0 1 2.43-1.65 18 18 0 0 1 2.85-1.49 24.34 24.34 0 0 1 3.31-1c1.15-.28 2.31-.57 3.46-.91 2.29-.69 4.56-1.41 6.73-2s4.19-1.14 5.92-1.6c3.48-.9 5.84-1.43 5.84-1.43zm13.11-420.77s-3.07-.11-7.64-.45l-3.69-.29c-1.31-.1-2.68-.24-4.1-.37s-2.89-.25-4.38-.44l-4.5-.52c-1.51-.17-3-.28-4.54-.35a29.13 29.13 0 0 1-4.37-.48 22 22 0 0 1-3.91-1.22 32.17 32.17 0 0 1-3.4-1.58 29.66 29.66 0 0 1-2.79-1.68 24.6 24.6 0 0 1-2.09-1.57c-.57-.47-1-.88-1.31-1.18s-.45-.47-.45-.47l.21-.92s.21-.09.61-.23 1-.32 1.69-.51a24.59 24.59 0 0 1 2.56-.53 29.67 29.67 0 0 1 3.24-.32 32.17 32.17 0 0 1 3.74 0 22 22 0 0 1 4.06.57 29.14 29.14 0 0 1 4.15 1.43c1.39.58 2.82 1.13 4.26 1.62l4.3 1.45c1.42.46 2.8 1 4.15 1.47s2.64.95 3.87 1.42l3.46 1.32c4.28 1.65 7.1 2.86 7.1 2.86zm-27.5 28.89s-1.55-2.11-3.79-5.33c-1.11-1.61-2.42-3.49-3.77-5.52s-2.78-4.22-4.2-6.4c-.71-1.09-1.46-2.16-2.21-3.21a34.16 34.16 0 0 1-2.07-3.15 33.15 33.15 0 0 1-2.55-6.19 29.8 29.8 0 0 1-1.08-4.77 16.64 16.64 0 0 1-.17-1.94l.53-.29a16.63 16.63 0 0 1 1.53 1.2 29.8 29.8 0 0 1 3.42 3.5 33.15 33.15 0 0 1 3.81 5.5 34.18 34.18 0 0 1 1.51 3.48c.47 1.2 1 2.41 1.49 3.6 1.06 2.38 2.14 4.75 3.08 7s1.84 4.36 2.58 6.17c1.48 3.63 2.41 6.08 2.41 6.08zm15.39-57.99s-2 1.3-5.12 3.14c-1.55.91-3.35 2-5.31 3.08s-4.05 2.24-6.15 3.38c-1 .57-2.08 1.19-3.08 1.81a24.35 24.35 0 0 1-3 1.66 18 18 0 0 1-3.06 1 26.31 26.31 0 0 1-2.88.56 24.07 24.07 0 0 1-2.54.22 19.77 19.77 0 0 1-2 0 13.78 13.78 0 0 1-1.86-.22l-.27-.65a13.78 13.78 0 0 1 1.15-1.47 19.78 19.78 0 0 1 1.42-1.46 24.09 24.09 0 0 1 1.95-1.64 26.31 26.31 0 0 1 2.43-1.65 18 18 0 0 1 2.78-1.51 24.34 24.34 0 0 1 3.31-1c1.15-.28 2.31-.57 3.46-.91 2.29-.69 4.56-1.41 6.73-2s4.19-1.14 5.92-1.6c3.48-.9 5.84-1.43 5.84-1.43z" fill="#7b7031"/>
</svg>
