<svg xmlns="http://www.w3.org/2000/svg" viewBox="0 0 77.05 1326.28">
  <path d="M76.39 1251.66c0-1.92-5.78-3.5-12.91-3.5s-12.91 1.6-12.91 3.52c0 .19.07.61.19.61H51v74h.11c.17-2 5.65-3.26 12.41-3.26s12.24 1.26 12.41 3.26H77v-74h-.8c.11-.01.19-.44.19-.63z" fill="#7b7031"/>
  <path d="M76.39 1173.56c0-1.92-5.78-3.55-12.91-3.55s-12.91 1.67-12.91 3.59c0 .19.07.68.19.68H51v74h.11c.17-2 5.65-3.26 12.41-3.26s12.24 1.26 12.41 3.26H77v-74h-.8c.11 0 .19-.53.19-.72z" fill="#7b7031"/>
  <path d="M76.39 1095.45c0-1.92-5.78-3.6-12.91-3.6s-12.91 1.75-12.91 3.67c0 .19.07.76.19.76H51v74h.11c.17-2 5.65-3.26 12.41-3.26s12.24 1.26 12.41 3.26H77v-74h-.8c.11 0 .19-.63.19-.83z" fill="#7b7031"/>
  <path d="M76.39 1017.35c0-1.92-5.78-3.65-12.91-3.65s-12.91 1.83-12.91 3.74c0 .19.07-.16.19.84H51v74h.11c.17-2 5.65-3.26 12.41-3.26s12.24 1.26 12.41 3.26H77v-74h-.8a3.56 3.56 0 0 1 .19-.93z" fill="#7b7031"/>
  <path d="M76.39 938.75c0-1.92-5.78-3.45-12.91-3.45s-12.91 1.53-12.91 3.44c0 .19.07.54.19.54H51v75h.11c.17-2 5.65-3.26 12.41-3.26s12.24 1.26 12.41 3.26H77v-75h-.8c.11 0 .19-.33.19-.53zm0-78.1c0-1.92-5.78-3.5-12.91-3.5s-12.91 1.6-12.91 3.52c0 .19.07.61.19.61H51v74h.11c.17-2 5.65-3.26 12.41-3.26s12.28 1.26 12.48 3.26h1v-74h-.8c.11 0 .19-.43.19-.63z" fill="#7b7031"/>
  <path d="M76.39 782.55c0-1.92-5.78-3.55-12.91-3.55s-12.91 1.68-12.91 3.59c0 .19.07.69.19.69H51v74h.11c.17-2 5.65-3.26 12.41-3.26s12.28 1.26 12.48 3.26h1v-74h-.8c.11 0 .19-.53.19-.73z" fill="#7b7031"/>
  <path d="M76.39 704.65c0-1.92-5.78-3.5-12.91-3.5s-12.91 1.6-12.91 3.52c0 .19.07.61.19.61H51v74h.11c.17-2 5.65-3.26 12.41-3.26s12.28 1.26 12.48 3.26h1v-74h-.8c.11 0 .19-.43.19-.63z" fill="#7b7031"/>
  <path d="M76.39 626.65c0-1.92-5.78-3.5-12.91-3.5s-12.91 1.6-12.91 3.52c0 .19.07.61.19.61H51v74h.11c.17-2 5.65-3.26 12.41-3.26s12.28 1.26 12.48 3.26h1v-74h-.8c.11 0 .19-.43.19-.63z" fill="#7b7031"/>
  <path d="M76.39 548.55c0-1.92-5.78-3.55-12.91-3.55s-12.91 1.68-12.91 3.59c0 .19.07.69.19.69H51v74h.11c.17-2 5.65-3.26 12.41-3.26s12.28 1.26 12.48 3.26h1v-74h-.8c.11 0 .19-.53.19-.73z" fill="#7b7031"/>
  <path d="M76.39 470.65c0-1.92-5.78-3.5-12.91-3.5s-12.91 1.6-12.91 3.52c0 .19.07.61.19.61H51v74h.11c.17-2 5.65-3.26 12.41-3.26s12.28 1.26 12.48 3.26h1v-74h-.8c.11 0 .19-.43.19-.63z" fill="#7b7031"/>
  <path d="M76.39 392.55c0-1.92-5.78-3.55-12.91-3.55s-12.91 1.68-12.91 3.59c0 .19.07.69.19.69H51v74h.11c.17-2 5.65-3.26 12.41-3.26s12.28 1.26 12.48 3.26h1v-74h-.8c.11 0 .19-.53.19-.73z" fill="#7b7031"/>
  <path d="M76.39 315.55c0-1.92-5.78-3.55-12.91-3.55s-12.91 1.68-12.91 3.59c0 .19.07.69.19.69H51v74h.11c.17-2 5.65-3.26 12.41-3.26s12.28 1.26 12.48 3.26h1v-74h-.8c.11 0 .19-.53.19-.73z" fill="#7b7031"/>
  <path d="M76.39 237.65c0-1.92-5.78-3.5-12.91-3.5s-12.91 1.6-12.91 3.52c0 .19.07.61.19.61H51v74h.11c.17-2 5.65-3.26 12.41-3.26s12.28 1.26 12.48 3.26h1v-74h-.8c.11 0 .19-.43.19-.63z" fill="#7b7031"/>
  <path d="M76.39 159.55c0-1.92-5.78-3.55-12.91-3.55s-12.91 1.68-12.91 3.59c0 .19.07.69.19.69H51v74h.11c.17-2 5.65-3.26 12.41-3.26s12.28 1.26 12.48 3.26h1v-74h-.8c.11 0 .19-.53.19-.73z" fill="#7b7031"/>
  <path d="M76.39 81.65c0-1.92-5.78-3.5-12.91-3.5s-12.91 1.6-12.91 3.52c0 .19.07.61.19.61H51v74h.11c.17-2 5.65-3.26 12.41-3.26s12.28 1.26 12.48 3.26h1v-74h-.8c.11 0 .19-.43.19-.63z" fill="#7b7031"/>
  <path d="M76.39 3.55C76.39 1.64 70.61 0 63.48 0S50.57 1.68 50.57 3.59c0 .19.07.69.19.69H51v74h.11c.17-2 5.65-3.26 12.41-3.26S75.8 76.28 76 78.28h1v-74h-.8c.11 0 .19-.53.19-.73zM0 1267.56s2.83-1.21 7.1-2.86l3.46-1.32c1.22-.47 2.53-.93 3.87-1.42s2.73-1 4.15-1.47l4.3-1.45c1.44-.49 2.86-1 4.26-1.62a29.14 29.14 0 0 1 4.15-1.43 22 22 0 0 1 4.06-.57 32.16 32.16 0 0 1 3.74 0 29.66 29.66 0 0 1 3.24.32 24.6 24.6 0 0 1 2.56.53c.72.18 1.29.36 1.69.51l.61.23.21.92s-.15.18-.45.47-.74.71-1.31 1.18a24.6 24.6 0 0 1-2.09 1.57 29.65 29.65 0 0 1-2.79 1.68 32.16 32.16 0 0 1-3.4 1.58 22 22 0 0 1-3.91 1.22 29.14 29.14 0 0 1-4.37.48c-1.51.07-3 .18-4.54.35l-4.5.52c-1.48.19-3 .31-4.38.44s-2.79.27-4.1.37l-3.69.29c-4.57.33-7.64.45-7.64.45zm27.18 29.52s.93-2.45 2.41-6.08c.75-1.81 1.61-3.93 2.58-6.17s2-4.63 3.08-7c.53-1.19 1-2.4 1.49-3.6a34.15 34.15 0 0 1 1.52-3.45 33.15 33.15 0 0 1 3.81-5.5 29.8 29.8 0 0 1 3.42-3.5 16.63 16.63 0 0 1 1.53-1.2l.53.29a16.64 16.64 0 0 1-.17 1.94 29.8 29.8 0 0 1-1.08 4.77 33.15 33.15 0 0 1-2.55 6.19 34.15 34.15 0 0 1-2.07 3.15c-.75 1-1.5 2.12-2.21 3.21-1.42 2.18-2.82 4.38-4.2 6.4s-2.66 3.91-3.77 5.52a281.12 281.12 0 0 1-3.79 5.33zm-14.59-58.35s2.35.52 5.84 1.43c1.74.46 3.77 1 5.92 1.6s4.44 1.3 6.73 2c1.14.34 2.31.64 3.46.91a24.34 24.34 0 0 1 3.31 1 18 18 0 0 1 2.87 1.47 26.31 26.31 0 0 1 2.43 1.65 24.08 24.08 0 0 1 1.95 1.64 19.78 19.78 0 0 1 1.42 1.46 13.79 13.79 0 0 1 1.15 1.47l-.27.65a13.79 13.79 0 0 1-1.86.22 19.79 19.79 0 0 1-2 0 24.07 24.07 0 0 1-2.54-.22 26.28 26.28 0 0 1-2.88-.56 18 18 0 0 1-3.06-1 24.35 24.35 0 0 1-3-1.66c-1-.62-2-1.24-3.08-1.81-2.1-1.14-4.21-2.25-6.15-3.38s-3.76-2.17-5.31-3.08c-3.09-1.84-5.12-3.14-5.12-3.14zM0 948.92s2.83-1.21 7.1-2.86l3.46-1.32c1.22-.47 2.53-.93 3.87-1.42s2.73-1 4.15-1.47l4.3-1.45c1.44-.49 2.86-1 4.26-1.62a29.13 29.13 0 0 1 4.15-1.43 22 22 0 0 1 4.06-.57 32.18 32.18 0 0 1 3.74 0 29.69 29.69 0 0 1 3.24.32 24.59 24.59 0 0 1 2.56.53c.72.18 1.29.36 1.69.51l.61.23.21.92s-.15.18-.45.47-.74.71-1.31 1.18a24.6 24.6 0 0 1-2.09 1.57 29.67 29.67 0 0 1-2.79 1.68 32.18 32.18 0 0 1-3.4 1.58 21.94 21.94 0 0 1-3.91 1.22 29.12 29.12 0 0 1-4.37.48c-1.51.07-3 .18-4.54.35l-4.5.52c-1.48.19-3 .31-4.38.44s-2.79.27-4.1.37l-3.69.29c-4.57.33-7.64.45-7.64.45zm27.18 29.53s.93-2.45 2.41-6.08c.75-1.81 1.61-3.93 2.58-6.17s2-4.63 3.08-7c.53-1.19 1-2.4 1.49-3.6a34.15 34.15 0 0 1 1.52-3.45 33.15 33.15 0 0 1 3.81-5.5 29.8 29.8 0 0 1 3.42-3.5 16.64 16.64 0 0 1 1.53-1.2l.53.29a16.64 16.64 0 0 1-.17 1.94 29.8 29.8 0 0 1-1.08 4.77 33.15 33.15 0 0 1-2.55 6.19 34.17 34.17 0 0 1-2.07 3.15c-.75 1-1.5 2.12-2.21 3.21-1.42 2.18-2.82 4.38-4.2 6.4s-2.66 3.91-3.77 5.52a281.12 281.12 0 0 1-3.79 5.33zm-14.59-58.36s2.35.52 5.84 1.43c1.74.46 3.77 1 5.92 1.6s4.44 1.3 6.73 2c1.14.34 2.31.64 3.46.91a24.35 24.35 0 0 1 3.31 1 18.06 18.06 0 0 1 2.87 1.47 26.34 26.34 0 0 1 2.43 1.65 24.11 24.11 0 0 1 1.95 1.64 19.78 19.78 0 0 1 1.42 1.46 13.78 13.78 0 0 1 1.15 1.47l-.27.65a13.78 13.78 0 0 1-1.86.22 19.83 19.83 0 0 1-2 0 24.1 24.1 0 0 1-2.54-.22 26.31 26.31 0 0 1-2.88-.56 18 18 0 0 1-3.06-1 24.34 24.34 0 0 1-3-1.66c-1-.62-2-1.24-3.08-1.81-2.1-1.14-4.21-2.25-6.15-3.38s-3.76-2.17-5.31-3.08c-3.09-1.84-5.12-3.14-5.12-3.14zM0 547.64s2.83-1.21 7.1-2.86l3.46-1.32c1.22-.47 2.53-.93 3.87-1.42s2.73-1 4.15-1.47l4.3-1.45c1.44-.49 2.86-1 4.26-1.62a29.13 29.13 0 0 1 4.15-1.43 22 22 0 0 1 4.06-.57 32.18 32.18 0 0 1 3.74 0 29.69 29.69 0 0 1 3.24.32 24.59 24.59 0 0 1 2.56.53c.72.18 1.29.36 1.69.51l.61.23.21.92s-.15.18-.45.47-.74.71-1.31 1.18a24.6 24.6 0 0 1-2.09 1.57 29.67 29.67 0 0 1-2.79 1.68 32.18 32.18 0 0 1-3.4 1.58 21.94 21.94 0 0 1-3.91 1.22 29.12 29.12 0 0 1-4.37.48c-1.51.07-3 .18-4.54.35L20 547c-1.48.19-3 .31-4.38.44s-2.79.27-4.1.37l-3.69.29c-4.57.33-7.64.45-7.64.45zm27.18 29.52s.93-2.45 2.41-6.08c.75-1.81 1.61-3.93 2.58-6.17s2-4.63 3.08-7c.53-1.19 1-2.4 1.49-3.6a34.15 34.15 0 0 1 1.52-3.45 33.15 33.15 0 0 1 3.81-5.5 29.8 29.8 0 0 1 3.42-3.5 16.64 16.64 0 0 1 1.53-1.2l.53.29a16.64 16.64 0 0 1-.17 1.94 29.8 29.8 0 0 1-1.08 4.77 33.15 33.15 0 0 1-2.55 6.19 34.17 34.17 0 0 1-2.07 3.15c-.75 1-1.5 2.12-2.21 3.21-1.42 2.18-2.82 4.38-4.2 6.4s-2.66 3.91-3.77 5.52a281.12 281.12 0 0 1-3.79 5.33zm-14.59-58.35s2.35.52 5.84 1.43c1.74.46 3.77 1 5.92 1.6s4.44 1.3 6.73 2c1.14.34 2.31.64 3.46.91a24.35 24.35 0 0 1 3.31 1 18.06 18.06 0 0 1 2.87 1.47 26.34 26.34 0 0 1 2.43 1.65 24.11 24.11 0 0 1 1.95 1.64 19.78 19.78 0 0 1 1.42 1.46 13.78 13.78 0 0 1 1.15 1.47l-.27.65a13.78 13.78 0 0 1-1.86.22 19.83 19.83 0 0 1-2 0 24.1 24.1 0 0 1-2.54-.22 26.31 26.31 0 0 1-2.88-.56 18 18 0 0 1-3.06-1 24.34 24.34 0 0 1-3-1.66c-1-.62-2-1.24-3.08-1.81-2.1-1.14-4.21-2.25-6.15-3.38s-3.76-2.17-5.31-3.08c-3.09-1.84-5.12-3.14-5.12-3.14z" fill="#7b7031"/>
</svg>
