<svg xmlns="http://www.w3.org/2000/svg" viewBox="0 0 226.85 2038.03">
  <path d="M202.12 1963.4c0-1.92-5.78-3.5-12.91-3.5s-12.91 1.6-12.91 3.52c0 .19.07.61.19.61h.3v74h.11c.17-2 5.65-3.26 12.41-3.26s12.24 1.26 12.41 3.26h1.07v-74h-.85c.06-.03.18-.43.18-.63z" fill="#7b7031"/>
  <path d="M202.12 1885.3c0-1.92-5.78-3.55-12.91-3.55s-12.91 1.67-12.91 3.59c0 .19.07.68.19.68h.3v74h.11c.17-2 5.65-3.26 12.41-3.26s12.24 1.26 12.41 3.26h1.07v-74h-.85c.06-.02.18-.53.18-.72z" fill="#7b7031"/>
  <path d="M202.12 1807.2c0-1.92-5.78-3.6-12.91-3.6s-12.91 1.75-12.91 3.67c0 .19.07.76.19.76h.3v74h.11c.17-2 5.65-3.26 12.41-3.26s12.24 1.26 12.41 3.26h1.07v-74h-.85c.06-.03.18-.64.18-.83z" fill="#7b7031"/>
  <path d="M202.12 1729.1c0-1.92-5.78-3.65-12.91-3.65s-12.91 1.83-12.91 3.74c0 .19.07-.16.19.84h.3v74h.11c.17-2 5.65-3.26 12.41-3.26s12.24 1.26 12.41 3.26h1.07v-74h-.85a3.56 3.56 0 0 1 .18-.93z" fill="#7b7031"/>
  <path d="M202.12 1650.5c0-1.92-5.78-3.45-12.91-3.45s-12.91 1.53-12.91 3.44c0 .19.07.54.19.54h.3v75h.11c.17-2 5.65-3.26 12.41-3.26s12.24 1.26 12.41 3.26h1.07v-75h-.85c.06-.03.18-.34.18-.53zm0-78.1c0-1.92-5.78-3.5-12.91-3.5s-12.91 1.6-12.91 3.52c0 .19.07.61.19.61h.3v74h.11c.17-2 5.65-3.26 12.41-3.26s12.24 1.26 12.41 3.26h1.07v-74h-.85c.06-.03.18-.44.18-.63z" fill="#7b7031"/>
  <path d="M202.12 1494.3c0-1.92-5.78-3.55-12.91-3.55s-12.91 1.68-12.91 3.59c0 .19.07.69.19.69h.3v74h.11c.17-2 5.65-3.26 12.41-3.26s12.24 1.26 12.41 3.26h1.07v-74h-.85c.06-.03.18-.54.18-.73z" fill="#7b7031"/>
  <path d="M202.12 1416.4c0-1.92-5.78-3.5-12.91-3.5s-12.91 1.6-12.91 3.52c0 .19.07.61.19.61h.3v74h.11c.17-2 5.65-3.26 12.41-3.26s12.24 1.26 12.41 3.26h1.07v-74h-.85c.06-.03.18-.44.18-.63z" fill="#7b7031"/>
  <path d="M202.12 1338.4c0-1.92-5.78-3.5-12.91-3.5s-12.91 1.6-12.91 3.52c0 .19.07.61.19.61h.3v74h.11c.17-2 5.65-3.26 12.41-3.26s12.24 1.26 12.41 3.26h1.07v-74h-.85c.06-.03.18-.44.18-.63z" fill="#7b7031"/>
  <path d="M202.12 1260.3c0-1.92-5.78-3.55-12.91-3.55s-12.91 1.68-12.91 3.59c0 .19.07.69.19.69h.3v74h.11c.17-2 5.65-3.26 12.41-3.26s12.24 1.26 12.41 3.26h1.07v-74h-.85c.06-.03.18-.54.18-.73z" fill="#7b7031"/>
  <path d="M202.12 1182.4c0-1.92-5.78-3.5-12.91-3.5s-12.91 1.6-12.91 3.52c0 .19.07.61.19.61h.3v74h.11c.17-2 5.65-3.26 12.41-3.26s12.24 1.26 12.41 3.26h1.07v-74h-.85c.06-.03.18-.43.18-.63z" fill="#7b7031"/>
  <path d="M202.12 1104.3c0-1.92-5.78-3.55-12.91-3.55s-12.91 1.67-12.91 3.59c0 .19.07.68.19.68h.3v74h.11c.17-2 5.65-3.26 12.41-3.26s12.24 1.26 12.41 3.26h1.07v-74h-.85c.06-.02.18-.53.18-.72z" fill="#7b7031"/>
  <path d="M202.12 1026.2c0-1.92-5.78-3.6-12.91-3.6s-12.91 1.75-12.91 3.67c0 .19.07.76.19.76h.3v74h.11c.17-2 5.65-3.26 12.41-3.26s12.24 1.26 12.41 3.26h1.07v-74h-.85c.06-.03.18-.64.18-.83z" fill="#7b7031"/>
  <path d="M202.12 948.1c0-1.92-5.78-3.65-12.91-3.65s-12.91 1.83-12.91 3.74c0 .19.07-.16.19.84h.3v74h.11c.17-2 5.65-3.26 12.41-3.26s12.24 1.26 12.41 3.26h1.07V949h-.85a3.56 3.56 0 0 1 .18-.9z" fill="#7b7031"/>
  <path d="M202.12 869.5c0-1.92-5.78-3.45-12.91-3.45s-12.91 1.53-12.91 3.44c0 .19.07.54.19.54h.3v75h.11c.17-2 5.65-3.26 12.41-3.26s12.23 1.23 12.4 3.23h1.07v-75h-.85c.07 0 .19-.31.19-.5zm-1.65-162.07c-.71-98.45-26.64-196.69-51.08-291.26-17.17-66.42-36.24-132.17-55.7-197.95C71.41 142.92 49 63 0 0c25.26 43.37 37.66 92.64 50.93 140.6 14.24 51.46 29.43 102.66 43.79 154.08 27.05 96.86 60.14 197.65 71.41 297.86 10.29 91.53 10.34 181.28 10.34 273.1 6.93-5.41 19-4.59 26 0 0-52.74-1.74-105.48-2-158.21zm-76.06 331.19s2.83-1.21 7.1-2.86l3.46-1.32c1.22-.47 2.53-.93 3.87-1.42s2.73-1 4.15-1.47l4.3-1.45c1.44-.49 2.86-1 4.26-1.62a29.13 29.13 0 0 1 4.15-1.43 22 22 0 0 1 4.06-.57 32.18 32.18 0 0 1 3.74 0 29.69 29.69 0 0 1 3.24.32 24.59 24.59 0 0 1 2.56.53c.72.18 1.29.36 1.69.51l.61.23.21.92s-.15.18-.45.47-.74.71-1.31 1.18a24.59 24.59 0 0 1-2.09 1.57 29.69 29.69 0 0 1-2.79 1.68 32.18 32.18 0 0 1-3.4 1.58 22 22 0 0 1-3.91 1.22 29.14 29.14 0 0 1-4.37.48c-1.51.07-3 .18-4.54.35l-4.5.52c-1.48.19-3 .31-4.38.44s-2.79.27-4.1.37l-3.69.29c-4.57.33-7.64.45-7.64.45zm27.17 29.53s.93-2.45 2.41-6.08c.75-1.81 1.61-3.93 2.58-6.17s2-4.63 3.08-7c.53-1.19 1-2.4 1.49-3.6a34.16 34.16 0 0 1 1.52-3.45 33.15 33.15 0 0 1 3.81-5.5 29.82 29.82 0 0 1 3.42-3.5 16.64 16.64 0 0 1 1.53-1.2l.53.29a16.63 16.63 0 0 1-.17 1.94 29.8 29.8 0 0 1-1.08 4.77 33.16 33.16 0 0 1-2.55 6.19 34.18 34.18 0 0 1-2.07 3.15c-.75 1-1.5 2.12-2.21 3.21-1.42 2.18-2.82 4.38-4.2 6.4s-2.66 3.91-3.77 5.52a281.12 281.12 0 0 1-3.79 5.33zM137 1009.79s2.35.52 5.84 1.43c1.74.46 3.77 1 5.92 1.6s4.44 1.3 6.73 2c1.14.34 2.31.64 3.46.91a24.35 24.35 0 0 1 3.31 1 18 18 0 0 1 2.87 1.47 26.31 26.31 0 0 1 2.43 1.65 24.12 24.12 0 0 1 1.95 1.64 19.8 19.8 0 0 1 1.42 1.46 13.79 13.79 0 0 1 1.15 1.47l-.27.65a13.78 13.78 0 0 1-1.86.22 19.79 19.79 0 0 1-2 0 24.11 24.11 0 0 1-2.54-.22 26.31 26.31 0 0 1-2.88-.56 18.05 18.05 0 0 1-3.06-1 24.35 24.35 0 0 1-3-1.66c-1-.62-2-1.24-3.08-1.81-2.1-1.14-4.21-2.25-6.15-3.38s-3.76-2.17-5.31-3.08c-3.09-1.84-5.12-3.14-5.12-3.14z" fill="#7b7031"/>
  <path d="M124.41 720s2.83-1.21 7.1-2.86l3.46-1.32c1.22-.47 2.53-.93 3.87-1.42s2.73-1 4.15-1.47l4.3-1.45c1.44-.49 2.86-1 4.26-1.62a29.14 29.14 0 0 1 4.15-1.43 22 22 0 0 1 4.06-.57 32.18 32.18 0 0 1 3.74 0 29.66 29.66 0 0 1 3.24.32 24.6 24.6 0 0 1 2.56.53c.72.18 1.29.36 1.69.51l.61.23.21.92s-.15.18-.45.47-.74.71-1.31 1.18a24.57 24.57 0 0 1-2.09 1.57 29.69 29.69 0 0 1-2.79 1.68 32.19 32.19 0 0 1-3.4 1.58 22 22 0 0 1-3.91 1.22 29.13 29.13 0 0 1-4.37.48c-1.51.07-3 .18-4.54.35l-4.5.52c-1.48.19-3 .31-4.38.44s-2.79.27-4.1.37l-3.69.29c-4.57.33-7.64.45-7.64.45zM137 691.15s2.35.52 5.84 1.43c1.74.46 3.77 1 5.92 1.6s4.44 1.3 6.73 2c1.14.34 2.31.64 3.46.91a24.35 24.35 0 0 1 3.31 1 18.05 18.05 0 0 1 2.87 1.47 26.31 26.31 0 0 1 2.43 1.65 24.09 24.09 0 0 1 1.95 1.64 19.79 19.79 0 0 1 1.42 1.46 13.78 13.78 0 0 1 1.15 1.47l-.27.65a13.78 13.78 0 0 1-1.86.22 19.78 19.78 0 0 1-2 0 24.09 24.09 0 0 1-2.54-.22 26.33 26.33 0 0 1-2.88-.56 18.06 18.06 0 0 1-3.06-1 24.35 24.35 0 0 1-3-1.66c-1-.62-2-1.24-3.08-1.81-2.1-1.14-4.21-2.25-6.15-3.38s-3.76-2.17-5.31-3.08c-3.09-1.84-5.12-3.14-5.12-3.14zm-12.59 1128.47s2.83-1.21 7.1-2.86l3.46-1.32c1.22-.47 2.53-.93 3.87-1.42s2.73-1 4.15-1.47l4.3-1.45c1.44-.49 2.86-1 4.26-1.62a29.13 29.13 0 0 1 4.15-1.43 22 22 0 0 1 4.06-.57 32.18 32.18 0 0 1 3.74 0 29.69 29.69 0 0 1 3.24.32 24.59 24.59 0 0 1 2.56.53c.72.18 1.29.36 1.69.51l.61.23.21.92s-.15.18-.45.47-.74.71-1.31 1.18a24.59 24.59 0 0 1-2.09 1.57 29.69 29.69 0 0 1-2.79 1.68 32.18 32.18 0 0 1-3.4 1.58 22 22 0 0 1-3.91 1.22 29.14 29.14 0 0 1-4.37.48c-1.51.07-3 .18-4.54.35l-4.5.52c-1.48.19-3 .31-4.38.44s-2.79.27-4.1.37l-3.69.29c-4.57.33-7.64.45-7.64.45zm27.17 29.53s.93-2.45 2.41-6.08c.75-1.81 1.61-3.93 2.58-6.17s2-4.63 3.08-7c.53-1.19 1-2.4 1.49-3.6a34.16 34.16 0 0 1 1.52-3.45 33.15 33.15 0 0 1 3.81-5.5 29.82 29.82 0 0 1 3.42-3.5 16.64 16.64 0 0 1 1.53-1.2l.53.29a16.63 16.63 0 0 1-.17 1.94 29.8 29.8 0 0 1-1.08 4.77 33.16 33.16 0 0 1-2.55 6.19 34.18 34.18 0 0 1-2.07 3.15c-.75 1-1.5 2.12-2.21 3.21-1.42 2.18-2.82 4.38-4.2 6.4s-2.66 3.91-3.77 5.52a281.12 281.12 0 0 1-3.79 5.33zM137 1790.79s2.35.52 5.84 1.43c1.74.46 3.77 1 5.92 1.6s4.44 1.3 6.73 2c1.14.34 2.31.64 3.46.91a24.35 24.35 0 0 1 3.31 1 18 18 0 0 1 2.87 1.47 26.31 26.31 0 0 1 2.43 1.65 24.12 24.12 0 0 1 1.95 1.64 19.8 19.8 0 0 1 1.42 1.46 13.79 13.79 0 0 1 1.15 1.47l-.27.65a13.78 13.78 0 0 1-1.86.22 19.79 19.79 0 0 1-2 0 24.11 24.11 0 0 1-2.54-.22 26.31 26.31 0 0 1-2.88-.56 18.05 18.05 0 0 1-3.06-1 24.35 24.35 0 0 1-3-1.66c-1-.62-2-1.24-3.08-1.81-2.1-1.14-4.21-2.25-6.15-3.38s-3.76-2.17-5.31-3.08c-3.09-1.84-5.12-3.14-5.12-3.14zM124.41 1501s2.83-1.21 7.1-2.86l3.46-1.32c1.22-.47 2.53-.93 3.87-1.42s2.73-1 4.15-1.47l4.3-1.45c1.44-.49 2.86-1 4.26-1.62a29.14 29.14 0 0 1 4.15-1.43 22 22 0 0 1 4.06-.57 32.19 32.19 0 0 1 3.74 0 29.66 29.66 0 0 1 3.24.32 24.6 24.6 0 0 1 2.56.53c.72.18 1.29.36 1.69.51l.61.23.21.92s-.15.18-.45.47-.74.71-1.31 1.18a24.57 24.57 0 0 1-2.09 1.57 29.69 29.69 0 0 1-2.79 1.68 32.19 32.19 0 0 1-3.4 1.58 22 22 0 0 1-3.91 1.22 29.13 29.13 0 0 1-4.37.48c-1.51.07-3 .18-4.54.35l-4.5.52c-1.48.19-3 .31-4.38.44s-2.79.27-4.1.37l-3.69.29c-4.57.33-7.64.45-7.64.45zm12.59-28.85s2.35.52 5.84 1.43c1.74.46 3.77 1 5.92 1.6s4.44 1.3 6.73 2c1.14.34 2.31.64 3.46.91a24.35 24.35 0 0 1 3.31 1 18.05 18.05 0 0 1 2.87 1.47 26.31 26.31 0 0 1 2.43 1.65 24.09 24.09 0 0 1 1.95 1.64 19.79 19.79 0 0 1 1.42 1.46 13.78 13.78 0 0 1 1.15 1.47l-.27.65a13.78 13.78 0 0 1-1.86.22 19.78 19.78 0 0 1-2 0 24.09 24.09 0 0 1-2.54-.22 26.33 26.33 0 0 1-2.88-.56 18.06 18.06 0 0 1-3.06-1 24.35 24.35 0 0 1-3-1.66c-1-.62-2-1.24-3.08-1.81-2.1-1.14-4.21-2.25-6.15-3.38s-3.76-2.17-5.31-3.08c-3.09-1.84-5.12-3.14-5.12-3.14zM226.32 669s-1.55-2.11-3.79-5.33c-1.11-1.61-2.42-3.49-3.77-5.52s-2.78-4.22-4.2-6.4c-.71-1.09-1.46-2.16-2.21-3.21a34.14 34.14 0 0 1-2.07-3.15 33.15 33.15 0 0 1-2.55-6.19 29.79 29.79 0 0 1-1.08-4.77 16.63 16.63 0 0 1-.17-1.94l.53-.29a16.64 16.64 0 0 1 1.53 1.2 29.79 29.79 0 0 1 3.42 3.5 33.15 33.15 0 0 1 3.81 5.5 34.14 34.14 0 0 1 1.52 3.45c.47 1.2 1 2.41 1.49 3.6 1.06 2.38 2.14 4.75 3.08 7s1.84 4.36 2.58 6.17c1.48 3.63 2.41 6.08 2.41 6.08zM87 119.27s-2-.8-4.87-2.08c-1.45-.64-3.14-1.39-4.93-2.23s-3.69-1.74-5.6-2.65-3.92-1.63-5.63-2.59a25.89 25.89 0 0 1-4.34-3.24c-.6-.54-1.13-1.07-1.58-1.56s-.84-.94-1.14-1.33a12.46 12.46 0 0 1-.92-1.29l.25-.43a12.46 12.46 0 0 1 1.57.17c.49.07 1.07.19 1.72.35s1.37.35 2.13.61a25.89 25.89 0 0 1 4.95 2.2c1.68 1 3.28 2.45 5 3.64s3.46 2.4 5.06 3.58 3.09 2.26 4.36 3.21c2.54 1.9 4.2 3.22 4.2 3.22zM79.28 100s-1.41.14-3.52.27c-1.06.07-2.29.16-3.61.22s-2.72.11-4.13.16-2.82.25-4.13.21a16.5 16.5 0 0 1-3.56-.61 16 16 0 0 1-2.5-.91 8.13 8.13 0 0 1-.94-.51v-.35a8.14 8.14 0 0 1 1-.4 16 16 0 0 1 2.58-.65 16.5 16.5 0 0 1 3.61-.23c1.31.09 2.69.47 4.09.64s2.79.37 4.09.59 2.52.41 3.56.6c2.09.35 3.47.63 3.47.63zM39.1 299.62s2.61-1.74 6.57-4.23c2-1.24 4.3-2.69 6.8-4.19s5.19-3.08 7.87-4.65c1.34-.78 2.66-1.62 4-2.46a39.36 39.36 0 0 1 3.87-2.29 29.26 29.26 0 0 1 3.89-1.57c1.27-.43 2.5-.78 3.66-1.06s2.24-.49 3.21-.64 1.85-.24 2.57-.3 1.31-.07 1.71-.07h.62l.32.67s-.13.18-.38.5-.63.76-1.13 1.29-1.11 1.17-1.84 1.82-1.57 1.38-2.51 2.1-2 1.47-3.12 2.19a29.26 29.26 0 0 1-3.67 2 39.36 39.36 0 0 1-4.21 1.59c-1.46.48-2.94 1-4.39 1.54-2.91 1.11-5.8 2.25-8.56 3.23S49 297 46.83 297.82c-4.42 1.53-7.41 2.47-7.41 2.47zm35.44 13.92s.47-2 1.25-5.07c.4-1.51.86-3.28 1.38-5.15s1.11-3.87 1.7-5.86c.29-1 .55-2 .79-3a25.06 25.06 0 0 1 .83-2.88 24.36 24.36 0 0 1 2.51-4.72c.44-.66.88-1.25 1.3-1.77s.8-1 1.14-1.31a12 12 0 0 1 1.14-1.08l.48.19a12 12 0 0 1 .11 1.57v1.73c0 .66-.12 1.39-.24 2.18a24.37 24.37 0 0 1-1.35 5.16 25.07 25.07 0 0 1-1.34 2.69c-.5.9-1 1.81-1.46 2.75-.92 1.86-1.82 3.73-2.73 5.46s-1.74 3.34-2.48 4.72c-1.48 2.76-2.52 4.57-2.52 4.57zm-23.05-42.06s2.08-.25 5.19-.53c1.56-.13 3.37-.29 5.32-.43s4-.25 6.09-.37c1-.06 2.07-.16 3.1-.26a25.06 25.06 0 0 1 3-.18 24.36 24.36 0 0 1 5.28.78c.77.19 1.48.41 2.1.63s1.17.43 1.61.64a12 12 0 0 1 1.4.71v.52a12 12 0 0 1-1.44.63c-.46.18-1 .36-1.65.54s-1.35.36-2.13.5a24.36 24.36 0 0 1-5.32.46 25.07 25.07 0 0 1-3-.36c-1-.17-2-.33-3.08-.45-2.06-.24-4.13-.46-6.06-.73s-3.74-.52-5.28-.74c-3.09-.46-5.15-.84-5.15-.84zm171.58 146.61s-4.13.82-10.35 1.88l-5 .84c-1.78.3-3.66.57-5.6.88s-3.95.63-6 .89l-6.19.85c-2.07.29-4.14.65-6.18 1a53 53 0 0 1-6 .86 39.38 39.38 0 0 1-5.65 0c-1.8-.12-3.51-.31-5.09-.56a47.8 47.8 0 0 1-7.68-1.79c-.93-.32-1.67-.59-2.17-.8s-.77-.34-.77-.34l-.06-1s.25-.16.73-.42 1.17-.62 2.07-1a47.8 47.8 0 0 1 7.43-2.63c1.54-.42 3.22-.8 5-1.12a39.38 39.38 0 0 1 5.61-.67 53 53 0 0 1 6.05.19c2.07.15 4.16.28 6.26.34l6.25.16c2.06 0 4.09.14 6.05.22s3.86.15 5.66.26l5.08.28c6.29.37 10.49.73 10.49.73zM189.76 457s-2.4-1.47-5.93-3.76c-1.76-1.15-3.81-2.49-6-4s-4.46-3.07-6.75-4.67c-1.15-.8-2.32-1.56-3.5-2.3a33.72 33.72 0 0 1-3.32-2.3 25.06 25.06 0 0 1-2.73-2.6c-.82-.88-1.56-1.76-2.21-2.61s-1.22-1.66-1.7-2.41-.87-1.44-1.18-2a17.14 17.14 0 0 1-.89-1.92l.45-.54a17.16 17.16 0 0 1 2 .53c.62.2 1.38.45 2.2.8s1.73.75 2.67 1.24 1.95 1.06 3 1.71a25.06 25.06 0 0 1 3 2.22 33.73 33.73 0 0 1 2.85 2.86c.93 1 1.89 2 2.88 3 2 2 4 3.92 5.8 5.81s3.52 3.66 5 5.18c2.88 3.06 4.75 5.17 4.75 5.17z" fill="#7b7031"/>
</svg>
