<svg xmlns="http://www.w3.org/2000/svg" viewBox="0 0 211.41 2018.56">
  <path d="M76.06 1943.93c0-1.92-5.78-3.5-12.91-3.5s-12.91 1.6-12.91 3.52c0 .19.07.61.19.61h.3v74h.11c.17-2 5.65-3.26 12.41-3.26s12.24 1.26 12.41 3.26h1.07v-74h-.85c.12 0 .18-.44.18-.63z" fill="#c7a315"/>
  <path d="M76.06 1865.83c0-1.92-5.78-3.55-12.91-3.55s-12.91 1.67-12.91 3.59c0 .19.07.68.19.68h.3v74h.11c.17-2 5.65-3.26 12.41-3.26s12.24 1.26 12.41 3.26h1.07v-74h-.85c.12.01.18-.55.18-.72z" fill="#c7a315"/>
  <path d="M76.06 1787.73c0-1.92-5.78-3.6-12.91-3.6s-12.91 1.75-12.91 3.67c0 .19.07.76.19.76h.3v74h.11c.17-2 5.65-3.26 12.41-3.26s12.24 1.26 12.41 3.26h1.07v-74h-.85c.12 0 .18-.64.18-.83z" fill="#c7a315"/>
  <path d="M76.06 1709.63c0-1.92-5.78-3.65-12.91-3.65s-12.91 1.83-12.91 3.74c0 .19.07-.16.19.84h.3v74h.11c.17-2 5.65-3.26 12.41-3.26s12.24 1.26 12.41 3.26h1.07v-74h-.85a3.56 3.56 0 0 1 .18-.93z" fill="#c7a315"/>
  <path d="M76.06 1631c0-1.92-5.78-3.45-12.91-3.45s-12.91 1.53-12.91 3.44c0 .19.07.54.19.54h.3v75h.11c.17-2 5.65-3.26 12.41-3.26s12.24 1.26 12.41 3.26h1.07v-75h-.85c.12.03.18-.31.18-.53z" fill="#c7a315"/>
  <path d="M76.06 1552.93c0-1.92-5.78-3.5-12.91-3.5s-12.91 1.6-12.91 3.52c0 .19.07.61.19.61h.3v74h.11c.17-2 5.65-3.26 12.41-3.26s12.24 1.26 12.41 3.26h1.07v-74h-.85c.12 0 .18-.44.18-.63z" fill="#c7a315"/>
  <path d="M76.06 1474.83c0-1.92-5.78-3.55-12.91-3.55s-12.91 1.68-12.91 3.59c0 .19.07.69.19.69h.3v74h.11c.17-2 5.65-3.26 12.41-3.26s12.24 1.26 12.41 3.26h1.07v-74h-.85c.12 0 .18-.56.18-.73z" fill="#c7a315"/>
  <path d="M76.06 1396.93c0-1.92-5.78-3.5-12.91-3.5s-12.91 1.6-12.91 3.52c0 .19.07.61.19.61h.3v74h.11c.17-2 5.65-3.26 12.41-3.26s12.24 1.26 12.41 3.26h1.07v-74h-.85c.12 0 .18-.44.18-.63z" fill="#c7a315"/>
  <path d="M76.06 1318.93c0-1.92-5.78-3.5-12.91-3.5s-12.91 1.6-12.91 3.52c0 .19.07.61.19.61h.3v74h.11c.17-2 5.65-3.26 12.41-3.26s12.24 1.26 12.41 3.26h1.07v-74h-.85c.12 0 .18-.44.18-.63z" fill="#c7a315"/>
  <path d="M76.06 1240.83c0-1.92-5.78-3.55-12.91-3.55s-12.91 1.68-12.91 3.59c0 .19.07.69.19.69h.3v74h.11c.17-2 5.65-3.26 12.41-3.26s12.24 1.26 12.41 3.26h1.07v-74h-.85c.12 0 .18-.56.18-.73z" fill="#c7a315"/>
  <path d="M76.06 1162.93c0-1.92-5.78-3.5-12.91-3.5s-12.91 1.6-12.91 3.52c0 .19.07.61.19.61h.3v74h.11c.17-2 5.65-3.26 12.41-3.26s12.24 1.26 12.41 3.26h1.07v-74h-.85c.12 0 .18-.44.18-.63z" fill="#c7a315"/>
  <path d="M76.06 1084.83c0-1.92-5.78-3.55-12.91-3.55s-12.91 1.67-12.91 3.59c0 .19.07.68.19.68h.3v74h.11c.17-2 5.65-3.26 12.41-3.26s12.24 1.26 12.41 3.26h1.07v-74h-.85c.12.01.18-.55.18-.72z" fill="#c7a315"/>
  <path d="M76.06 1006.73c0-1.92-5.78-3.6-12.91-3.6s-12.91 1.75-12.91 3.67c0 .19.07.76.19.76h.3v74h.11c.17-2 5.65-3.26 12.41-3.26s12.24 1.26 12.41 3.26h1.07v-74h-.85c.12 0 .18-.64.18-.83z" fill="#c7a315"/>
  <path d="M76.06 928.63c0-1.92-5.78-3.65-12.91-3.65s-12.91 1.83-12.91 3.74c0 .19.07-.16.19.84h.3v74h.11c.17-2 5.65-3.26 12.41-3.26s12.24 1.26 12.41 3.26h1.07v-74h-.85a3.56 3.56 0 0 1 .18-.93z" fill="#c7a315"/>
  <path d="M76.06 850c0-1.92-5.78-3.45-12.91-3.45S50.23 848.1 50.23 850c0 .19.07.54.19.54h.3v75h.11c.17-2 5.65-3.26 12.41-3.26s12.24 1.26 12.41 3.26h1.07v-75h-.85c.13.02.19-.32.19-.54z" fill="#c7a315"/>
  <path d="M76.06 771.93c0-1.92-5.78-3.5-12.91-3.5s-12.91 1.6-12.91 3.52c0 .19.07.61.19.61h.3v74h.11c.17-2 5.65-3.26 12.41-3.26s12.24 1.26 12.41 3.26h1.07v-74h-.85c.12 0 .18-.44.18-.63zm41.18-458.16c-29.9 106.78-57.83 207.42-62.83 319.67-2 44.88-4 89.76-4 134.72 8.52-3.62 18.9-2.93 26 0 0-50.74 1.3-181.14 6.15-212.56s4.67-47.07 18.12-100.29c17.72-70.1 34.47-139.94 52.39-210C173.87 164 195.58 82.43 211.32 0c-34.46 103.63-64.65 208.62-94.09 313.77zm10.37 1560.48s-3.07-.11-7.64-.45l-3.69-.29c-1.31-.1-2.68-.24-4.1-.37s-2.89-.25-4.38-.44l-4.5-.52c-1.51-.17-3-.28-4.54-.35a29.14 29.14 0 0 1-4.37-.48 22 22 0 0 1-3.91-1.22 32.21 32.21 0 0 1-3.4-1.58 29.65 29.65 0 0 1-2.79-1.68 24.6 24.6 0 0 1-2.09-1.57c-.57-.47-1-.88-1.31-1.18s-.45-.47-.45-.47l.21-.92s.21-.09.61-.23 1-.32 1.69-.51a24.6 24.6 0 0 1 2.56-.53 29.66 29.66 0 0 1 3.24-.32 32.18 32.18 0 0 1 3.74 0 22 22 0 0 1 4.06.57 29.14 29.14 0 0 1 4.15 1.43c1.39.58 2.82 1.13 4.26 1.63l4.3 1.45c1.42.46 2.8 1 4.15 1.47s2.64.95 3.87 1.42l3.46 1.32c4.28 1.65 7.1 2.86 7.1 2.86zm-27.5 28.89s-1.55-2.11-3.79-5.33c-1.11-1.61-2.42-3.49-3.77-5.52s-2.78-4.22-4.2-6.4c-.71-1.09-1.46-2.16-2.21-3.21a34.15 34.15 0 0 1-2.07-3.15 33.15 33.15 0 0 1-2.55-6.19 29.8 29.8 0 0 1-1.08-4.77 16.64 16.64 0 0 1-.17-1.94l.53-.29a16.64 16.64 0 0 1 1.53 1.2 29.82 29.82 0 0 1 3.42 3.5 33.15 33.15 0 0 1 3.81 5.5 34.16 34.16 0 0 1 1.52 3.45c.47 1.2 1 2.41 1.49 3.6 1.06 2.38 2.14 4.75 3.08 7s1.84 4.36 2.58 6.17c1.48 3.63 2.41 6.08 2.41 6.08zm15.38-57.99s-2 1.3-5.12 3.14c-1.55.91-3.35 2-5.31 3.08s-4.05 2.24-6.15 3.38c-1 .57-2.08 1.19-3.08 1.81a24.36 24.36 0 0 1-3 1.66 18.06 18.06 0 0 1-3.06 1 26.31 26.31 0 0 1-2.88.56 24.1 24.1 0 0 1-2.54.22 19.76 19.76 0 0 1-2 0 13.78 13.78 0 0 1-1.86-.22l-.27-.65a13.8 13.8 0 0 1 1.15-1.47 19.78 19.78 0 0 1 1.42-1.46 24.11 24.11 0 0 1 1.95-1.64 26.34 26.34 0 0 1 2.43-1.65 18 18 0 0 1 2.83-1.51 24.35 24.35 0 0 1 3.31-1c1.15-.28 2.31-.57 3.46-.91 2.29-.69 4.56-1.41 6.73-2s4.19-1.14 5.92-1.6c3.48-.9 5.84-1.43 5.84-1.43zM0 1724.38s2.83-1.21 7.1-2.86l3.46-1.32c1.22-.47 2.53-.93 3.87-1.42s2.73-1 4.15-1.47l4.3-1.45c1.44-.49 2.86-1 4.26-1.62a29.13 29.13 0 0 1 4.15-1.43 22 22 0 0 1 4.06-.57 32.18 32.18 0 0 1 3.74 0 29.66 29.66 0 0 1 3.24.32 24.61 24.61 0 0 1 2.56.53c.72.18 1.29.36 1.69.51l.61.23.21.92s-.15.18-.45.47-.74.71-1.31 1.18a24.59 24.59 0 0 1-2.09 1.57 29.66 29.66 0 0 1-2.79 1.68 32.18 32.18 0 0 1-3.4 1.58 22 22 0 0 1-3.91 1.22 29.14 29.14 0 0 1-4.37.48c-1.51.07-3 .18-4.54.35l-4.5.52c-1.48.19-3 .31-4.38.44s-2.79.27-4.1.37l-3.69.29c-4.57.33-7.64.45-7.64.45zm27.18 29.53s.93-2.45 2.41-6.08c.75-1.81 1.61-3.93 2.58-6.17s2-4.63 3.08-7c.53-1.19 1-2.4 1.49-3.6a34.15 34.15 0 0 1 1.52-3.45 33.15 33.15 0 0 1 3.81-5.5 29.81 29.81 0 0 1 3.42-3.5 16.64 16.64 0 0 1 1.53-1.2l.53.29a16.65 16.65 0 0 1-.17 1.94 29.81 29.81 0 0 1-1.08 4.77 33.15 33.15 0 0 1-2.55 6.19 34.15 34.15 0 0 1-2.07 3.15c-.75 1-1.5 2.12-2.21 3.21-1.42 2.18-2.82 4.38-4.2 6.4s-2.66 3.91-3.77 5.52a281.12 281.12 0 0 1-3.79 5.33zm-14.59-58.36s2.35.52 5.84 1.43c1.74.46 3.77 1 5.92 1.6s4.44 1.3 6.73 2c1.14.34 2.31.64 3.46.91a24.35 24.35 0 0 1 3.31 1 18.05 18.05 0 0 1 2.87 1.47 26.33 26.33 0 0 1 2.43 1.65 24.1 24.1 0 0 1 1.95 1.64 19.78 19.78 0 0 1 1.42 1.46 13.79 13.79 0 0 1 1.15 1.47l-.27.65a13.79 13.79 0 0 1-1.86.22 19.78 19.78 0 0 1-2 0 24.1 24.1 0 0 1-2.54-.22 26.33 26.33 0 0 1-2.88-.56 18.05 18.05 0 0 1-3.06-1 24.36 24.36 0 0 1-3-1.66c-1-.62-2-1.24-3.08-1.81-2.1-1.14-4.21-2.25-6.15-3.38s-3.76-2.17-5.31-3.08c-3.09-1.84-5.12-3.14-5.12-3.14zM0 1405.75s2.83-1.21 7.1-2.86l3.46-1.32c1.22-.47 2.53-.93 3.87-1.42s2.73-1 4.15-1.47l4.3-1.45c1.44-.49 2.86-1 4.26-1.62a29.13 29.13 0 0 1 4.15-1.43 22 22 0 0 1 4.06-.57 32.18 32.18 0 0 1 3.74 0 29.66 29.66 0 0 1 3.24.32 24.61 24.61 0 0 1 2.56.53c.72.18 1.29.36 1.69.51l.61.23.21.92s-.15.18-.45.47-.74.71-1.31 1.18a24.59 24.59 0 0 1-2.09 1.57 29.66 29.66 0 0 1-2.79 1.68 32.18 32.18 0 0 1-3.4 1.58 22 22 0 0 1-3.91 1.22 29.14 29.14 0 0 1-4.37.48c-1.51.07-3 .18-4.54.35l-4.5.52c-1.48.19-3 .31-4.38.44s-2.79.27-4.1.37l-3.69.29c-4.57.33-7.64.45-7.64.45zm27.18 29.52s.93-2.45 2.41-6.08c.75-1.81 1.61-3.93 2.58-6.17s2-4.63 3.08-7c.53-1.19 1-2.4 1.49-3.6a34.15 34.15 0 0 1 1.52-3.45 33.15 33.15 0 0 1 3.81-5.5 29.81 29.81 0 0 1 3.42-3.5 16.64 16.64 0 0 1 1.53-1.2l.53.29a16.65 16.65 0 0 1-.17 1.94 29.81 29.81 0 0 1-1.08 4.77 33.15 33.15 0 0 1-2.55 6.19 34.15 34.15 0 0 1-2.07 3.15c-.75 1-1.5 2.12-2.21 3.21-1.42 2.18-2.82 4.38-4.2 6.4s-2.66 3.91-3.77 5.52a281.12 281.12 0 0 1-3.79 5.33zm-14.59-58.36s2.35.52 5.84 1.43c1.74.46 3.77 1 5.92 1.6s4.44 1.3 6.73 2c1.14.34 2.31.64 3.46.91a24.35 24.35 0 0 1 3.31 1 18.05 18.05 0 0 1 2.87 1.47 26.33 26.33 0 0 1 2.43 1.65 24.1 24.1 0 0 1 1.95 1.64 19.78 19.78 0 0 1 1.4 1.39 13.79 13.79 0 0 1 1.15 1.47l-.27.65a13.79 13.79 0 0 1-1.86.22 19.78 19.78 0 0 1-2 0 24.1 24.1 0 0 1-2.54-.22 26.33 26.33 0 0 1-2.88-.56 18.05 18.05 0 0 1-3.06-1 24.36 24.36 0 0 1-3-1.66c-1-.62-2-1.24-3.08-1.81-2.1-1.14-4.21-2.25-6.15-3.38s-3.76-2.17-5.31-3.08c-3.09-1.84-5.12-3.14-5.12-3.14zm115.02-159.17s-3.07-.11-7.64-.45l-3.69-.29c-1.31-.1-2.68-.24-4.1-.37s-2.89-.25-4.38-.44l-4.5-.52c-1.51-.17-3-.28-4.54-.35a29.14 29.14 0 0 1-4.37-.48 22 22 0 0 1-3.91-1.22 32.21 32.21 0 0 1-3.4-1.58 29.65 29.65 0 0 1-2.79-1.68 24.6 24.6 0 0 1-2.09-1.57c-.57-.47-1-.88-1.31-1.18s-.45-.47-.45-.47l.21-.92s.21-.09.61-.23 1-.32 1.69-.51a24.6 24.6 0 0 1 2.56-.53 29.66 29.66 0 0 1 3.24-.32 32.18 32.18 0 0 1 3.74 0 22 22 0 0 1 4.06.57 29.14 29.14 0 0 1 4.15 1.43c1.39.58 2.82 1.13 4.26 1.63l4.3 1.45c1.42.46 2.8 1 4.15 1.47s2.64.95 3.87 1.42l3.46 1.32c4.28 1.65 7.1 2.86 7.1 2.86zm-27.5 28.89s-1.55-2.11-3.79-5.33c-1.11-1.61-2.42-3.49-3.77-5.52s-2.78-4.22-4.2-6.4c-.71-1.09-1.46-2.16-2.21-3.21a34.15 34.15 0 0 1-2.07-3.15 33.15 33.15 0 0 1-2.55-6.19 29.8 29.8 0 0 1-1.08-4.77 16.64 16.64 0 0 1-.17-1.94l.53-.29a16.64 16.64 0 0 1 1.53 1.2 29.82 29.82 0 0 1 3.42 3.5 33.15 33.15 0 0 1 3.81 5.5 34.16 34.16 0 0 1 1.52 3.45c.47 1.2 1 2.41 1.49 3.6 1.06 2.38 2.14 4.75 3.08 7s1.84 4.36 2.58 6.17c1.48 3.63 2.41 6.08 2.41 6.08zm15.38-57.99s-2 1.3-5.12 3.14c-1.55.91-3.35 2-5.31 3.08s-4.05 2.24-6.15 3.38c-1 .57-2.08 1.19-3.08 1.81a24.36 24.36 0 0 1-3 1.66 18.06 18.06 0 0 1-3.06 1 26.31 26.31 0 0 1-2.88.56 24.1 24.1 0 0 1-2.54.22 19.76 19.76 0 0 1-2 0 13.78 13.78 0 0 1-1.86-.22l-.27-.65a13.8 13.8 0 0 1 1.15-1.47 19.78 19.78 0 0 1 1.42-1.46 24.11 24.11 0 0 1 1.95-1.64 26.34 26.34 0 0 1 2.43-1.65 18 18 0 0 1 2.87-1.47 24.35 24.35 0 0 1 3.31-1c1.15-.28 2.31-.57 3.46-.91 2.29-.69 4.56-1.41 6.73-2s4.19-1.14 5.92-1.6c3.48-.9 5.84-1.43 5.84-1.43zM0 886.75s2.83-1.21 7.1-2.86l3.46-1.32c1.22-.47 2.53-.93 3.87-1.42s2.73-1 4.15-1.47l4.3-1.45c1.44-.49 2.86-1 4.26-1.62a29.13 29.13 0 0 1 4.15-1.43 22 22 0 0 1 4.06-.57 32.18 32.18 0 0 1 3.74 0 29.66 29.66 0 0 1 3.24.32 24.61 24.61 0 0 1 2.56.53c.72.18 1.29.36 1.69.51l.61.23.21.92s-.15.18-.45.47-.74.71-1.31 1.18a24.59 24.59 0 0 1-2.09 1.57 29.66 29.66 0 0 1-2.81 1.66 32.18 32.18 0 0 1-3.4 1.58 22 22 0 0 1-3.91 1.22 29.14 29.14 0 0 1-4.37.48c-1.51.07-3 .18-4.54.35l-4.5.52c-1.48.19-3 .31-4.38.44s-2.79.27-4.1.37l-3.69.29c-4.57.33-7.64.45-7.64.45zm27.18 29.52s.93-2.45 2.41-6.08c.75-1.81 1.61-3.93 2.58-6.17s2-4.63 3.08-7c.53-1.19 1-2.4 1.49-3.6a34.15 34.15 0 0 1 1.52-3.42 33.15 33.15 0 0 1 3.81-5.5 29.81 29.81 0 0 1 3.42-3.5 16.64 16.64 0 0 1 1.53-1.2l.53.29a16.65 16.65 0 0 1-.17 1.94 29.81 29.81 0 0 1-1.08 4.77 33.15 33.15 0 0 1-2.55 6.2 34.15 34.15 0 0 1-2.07 3.15c-.75 1-1.5 2.12-2.21 3.21-1.42 2.18-2.82 4.38-4.2 6.4s-2.66 3.91-3.77 5.52a281.12 281.12 0 0 1-3.79 5.33zm-14.59-58.36s2.35.52 5.84 1.43c1.74.46 3.77 1 5.92 1.6s4.44 1.3 6.73 2c1.14.34 2.31.64 3.46.91a24.35 24.35 0 0 1 3.31 1 18.05 18.05 0 0 1 2.87 1.47 26.33 26.33 0 0 1 2.43 1.65 24.1 24.1 0 0 1 1.95 1.64 19.78 19.78 0 0 1 1.4 1.39 13.79 13.79 0 0 1 1.15 1.47l-.27.65a13.79 13.79 0 0 1-1.86.22 19.78 19.78 0 0 1-2 0 24.1 24.1 0 0 1-2.54-.22 26.33 26.33 0 0 1-2.88-.56 18.05 18.05 0 0 1-3.06-1A24.36 24.36 0 0 1 32 870c-1-.62-2-1.24-3.08-1.81-2.1-1.14-4.21-2.25-6.15-3.38s-3.76-2.17-5.31-3.08c-3.09-1.84-5.12-3.14-5.12-3.14zM211.23 88.6s-.94-.62-2.3-1.58-3.18-2.26-5-3.6c-.88-.68-1.86-1.24-2.65-1.92a13.42 13.42 0 0 1-1.91-2.12 11 11 0 0 1-1.37-2.55l.18-.2a11 11 0 0 1 2.69 1.14 13.42 13.42 0 0 1 2.34 1.64c.77.7 1.45 1.61 2.22 2.4 1.55 1.6 3.06 3.23 4.17 4.49s1.85 2.09 1.85 2.09z" fill="#c7a315"/>
  <path d="M209.2 77.83s-3-.32-5.9-.82c-.73-.12-1.49-.16-2.16-.32a8.84 8.84 0 0 1-1.78-.68 7.09 7.09 0 0 1-1.63-1.09v-.18a7.09 7.09 0 0 1 2-.18 8.84 8.84 0 0 1 1.89.25c.67.19 1.35.51 2.05.75 2.81 1 5.58 2.09 5.58 2.09zM130.52 151s1.82-1 4.59-2.43c1.38-.71 3-1.54 4.74-2.4s3.61-1.75 5.47-2.64 3.65-2 5.45-2.71a25.41 25.41 0 0 1 5.15-1.32c.78-.12 1.51-.2 2.16-.25s1.23-.06 1.72-.06a12.23 12.23 0 0 1 1.55.09l.18.46a12.22 12.22 0 0 1-1.1 1.1c-.36.33-.8.7-1.32 1.1s-1.11.83-1.78 1.25a25.41 25.41 0 0 1-4.73 2.43c-1.82.65-3.89 1-5.87 1.59s-4 1.17-5.85 1.66-3.63 1-5.14 1.35c-3 .77-5 1.23-5 1.23zm22.7 11.21s.42-1.33 1.12-3.28c.34-1 .74-2.13 1.19-3.34s1-2.5 1.45-3.79.86-2.64 1.41-3.81a16.19 16.19 0 0 1 1.92-3 15.74 15.74 0 0 1 1.79-1.9 8 8 0 0 1 .82-.65l.31.15a8 8 0 0 1 0 1 15.74 15.74 0 0 1-.41 2.58 16.19 16.19 0 0 1-1.18 3.34c-.59 1.15-1.46 2.25-2.16 3.44s-1.41 2.37-2.11 3.46-1.35 2.12-1.91 3c-1.12 1.75-1.91 2.89-1.91 2.89zm-12.92-29.13h7.02c1.3 0 2.68.06 4.05.09s2.78-.08 4.06 0a16.19 16.19 0 0 1 3.45.81 15.74 15.74 0 0 1 2.39 1 8 8 0 0 1 .89.55v.34a8 8 0 0 1-1 .34 15.74 15.74 0 0 1-2.56.48 16.19 16.19 0 0 1-3.55 0c-1.28-.17-2.61-.62-4-.87s-2.71-.53-4-.82-2.45-.56-3.46-.8c-2-.47-3.37-.83-3.37-.83zM36.13 428.54s3.16-2.79 8-6.82l3.92-3.24c1.39-1.16 2.88-2.33 4.4-3.57s3.1-2.52 4.74-3.78l4.93-3.84c1.65-1.29 3.26-2.64 4.83-4a53 53 0 0 1 4.76-3.75 39.38 39.38 0 0 1 4.91-2.8c1.62-.8 3.19-1.49 4.69-2.07a47.8 47.8 0 0 1 7.54-2.3c1-.19 1.74-.33 2.28-.39s.84-.09.84-.09l.55.84s-.14.27-.42.73-.71 1.12-1.27 1.93a47.81 47.81 0 0 1-5.11 6 56.573 56.573 0 0 1-3.76 3.48 39.38 39.38 0 0 1-4.52 3.39 53 53 0 0 1-5.33 2.87c-1.86.9-3.74 1.84-5.58 2.85L61 417c-1.8 1-3.61 1.93-5.35 2.84s-3.42 1.8-5 2.62l-4.53 2.31c-5.63 2.84-9.44 4.63-9.44 4.63zm11.48-39.76s2.73-.7 6.83-1.63c2.05-.46 4.45-1 7-1.53s5.31-1.06 8.06-1.59c1.37-.26 2.74-.58 4.08-.91a33.72 33.72 0 0 1 4-.78 25.06 25.06 0 0 1 3.77-.14c1.21 0 2.35.11 3.41.23s2 .28 2.91.46 1.64.38 2.27.56a17.15 17.15 0 0 1 2 .7l.07.7a17.16 17.16 0 0 1-1.81 1.1c-.58.31-1.29.68-2.1 1s-1.74.72-2.76 1.05-2.12.66-3.29.93a25.06 25.06 0 0 1-3.72.64 33.72 33.72 0 0 1-4 .05c-1.38 0-2.79-.07-4.18 0-2.79 0-5.59.13-8.21.11s-5.08 0-7.18 0c-4.21-.06-7-.19-7-.19z" fill="#c7a315"/>
</svg>
