<svg xmlns="http://www.w3.org/2000/svg" viewBox="0 0 314.14 1998.11">
  <path d="M25.82 986.28c0-1.92-5.78-3.6-12.91-3.6S0 984.43 0 986.34c0 .19.07.76.19.76h.3v74h.1c.17-2 5.65-3.26 12.41-3.26s12.24 1.26 12.41 3.26h1.07v-74h-.85c.12.01.19-.63.19-.82z" fill="#c7a315"/>
  <path d="M25.82 908.18c0-1.92-5.78-3.65-12.91-3.65S0 906.35 0 908.27c0 .19.07-.16.19.84h.3v74h.1c.17-2 5.65-3.26 12.41-3.26s12.24 1.26 12.41 3.26h1.07v-74h-.85a3.56 3.56 0 0 1 .19-.93zm0 234.3c0-1.92-5.78-3.5-12.91-3.5S0 1140.58 0 1142.5c0 .19.07.61.19.61h.3v74h.1c.17-2 5.65-3.26 12.41-3.26s12.24 1.26 12.41 3.26h1.07v-74h-.85c.12 0 .19-.44.19-.63z" fill="#c7a315"/>
  <path d="M25.82 1064.38c0-1.92-5.78-3.55-12.91-3.55S0 1062.5 0 1064.42c0 .19.07.68.19.68h.3v74h.1c.17-2 5.65-3.26 12.41-3.26s12.24 1.26 12.41 3.26h1.07v-74h-.85c.12.01.19-.53.19-.72zm0-234.8c0-1.92-5.78-3.45-12.91-3.45S0 827.65 0 829.57c0 .19.07.54.19.54h.3v75h.1c.17-2 5.65-3.26 12.41-3.26s12.24 1.26 12.41 3.26h1.07v-75h-.85c.12 0 .19-.34.19-.53zm0-78.1c0-1.92-5.78-3.5-12.91-3.5S0 749.58 0 751.49c0 .19.07.61.19.61h.3v74h.1c.17-2 5.65-3.26 12.41-3.26s12.24 1.26 12.41 3.26h1.07v-74h-.85c.12.01.19-.43.19-.62zm0 1015.8c0-1.92-5.78-3.6-12.91-3.6S0 1765.43 0 1767.34c0 .19.07.76.19.76h.3v74h.1c.17-2 5.65-3.26 12.41-3.26s12.24 1.26 12.41 3.26h1.07v-74h-.85c.12.01.19-.63.19-.82z" fill="#c7a315"/>
  <path d="M25.82 1689.18c0-1.92-5.78-3.65-12.91-3.65S0 1687.35 0 1689.27c0 .19.07-.16.19.84h.3v74h.1c.17-2 5.65-3.26 12.41-3.26s12.24 1.26 12.41 3.26h1.07v-74h-.85a3.56 3.56 0 0 1 .19-.93zm0 234.3c0-1.92-5.78-3.5-12.91-3.5S0 1921.58 0 1923.5c0 .19.07.61.19.61h.3v74h.1c.17-2 5.65-3.26 12.41-3.26s12.24 1.26 12.41 3.26h1.07v-74h-.85c.12 0 .19-.44.19-.63z" fill="#c7a315"/>
  <path d="M25.82 1845.38c0-1.92-5.78-3.55-12.91-3.55S0 1843.5 0 1845.42c0 .19.07.68.19.68h.3v74h.1c.17-2 5.65-3.26 12.41-3.26s12.24 1.26 12.41 3.26h1.07v-74h-.85c.12.01.19-.53.19-.72zm0-391c0-1.92-5.78-3.55-12.91-3.55S0 1452.5 0 1454.42c0 .19.07.69.19.69h.3v74h.1c.17-2 5.65-3.26 12.41-3.26s12.24 1.26 12.41 3.26h1.07v-74h-.85c.12 0 .19-.54.19-.73zm0 156.2c0-1.92-5.78-3.45-12.91-3.45S0 1608.65 0 1610.57c0 .19.07.54.19.54h.3v75h.1c.17-2 5.65-3.26 12.41-3.26s12.24 1.26 12.41 3.26h1.07v-75h-.85c.12 0 .19-.34.19-.53z" fill="#c7a315"/>
  <path d="M25.82 1532.48c0-1.92-5.78-3.5-12.91-3.5S0 1530.58 0 1532.49c0 .19.07.61.19.61h.3v74h.1c.17-2 5.65-3.26 12.41-3.26s12.24 1.26 12.41 3.26h1.07v-74h-.85c.12.01.19-.43.19-.62zm0-234.1c0-1.92-5.78-3.55-12.91-3.55S0 1296.5 0 1298.42c0 .19.07.69.19.69h.3v74h.1c.17-2 5.65-3.26 12.41-3.26s12.24 1.26 12.41 3.26h1.07v-74h-.85c.12 0 .19-.54.19-.73z" fill="#c7a315"/>
  <path d="M25.82 1376.48c0-1.92-5.78-3.5-12.91-3.5S0 1374.58 0 1376.49c0 .19.07.61.19.61h.3v74h.1c.17-2 5.65-3.26 12.41-3.26s12.24 1.26 12.41 3.26h1.07v-74h-.85c.12.01.19-.43.19-.62zm0-156.1c0-1.92-5.78-3.55-12.91-3.55S0 1218.5 0 1220.42c0 .19.07.69.19.69h.3v74h.1c.17-2 5.65-3.26 12.41-3.26s12.24 1.26 12.41 3.26h1.07v-74h-.85c.12 0 .19-.54.19-.73z" fill="#c7a315"/>
  <path d="M25.82 1298.48c0-1.92-5.78-3.5-12.91-3.5S0 1296.58 0 1298.49c0 .19.07.61.19.61h.3v74h.1c.17-2 5.65-3.26 12.41-3.26s12.24 1.26 12.41 3.26h1.07v-74h-.85c.12.01.19-.43.19-.62zm54.43-882.13C140.61 275.06 208.13 114.2 314.14 0c-97.25 80.11-161 204.61-215.19 315.59-34.64 70.93-68.11 143.4-80.59 222C7.4 606.7 4.08 677.62.59 747.38a31 31 0 0 1 25.58 0c0-111.89 10.24-227.08 54.08-331 7.1-16.66-13.9 32.93 0-.03zm-2.46 1364.94s-3.07-.11-7.64-.45l-3.69-.29c-1.31-.1-2.68-.24-4.1-.37s-2.89-.25-4.38-.44l-4.5-.52c-1.51-.17-3-.28-4.54-.35a29.14 29.14 0 0 1-4.37-.48 22 22 0 0 1-3.91-1.22 32.16 32.16 0 0 1-3.4-1.58 29.65 29.65 0 0 1-2.79-1.68 24.59 24.59 0 0 1-2.09-1.57c-.57-.47-1-.88-1.31-1.18s-.45-.47-.45-.47l.21-.92s.21-.09.61-.23 1-.32 1.69-.51a24.6 24.6 0 0 1 2.56-.53 29.66 29.66 0 0 1 3.24-.32 32.16 32.16 0 0 1 3.74 0 22 22 0 0 1 4.06.57 29.14 29.14 0 0 1 4.15 1.43c1.39.58 2.82 1.13 4.26 1.63l4.3 1.45c1.42.46 2.8 1 4.15 1.47s2.64.95 3.87 1.42l3.46 1.32c4.28 1.65 7.1 2.86 7.1 2.86zm-12.12-29.1s-2 1.3-5.12 3.14c-1.55.91-3.35 2-5.31 3.08s-4.05 2.24-6.15 3.38c-1 .57-2.08 1.19-3.08 1.81a24.34 24.34 0 0 1-3 1.66 18 18 0 0 1-3.06 1 26.28 26.28 0 0 1-2.88.56 24.07 24.07 0 0 1-2.54.22 19.76 19.76 0 0 1-2 0 13.78 13.78 0 0 1-1.86-.22l-.27-.65a13.79 13.79 0 0 1 1.15-1.47 19.78 19.78 0 0 1 1.42-1.46 24.09 24.09 0 0 1 1.95-1.64 26.32 26.32 0 0 1 2.43-1.65 18 18 0 0 1 2.87-1.47 24.33 24.33 0 0 1 3.31-1c1.15-.28 2.31-.57 3.46-.91 2.29-.69 4.56-1.41 6.73-2s4.19-1.14 5.92-1.6c3.48-.9 5.84-1.43 5.84-1.43zm12.12-289.54s-3.07-.11-7.64-.45l-3.69-.29c-1.31-.1-2.68-.24-4.1-.37s-2.89-.25-4.38-.44l-4.5-.52c-1.51-.17-3-.28-4.54-.35a29.14 29.14 0 0 1-4.37-.48 22 22 0 0 1-3.91-1.22 32.18 32.18 0 0 1-3.4-1.58 29.66 29.66 0 0 1-2.79-1.68 24.6 24.6 0 0 1-2.09-1.57c-.57-.47-1-.88-1.31-1.18s-.45-.47-.45-.47l.21-.92s.21-.09.61-.23 1-.32 1.69-.51a24.58 24.58 0 0 1 2.56-.53 29.66 29.66 0 0 1 3.24-.32 32.18 32.18 0 0 1 3.74 0 22 22 0 0 1 4.06.57 29.13 29.13 0 0 1 4.15 1.43c1.39.58 2.82 1.13 4.26 1.62l4.3 1.45c1.42.46 2.8 1 4.15 1.47s2.64.95 3.87 1.42l3.46 1.32c4.28 1.65 7.1 2.86 7.1 2.86zm-27.5 28.89s-1.55-2.11-3.79-5.33c-1.11-1.61-2.42-3.49-3.77-5.52s-2.78-4.22-4.2-6.4c-.71-1.09-1.46-2.16-2.21-3.21a34.14 34.14 0 0 1-2.07-3.15 33.15 33.15 0 0 1-2.55-6.19 29.8 29.8 0 0 1-1.08-4.77 16.63 16.63 0 0 1-.17-1.94l.53-.29a16.64 16.64 0 0 1 1.53 1.2 29.8 29.8 0 0 1 3.42 3.5 33.15 33.15 0 0 1 3.81 5.5 34.16 34.16 0 0 1 1.52 3.45c.47 1.2 1 2.41 1.49 3.6 1.06 2.38 2.14 4.75 3.08 7s1.84 4.36 2.58 6.17c1.48 3.63 2.41 6.08 2.41 6.08zm15.38-57.99s-2 1.3-5.12 3.14c-1.55.91-3.35 2-5.31 3.08s-4.05 2.24-6.15 3.38c-1 .57-2.08 1.19-3.08 1.81a24.35 24.35 0 0 1-3 1.66 18.05 18.05 0 0 1-3.06 1 26.33 26.33 0 0 1-2.88.56 24.1 24.1 0 0 1-2.54.22 19.78 19.78 0 0 1-2 0 13.79 13.79 0 0 1-1.86-.22l-.27-.65a13.79 13.79 0 0 1 1.15-1.47 19.78 19.78 0 0 1 1.42-1.46 24.1 24.1 0 0 1 1.95-1.64 26.32 26.32 0 0 1 2.43-1.65 18.05 18.05 0 0 1 2.87-1.47 24.33 24.33 0 0 1 3.31-1c1.15-.28 2.31-.57 3.46-.91 2.29-.69 4.56-1.41 6.73-2s4.19-1.14 5.92-1.6c3.48-.9 5.84-1.43 5.84-1.43zm11.49-430.86s-3.07-.11-7.64-.45l-3.69-.29c-1.31-.1-2.68-.24-4.1-.37s-2.89-.25-4.38-.44l-4.5-.52c-1.51-.17-3-.28-4.54-.35a29.14 29.14 0 0 1-4.37-.48 22 22 0 0 1-3.94-1.22 32.18 32.18 0 0 1-3.4-1.58 29.66 29.66 0 0 1-2.79-1.68 24.6 24.6 0 0 1-2.09-1.57c-.57-.47-1-.88-1.31-1.18s-.45-.47-.45-.47l.21-.92s.21-.09.61-.23 1-.32 1.69-.51a24.58 24.58 0 0 1 2.56-.53 29.66 29.66 0 0 1 3.24-.32 32.18 32.18 0 0 1 3.74 0 22 22 0 0 1 4.06.57 29.13 29.13 0 0 1 4.15 1.43c1.39.58 2.82 1.13 4.26 1.62l4.3 1.45c1.42.46 2.8 1 4.15 1.47s2.64.95 3.87 1.42l3.46 1.32c4.28 1.65 7.1 2.86 7.1 2.86zm-27.5 28.89s-1.55-2.11-3.79-5.33c-1.11-1.61-2.42-3.49-3.77-5.52s-2.78-4.22-4.2-6.4c-.71-1.09-1.46-2.16-2.21-3.21a34.14 34.14 0 0 1-2.07-3.15 33.15 33.15 0 0 1-2.55-6.19A29.8 29.8 0 0 1 30 997a16.63 16.63 0 0 1-.17-1.94l.53-.29a16.64 16.64 0 0 1 1.53 1.2 29.8 29.8 0 0 1 3.42 3.5 33.15 33.15 0 0 1 3.81 5.5 34.16 34.16 0 0 1 1.52 3.45c.47 1.2 1 2.41 1.49 3.6 1.06 2.38 2.14 4.75 3.08 7s1.84 4.36 2.58 6.17c1.48 3.63 2.41 6.08 2.41 6.08zM65 973.59s-2 1.3-5.12 3.14c-1.55.91-3.35 2-5.31 3.08s-4.05 2.24-6.15 3.38c-1 .57-2.08 1.19-3.08 1.81a24.35 24.35 0 0 1-3 1.66 18.05 18.05 0 0 1-3.06 1 26.33 26.33 0 0 1-2.88.56 24.1 24.1 0 0 1-2.54.22 19.78 19.78 0 0 1-2 0 13.79 13.79 0 0 1-1.86-.22l-.27-.65a13.79 13.79 0 0 1 1.15-1.47 19.78 19.78 0 0 1 1.42-1.46 24.1 24.1 0 0 1 1.93-1.64 26.32 26.32 0 0 1 2.43-1.65 18.05 18.05 0 0 1 2.87-1.47 24.33 24.33 0 0 1 3.31-1c1.15-.28 2.31-.57 3.46-.91 2.29-.69 4.56-1.41 6.73-2s4.19-1.14 5.92-1.6c3.48-.9 5.84-1.43 5.84-1.43z" fill="#c7a315"/>
  <path d="M128.22 415.17s-1.12-4.07-2.61-10.19l-1.19-4.98c-.43-1.75-.83-3.61-1.28-5.52s-.91-3.9-1.31-5.91l-1.28-6.12c-.43-2-.94-4.09-1.46-6.09a53 53 0 0 1-1.28-5.92 39.38 39.38 0 0 1-.36-5.64c0-1.81.06-3.52.2-5.12a47.8 47.8 0 0 1 1.25-7.78c.25-1 .47-1.7.65-2.22s.28-.79.28-.79l1-.13s.18.24.47.7.7 1.13 1.18 2a47.81 47.81 0 0 1 3.15 7.23c.53 1.51 1 3.16 1.47 4.91a39.38 39.38 0 0 1 1.06 5.55 53 53 0 0 1 .24 6.05c0 2.07 0 4.17.11 6.26l.28 6.24c.11 2.06.15 4.09.21 6.05s.12 3.86.14 5.67l.08 5.08c.08 6.3 0 10.52 0 10.52zm21.35-31.27s-1.92-2.06-4.7-5.21c-1.38-1.58-3-3.43-4.7-5.43s-3.47-4.16-5.25-6.32c-.89-1.08-1.82-2.13-2.75-3.15a33.73 33.73 0 0 1-2.59-3.11 25.06 25.06 0 0 1-1.93-3.24c-.55-1.07-1-2.12-1.43-3.11s-.73-1.93-1-2.78-.45-1.62-.59-2.26a17.16 17.16 0 0 1-.34-2.09l.58-.4a17.15 17.15 0 0 1 1.83 1.06c.55.36 1.21.81 1.9 1.36s1.46 1.18 2.24 1.92 1.59 1.54 2.4 2.44a25.06 25.06 0 0 1 2.34 3 33.73 33.73 0 0 1 2 3.52c.62 1.23 1.27 2.48 2 3.69 1.38 2.43 2.79 4.84 4 7.16s2.41 4.47 3.4 6.33c2 3.72 3.19 6.25 3.19 6.25zm43.85-306.96s1.9 1 4.69 2.49c1.39.76 3 1.65 4.75 2.64s3.55 2.05 5.37 3.12 3.78 2 5.42 3.06a26 26 0 0 1 4.07 3.6c.55.59 1 1.16 1.45 1.69s.76 1 1 1.42a12.5 12.5 0 0 1 .81 1.37l-.29.41a12.5 12.5 0 0 1-1.56-.3c-.48-.11-1.05-.28-1.69-.49s-1.34-.47-2.08-.79a26 26 0 0 1-4.77-2.61c-1.6-1.16-3.08-2.72-4.72-4.06s-3.26-2.69-4.76-4-2.9-2.52-4.09-3.57c-2.38-2.11-3.93-3.57-3.93-3.57zm20.8-2.03s.84 1.15 2 2.9c.6.88 1.31 1.89 2 3s1.49 2.3 2.25 3.49 1.66 2.3 2.29 3.46a16.56 16.56 0 0 1 1.3 3.39 16.1 16.1 0 0 1 .49 2.62 8.16 8.16 0 0 1 0 1.07l-.31.16a8.16 8.16 0 0 1-.85-.64 16.1 16.1 0 0 1-1.88-1.89 16.56 16.56 0 0 1-2-3c-.59-1.18-1-2.56-1.54-3.86s-1.1-2.6-1.58-3.83-.93-2.39-1.31-3.38c-.76-2-1.23-3.32-1.23-3.32z" fill="#c7a315"/>
</svg>
