<svg xmlns="http://www.w3.org/2000/svg" viewBox="0 0 158.99 1943.03">
  <path d="M106.82 1868.41c0-1.92-5.78-3.5-12.91-3.5S81 1866.5 81 1868.42c0 .19.07.61.19.61h.3v74h.11c.17-2 5.65-3.26 12.41-3.26s12.24 1.26 12.41 3.26h1.07v-74h-.85c.11-.03.18-.43.18-.62z" fill="#c7a315"/>
  <path d="M106.82 1790.31c0-1.92-5.78-3.55-12.91-3.55S81 1788.43 81 1790.35c0 .19.07.68.19.68h.3v74h.11c.17-2 5.65-3.26 12.41-3.26s12.24 1.26 12.41 3.26h1.07v-74h-.85c.11-.03.18-.53.18-.72z" fill="#c7a315"/>
  <path d="M106.82 1712.21c0-1.92-5.78-3.6-12.91-3.6S81 1710.35 81 1712.27c0 .19.07.76.19.76h.3v74h.11c.17-2 5.65-3.26 12.41-3.26s12.24 1.26 12.41 3.26h1.07v-74h-.85c.11-.03.18-.63.18-.82z" fill="#c7a315"/>
  <path d="M106.82 1634.11c0-1.92-5.78-3.65-12.91-3.65S81 1632.28 81 1634.2c0 .19.07-.16.19.84h.3v74h.11c.17-2 5.65-3.26 12.41-3.26s12.24 1.26 12.41 3.26h1.07v-74h-.85a3.56 3.56 0 0 1 .18-.93z" fill="#c7a315"/>
  <path d="M106.82 1555.51c0-1.92-5.78-3.45-12.91-3.45S81 1553.58 81 1555.5c0 .19.07.54.19.54h.3v75h.11c.17-2 5.65-3.26 12.41-3.26s12.24 1.26 12.41 3.26h1.07v-75h-.85c.11-.04.18-.34.18-.53zm0-78.1c0-1.92-5.78-3.5-12.91-3.5S81 1475.5 81 1477.42c0 .19.07.61.19.61h.3v74h.11c.17-2 5.65-3.26 12.41-3.26s12.24 1.26 12.41 3.26h1.07v-74h-.85c.11-.03.18-.43.18-.62z" fill="#c7a315"/>
  <path d="M106.82 1399.31c0-1.92-5.78-3.55-12.91-3.55S81 1397.43 81 1399.35c0 .19.07.69.19.69h.3v74h.11c.17-2 5.65-3.26 12.41-3.26s12.24 1.26 12.41 3.26h1.07v-74h-.85c.11-.04.18-.54.18-.73z" fill="#c7a315"/>
  <path d="M106.82 1321.41c0-1.92-5.78-3.5-12.91-3.5S81 1319.5 81 1321.42c0 .19.07.61.19.61h.3v74h.11c.17-2 5.65-3.26 12.41-3.26s12.24 1.26 12.41 3.26h1.07v-74h-.85c.11-.03.18-.43.18-.62z" fill="#c7a315"/>
  <path d="M106.82 1243.41c0-1.92-5.78-3.5-12.91-3.5S81 1241.5 81 1243.42c0 .19.07.61.19.61h.3v74h.11c.17-2 5.65-3.26 12.41-3.26s12.24 1.26 12.41 3.26h1.07v-74h-.85c.11-.03.18-.43.18-.62z" fill="#c7a315"/>
  <path d="M106.82 1165.31c0-1.92-5.78-3.55-12.91-3.55S81 1163.43 81 1165.35c0 .19.07.69.19.69h.3v74h.11c.17-2 5.65-3.26 12.41-3.26s12.24 1.26 12.41 3.26h1.07v-74h-.85c.11-.04.18-.54.18-.73z" fill="#c7a315"/>
  <path d="M106.82 1088.41c0-1.92-5.78-3.5-12.91-3.5S81 1086.5 81 1088.42c0 .19.07.61.19.61h.3v74h.11c.17-2 5.65-3.26 12.41-3.26s12.24 1.26 12.41 3.26h1.07v-74h-.85c.11-.03.18-.43.18-.62z" fill="#c7a315"/>
  <path d="M106.82 1010.31c0-1.92-5.78-3.55-12.91-3.55S81 1008.43 81 1010.35c0 .19.07.68.19.68h.3v74h.11c.17-2 5.65-3.26 12.41-3.26s12.24 1.26 12.41 3.26h1.07v-74h-.85c.11-.03.18-.53.18-.72z" fill="#c7a315"/>
  <path d="M106.82 932.21c0-1.92-5.78-3.6-12.91-3.6S81 930.35 81 932.27c0 .19.07.76.19.76h.3v74h.11c.17-2 5.65-3.26 12.41-3.26s12.24 1.26 12.41 3.26h1.07V933h-.85c.11 0 .18-.6.18-.79z" fill="#c7a315"/>
  <path d="M106.82 854.11c0-1.92-5.78-3.65-12.91-3.65S81 852.28 81 854.2c0 .19.07-.16.19.84h.3v74h.11c.17-2 5.65-3.26 12.41-3.26s12.23 1.22 12.4 3.22h1.07v-74h-.85a3.56 3.56 0 0 1 .19-.89z" fill="#c7a315"/>
  <path d="M106.82 775.51c0-1.92-5.78-3.45-12.91-3.45S81 773.58 81 775.5c0 .19.07.54.19.54h.3v75h.11c.17-2 5.65-3.26 12.41-3.26s12.23 1.22 12.4 3.22h1.07v-75h-.85c.12 0 .19-.3.19-.49zm0-78.1c0-1.92-5.78-3.5-12.91-3.5S81 695.5 81 697.42c0 .19.07.61.19.61h.3v74h.11c.17-2 5.65-3.26 12.41-3.26s12.23 1.23 12.4 3.23h1.07v-74h-.85c.12 0 .19-.4.19-.59z" fill="#c7a315"/>
  <path d="M106.82 619.31c0-1.92-5.78-3.55-12.91-3.55S81 617.43 81 619.35c0 .19.07.69.19.69h.3v74h.11c.17-2 5.65-3.26 12.41-3.26s12.23 1.22 12.4 3.22h1.07v-74h-.85c.12 0 .19-.5.19-.69zm51.97 235.14s-3.07-.11-7.64-.45l-3.69-.29c-1.31-.1-2.68-.24-4.1-.37s-2.89-.25-4.38-.44l-4.5-.52c-1.51-.17-3-.28-4.54-.35a29.13 29.13 0 0 1-4.37-.48 22 22 0 0 1-3.91-1.22 32.18 32.18 0 0 1-3.4-1.58 29.67 29.67 0 0 1-2.79-1.68 24.58 24.58 0 0 1-2.09-1.57c-.57-.47-1-.88-1.31-1.18s-.45-.47-.45-.47l.21-.92s.21-.09.61-.23 1-.32 1.69-.51a24.6 24.6 0 0 1 2.56-.53 29.67 29.67 0 0 1 3.24-.32 32.18 32.18 0 0 1 3.74 0 22 22 0 0 1 4.06.57 29.13 29.13 0 0 1 4.15 1.43c1.39.58 2.82 1.13 4.26 1.62l4.3 1.45c1.42.46 2.8 1 4.15 1.47s2.64.95 3.87 1.42l3.46 1.32c4.28 1.65 7.1 2.86 7.1 2.86zm-27.5 28.9s-1.55-2.11-3.79-5.33c-1.11-1.61-2.42-3.49-3.77-5.52s-2.78-4.22-4.2-6.4c-.71-1.09-1.46-2.16-2.21-3.21a34.14 34.14 0 0 1-2.07-3.15 33.15 33.15 0 0 1-2.55-6.19 29.8 29.8 0 0 1-1.08-4.77 16.63 16.63 0 0 1-.17-1.94l.53-.29a16.64 16.64 0 0 1 1.53 1.2 29.8 29.8 0 0 1 3.42 3.5 33.15 33.15 0 0 1 3.81 5.5 34.15 34.15 0 0 1 1.52 3.45c.47 1.2 1 2.41 1.49 3.6 1.06 2.38 2.14 4.75 3.08 7s1.84 4.36 2.58 6.17c1.48 3.63 2.41 6.08 2.41 6.08zM31.18 704.59s2.83-1.21 7.1-2.86l3.46-1.32c1.22-.47 2.53-.93 3.87-1.42s2.73-1 4.15-1.47l4.3-1.45c1.44-.49 2.86-1 4.26-1.62a29.13 29.13 0 0 1 4.14-1.45 22 22 0 0 1 4.06-.57 32.18 32.18 0 0 1 3.74 0 29.67 29.67 0 0 1 3.24.32 24.59 24.59 0 0 1 2.56.53c.72.18 1.29.36 1.69.51l.61.23.21.92s-.15.18-.45.47-.74.71-1.31 1.18a24.59 24.59 0 0 1-2.09 1.57 29.68 29.68 0 0 1-2.79 1.68 32.18 32.18 0 0 1-3.4 1.58 22 22 0 0 1-3.91 1.22 29.13 29.13 0 0 1-4.37.48c-1.51.07-3 .18-4.54.35l-4.5.52c-1.48.19-3 .31-4.38.44s-2.79.27-4.1.37l-3.69.29c-4.57.33-7.64.45-7.64.45zm27.18 29.52s.93-2.45 2.41-6.08c.75-1.81 1.61-3.93 2.58-6.17s2-4.63 3.08-7c.53-1.19 1-2.4 1.49-3.6a34.15 34.15 0 0 1 1.52-3.45 33.15 33.15 0 0 1 3.81-5.5 29.81 29.81 0 0 1 3.42-3.5 16.64 16.64 0 0 1 1.53-1.2l.53.29a16.64 16.64 0 0 1-.17 1.94 29.81 29.81 0 0 1-1.08 4.77 33.15 33.15 0 0 1-2.55 6.19 34.16 34.16 0 0 1-2.07 3.15c-.75 1-1.5 2.12-2.21 3.21-1.42 2.18-2.82 4.38-4.2 6.4s-2.66 3.91-3.77 5.52a281.12 281.12 0 0 1-3.79 5.33zm-14.59-58.36s2.35.52 5.84 1.43c1.74.46 3.77 1 5.92 1.6s4.44 1.3 6.73 2c1.14.34 2.31.64 3.46.91a24.34 24.34 0 0 1 3.31 1 18 18 0 0 1 2.87 1.47 26.31 26.31 0 0 1 2.43 1.65 24.1 24.1 0 0 1 1.95 1.64 19.77 19.77 0 0 1 1.42 1.46 13.79 13.79 0 0 1 1.15 1.47l-.27.65a13.78 13.78 0 0 1-1.86.22 19.78 19.78 0 0 1-2 0 24.09 24.09 0 0 1-2.54-.22 26.32 26.32 0 0 1-2.88-.56 18.05 18.05 0 0 1-3.06-1 24.35 24.35 0 0 1-3-1.66c-1-.62-2-1.24-3.08-1.81-2.1-1.14-4.21-2.25-6.15-3.38s-3.76-2.17-5.31-3.08c-3.09-1.84-5.12-3.14-5.12-3.14zm115.02 958.7s-3.07-.11-7.64-.45l-3.69-.29c-1.31-.1-2.68-.24-4.1-.37s-2.89-.25-4.38-.44l-4.5-.52c-1.51-.17-3-.28-4.54-.35a29.14 29.14 0 0 1-4.37-.48 22 22 0 0 1-3.91-1.22 32.21 32.21 0 0 1-3.4-1.58 29.68 29.68 0 0 1-2.79-1.68 24.59 24.59 0 0 1-2.09-1.57c-.57-.47-1-.88-1.31-1.18s-.45-.47-.45-.47l.21-.92s.21-.09.61-.23 1-.32 1.69-.51a24.57 24.57 0 0 1 2.56-.53 29.66 29.66 0 0 1 3.24-.32 32.18 32.18 0 0 1 3.74 0 22 22 0 0 1 4.06.57 29.12 29.12 0 0 1 4.15 1.43c1.39.58 2.82 1.13 4.26 1.62l4.3 1.45c1.42.46 2.8 1 4.15 1.47s2.64.95 3.87 1.42l3.46 1.32c4.28 1.65 7.1 2.86 7.1 2.86zm-27.5 28.9s-1.55-2.11-3.79-5.33c-1.11-1.61-2.42-3.49-3.77-5.52s-2.78-4.22-4.2-6.4c-.71-1.09-1.46-2.16-2.21-3.21a34.14 34.14 0 0 1-2.07-3.15 33.15 33.15 0 0 1-2.55-6.19 29.8 29.8 0 0 1-1.08-4.77 16.63 16.63 0 0 1-.17-1.94l.53-.29a16.63 16.63 0 0 1 1.53 1.2 29.8 29.8 0 0 1 3.42 3.5 33.14 33.14 0 0 1 3.81 5.5 34.15 34.15 0 0 1 1.52 3.45c.47 1.2 1 2.41 1.49 3.6 1.06 2.38 2.14 4.75 3.08 7s1.84 4.36 2.58 6.17c1.48 3.63 2.41 6.08 2.41 6.08zM31.18 1484.59s2.83-1.21 7.1-2.86l3.46-1.32c1.22-.47 2.53-.93 3.87-1.42s2.73-1 4.15-1.47l4.3-1.45c1.44-.49 2.86-1 4.26-1.62a29.13 29.13 0 0 1 4.15-1.43 22 22 0 0 1 4.06-.57 32.18 32.18 0 0 1 3.74 0 29.66 29.66 0 0 1 3.24.32 24.61 24.61 0 0 1 2.56.53c.72.18 1.29.36 1.69.51l.61.23.21.92s-.15.18-.45.47-.74.71-1.31 1.18a24.58 24.58 0 0 1-2.09 1.57 29.67 29.67 0 0 1-2.79 1.68 32.18 32.18 0 0 1-3.4 1.58 22 22 0 0 1-3.91 1.22 29.14 29.14 0 0 1-4.37.48c-1.51.07-3 .18-4.54.35l-4.5.52c-1.48.19-3 .31-4.38.44s-2.79.27-4.1.37l-3.69.29c-4.57.33-7.64.45-7.64.45zm27.18 29.52s.93-2.45 2.41-6.08c.75-1.81 1.61-3.93 2.58-6.17s2-4.63 3.08-7c.53-1.19 1-2.4 1.49-3.6a34.15 34.15 0 0 1 1.52-3.45 33.15 33.15 0 0 1 3.81-5.5 29.81 29.81 0 0 1 3.42-3.5 16.65 16.65 0 0 1 1.53-1.2l.53.29a16.65 16.65 0 0 1-.17 1.94 29.81 29.81 0 0 1-1.08 4.77 33.15 33.15 0 0 1-2.55 6.19 34.15 34.15 0 0 1-2.07 3.15c-.75 1-1.5 2.12-2.21 3.21-1.42 2.18-2.82 4.38-4.2 6.4s-2.66 3.91-3.77 5.52a281.12 281.12 0 0 1-3.79 5.33zm-14.59-58.36s2.35.52 5.84 1.43c1.74.46 3.77 1 5.92 1.6s4.44 1.3 6.73 2c1.14.34 2.31.64 3.46.91a24.35 24.35 0 0 1 3.31 1 18.05 18.05 0 0 1 2.87 1.47 26.33 26.33 0 0 1 2.43 1.65 24.11 24.11 0 0 1 1.95 1.64 19.78 19.78 0 0 1 1.42 1.46 13.79 13.79 0 0 1 1.15 1.47l-.27.65a13.79 13.79 0 0 1-1.86.22 19.78 19.78 0 0 1-2 0 24.1 24.1 0 0 1-2.54-.22 26.33 26.33 0 0 1-2.88-.56 18.05 18.05 0 0 1-3.06-1 24.35 24.35 0 0 1-3-1.66c-1-.62-2-1.24-3.08-1.81-2.1-1.14-4.21-2.25-6.15-3.38s-3.76-2.17-5.31-3.08c-3.09-1.84-5.12-3.14-5.12-3.14zM105 535.64c-7.06-90.82-23.26-180.34-39.3-269.88C50 178.29 43.94 79 0 0a605.47 605.47 0 0 1 22.43 108.66c4.1 37.59 8.67 74.75 15.58 111.9 12.13 65.17 20.39 130.55 31.2 195.95 11 66.77 12 131.77 12 199.13 6.54-5.35 19.43-4.88 26 0-.04-26.51-.71-53.81-2.21-80zm19.37-132.46s-2.44-1.63-6-4.18c-1.78-1.28-3.87-2.77-6.07-4.4s-4.52-3.4-6.84-5.17c-1.16-.89-2.36-1.73-3.55-2.55a35.23 35.23 0 0 1-3.37-2.54 26.18 26.18 0 0 1-2.73-2.84c-.82-1-1.55-1.91-2.19-2.82s-1.2-1.79-1.67-2.59-.84-1.54-1.14-2.16a17.92 17.92 0 0 1-.84-2l.49-.54a17.92 17.92 0 0 1 2.12.65c.64.24 1.42.53 2.26.93s1.77.86 2.74 1.42 2 1.19 3 1.91a26.17 26.17 0 0 1 3.08 2.45 35.23 35.23 0 0 1 2.85 3.11c.93 1.11 1.88 2.22 2.88 3.29 2 2.14 4 4.26 5.8 6.32s3.52 4 5 5.62a268.6 268.6 0 0 1 4.74 5.6zm9.63-26.42s-2.93-.29-7.28-.85c-2.18-.29-4.72-.62-7.43-1s-5.59-.87-8.47-1.34c-1.44-.23-2.9-.42-4.33-.58a35.23 35.23 0 0 1-4.17-.66 26.17 26.17 0 0 1-3.75-1.21c-1.17-.46-2.27-1-3.26-1.46s-1.9-1-2.69-1.5-1.47-1-2-1.37a17.92 17.92 0 0 1-1.71-1.41l.18-.71a17.92 17.92 0 0 1 2.17-.43c.68-.09 1.5-.2 2.43-.24s2-.08 3.08 0 2.31.11 3.57.27a26.18 26.18 0 0 1 3.88.71 35.23 35.23 0 0 1 4 1.4c1.34.54 2.71 1.07 4.09 1.55 2.76 1 5.53 1.88 8.09 2.85s5 1.85 7 2.63c4.1 1.58 6.82 2.71 6.82 2.71z" fill="#c7a315"/>
  <path d="M22.08 237.93s.33-2 .91-4.85c.3-1.45.64-3.14 1-4.94s.85-3.71 1.3-5.63.69-3.9 1.23-5.65a23.06 23.06 0 0 1 2.12-4.58c.38-.65.77-1.23 1.14-1.74s.71-.94 1-1.29a11.36 11.36 0 0 1 1-1.08l.47.15a11.37 11.37 0 0 1 .18 1.48c0 .46.05 1 0 1.64s0 1.32-.11 2.07a23.06 23.06 0 0 1-1 5c-.61 1.73-1.61 3.46-2.36 5.28s-1.52 3.62-2.29 5.3-1.47 3.25-2.09 4.59c-1.25 2.68-2.14 4.45-2.14 4.45zM7.82 225.44s1.21-1.57 3.09-3.85c.94-1.14 2-2.47 3.24-3.87s2.5-2.88 3.8-4.35 2.44-3.11 3.75-4.41a23.06 23.06 0 0 1 4-3 22.9 22.9 0 0 1 3.32-1.67 11.36 11.36 0 0 1 1.41-.47l.34.36a11.37 11.37 0 0 1-.53 1.39 21.691 21.691 0 0 1-1.81 3.24 23.06 23.06 0 0 1-3.22 3.89c-1.35 1.24-3.05 2.3-4.57 3.55s-3 2.48-4.52 3.6-2.83 2.17-4 3.07c-2.37 1.78-4 2.92-4 2.92zM16.38 7.61s.52 2.4 1.23 6 1.62 8.44 2.53 13.27l.71 3.6c.25 1.18.48 2.35.65 3.49s.29 2.24.35 3.3.14 2.05.16 3a41.5 41.5 0 0 1-.19 6.22h-.3a41.51 41.51 0 0 1-1.89-5.93c-.23-.9-.45-1.87-.66-2.91s-.41-2.13-.57-3.27-.25-2.33-.34-3.53l-.31-3.65c-.45-4.89-.94-9.78-1.22-13.46s-.47-6.13-.47-6.13z" fill="#c7a315"/>
</svg>
