<svg xmlns="http://www.w3.org/2000/svg" viewBox="0 0 238.47 1981.59">
  <path d="M187.18 1907c0-1.92-5.78-3.5-12.91-3.5s-12.91 1.6-12.91 3.52c0 .19.07.61.19.61h.3v74h.15c.17-2 5.65-3.26 12.41-3.26s12.24 1.26 12.41 3.26h1.07v-74H187c.11-.04.18-.47.18-.63z" fill="#c7a315"/>
  <path d="M187.18 1828.86c0-1.92-5.78-3.55-12.91-3.55s-12.91 1.67-12.91 3.59c0 .19.07.68.19.68h.3v74h.15c.17-2 5.65-3.26 12.41-3.26s12.24 1.26 12.41 3.26h1.07v-74H187c.11.01.18-.52.18-.72z" fill="#c7a315"/>
  <path d="M187.18 1750.76c0-1.92-5.78-3.6-12.91-3.6s-12.91 1.75-12.91 3.67c0 .19.07.76.19.76h.3v74h.15c.17-2 5.65-3.26 12.41-3.26s12.24 1.26 12.41 3.26h1.07v-74H187c.11 0 .18-.59.18-.83z" fill="#c7a315"/>
  <path d="M187.18 1672.66c0-1.92-5.78-3.65-12.91-3.65s-12.91 1.83-12.91 3.74c0 .19.07-.16.19.84h.3v74h.15c.17-2 5.65-3.26 12.41-3.26s12.24 1.26 12.41 3.26h1.07v-74H187a3.56 3.56 0 0 1 .18-.93z" fill="#c7a315"/>
  <path d="M187.18 1594.06c0-1.92-5.78-3.45-12.91-3.45s-12.91 1.53-12.91 3.44c0 .19.07.54.19.54h.3v75h.15c.17-2 5.65-3.26 12.41-3.26s12.24 1.26 12.41 3.26h1.07v-75H187c.11 0 .18-.33.18-.53z" fill="#c7a315"/>
  <path d="M187.18 1516c0-1.92-5.78-3.5-12.91-3.5s-12.91 1.6-12.91 3.52c0 .19.07.61.19.61h.3v74h.15c.17-2 5.65-3.26 12.41-3.26s12.24 1.26 12.41 3.26h1.07v-74H187c.11-.04.18-.47.18-.63z" fill="#c7a315"/>
  <path d="M187.18 1437.86c0-1.92-5.78-3.55-12.91-3.55s-12.91 1.68-12.91 3.59c0 .19.07.69.19.69h.3v74h.15c.17-2 5.65-3.26 12.41-3.26s12.24 1.26 12.41 3.26h1.07v-74H187c.11 0 .18-.53.18-.73z" fill="#c7a315"/>
  <path d="M187.18 1360c0-1.92-5.78-3.5-12.91-3.5s-12.91 1.6-12.91 3.52c0 .19.07.61.19.61h.3v74h.15c.17-2 5.65-3.26 12.41-3.26s12.24 1.26 12.41 3.26h1.07v-74H187c.11-.04.18-.47.18-.63z" fill="#c7a315"/>
  <path d="M187.18 1282c0-1.92-5.78-3.5-12.91-3.5s-12.91 1.6-12.91 3.52c0 .19.07.61.19.61h.3v74h.15c.17-2 5.65-3.26 12.41-3.26s12.24 1.26 12.41 3.26h1.07v-74H187c.11-.04.18-.47.18-.63z" fill="#c7a315"/>
  <path d="M187.18 1203.86c0-1.92-5.78-3.55-12.91-3.55s-12.91 1.68-12.91 3.59c0 .19.07.69.19.69h.3v74h.15c.17-2 5.65-3.26 12.41-3.26s12.24 1.26 12.41 3.26h1.07v-74H187c.11 0 .18-.53.18-.73z" fill="#c7a315"/>
  <path d="M187.18 1127c0-1.92-5.78-3.5-12.91-3.5s-12.91 1.6-12.91 3.52c0 .19.07.61.19.61h.3v74h.15c.17-2 5.65-3.26 12.41-3.26s12.24 1.26 12.41 3.26h1.07v-74H187c.11-.04.18-.47.18-.63z" fill="#c7a315"/>
  <path d="M187.18 1048.86c0-1.92-5.78-3.55-12.91-3.55s-12.91 1.67-12.91 3.59c0 .19.07.68.19.68h.3v74h.15c.17-2 5.65-3.26 12.41-3.26s12.24 1.26 12.41 3.26h1.07v-74H187c.11.01.18-.52.18-.72z" fill="#c7a315"/>
  <path d="M187.18 970.76c0-1.92-5.78-3.6-12.91-3.6s-12.91 1.75-12.91 3.67c0 .19.07.76.19.76h.3v74h.15c.17-2 5.65-3.26 12.41-3.26s12.24 1.26 12.41 3.26h1.07v-74H187c.11 0 .18-.59.18-.83z" fill="#c7a315"/>
  <path d="M187.18 892.66c0-1.92-5.78-3.65-12.91-3.65s-12.91 1.83-12.91 3.74c0 .19.07-.16.19.84h.3v74h.15c.17-2 5.65-3.26 12.41-3.26s12.24 1.26 12.41 3.26h1.07v-74H187a3.56 3.56 0 0 1 .18-.93z" fill="#c7a315"/>
  <path d="M187.18 814.06c0-1.92-5.78-3.45-12.91-3.45s-12.91 1.53-12.91 3.44c0 .19.07.54.19.54h.3v75h.15c.17-2 5.65-3.26 12.41-3.26s12.24 1.26 12.41 3.26h1.07v-75H187c.11 0 .18-.33.18-.53z" fill="#c7a315"/>
  <path d="M187.18 736c0-1.92-5.78-3.5-12.91-3.5s-12.91 1.6-12.91 3.52c0 .19.07.61.19.61h.3v74h.15c.17-2 5.65-3.26 12.41-3.26s12.24 1.26 12.41 3.26h1.07v-74H187c.11-.04.18-.47.18-.63z" fill="#c7a315"/>
  <path d="M187.18 657.86c0-1.92-5.78-3.55-12.91-3.55s-12.91 1.68-12.91 3.59c0 .19.07.69.19.69h.3v74h.15c.17-2 5.65-3.26 12.41-3.26s12.24 1.26 12.41 3.26h1.07v-74H187c.11 0 .18-.53.18-.73zm-25.65-3.66a26.7 26.7 0 0 1 26 0 739.65 739.65 0 0 0-11.76-127.26c-10.94-60.36-11.78-70.41-31.84-128.71C97.88 264.41 54.47 130.66 0 0c28.21 104.14 63.2 207.06 97 309.49 18.33 55.51 37.84 107 52.5 193.34 14.29 83.95 12.03 151.37 12.03 151.37zm-50.99 247.87s2.83-1.21 7.1-2.86l3.46-1.32c1.22-.47 2.53-.93 3.87-1.42s2.73-1 4.15-1.47l4.3-1.45c1.44-.49 2.86-1 4.26-1.62a29.13 29.13 0 0 1 4.15-1.43 22 22 0 0 1 4.06-.57 32.18 32.18 0 0 1 3.74 0 29.66 29.66 0 0 1 3.24.32 24.61 24.61 0 0 1 2.56.53c.72.18 1.29.36 1.69.51l.61.23.21.92s-.15.18-.45.47-.74.71-1.31 1.18a24.59 24.59 0 0 1-2.09 1.57 29.66 29.66 0 0 1-2.79 1.68 32.18 32.18 0 0 1-3.4 1.58 22 22 0 0 1-3.9 1.18 29.14 29.14 0 0 1-4.37.48c-1.51.07-3 .18-4.54.35l-4.5.52c-1.48.19-3 .31-4.38.44s-2.79.27-4.1.37l-3.69.29c-4.57.33-7.64.45-7.64.45zm27.18 29.53s.93-2.45 2.41-6.08c.75-1.81 1.61-3.93 2.58-6.17s2-4.63 3.08-7c.53-1.19 1-2.4 1.49-3.6a34.15 34.15 0 0 1 1.52-3.45 33.15 33.15 0 0 1 3.81-5.5 29.81 29.81 0 0 1 3.42-3.5 16.64 16.64 0 0 1 1.53-1.2l.53.29a16.65 16.65 0 0 1-.17 1.94 29.81 29.81 0 0 1-1.08 4.77 33.15 33.15 0 0 1-2.55 6.19 34.15 34.15 0 0 1-2.07 3.15c-.75 1-1.5 2.12-2.21 3.21-1.42 2.18-2.82 4.38-4.2 6.4s-2.66 3.91-3.77 5.52a281.12 281.12 0 0 1-3.79 5.33zm-14.59-58.36s2.35.52 5.84 1.43c1.74.46 3.77 1 5.92 1.6s4.44 1.3 6.73 2c1.14.34 2.31.64 3.46.91a24.35 24.35 0 0 1 3.31 1 18.05 18.05 0 0 1 2.87 1.47 26.33 26.33 0 0 1 2.43 1.65 24.1 24.1 0 0 1 1.95 1.64 19.78 19.78 0 0 1 1.42 1.46 13.79 13.79 0 0 1 1.15 1.47l-.27.65a13.79 13.79 0 0 1-1.86.22 19.78 19.78 0 0 1-2 0 24.1 24.1 0 0 1-2.54-.22 26.33 26.33 0 0 1-2.88-.56 18.05 18.05 0 0 1-3.06-1 24.36 24.36 0 0 1-3-1.66c-1-.62-2-1.24-3.08-1.81-2.1-1.14-4.21-2.25-6.15-3.38s-3.76-2.17-5.31-3.08c-3.09-1.84-5.12-3.14-5.12-3.14zm115.01 178.7s-3.07-.11-7.64-.45l-3.69-.29c-1.31-.1-2.68-.24-4.1-.37s-2.89-.25-4.38-.44l-4.5-.52c-1.51-.17-3-.28-4.54-.35a29.14 29.14 0 0 1-4.37-.48 22 22 0 0 1-3.91-1.22 32.21 32.21 0 0 1-3.4-1.58 29.65 29.65 0 0 1-2.79-1.68 24.6 24.6 0 0 1-2.09-1.57c-.57-.47-1-.88-1.31-1.18s-.45-.47-.45-.47l.21-.92s.21-.09.61-.23 1-.32 1.69-.51a24.6 24.6 0 0 1 2.56-.53 29.66 29.66 0 0 1 3.24-.32 32.18 32.18 0 0 1 3.74 0 22 22 0 0 1 4.06.57 29.14 29.14 0 0 1 4.15 1.43c1.39.58 2.82 1.13 4.26 1.63l4.3 1.45c1.42.46 2.8 1 4.15 1.47s2.64.95 3.87 1.42l3.46 1.32c4.28 1.65 7.1 2.86 7.1 2.86zm-27.49 28.89s-1.55-2.11-3.79-5.33c-1.11-1.61-2.42-3.49-3.77-5.52s-2.78-4.22-4.2-6.4c-.71-1.09-1.46-2.16-2.21-3.21a34.15 34.15 0 0 1-2.07-3.15 33.15 33.15 0 0 1-2.55-6.19 29.8 29.8 0 0 1-1.08-4.77 16.64 16.64 0 0 1-.17-1.94l.53-.29a16.64 16.64 0 0 1 1.53 1.2 29.82 29.82 0 0 1 3.42 3.5 33.15 33.15 0 0 1 3.81 5.5 34.16 34.16 0 0 1 1.52 3.45c.47 1.2 1 2.41 1.49 3.6 1.06 2.38 2.14 4.75 3.08 7s1.84 4.36 2.58 6.17c1.48 3.63 2.41 6.08 2.41 6.08zm27.61 290.77s-3.07-.11-7.64-.45l-3.69-.29c-1.31-.1-2.68-.24-4.1-.37s-2.89-.25-4.38-.44l-4.5-.52c-1.51-.17-3-.28-4.54-.35a29.14 29.14 0 0 1-4.37-.48 22 22 0 0 1-3.91-1.22 32.18 32.18 0 0 1-3.4-1.58 29.68 29.68 0 0 1-2.79-1.68 24.59 24.59 0 0 1-2.09-1.57c-.57-.47-1-.88-1.31-1.18s-.45-.47-.45-.47l.21-.92s.21-.09.61-.23 1-.32 1.69-.51a24.58 24.58 0 0 1 2.56-.53 29.66 29.66 0 0 1 3.24-.32 32.18 32.18 0 0 1 3.74 0 22 22 0 0 1 4.06.57 29.12 29.12 0 0 1 4.15 1.43c1.39.58 2.82 1.13 4.26 1.62l4.3 1.45c1.42.46 2.8 1 4.15 1.47s2.64.95 3.87 1.42l3.46 1.32c4.28 1.65 7.1 2.86 7.1 2.86zm-27.5 28.89s-1.55-2.11-3.79-5.33c-1.11-1.61-2.42-3.49-3.77-5.52s-2.78-4.22-4.2-6.4c-.71-1.09-1.46-2.16-2.21-3.21a34.14 34.14 0 0 1-2.07-3.15 33.15 33.15 0 0 1-2.55-6.19 29.8 29.8 0 0 1-1.08-4.77 16.63 16.63 0 0 1-.17-1.94l.53-.29a16.64 16.64 0 0 1 1.53 1.2 29.8 29.8 0 0 1 3.42 3.5 33.15 33.15 0 0 1 3.81 5.5 34.16 34.16 0 0 1 1.52 3.45c.47 1.2 1 2.41 1.49 3.6 1.06 2.38 2.14 4.75 3.08 7s1.84 4.36 2.58 6.17c1.48 3.63 2.41 6.08 2.41 6.08zm15.39-57.99s-2 1.3-5.12 3.14c-1.55.91-3.35 2-5.31 3.08s-4.05 2.24-6.15 3.38c-1 .57-2.08 1.19-3.08 1.81a24.35 24.35 0 0 1-3 1.66 18.05 18.05 0 0 1-3.06 1 26.33 26.33 0 0 1-2.88.56 24.1 24.1 0 0 1-2.54.22 19.78 19.78 0 0 1-2 0 13.79 13.79 0 0 1-1.86-.22l-.27-.65A13.79 13.79 0 0 1 192 1355a19.78 19.78 0 0 1 1.42-1.46 24.1 24.1 0 0 1 1.95-1.64 26.32 26.32 0 0 1 2.43-1.65 18.05 18.05 0 0 1 2.87-1.47 24.33 24.33 0 0 1 3.31-1c1.15-.28 2.31-.57 3.46-.91 2.29-.69 4.56-1.41 6.73-2s4.19-1.14 5.92-1.6c3.48-.9 5.84-1.43 5.84-1.43zm-115.61 339.57s2.83-1.21 7.1-2.86l3.46-1.32c1.22-.47 2.53-.93 3.87-1.42s2.73-1 4.15-1.47l4.3-1.45c1.44-.49 2.86-1 4.26-1.62a29.13 29.13 0 0 1 4.15-1.43 22 22 0 0 1 4.06-.57 32.18 32.18 0 0 1 3.74 0 29.66 29.66 0 0 1 3.24.32 24.61 24.61 0 0 1 2.56.53c.72.18 1.29.36 1.69.51l.61.23.21.92s-.15.18-.45.47-.74.71-1.31 1.18a24.59 24.59 0 0 1-2.09 1.57 29.66 29.66 0 0 1-2.79 1.68 32.18 32.18 0 0 1-3.4 1.58 22 22 0 0 1-3.91 1.22 29.14 29.14 0 0 1-4.37.48c-1.51.07-3 .18-4.54.35l-4.5.52c-1.48.19-3 .31-4.38.44s-2.79.27-4.1.37l-3.69.29c-4.57.33-7.64.45-7.64.45zm27.18 29.53s.93-2.45 2.41-6.08c.75-1.81 1.61-3.93 2.58-6.17s2-4.63 3.08-7c.53-1.19 1-2.4 1.49-3.6a34.15 34.15 0 0 1 1.52-3.45 33.15 33.15 0 0 1 3.81-5.5 29.81 29.81 0 0 1 3.42-3.5 16.64 16.64 0 0 1 1.53-1.2l.53.29a16.65 16.65 0 0 1-.17 1.94 29.81 29.81 0 0 1-1.08 4.77 33.15 33.15 0 0 1-2.55 6.19 34.15 34.15 0 0 1-2.07 3.15c-.75 1-1.5 2.12-2.21 3.21-1.42 2.18-2.82 4.38-4.2 6.4s-2.66 3.91-3.77 5.52a281.12 281.12 0 0 1-3.79 5.33zm-14.59-58.36s2.35.52 5.84 1.43c1.74.46 3.77 1 5.92 1.6s4.44 1.3 6.73 2c1.14.34 2.31.64 3.46.91a24.35 24.35 0 0 1 3.31 1 18.05 18.05 0 0 1 2.87 1.47 26.33 26.33 0 0 1 2.43 1.65 24.1 24.1 0 0 1 1.95 1.64 19.78 19.78 0 0 1 1.42 1.46 13.79 13.79 0 0 1 1.15 1.47l-.27.65a13.79 13.79 0 0 1-1.86.22 19.78 19.78 0 0 1-2 0 24.1 24.1 0 0 1-2.54-.22 26.33 26.33 0 0 1-2.88-.56 18.05 18.05 0 0 1-3.06-1 24.36 24.36 0 0 1-3-1.66c-1-.62-2-1.24-3.08-1.81-2.1-1.14-4.21-2.25-6.15-3.38s-3.76-2.17-5.31-3.08c-3.09-1.84-5.12-3.14-5.12-3.14zm115.01 178.7s-3.07-.11-7.64-.45l-3.69-.29c-1.31-.1-2.68-.24-4.1-.37s-2.89-.25-4.38-.44l-4.5-.52c-1.51-.17-3-.28-4.54-.35a29.14 29.14 0 0 1-4.37-.48 22 22 0 0 1-3.91-1.22 32.21 32.21 0 0 1-3.4-1.58 29.65 29.65 0 0 1-2.79-1.68 24.6 24.6 0 0 1-2.09-1.57c-.57-.47-1-.88-1.31-1.18s-.45-.47-.45-.47l.21-.92s.21-.09.61-.23 1-.32 1.69-.51a24.6 24.6 0 0 1 2.56-.53 29.66 29.66 0 0 1 3.24-.32 32.18 32.18 0 0 1 3.74 0 22 22 0 0 1 4.06.57 29.14 29.14 0 0 1 4.15 1.43c1.39.58 2.82 1.13 4.26 1.63l4.3 1.45c1.42.46 2.8 1 4.15 1.47s2.64.95 3.87 1.42l3.46 1.32c4.28 1.65 7.1 2.86 7.1 2.86zm-27.49 28.89s-1.55-2.11-3.79-5.33c-1.11-1.61-2.42-3.49-3.77-5.52s-2.78-4.22-4.2-6.4c-.71-1.09-1.46-2.16-2.21-3.21a34.15 34.15 0 0 1-2.07-3.15 33.15 33.15 0 0 1-2.55-6.19 29.8 29.8 0 0 1-1.08-4.77 16.64 16.64 0 0 1-.17-1.94l.53-.29a16.64 16.64 0 0 1 1.53 1.2 29.82 29.82 0 0 1 3.42 3.5 33.15 33.15 0 0 1 3.81 5.5 34.16 34.16 0 0 1 1.52 3.45c.47 1.2 1 2.41 1.49 3.6 1.06 2.38 2.14 4.75 3.08 7s1.84 4.36 2.58 6.17c1.48 3.63 2.41 6.08 2.41 6.08zM45.53 73.1s-1.39-.92-3.43-2.36c-1-.72-2.22-1.55-3.48-2.47S36 66.35 34.7 65.36s-2.78-1.86-4-2.86a20.66 20.66 0 0 1-2.86-3.16 19.63 19.63 0 0 1-1.66-2.65 9.81 9.81 0 0 1-.51-1.14l.26-.3a9.81 9.81 0 0 1 1.19.37A19.62 19.62 0 0 1 30 57a20.65 20.65 0 0 1 3.49 2.46c1.14 1 2.16 2.4 3.32 3.58s2.31 2.38 3.36 3.54 2 2.22 2.87 3.15c1.68 1.85 2.76 3.12 2.76 3.12zM42.49 57s-1.11-.11-2.76-.33-3.85-.52-6-.9c-1.09-.19-2.22-.24-3.22-.47a12.76 12.76 0 0 1-2.66-1 10.57 10.57 0 0 1-2.44-1.62l.07-.27a10.57 10.57 0 0 1 2.91-.26 12.76 12.76 0 0 1 2.82.37c1 .27 2 .77 3.06 1.12 2.1.71 4.18 1.48 5.73 2.09s2.59 1 2.59 1zm191.77 534.6s-3.07-.11-7.64-.45l-3.69-.29c-1.31-.1-2.68-.24-4.1-.37s-2.89-.25-4.38-.44l-4.5-.52c-1.51-.17-3-.28-4.54-.35a29.14 29.14 0 0 1-4.37-.48 22 22 0 0 1-3.91-1.22 32.18 32.18 0 0 1-3.4-1.58 29.68 29.68 0 0 1-2.79-1.68 24.59 24.59 0 0 1-2.09-1.57c-.57-.47-1-.88-1.31-1.18s-.45-.47-.45-.47l.21-.92s.21-.09.61-.23 1-.32 1.69-.51a24.58 24.58 0 0 1 2.56-.53 29.66 29.66 0 0 1 3.24-.32 32.18 32.18 0 0 1 3.74 0 22 22 0 0 1 4.06.57 29.12 29.12 0 0 1 4.15 1.43c1.39.58 2.82 1.13 4.26 1.62l4.3 1.45c1.42.46 2.8 1 4.15 1.47s2.64.95 3.87 1.42l3.46 1.32c4.28 1.65 7.1 2.86 7.1 2.86zm-27.5 28.89s-1.55-2.11-3.79-5.33c-1.11-1.61-2.42-3.49-3.77-5.52s-2.78-4.22-4.2-6.4c-.71-1.09-1.46-2.16-2.21-3.21a34.14 34.14 0 0 1-2.07-3.15 33.15 33.15 0 0 1-2.55-6.19 29.8 29.8 0 0 1-1.08-4.77 16.63 16.63 0 0 1-.17-1.94l.53-.29a16.64 16.64 0 0 1 1.53 1.2 29.8 29.8 0 0 1 3.42 3.5 33.15 33.15 0 0 1 3.81 5.5 34.16 34.16 0 0 1 1.52 3.45c.47 1.2 1 2.41 1.49 3.6 1.06 2.38 2.14 4.75 3.08 7s1.84 4.36 2.58 6.17c1.48 3.63 2.41 6.08 2.41 6.08zm15.39-57.99s-2 1.3-5.12 3.14c-1.55.91-3.35 2-5.31 3.08s-4.05 2.24-6.15 3.38c-1 .57-2.08 1.19-3.08 1.81a24.35 24.35 0 0 1-3 1.66 18.05 18.05 0 0 1-3.06 1 26.33 26.33 0 0 1-2.88.56 24.1 24.1 0 0 1-2.54.22 19.78 19.78 0 0 1-2 0 13.79 13.79 0 0 1-1.86-.22l-.27-.65A13.79 13.79 0 0 1 188 575a19.78 19.78 0 0 1 1.42-1.46 24.1 24.1 0 0 1 1.95-1.64 26.32 26.32 0 0 1 2.43-1.65 18.05 18.05 0 0 1 2.87-1.47 24.33 24.33 0 0 1 3.31-1c1.15-.28 2.31-.57 3.46-.91 2.29-.69 4.56-1.41 6.73-2s4.19-1.14 5.92-1.6c3.48-.9 5.84-1.43 5.84-1.43zm4.41-59.22l-2.84-1.61c-.91-.51-2-1.14-3.24-1.87l-4.18-2.46-4.92-3c-1.75-1-3.56-2.18-5.46-3.34s-3.85-2.35-5.8-3.62l-5.94-3.8c-2-1.27-4-2.48-6.07-3.63a58.78 58.78 0 0 1-5.77-3.66 44.44 44.44 0 0 1-4.83-4.17 76.548 76.548 0 0 1-4-4.21 53.94 53.94 0 0 1-5.28-7.16c-.57-1-1-1.72-1.28-2.27s-.41-.85-.41-.85l.68-.9s.33 0 .93.17 1.46.33 2.53.62a54 54 0 0 1 8.31 3.18c1.64.77 3.36 1.67 5.11 2.7a44.45 44.45 0 0 1 5.31 3.54 58.78 58.78 0 0 1 5.06 4.59c1.66 1.65 3.37 3.29 5.12 4.88l5.25 4.71c1.74 1.54 3.41 3.11 5 4.62s3.21 3 4.68 4.37l4.16 4 3.49 3.37c1 1 1.94 1.89 2.67 2.62l2.32 2.31zm-9.27-45.78s-3.18-.08-7.92-.34c-2.37-.14-5.13-.29-8.09-.51s-6.09-.49-9.24-.77c-1.57-.14-3.15-.22-4.71-.28a38.07 38.07 0 0 1-4.55-.37 28.28 28.28 0 0 1-4.14-1c-1.3-.4-2.52-.85-3.63-1.31s-2.13-.94-3-1.4-1.66-.92-2.29-1.31-1.12-.74-1.45-1-.5-.39-.5-.39l.14-.78s.21-.08.61-.2 1-.28 1.7-.43 1.6-.34 2.6-.46 2.11-.24 3.32-.29 2.5-.06 3.86 0a28.28 28.28 0 0 1 4.23.46 38.06 38.06 0 0 1 4.4 1.19c1.49.47 3 .94 4.53 1.34 3 .81 6.1 1.58 8.95 2.42s5.5 1.59 7.78 2.27c4.55 1.37 7.56 2.37 7.56 2.37z" fill="#c7a315"/>
  <path d="M91.79 368.24s.33-2 .91-4.85c.3-1.45.64-3.14 1-4.94s.85-3.71 1.3-5.63.69-3.9 1.23-5.65a23.06 23.06 0 0 1 2.12-4.58c.38-.65.77-1.23 1.14-1.74s.71-.94 1-1.29a11.37 11.37 0 0 1 1-1.08l.47.15a11.36 11.36 0 0 1 .18 1.48c0 .46.05 1 0 1.64s0 1.32-.11 2.07a23.06 23.06 0 0 1-1 5c-.61 1.73-1.61 3.46-2.36 5.28s-1.52 3.62-2.29 5.3-1.47 3.25-2.09 4.59c-1.25 2.68-2.14 4.45-2.14 4.45zm-14.26-12.48s1.21-1.57 3.09-3.85c.94-1.14 2-2.47 3.24-3.87s2.5-2.88 3.8-4.35 2.44-3.11 3.75-4.41a23.06 23.06 0 0 1 4-3 22.9 22.9 0 0 1 3.32-1.67 11.37 11.37 0 0 1 1.41-.47l.34.36a11.37 11.37 0 0 1-.53 1.39c-.18.43-.43.92-.73 1.47s-.66 1.15-1.08 1.77a23.06 23.06 0 0 1-3.19 3.87c-1.35 1.24-3.05 2.3-4.57 3.55s-3 2.48-4.52 3.6-2.83 2.17-4 3.07c-2.37 1.78-4 2.92-4 2.92z" fill="#c7a315"/>
</svg>
