<svg xmlns="http://www.w3.org/2000/svg" viewBox="0 0 141.55 1843.13">
  <path d="M89.92 1768.5c0-1.92-5.78-3.5-12.91-3.5s-12.91 1.6-12.91 3.52c0 .19.07.61.19.61h.3v74h.11c.17-2 5.65-3.26 12.41-3.26s12.24 1.26 12.41 3.26h1.07v-74h-.85c.1 0 .18-.44.18-.63z" fill="#7b7031"/>
  <path d="M89.92 1690.4c0-1.92-5.78-3.55-12.91-3.55s-12.91 1.67-12.91 3.59c0 .19.07.68.19.68h.3v74h.11c.17-2 5.65-3.26 12.41-3.26s12.24 1.26 12.41 3.26h1.07v-74h-.85c.1.01.18-.53.18-.72z" fill="#7b7031"/>
  <path d="M89.92 1612.3c0-1.92-5.78-3.6-12.91-3.6s-12.91 1.75-12.91 3.67c0 .19.07.76.19.76h.3v74h.11c.17-2 5.65-3.26 12.41-3.26s12.24 1.26 12.41 3.26h1.07v-74h-.85c.1 0 .18-.64.18-.83z" fill="#7b7031"/>
  <path d="M89.92 1534.2c0-1.92-5.78-3.65-12.91-3.65s-12.91 1.83-12.91 3.74c0 .19.07-.16.19.84h.3v74h.11c.17-2 5.65-3.26 12.41-3.26s12.24 1.26 12.41 3.26h1.07v-74h-.85a3.56 3.56 0 0 1 .18-.93z" fill="#7b7031"/>
  <path d="M89.92 1455.6c0-1.92-5.78-3.45-12.91-3.45s-12.91 1.53-12.91 3.44c0 .19.07.54.19.54h.3v75h.11c.17-2 5.65-3.26 12.41-3.26s12.24 1.26 12.41 3.26h1.07v-75h-.85c.1 0 .18-.34.18-.53zm0-78.1c0-1.92-5.78-3.5-12.91-3.5s-12.91 1.6-12.91 3.52c0 .19.07.61.19.61h.3v74h.11c.17-2 5.65-3.26 12.41-3.26s12.24 1.26 12.41 3.26h1.07v-74h-.85c.1 0 .18-.44.18-.63z" fill="#7b7031"/>
  <path d="M89.92 1299.4c0-1.92-5.78-3.55-12.91-3.55s-12.91 1.68-12.91 3.59c0 .19.07.69.19.69h.3v74h.11c.17-2 5.65-3.26 12.41-3.26s12.24 1.26 12.41 3.26h1.07v-74h-.85c.1 0 .18-.54.18-.73z" fill="#7b7031"/>
  <path d="M89.92 1221.5c0-1.92-5.78-3.5-12.91-3.5s-12.91 1.6-12.91 3.52c0 .19.07.61.19.61h.3v74h.11c.17-2 5.65-3.26 12.41-3.26s12.24 1.26 12.41 3.26h1.07v-74h-.85c.1 0 .18-.44.18-.63z" fill="#7b7031"/>
  <path d="M89.92 1143.5c0-1.92-5.78-3.5-12.91-3.5s-12.91 1.6-12.91 3.52c0 .19.07.61.19.61h.3v74h.11c.17-2 5.65-3.26 12.41-3.26s12.24 1.26 12.41 3.26h1.07v-74h-.85c.1 0 .18-.44.18-.63z" fill="#7b7031"/>
  <path d="M89.92 1065.4c0-1.92-5.78-3.55-12.91-3.55s-12.91 1.68-12.91 3.59c0 .19.07.69.19.69h.3v74h.11c.17-2 5.65-3.26 12.41-3.26s12.24 1.26 12.41 3.26h1.07v-74h-.85c.1 0 .18-.54.18-.73z" fill="#7b7031"/>
  <path d="M89.92 988.5c0-1.92-5.78-3.5-12.91-3.5s-12.91 1.6-12.91 3.52c0 .19.07.61.19.61h.3v74h.11c.17-2 5.65-3.26 12.41-3.26s12.24 1.26 12.41 3.26h1.07v-74h-.85c.1 0 .18-.44.18-.63z" fill="#7b7031"/>
  <path d="M89.92 910.4c0-1.92-5.78-3.55-12.91-3.55s-12.91 1.67-12.91 3.59c0 .19.07.68.19.68h.3v74h.11c.17-2 5.65-3.26 12.41-3.26s12.24 1.26 12.41 3.26h1.07v-74h-.85c.1.01.18-.53.18-.72z" fill="#7b7031"/>
  <path d="M89.92 832.3c0-1.92-5.78-3.6-12.91-3.6s-12.91 1.75-12.91 3.67c0 .19.07.76.19.76h.3v74h.11c.17-2 5.65-3.26 12.41-3.26s12.24 1.26 12.41 3.26h1.07v-74h-.85c.1 0 .18-.64.18-.83z" fill="#7b7031"/>
  <path d="M89.92 754.2c0-1.92-5.78-3.65-12.91-3.65s-12.91 1.83-12.91 3.74c0 .19.07-.16.19.84h.3v74h.11c.17-2 5.65-3.26 12.41-3.26s12.24 1.26 12.41 3.26h1.07v-74h-.85a3.56 3.56 0 0 1 .18-.93z" fill="#7b7031"/>
  <path d="M89.92 675.6c0-1.92-5.78-3.45-12.91-3.45s-12.91 1.53-12.91 3.44c0 .19.07.54.19.54h.3v75h.11c.17-2 5.65-3.26 12.41-3.26s12.24 1.26 12.41 3.26h1.07v-75h-.85c.1 0 .18-.34.18-.53zm0-78.1c0-1.92-5.78-3.5-12.91-3.5s-12.91 1.6-12.91 3.52c0 .19.07.61.19.61h.3v74h.11c.17-2 5.65-3.26 12.41-3.26s12.24 1.26 12.41 3.26h1.07v-74h-.85c.1 0 .18-.44.18-.63zM76.71 353.39c-10.57-74.89-22.47-139.08-37-212.09C30.7 95.75 25.76 40 0 0c8.39 22.43 11.27 47.6 15.71 70.95 8.06 42.37 15.71 84.48 23.76 126.88C54 274.48 61.05 352.32 64.27 430.44c2.24 54.33 0 108.83 0 163.3a26 26 0 0 1 26 0c0-78.07-5.19-162.63-13.56-240.35zm64.63 1348.68s-3.07-.11-7.64-.45l-3.69-.29c-1.31-.1-2.68-.24-4.1-.37s-2.89-.25-4.38-.44L117 1700c-1.51-.17-3-.28-4.54-.35a29.14 29.14 0 0 1-4.37-.48 22 22 0 0 1-3.91-1.22 32.21 32.21 0 0 1-3.4-1.58 29.66 29.66 0 0 1-2.78-1.67 24.6 24.6 0 0 1-2.09-1.57c-.57-.47-1-.88-1.31-1.18s-.45-.47-.45-.47l.21-.92s.21-.09.61-.23 1-.32 1.69-.51a24.56 24.56 0 0 1 2.56-.53 29.66 29.66 0 0 1 3.24-.32 32.18 32.18 0 0 1 3.74 0 22 22 0 0 1 4.06.57 29.13 29.13 0 0 1 4.15 1.43c1.39.58 2.82 1.13 4.26 1.63l4.3 1.45c1.42.46 2.8 1 4.15 1.47s2.64.95 3.87 1.42l3.46 1.32c4.28 1.65 7.1 2.86 7.1 2.86zm-27.5 28.93s-1.55-2.11-3.79-5.33c-1.11-1.61-2.42-3.49-3.77-5.52s-2.78-4.22-4.2-6.4c-.71-1.09-1.46-2.16-2.21-3.21a34.17 34.17 0 0 1-2.07-3.15 33.15 33.15 0 0 1-2.55-6.19 29.8 29.8 0 0 1-1.08-4.77 16.64 16.64 0 0 1-.17-1.94l.53-.29a16.64 16.64 0 0 1 1.53 1.2 29.81 29.81 0 0 1 3.42 3.5 33.15 33.15 0 0 1 3.81 5.5 34.16 34.16 0 0 1 1.52 3.45c.47 1.2 1 2.41 1.49 3.6 1.06 2.38 2.14 4.75 3.08 7s1.84 4.36 2.58 6.17c1.48 3.63 2.41 6.08 2.41 6.08zm15.39-58s-2 1.3-5.12 3.14c-1.55.91-3.35 2-5.31 3.08s-4.05 2.24-6.15 3.38c-1 .57-2.08 1.19-3.08 1.81a24.36 24.36 0 0 1-3 1.66 18.06 18.06 0 0 1-3.06 1 26.31 26.31 0 0 1-2.88.56 24.1 24.1 0 0 1-2.54.22 19.76 19.76 0 0 1-2 0 13.78 13.78 0 0 1-1.86-.22l-.27-.65a13.79 13.79 0 0 1 1.15-1.47 19.78 19.78 0 0 1 1.42-1.46 24.1 24.1 0 0 1 1.95-1.64 26.31 26.31 0 0 1 2.43-1.65 18 18 0 0 1 2.87-1.47 24.35 24.35 0 0 1 3.31-1c1.15-.28 2.31-.57 3.46-.91 2.29-.69 4.56-1.41 6.73-2s4.19-1.14 5.92-1.6c3.48-.9 5.84-1.43 5.84-1.43zm12.11-289.57s-3.07-.11-7.64-.45l-3.69-.29c-1.31-.1-2.68-.24-4.1-.37s-2.89-.25-4.38-.44l-4.5-.52c-1.51-.17-3-.28-4.54-.35a29.13 29.13 0 0 1-4.37-.48 22 22 0 0 1-3.91-1.22 32.17 32.17 0 0 1-3.4-1.58 29.66 29.66 0 0 1-2.79-1.68 24.6 24.6 0 0 1-2.09-1.57c-.57-.47-1-.88-1.31-1.18s-.45-.47-.45-.47l.21-.92s.21-.09.61-.23 1-.32 1.69-.51a24.59 24.59 0 0 1 2.56-.53 29.67 29.67 0 0 1 3.24-.32 32.17 32.17 0 0 1 3.74 0 22 22 0 0 1 4.06.57 29.14 29.14 0 0 1 4.15 1.43c1.39.58 2.82 1.13 4.26 1.62l4.3 1.45c1.42.46 2.8 1 4.15 1.47s2.64.95 3.87 1.42l3.46 1.32c4.28 1.65 7.1 2.86 7.1 2.86zm-27.5 28.89s-1.55-2.11-3.79-5.33c-1.11-1.61-2.42-3.49-3.77-5.52s-2.78-4.22-4.2-6.4c-.71-1.09-1.46-2.16-2.21-3.21a34.17 34.17 0 0 1-2.07-3.15 33.15 33.15 0 0 1-2.55-6.19 29.8 29.8 0 0 1-1.08-4.77 16.64 16.64 0 0 1-.17-1.94l.53-.29a16.63 16.63 0 0 1 1.53 1.2 29.8 29.8 0 0 1 3.42 3.5 33.15 33.15 0 0 1 3.81 5.5 34.18 34.18 0 0 1 1.52 3.45c.47 1.2 1 2.41 1.49 3.6 1.06 2.38 2.14 4.75 3.08 7s1.84 4.36 2.58 6.17c1.48 3.63 2.41 6.08 2.41 6.08zm27.5-333.24s-3.07-.11-7.64-.45l-3.69-.29c-1.31-.1-2.68-.24-4.1-.37s-2.89-.25-4.38-.44L117 1077c-1.51-.17-3-.28-4.54-.35a29.14 29.14 0 0 1-4.37-.48 22 22 0 0 1-3.91-1.22 32.21 32.21 0 0 1-3.4-1.58 29.66 29.66 0 0 1-2.79-1.68 24.6 24.6 0 0 1-2.09-1.57c-.57-.47-1-.88-1.31-1.18s-.45-.47-.45-.47l.21-.92s.21-.09.61-.23 1-.32 1.69-.51a24.56 24.56 0 0 1 2.56-.53 29.66 29.66 0 0 1 3.24-.32 32.18 32.18 0 0 1 3.74 0 22 22 0 0 1 4.06.57 29.13 29.13 0 0 1 4.15 1.43c1.39.58 2.82 1.13 4.26 1.63l4.3 1.45c1.42.46 2.8 1 4.15 1.47s2.64.95 3.87 1.42l3.46 1.32c4.28 1.65 7.1 2.86 7.1 2.86zm-27.5 28.92s-1.55-2.11-3.79-5.33c-1.11-1.61-2.42-3.49-3.77-5.52s-2.78-4.22-4.2-6.4c-.71-1.09-1.46-2.16-2.21-3.21a34.16 34.16 0 0 1-2.07-3.15 33.15 33.15 0 0 1-2.55-6.19 29.8 29.8 0 0 1-1.08-4.77 16.64 16.64 0 0 1-.17-1.94l.53-.29a16.64 16.64 0 0 1 1.53 1.2 29.81 29.81 0 0 1 3.42 3.5 33.15 33.15 0 0 1 3.81 5.5 34.16 34.16 0 0 1 1.52 3.45c.47 1.2 1 2.41 1.49 3.6 1.06 2.38 2.14 4.75 3.08 7s1.84 4.36 2.58 6.17c1.48 3.63 2.41 6.08 2.41 6.08zm15.39-58s-2 1.3-5.12 3.14c-1.55.91-3.35 2-5.31 3.08s-4.05 2.24-6.15 3.38c-1 .57-2.08 1.19-3.08 1.81a24.36 24.36 0 0 1-3 1.66 18.06 18.06 0 0 1-3.06 1 26.31 26.31 0 0 1-2.88.56 24.11 24.11 0 0 1-2.54.22 19.76 19.76 0 0 1-2 0 13.78 13.78 0 0 1-1.86-.22l-.27-.65a13.79 13.79 0 0 1 1.15-1.47 19.78 19.78 0 0 1 1.42-1.46 24.1 24.1 0 0 1 1.95-1.64 26.31 26.31 0 0 1 2.43-1.65 18 18 0 0 1 2.87-1.47 24.35 24.35 0 0 1 3.31-1c1.15-.28 2.31-.57 3.46-.91 2.29-.69 4.56-1.41 6.73-2s4.19-1.14 5.92-1.6c3.48-.9 5.84-1.43 5.84-1.43zm-17.71-787s-3-.94-7.41-2.47c-2.21-.77-4.79-1.67-7.53-2.68s-5.65-2.12-8.56-3.23c-1.45-.56-2.93-1.06-4.39-1.54a39.36 39.36 0 0 1-4.21-1.59 29.26 29.26 0 0 1-3.67-2c-1.13-.72-2.18-1.46-3.12-2.19s-1.78-1.44-2.51-2.1-1.34-1.29-1.84-1.82-.88-1-1.13-1.29-.38-.5-.38-.5l.32-.67h.62c.4 0 1 0 1.71.07s1.6.13 2.57.3 2.06.36 3.21.64 2.39.63 3.66 1.06a29.26 29.26 0 0 1 3.89 1.57 39.36 39.36 0 0 1 3.87 2.29c1.29.84 2.61 1.67 4 2.46 2.69 1.57 5.39 3.11 7.87 4.65s4.82 3 6.8 4.19c4 2.49 6.57 4.23 6.57 4.23zm-35.61 13.43s-1-1.81-2.52-4.57c-.73-1.38-1.59-3-2.48-4.72s-1.81-3.6-2.73-5.46c-.46-.93-1-1.85-1.46-2.75a25.06 25.06 0 0 1-1.34-2.69 24.36 24.36 0 0 1-1.38-5.16c-.13-.78-.2-1.52-.24-2.18s-.06-1.24 0-1.73a12 12 0 0 1 .11-1.57l.48-.19a12 12 0 0 1 1.14 1.08c.34.35.72.79 1.14 1.31s.86 1.1 1.3 1.77a24.37 24.37 0 0 1 2.51 4.71 25.05 25.05 0 0 1 .83 2.88c.24 1 .5 2 .79 3 .59 2 1.2 4 1.7 5.86s1 3.64 1.38 5.15c.78 3 1.25 5.07 1.25 5.07zm21.28-41.24s-2.06.37-5.15.84c-1.55.23-3.35.49-5.28.74s-4 .49-6.06.73c-1 .12-2.06.28-3.08.45a25.06 25.06 0 0 1-3 .36 24.36 24.36 0 0 1-5.32-.46c-.78-.15-1.5-.32-2.13-.5s-1.19-.36-1.65-.54a12 12 0 0 1-1.44-.63v-.52a12 12 0 0 1 1.4-.71c.45-.2 1-.42 1.61-.64s1.33-.44 2.1-.63a24.36 24.36 0 0 1 5.28-.78 25.06 25.06 0 0 1 3 .18c1 .11 2.06.21 3.1.26 2.07.12 4.15.21 6.09.37s3.76.29 5.32.43c3.11.28 5.19.53 5.19.53z" fill="#7b7031"/>
  <path d="M2.51 34.67s.67 1.17 1.62 3c.48.89 1 1.93 1.61 3.06S6.9 43 7.49 44.23s1.33 2.36 1.81 3.52a15.74 15.74 0 0 1 .87 3.34 15.33 15.33 0 0 1 .18 2.53 7.77 7.77 0 0 1-.07 1l-.31.12a7.77 7.77 0 0 1-.74-.7 15.33 15.33 0 0 1-1.58-2A15.74 15.74 0 0 1 6 49c-.43-1.18-.65-2.53-1-3.81s-.77-2.57-1.1-3.79-.64-2.35-.9-3.33c-.51-2-.81-3.28-.81-3.28z" fill="#7b7031"/>
</svg>
