<svg xmlns="http://www.w3.org/2000/svg" viewBox="0 0 77.17 313.13">
  <defs>
    <linearGradient id="a" x1="13.24" y1="313.13" x2="13.24" y2="234.15" gradientUnits="userSpaceOnUse">
      <stop offset="0" stop-color="#fcee21"/>
      <stop offset=".14" stop-color="#e8e726"/>
      <stop offset=".54" stop-color="#b6d534"/>
      <stop offset=".83" stop-color="#98ca3c"/>
      <stop offset="1" stop-color="#8cc63f"/>
    </linearGradient>
    <linearGradient id="b" x1="13.24" y1="156.13" x2="13.24" y2="77.85" gradientUnits="userSpaceOnUse">
      <stop offset=".01" stop-color="#8cc63f"/>
      <stop offset=".53" stop-color="#aeb227"/>
      <stop offset="1" stop-color="#c7a315"/>
    </linearGradient>
  </defs>
  <path d="M25.82 237.6c0-1.92-5.78-3.45-12.91-3.45S0 235.68 0 237.59c0 .19.07.54.19.54h.3v75h.1c.17-2 5.65-3.26 12.41-3.26s12.24 1.26 12.41 3.26h1.07v-75h-.85c.12 0 .19-.33.19-.53z" fill="url(#a)"/>
  <path d="M25.82 159.5c0-1.92-5.78-3.5-12.91-3.5S0 157.6 0 159.52c0 .19.07.61.19.61h.3v74h.1c.17-2 5.65-3.26 12.41-3.26s12.24 1.26 12.41 3.26h1.07v-74h-.85c.12 0 .19-.43.19-.63z" fill="#8cc63f"/>
  <path d="M25.82 81.4c0-1.92-5.78-3.55-12.91-3.55S0 79.53 0 81.44c0 .19.07.69.19.69h.3v74h.1c.17-2 5.65-3.26 12.41-3.26s12.24 1.26 12.41 3.26h1.07v-74h-.85c.12 0 .19-.53.19-.73z" fill="url(#b)"/>
  <path d="M25.82 3.5C25.82 1.59 20 0 12.91 0S0 1.6 0 3.52c0 .19.07.61.19.61h.3v74h.1c.17-2 5.65-3.26 12.41-3.26s12.24 1.26 12.41 3.26h1.07v-74h-.85c.12 0 .19-.43.19-.63z" fill="#c7a315"/>
  <path d="M77 247.25s-3.07-.11-7.64-.45l-3.69-.29c-1.31-.1-2.68-.24-4.1-.37s-2.89-.25-4.38-.44l-4.5-.52c-1.51-.17-3-.28-4.54-.35a29.14 29.14 0 0 1-4.37-.48 22 22 0 0 1-3.91-1.22 32.16 32.16 0 0 1-3.4-1.58 29.68 29.68 0 0 1-2.79-1.68 24.6 24.6 0 0 1-2.09-1.57c-.57-.47-1-.88-1.31-1.18s-.45-.47-.45-.47l.21-.92s.21-.09.61-.23 1-.32 1.69-.51a24.59 24.59 0 0 1 2.56-.53 29.66 29.66 0 0 1 3.24-.32 32.18 32.18 0 0 1 3.74 0 22 22 0 0 1 4.06.57 29.13 29.13 0 0 1 4.15 1.43c1.39.58 2.82 1.13 4.26 1.62l4.3 1.45c1.42.46 2.8 1 4.15 1.47s2.64.95 3.87 1.42l3.46 1.32c4.28 1.65 7.1 2.86 7.1 2.86zm-27.53 28.89s-1.55-2.11-3.79-5.33c-1.11-1.61-2.42-3.49-3.77-5.52s-2.78-4.22-4.2-6.4c-.71-1.09-1.46-2.16-2.21-3.21a34.15 34.15 0 0 1-2.07-3.15 33.15 33.15 0 0 1-2.55-6.19 29.81 29.81 0 0 1-1.08-4.77 16.65 16.65 0 0 1-.17-1.94l.53-.29a16.66 16.66 0 0 1 1.53 1.2 29.81 29.81 0 0 1 3.42 3.5 33.15 33.15 0 0 1 3.81 5.5 34.16 34.16 0 0 1 1.51 3.46c.47 1.2 1 2.41 1.49 3.6 1.06 2.38 2.14 4.75 3.08 7s1.84 4.36 2.58 6.17c1.48 3.63 2.41 6.08 2.41 6.08z" fill="#8cc63f"/>
</svg>
