<svg xmlns="http://www.w3.org/2000/svg" viewBox="0 0 153.89 1969.55">
  <path d="M25.82 1894.93c0-1.92-5.78-3.5-12.91-3.5S0 1893 0 1894.94c0 .19.07.61.19.61h.3v74h.1c.17-2 5.65-3.26 12.41-3.26s12.24 1.26 12.41 3.26h1.07v-74h-.85c.12 0 .19-.43.19-.62z" fill="#7b7031"/>
  <path d="M25.82 1816.83c0-1.92-5.78-3.55-12.91-3.55S0 1814.95 0 1816.87c0 .19.07.68.19.68h.3v74h.1c.17-2 5.65-3.26 12.41-3.26s12.24 1.26 12.41 3.26h1.07v-74h-.85c.12 0 .19-.55.19-.72z" fill="#7b7031"/>
  <path d="M25.82 1738.73c0-1.92-5.78-3.6-12.91-3.6S0 1736.87 0 1738.79c0 .19.07.76.19.76h.3v74h.1c.17-2 5.65-3.26 12.41-3.26s12.24 1.26 12.41 3.26h1.07v-74h-.85c.12 0 .19-.63.19-.82z" fill="#7b7031"/>
  <path d="M25.82 1660.63c0-1.92-5.78-3.65-12.91-3.65S0 1658.8 0 1660.72c0 .19.07-.16.19.84h.3v74h.1c.17-2 5.65-3.26 12.41-3.26s12.24 1.26 12.41 3.26h1.07v-74h-.85a3.56 3.56 0 0 1 .19-.93z" fill="#7b7031"/>
  <path d="M25.82 1582c0-1.92-5.78-3.45-12.91-3.45S0 1580.1 0 1582c0 .19.07.54.19.54h.3v75h.1c.17-2 5.65-3.26 12.41-3.26s12.24 1.26 12.41 3.26h1.07v-75h-.85c.12.01.19-.32.19-.54zm0-78.07c0-1.92-5.78-3.5-12.91-3.5S0 1502 0 1503.94c0 .19.07.61.19.61h.3v74h.1c.17-2 5.65-3.26 12.41-3.26s12.24 1.26 12.41 3.26h1.07v-74h-.85c.12 0 .19-.43.19-.62z" fill="#7b7031"/>
  <path d="M25.82 1425.83c0-1.92-5.78-3.55-12.91-3.55S0 1423.95 0 1425.87c0 .19.07.69.19.69h.3v74h.1c.17-2 5.65-3.26 12.41-3.26s12.24 1.26 12.41 3.26h1.07v-74h-.85c.12-.01.19-.56.19-.73z" fill="#7b7031"/>
  <path d="M25.82 1347.93c0-1.92-5.78-3.5-12.91-3.5S0 1346 0 1347.94c0 .19.07.61.19.61h.3v74h.1c.17-2 5.65-3.26 12.41-3.26s12.24 1.26 12.41 3.26h1.07v-74h-.85c.12 0 .19-.43.19-.62z" fill="#7b7031"/>
  <path d="M25.82 1269.93c0-1.92-5.78-3.5-12.91-3.5S0 1268 0 1269.94c0 .19.07.61.19.61h.3v74h.1c.17-2 5.65-3.26 12.41-3.26s12.24 1.26 12.41 3.26h1.07v-74h-.85c.12 0 .19-.43.19-.62z" fill="#7b7031"/>
  <path d="M25.82 1191.83c0-1.92-5.78-3.55-12.91-3.55S0 1189.95 0 1191.87c0 .19.07.69.19.69h.3v74h.1c.17-2 5.65-3.26 12.41-3.26s12.24 1.26 12.41 3.26h1.07v-74h-.85c.12-.01.19-.56.19-.73z" fill="#7b7031"/>
  <path d="M25.82 1114.93c0-1.92-5.78-3.5-12.91-3.5S0 1113 0 1114.94c0 .19.07.61.19.61h.3v74h.1c.17-2 5.65-3.26 12.41-3.26s12.24 1.26 12.41 3.26h1.07v-74h-.85c.12 0 .19-.43.19-.62z" fill="#7b7031"/>
  <path d="M25.82 1036.83c0-1.92-5.78-3.55-12.91-3.55S0 1034.95 0 1036.87c0 .19.07.68.19.68h.3v74h.1c.17-2 5.65-3.26 12.41-3.26s12.24 1.26 12.41 3.26h1.07v-74h-.85c.12 0 .19-.55.19-.72z" fill="#7b7031"/>
  <path d="M25.82 958.73c0-1.92-5.78-3.6-12.91-3.6S0 956.87 0 958.79c0 .19.07.76.19.76h.3v74h.1c.17-2 5.65-3.26 12.41-3.26s12.24 1.26 12.41 3.26h1.07v-74h-.85c.12 0 .19-.63.19-.82z" fill="#7b7031"/>
  <path d="M25.82 880.63c0-1.92-5.78-3.65-12.91-3.65S0 878.8 0 880.72c0 .19.07-.16.19.84h.3v74h.1c.17-2 5.65-3.26 12.41-3.26s12.24 1.26 12.41 3.26h1.07v-74h-.85a3.56 3.56 0 0 1 .19-.93z" fill="#7b7031"/>
  <path d="M25.82 802c0-1.92-5.78-3.45-12.91-3.45S0 800.1 0 802c0 .19.07.54.19.54h.3v75h.1c.17-2 5.65-3.26 12.41-3.26s12.24 1.26 12.41 3.26h1.07v-75h-.85c.12.01.19-.32.19-.54z" fill="#7b7031"/>
  <path d="M25.82 723.93c0-1.92-5.78-3.5-12.91-3.5S0 722 0 723.94c0 .19.07.61.19.61h.3v74h.1c.17-2 5.65-3.26 12.41-3.26s12.24 1.26 12.41 3.26h1.07v-74h-.85c.12 0 .19-.43.19-.62z" fill="#7b7031"/>
  <path d="M25.82 645.83c0-1.92-5.78-3.55-12.91-3.55S0 643.95 0 645.87c0 .19.07.69.19.69h.3v74h.1c.17-2 5.65-3.26 12.41-3.26s12.24 1.26 12.41 3.26h1.07v-74h-.85c.12-.01.19-.56.19-.73z" fill="#7b7031"/>
  <path d="M25.82 567.93c0-1.92-5.78-3.5-12.91-3.5S0 566 0 567.94c0 .19.07.61.19.61h.3v74h.1c.17-2 5.65-3.26 12.41-3.26s12.24 1.26 12.41 3.26h1.07v-74h-.85c.12 0 .19-.43.19-.62zm.35-3.77c.45-52.33 13.07-119 19-144.61C58 363.83 72.75 308.31 86.39 252.78q17.88-72.72 36.61-145.22C132.28 72 140.12 35 153.89.87L152 0c-19.51 35.41-31.2 76.24-43.7 114.5-16.34 50-31.08 100.63-44.87 151.44-11.64 42.9-23.46 86-34.08 129.16C20 432.88 5.17 478.49 0 564.32c10.17-3.66 15.42-2.91 26.17-.16zm52.07 1029.57s-3.07-.11-7.64-.45l-3.69-.29c-1.31-.1-2.68-.24-4.1-.37s-2.89-.25-4.38-.44l-4.5-.52c-1.51-.17-3-.28-4.54-.35a29.14 29.14 0 0 1-4.37-.48 22 22 0 0 1-3.91-1.22 32.21 32.21 0 0 1-3.4-1.58 29.66 29.66 0 0 1-2.79-1.68 24.6 24.6 0 0 1-2.09-1.57c-.57-.47-1-.88-1.31-1.18s-.45-.47-.45-.47l.21-.92s.21-.09.61-.23 1-.32 1.69-.51a24.56 24.56 0 0 1 2.56-.53 29.66 29.66 0 0 1 3.24-.32 32.18 32.18 0 0 1 3.74 0 22 22 0 0 1 4.06.57 29.13 29.13 0 0 1 4.15 1.43c1.39.58 2.82 1.13 4.26 1.63l4.3 1.45c1.42.46 2.8 1 4.15 1.47s2.64.95 3.87 1.42l3.46 1.32c4.28 1.65 7.1 2.86 7.1 2.86zm-27.5 28.89s-1.55-2.11-3.79-5.33c-1.11-1.61-2.42-3.49-3.77-5.52s-2.78-4.22-4.2-6.4c-.71-1.09-1.46-2.16-2.21-3.21a34.16 34.16 0 0 1-2.07-3.16 33.15 33.15 0 0 1-2.55-6.19 29.8 29.8 0 0 1-1.08-4.77 16.64 16.64 0 0 1-.17-1.94l.53-.29A16.64 16.64 0 0 1 33 1587a29.81 29.81 0 0 1 3.42 3.5 33.15 33.15 0 0 1 3.81 5.5 34.16 34.16 0 0 1 1.52 3.45c.47 1.2 1 2.41 1.49 3.6 1.06 2.38 2.14 4.75 3.08 7s1.84 4.36 2.58 6.17c1.48 3.63 2.41 6.08 2.41 6.08zm15.39-57.99s-2 1.3-5.12 3.14c-1.55.91-3.35 2-5.31 3.08s-4.05 2.24-6.15 3.38c-1 .57-2.08 1.19-3.08 1.81a24.36 24.36 0 0 1-3 1.66 18.06 18.06 0 0 1-3.06 1 26.31 26.31 0 0 1-2.88.56 24.1 24.1 0 0 1-2.54.22 19.76 19.76 0 0 1-2 0 13.78 13.78 0 0 1-1.86-.22l-.27-.65a13.79 13.79 0 0 1 1.15-1.47 19.78 19.78 0 0 1 1.42-1.46 24.1 24.1 0 0 1 1.95-1.64 26.31 26.31 0 0 1 2.43-1.65 18 18 0 0 1 2.87-1.47 24.35 24.35 0 0 1 3.31-1c1.15-.28 2.31-.57 3.46-.91 2.29-.69 4.56-1.41 6.73-2s4.19-1.14 5.92-1.6c3.48-.9 5.84-1.43 5.84-1.43zm12.11-289.54s-3.07-.11-7.64-.45l-3.69-.29c-1.31-.1-2.68-.24-4.1-.37s-2.89-.25-4.38-.44l-4.5-.52c-1.51-.17-3-.28-4.54-.35a29.13 29.13 0 0 1-4.37-.48 22 22 0 0 1-3.92-1.19 32.17 32.17 0 0 1-3.4-1.58 29.66 29.66 0 0 1-2.79-1.68 24.6 24.6 0 0 1-2.09-1.57c-.57-.47-1-.88-1.31-1.18s-.45-.47-.45-.47l.21-.92s.21-.09.61-.23 1-.32 1.69-.51a24.59 24.59 0 0 1 2.56-.53 29.67 29.67 0 0 1 3.24-.32 32.17 32.17 0 0 1 3.74 0 22 22 0 0 1 4.06.57 29.14 29.14 0 0 1 4.15 1.43c1.39.58 2.82 1.13 4.26 1.62l4.3 1.45c1.42.46 2.8 1 4.15 1.47s2.64.95 3.87 1.42l3.46 1.32c4.28 1.65 7.1 2.86 7.1 2.86zM50.74 1304s-1.55-2.11-3.79-5.33c-1.11-1.61-2.42-3.49-3.77-5.52s-2.78-4.22-4.2-6.4c-.71-1.09-1.46-2.16-2.21-3.21a34.16 34.16 0 0 1-2.07-3.15 33.15 33.15 0 0 1-2.55-6.19 29.8 29.8 0 0 1-1.08-4.77 16.64 16.64 0 0 1-.17-1.94l.53-.29a16.63 16.63 0 0 1 1.53 1.2 29.8 29.8 0 0 1 3.42 3.5 33.15 33.15 0 0 1 3.81 5.5 34.18 34.18 0 0 1 1.52 3.45c.47 1.2 1 2.41 1.49 3.6 1.06 2.38 2.14 4.75 3.08 7s1.84 4.36 2.58 6.17c1.48 3.63 2.41 6.08 2.41 6.08z" fill="#7b7031"/>
  <path d="M90.93 398.92s-1.9-3.76-4.59-9.46l-2.15-4.61c-.77-1.63-1.53-3.37-2.35-5.16s-1.66-3.64-2.46-5.54l-2.47-5.74c-.83-1.92-1.73-3.82-2.64-5.68a53 53 0 0 1-2.43-5.55 39.39 39.39 0 0 1-1.47-5.46c-.37-1.77-.64-3.47-.82-5.06a47.8 47.8 0 0 1-.33-7.88c.05-1 .12-1.76.19-2.3s.12-.83.12-.83l.95-.32s.22.2.6.59.91 1 1.55 1.71a47.8 47.8 0 0 1 4.52 6.46 57.15 57.15 0 0 1 2.42 4.52 39.39 39.39 0 0 1 2.14 5.23 53 53 0 0 1 1.44 5.88c.41 2 .84 4.09 1.35 6.12l1.5 6.07c.52 2 1 4 1.41 5.89s.89 3.76 1.27 5.53l1.09 5c1.33 6.16 2.1 10.3 2.1 10.3zm13.48-39s-2.29-1.63-5.65-4.18c-1.67-1.28-3.62-2.76-5.68-4.39s-4.23-3.39-6.4-5.15c-1.08-.88-2.21-1.72-3.32-2.54a33.73 33.73 0 0 1-3.15-2.53 25.06 25.06 0 0 1-2.54-2.79c-.76-.94-1.43-1.87-2-2.76s-1.1-1.74-1.52-2.53-.76-1.5-1-2.1a17.15 17.15 0 0 1-.75-2l.49-.5a17.16 17.16 0 0 1 2 .68c.61.25 1.35.55 2.13 1s1.67.87 2.58 1.43 1.87 1.2 2.83 1.92a25.06 25.06 0 0 1 2.88 2.44 33.73 33.73 0 0 1 2.6 3.08 81.36 81.36 0 0 0 2.66 3.23c1.84 2.11 3.7 4.19 5.37 6.22s3.25 3.9 4.59 5.52c2.66 3.26 4.37 5.49 4.37 5.49zM78.38 144.36s1.37-1.62 3.49-4a302.407 302.407 0 0 1 7.91-8.49c1.45-1.49 2.76-3.22 4.21-4.55a25.89 25.89 0 0 1 4.43-3.12c.7-.4 1.36-.74 2-1s1.15-.51 1.62-.67a12.46 12.46 0 0 1 1.51-.47l.33.38a12.46 12.46 0 0 1-.65 1.44c-.22.44-.51 1-.86 1.52s-.76 1.19-1.24 1.84a25.89 25.89 0 0 1-3.63 4c-1.5 1.28-3.35 2.35-5 3.64s-3.36 2.54-5 3.69-3.11 2.23-4.4 3.14c-2.6 1.82-4.37 3-4.37 3zm4.1-20.36s1.31-.55 3.28-1.3c1-.38 2.14-.83 3.38-1.28s2.57-.91 3.9-1.37 2.62-1.08 3.88-1.42a16.5 16.5 0 0 1 3.58-.47 16 16 0 0 1 2.65.13 8.14 8.14 0 0 1 1 .2l.09.34a8.14 8.14 0 0 1-.82.68 16 16 0 0 1-2.27 1.38 16.5 16.5 0 0 1-3.38 1.29c-1.28.3-2.71.35-4.09.6s-2.77.47-4.08.65-2.53.35-3.58.49c-2.1.28-3.51.42-3.51.42zm-4.24 758.17s-3.07-.11-7.64-.45l-3.69-.29c-1.31-.1-2.68-.24-4.1-.37s-2.89-.25-4.38-.44l-4.5-.52c-1.51-.17-3-.28-4.54-.35a29.13 29.13 0 0 1-4.37-.48 22 22 0 0 1-3.91-1.22 32.17 32.17 0 0 1-3.4-1.58 29.66 29.66 0 0 1-2.79-1.68 24.6 24.6 0 0 1-2.09-1.57c-.57-.47-1-.88-1.31-1.18s-.45-.47-.45-.47l.21-.92s.21-.09.61-.23 1-.32 1.69-.51a24.59 24.59 0 0 1 2.56-.53 29.67 29.67 0 0 1 3.24-.32 32.17 32.17 0 0 1 3.74 0 22 22 0 0 1 4.06.57 29.14 29.14 0 0 1 4.15 1.43c1.39.58 2.82 1.13 4.26 1.62l4.3 1.45c1.42.46 2.8 1 4.15 1.47s2.64.95 3.87 1.42l3.46 1.32c4.28 1.65 7.1 2.86 7.1 2.86zm-27.5 28.89s-1.55-2.11-3.79-5.33c-1.11-1.61-2.42-3.49-3.77-5.52S40.4 896 39 893.81c-.71-1.09-1.46-2.16-2.21-3.21a34.16 34.16 0 0 1-2.07-3.15 33.15 33.15 0 0 1-2.55-6.19 29.8 29.8 0 0 1-1.08-4.77 16.64 16.64 0 0 1-.17-1.94l.53-.29a16.63 16.63 0 0 1 1.53 1.2 29.8 29.8 0 0 1 3.42 3.5 33.15 33.15 0 0 1 3.81 5.5 34.18 34.18 0 0 1 1.52 3.45c.47 1.2 1 2.41 1.49 3.6 1.06 2.38 2.14 4.75 3.08 7s1.84 4.36 2.58 6.17c1.48 3.63 2.41 6.08 2.41 6.08z" fill="#7b7031"/>
</svg>
