<svg xmlns="http://www.w3.org/2000/svg" viewBox="0 0 457.12 537.21">
  <path d="M0 0l2 .59 2.43.73 3.3 1.19a181.77 181.77 0 0 1 20.9 9.61c8.77 4.64 19.15 10.75 30.7 18.31S83.58 47 97.14 57.15 125 78.83 139.88 91.34s30.17 26.11 45.67 40.55c3.87 3.62 7.78 7.25 11.66 11s7.79 7.47 11.67 11.3c7.82 7.59 15.61 15.4 23.38 23.37 15.57 15.89 30.92 32.49 46 49.36s29.57 34.23 43.42 51.67c3.49 4.34 6.88 8.73 10.3 13.06s6.68 8.75 10 13.13c6.53 8.76 12.95 17.43 19 26.16 12.22 17.37 23.47 34.57 33.52 51.27 2.48 4.2 5 8.3 7.31 12.42s4.71 8.13 6.87 12.18l3.27 6 3.12 5.94 3 5.83 2.88 5.77c7.55 15.26 13.79 29.58 18.72 42.51s8.59 24.42 11.16 34c.67 2.38 1.18 4.68 1.73 6.81s1 4.14 1.4 6c.75 3.77 1.49 6.95 1.91 9.56l1.29 8-2.52-7.69c-.78-2.51-2-5.54-3.23-9.13-.61-1.8-1.42-3.69-2.21-5.72s-1.6-4.2-2.56-6.45c-3.73-9-8.62-19.85-14.75-32s-13.52-25.53-22.13-39.83l-3.3-5.41-3.4-5.48-3.48-5.52-3.63-5.62q-7.3-11.35-15.44-23.19c-10.79-15.79-22.7-32.09-35.34-48.72l-4.78-6.24-4.86-6.26c-3.22-4.21-6.57-8.38-9.89-12.6q-10.09-12.64-20.56-25.37c-14-16.87-28.46-33.88-43.31-50.53-7.39-8.36-14.82-16.68-22.35-24.86l-11.26-12.25-11.28-12.09-11.3-11.9q-5.61-5.93-11.24-11.74c-7.48-7.75-15-15.31-22.31-22.77-14.78-14.83-29.23-29-43.15-42.23S101.61 78.11 89.1 67 64.89 45.9 54.33 37.3s-20-15.76-28-21.39A211.27 211.27 0 0 0 7.2 3.66L4.14 2 1.86.9z" fill="#7b7031"/>
  <path d="M225.22 301s1-4.09 2.72-10.16l1.39-4.89c.49-1.74 1-3.55 1.6-5.44s1.12-3.84 1.75-5.8l1.88-6c.63-2 1.18-4 1.71-6a53 53 0 0 1 1.73-5.81 39.39 39.39 0 0 1 2.45-5.09c.88-1.58 1.78-3 2.68-4.37a47.8 47.8 0 0 1 4.9-6.17c.68-.71 1.24-1.25 1.65-1.62s.63-.55.63-.55l.93.38s0 .3.07.84.06 1.33.05 2.31a47.79 47.79 0 0 1-.8 7.84c-.28 1.58-.65 3.26-1.13 5a39.37 39.37 0 0 1-1.8 5.36 53 53 0 0 1-2.76 5.39c-1 1.8-2 3.64-3 5.51l-2.81 5.58c-.91 1.85-1.88 3.64-2.79 5.38s-1.79 3.43-2.65 5l-2.42 4.47c-3 5.53-5.14 9.17-5.14 9.17zm47.9-18.27s-1.38-2.45-3.34-6.18c-1-1.86-2.11-4-3.29-6.38s-2.39-4.86-3.61-7.38c-.61-1.26-1.27-2.5-1.93-3.71a33.72 33.72 0 0 1-1.78-3.63 25.07 25.07 0 0 1-1.11-3.6c-.29-1.17-.5-2.3-.65-3.36s-.25-2-.31-2.93-.05-1.68 0-2.34a17.16 17.16 0 0 1 .16-2.11l.65-.25a17.15 17.15 0 0 1 1.53 1.47c.45.48 1 1.07 1.53 1.77s1.14 1.5 1.73 2.39 1.18 1.88 1.75 2.94a25.06 25.06 0 0 1 1.58 3.43 33.73 33.73 0 0 1 1.09 3.89c.32 1.35.65 2.71 1 4.05.77 2.69 1.57 5.36 2.23 7.91s1.29 4.91 1.81 6.95c1 4.08 1.63 6.83 1.63 6.83zm-61.03-21.02s1.84-2.13 4.69-5.22c1.43-1.54 3.09-3.35 4.91-5.24s3.77-3.89 5.73-5.88c1-1 1.93-2 2.85-3.07a33.74 33.74 0 0 1 2.82-2.9 25.07 25.07 0 0 1 3-2.26c1-.66 2-1.25 2.94-1.75s1.84-.93 2.66-1.28 1.56-.61 2.19-.82a17.16 17.16 0 0 1 2-.56l.46.53a17.15 17.15 0 0 1-.87 1.93c-.3.58-.67 1.29-1.15 2s-1 1.58-1.67 2.43-1.37 1.75-2.18 2.64a25.06 25.06 0 0 1-2.7 2.64 33.73 33.73 0 0 1-3.3 2.34c-1.16.75-2.33 1.52-3.47 2.34-2.27 1.63-4.52 3.28-6.7 4.75s-4.19 2.87-5.93 4c-3.5 2.34-5.89 3.83-5.89 3.83zm-6.36-179.56s-2.91 1.69-7.32 4.1c-2.21 1.2-4.78 2.6-7.56 4s-5.76 3-8.74 4.47c-1.49.75-3 1.56-4.4 2.38a42.24 42.24 0 0 1-4.3 2.2 31.4 31.4 0 0 1-4.27 1.43c-1.39.38-2.73.68-4 .9s-2.43.38-3.48.48-2 .13-2.77.15-1.41 0-1.84 0-.67-.06-.67-.06l-.3-.74s.15-.19.44-.51.72-.78 1.29-1.31 1.26-1.18 2.09-1.83 1.77-1.38 2.83-2.08 2.22-1.44 3.48-2.14a31.4 31.4 0 0 1 4.06-2 42.25 42.25 0 0 1 4.61-1.42c1.6-.42 3.21-.86 4.81-1.37 3.19-1 6.36-2 9.38-2.9s5.82-1.69 8.24-2.38c4.84-1.35 8.1-2.17 8.1-2.17zM174.56 71.3s-1.19 1.9-3.05 4.69c-.94 1.39-2 3-3.22 4.73s-2.49 3.53-3.79 5.34c-.65.91-1.27 1.84-1.86 2.77a26.9 26.9 0 0 1-1.86 2.63 26.15 26.15 0 0 1-4.21 3.89c-.68.51-1.33 1-1.94 1.33s-1.15.68-1.62.92a13.68 13.68 0 0 1-1.54.69l-.42-.36a13.67 13.67 0 0 1 .44-1.63c.16-.5.38-1.09.66-1.74s.61-1.37 1-2.12a26.15 26.15 0 0 1 3.19-4.76 26.9 26.9 0 0 1 2.31-2.25c.82-.73 1.65-1.49 2.44-2.27 1.59-1.56 3.16-3.14 4.69-4.57s2.95-2.77 4.18-3.91c2.47-2.27 4.17-3.74 4.17-3.74z" fill="#7b7031"/>
</svg>
