<svg xmlns="http://www.w3.org/2000/svg" viewBox="0 0 182.99 1859.69">
  <path d="M182.33 1785.07c0-1.92-5.78-3.5-12.91-3.5s-12.91 1.6-12.91 3.52c0 .19.07.61.19.61h.3v74h.11c.17-2 5.65-3.26 12.41-3.26s12.24 1.26 12.41 3.26H183v-74h-.85c.11-.01.18-.44.18-.63z" fill="#c7a315"/>
  <path d="M182.33 1707c0-1.92-5.78-3.55-12.91-3.55s-12.91 1.67-12.91 3.59c0 .19.07.68.19.68h.3v74h.11c.17-2 5.65-3.26 12.41-3.26s12.24 1.26 12.41 3.26H183v-74h-.85c.11-.03.18-.56.18-.72z" fill="#c7a315"/>
  <path d="M182.33 1628.87c0-1.92-5.78-3.6-12.91-3.6s-12.91 1.75-12.91 3.67c0 .19.07.76.19.76h.3v74h.11c.17-2 5.65-3.26 12.41-3.26s12.24 1.26 12.41 3.26H183v-74h-.85c.11-.01.18-.64.18-.83z" fill="#c7a315"/>
  <path d="M182.33 1550.77c0-1.92-5.78-3.65-12.91-3.65s-12.91 1.83-12.91 3.74c0 .19.07-.16.19.84h.3v74h.11c.17-2 5.65-3.26 12.41-3.26s12.24 1.26 12.41 3.26H183v-74h-.85a3.56 3.56 0 0 1 .18-.93z" fill="#c7a315"/>
  <path d="M182.33 1472.17c0-1.92-5.78-3.45-12.91-3.45s-12.91 1.53-12.91 3.44c0 .19.07.54.19.54h.3v75h.11c.17-2 5.65-3.26 12.41-3.26s12.24 1.26 12.41 3.26H183v-75h-.85c.11-.01.18-.34.18-.53zm0-78.1c0-1.92-5.78-3.5-12.91-3.5s-12.91 1.6-12.91 3.52c0 .19.07.61.19.61h.3v74h.11c.17-2 5.65-3.26 12.41-3.26s12.24 1.26 12.41 3.26H183v-74h-.85c.11-.01.18-.44.18-.63z" fill="#c7a315"/>
  <path d="M182.33 1316c0-1.92-5.78-3.55-12.91-3.55s-12.91 1.68-12.91 3.59c0 .19.07.69.19.69h.3v74h.11c.17-2 5.65-3.26 12.41-3.26s12.24 1.26 12.41 3.26H183v-74h-.85c.11-.04.18-.57.18-.73zm0-156c0-1.92-5.78-3.55-12.91-3.55s-12.91 1.68-12.91 3.59c0 .19.07.69.19.69h.3v74h.11c.17-2 5.65-3.26 12.41-3.26s12.24 1.26 12.41 3.26H183v-74h-.85c.11-.04.18-.57.18-.73z" fill="#c7a315"/>
  <path d="M182.33 1238.07c0-1.92-5.78-3.5-12.91-3.5s-12.91 1.6-12.91 3.52c0 .19.07.61.19.61h.3v74h.11c.17-2 5.65-3.26 12.41-3.26s12.24 1.26 12.41 3.26H183v-74h-.85c.11-.01.18-.44.18-.63z" fill="#c7a315"/>
  <path d="M182.33 1160.07c0-1.92-5.78-3.5-12.91-3.5s-12.91 1.6-12.91 3.52c0 .19.07.61.19.61h.3v74h.11c.17-2 5.65-3.26 12.41-3.26s12.24 1.26 12.41 3.26H183v-74h-.85c.11-.01.18-.44.18-.63z" fill="#c7a315"/>
  <path d="M182.33 1082c0-1.92-5.78-3.55-12.91-3.55s-12.91 1.68-12.91 3.59c0 .19.07.69.19.69h.3v74h.11c.17-2 5.65-3.26 12.41-3.26s12.24 1.26 12.41 3.26H183v-74h-.85c.11-.04.18-.57.18-.73z" fill="#c7a315"/>
  <path d="M182.33 1006.07c0-1.92-5.78-3.5-12.91-3.5s-12.91 1.6-12.91 3.52c0 .19.07.61.19.61h.3v74h.11c.17-2 5.65-3.26 12.41-3.26s12.24 1.26 12.41 3.26H183v-74h-.85c.11-.01.18-.44.18-.63z" fill="#c7a315"/>
  <path d="M182.33 928c0-1.92-5.78-3.55-12.91-3.55s-12.91 1.67-12.91 3.59c0 .19.07.68.19.68h.3v74h.11c.17-2 5.65-3.26 12.41-3.26s12.24 1.26 12.41 3.26H183v-74h-.85c.11-.03.18-.56.18-.72z" fill="#c7a315"/>
  <path d="M182.33 849.87c0-1.92-5.78-3.6-12.91-3.6s-12.91 1.75-12.91 3.67c0 .19.07.76.19.76h.3v74h.11c.17-2 5.65-3.26 12.41-3.26s12.24 1.26 12.41 3.26H183v-74h-.85c.11-.01.18-.64.18-.83z" fill="#c7a315"/>
  <path d="M182.33 771.77c0-1.92-5.78-3.65-12.91-3.65s-12.91 1.83-12.91 3.74c0 .19.07-.16.19.84h.3v74h.11c.17-2 5.65-3.26 12.41-3.26s12.24 1.26 12.41 3.26H183v-74h-.85a3.56 3.56 0 0 1 .18-.93z" fill="#c7a315"/>
  <path d="M182.33 693.17c0-1.92-5.78-3.45-12.91-3.45s-12.91 1.53-12.91 3.44c0 .19.07.54.19.54h.3v75h.11c.17-2 5.65-3.26 12.41-3.26s12.24 1.26 12.41 3.26H183v-75h-.85c.11-.01.18-.34.18-.53zm0-78.1c0-1.92-5.78-3.5-12.91-3.5s-12.91 1.6-12.91 3.52c0 .19.07.61.19.61h.3v74h.11c.17-2 5.65-3.26 12.41-3.26s12.24 1.26 12.41 3.26H183v-74h-.85c.11-.01.18-.44.18-.63z" fill="#c7a315"/>
  <path d="M182.33 537c0-1.92-5.78-3.55-12.91-3.55s-12.91 1.68-12.91 3.59c0 .19.07.69.19.69h.3v74h.11c.17-2 5.65-3.26 12.41-3.26s12.24 1.26 12.41 3.26H183v-74h-.85c.11-.04.18-.57.18-.73z" fill="#c7a315"/>
  <path d="M182.33 459.07c0-1.92-5.78-3.5-12.91-3.5s-12.91 1.6-12.91 3.52c0 .19.07.61.19.61h.3v74h.11c.17-2 5.65-3.26 12.41-3.26s12.24 1.26 12.41 3.26H183v-74h-.85c.11-.01.18-.44.18-.63zm-12.52-80.27C116.46 251.24 61.32 124 0 0c28.75 79.16 60.57 157.23 92.82 235 30 72.35 63.93 140.48 63.86 220.3 7.73-4.91 18.26-4 26 0-2.1-26.3-5.16-51.12-12.87-76.5zM106 1169.53s2.83-1.21 7.1-2.86l3.46-1.32c1.22-.47 2.53-.93 3.87-1.42s2.73-1 4.15-1.47l4.3-1.45c1.44-.49 2.86-1 4.26-1.62a29.13 29.13 0 0 1 4.15-1.43 22 22 0 0 1 4.06-.57 32.18 32.18 0 0 1 3.74 0 29.66 29.66 0 0 1 3.24.32 24.61 24.61 0 0 1 2.56.53c.72.18 1.29.36 1.69.51l.61.23.21.92s-.15.18-.45.47-.74.71-1.31 1.18a24.59 24.59 0 0 1-2.09 1.57 29.66 29.66 0 0 1-2.79 1.68 32.18 32.18 0 0 1-3.4 1.58 22 22 0 0 1-3.91 1.22 29.14 29.14 0 0 1-4.37.48c-1.51.07-3 .18-4.54.35l-4.5.52c-1.48.19-3 .31-4.38.44s-2.79.27-4.1.37l-3.69.29c-4.57.33-7.64.45-7.64.45zm27.17 29.53s.93-2.45 2.41-6.08c.75-1.81 1.61-3.93 2.58-6.17s2-4.63 3.08-7c.53-1.19 1-2.4 1.49-3.6a34.15 34.15 0 0 1 1.52-3.45 33.15 33.15 0 0 1 3.81-5.5 29.81 29.81 0 0 1 3.42-3.5 16.64 16.64 0 0 1 1.53-1.2l.53.29a16.65 16.65 0 0 1-.17 1.94 29.81 29.81 0 0 1-1.08 4.77 33.15 33.15 0 0 1-2.55 6.19 34.15 34.15 0 0 1-2.07 3.15c-.75 1-1.5 2.12-2.21 3.21-1.42 2.18-2.82 4.38-4.2 6.4s-2.66 3.91-3.77 5.52a281.12 281.12 0 0 1-3.79 5.33zm-14.58-58.36s2.35.52 5.84 1.43c1.74.46 3.77 1 5.92 1.6s4.44 1.3 6.73 2c1.14.34 2.31.64 3.46.91a24.35 24.35 0 0 1 3.31 1 18.05 18.05 0 0 1 2.87 1.47 26.33 26.33 0 0 1 2.43 1.65 24.1 24.1 0 0 1 1.95 1.64 19.78 19.78 0 0 1 1.42 1.46 13.79 13.79 0 0 1 1.15 1.47l-.27.65a13.79 13.79 0 0 1-1.86.22 19.78 19.78 0 0 1-2 0 24.1 24.1 0 0 1-2.54-.22 26.33 26.33 0 0 1-2.88-.56 18.05 18.05 0 0 1-3.06-1 24.36 24.36 0 0 1-3-1.66c-1-.62-2-1.24-3.08-1.81-2.1-1.14-4.21-2.25-6.15-3.38s-3.76-2.17-5.31-3.08c-3.09-1.84-5.12-3.14-5.12-3.14zm32.65-881.78s-2.94-1.64-7.26-4.21c-2.15-1.29-4.67-2.79-7.33-4.45s-5.48-3.45-8.3-5.24c-1.41-.9-2.85-1.75-4.28-2.57a42.26 42.26 0 0 1-4.08-2.58 31.39 31.39 0 0 1-3.41-2.95c-1-1-2-2-2.8-3s-1.56-1.9-2.19-2.75-1.13-1.65-1.54-2.31-.71-1.22-.91-1.6-.29-.6-.29-.6l.48-.63s.24 0 .66.12 1 .23 1.79.44 1.66.49 2.64.87 2.09.82 3.24 1.37 2.37 1.18 3.61 1.91a31.41 31.41 0 0 1 3.75 2.5 42.26 42.26 0 0 1 3.58 3.25c1.18 1.16 2.38 2.32 3.62 3.44 2.48 2.23 5 4.44 7.27 6.59s4.42 4.15 6.24 5.88c3.63 3.48 6 5.87 6 5.87zm-6.54-32.35s-2.24-.06-5.59-.24c-1.67-.1-3.63-.21-5.71-.36s-4.31-.35-6.53-.54c-1.11-.1-2.23-.15-3.33-.2a26.9 26.9 0 0 1-3.21-.26 26.15 26.15 0 0 1-5.49-1.64c-.79-.32-1.51-.66-2.13-1s-1.17-.64-1.62-.92a13.68 13.68 0 0 1-1.38-1l.1-.55a13.68 13.68 0 0 1 1.63-.45c.51-.12 1.13-.22 1.83-.32s1.49-.17 2.34-.21a26.15 26.15 0 0 1 5.72.33 26.9 26.9 0 0 1 3.11.84c1.05.33 2.12.66 3.2.95 2.15.57 4.31 1.12 6.32 1.71s3.89 1.12 5.5 1.6c3.21 1 5.34 1.68 5.34 1.68z" fill="#c7a315"/>
  <path d="M31 147.26s.33-2 .91-4.85c.3-1.45.64-3.14 1-4.94s.85-3.71 1.3-5.63.69-3.9 1.23-5.65a23.06 23.06 0 0 1 2.12-4.58c.38-.65.77-1.23 1.14-1.74s.71-.94 1-1.29a11.36 11.36 0 0 1 1-1.08l.47.15a11.37 11.37 0 0 1 .18 1.48c0 .46.05 1 0 1.64s0 1.32-.11 2.07a23.06 23.06 0 0 1-1 5c-.61 1.73-1.61 3.46-2.36 5.28s-1.52 3.62-2.29 5.3-1.47 3.25-2.09 4.59c-1.25 2.68-2.14 4.45-2.14 4.45zm-14.22-12.48s1.21-1.57 3.09-3.85c.94-1.14 2-2.47 3.24-3.87s2.5-2.88 3.8-4.35 2.44-3.11 3.75-4.41a23.06 23.06 0 0 1 4-3 22.9 22.9 0 0 1 3.32-1.67 11.37 11.37 0 0 1 1.41-.47l.34.36a11.36 11.36 0 0 1-.53 1.39 21.691 21.691 0 0 1-1.81 3.24A23.06 23.06 0 0 1 34.2 122c-1.35 1.24-3.05 2.3-4.57 3.55s-3 2.48-4.52 3.6-2.83 2.17-4 3.07c-2.37 1.78-4 2.92-4 2.92z" fill="#c7a315"/>
</svg>
