<svg xmlns="http://www.w3.org/2000/svg" viewBox="0 0 138.14 1818.85">
  <path d="M137.48 1744.23c0-1.92-5.78-3.5-12.91-3.5s-12.91 1.6-12.91 3.52c0 .19.07.61.19.61h.3v74h.11c.17-2 5.65-3.26 12.41-3.26s12.24 1.26 12.41 3.26h1.07v-74h-.85c.11-.01.18-.44.18-.63z" fill="#c7a315"/>
  <path d="M137.48 1666.13c0-1.92-5.78-3.55-12.91-3.55s-12.91 1.67-12.91 3.59c0 .19.07.68.19.68h.3v74h.11c.17-2 5.65-3.26 12.41-3.26s12.24 1.26 12.41 3.26h1.07v-74h-.85c.11 0 .18-.53.18-.72z" fill="#c7a315"/>
  <path d="M137.48 1588c0-1.92-5.78-3.6-12.91-3.6s-12.91 1.75-12.91 3.67c0 .19.07.76.19.76h.3v74h.11c.17-2 5.65-3.26 12.41-3.26s12.24 1.26 12.41 3.26h1.07v-74h-.85c.11.02.18-.61.18-.83z" fill="#c7a315"/>
  <path d="M137.48 1509.93c0-1.92-5.78-3.65-12.91-3.65s-12.91 1.83-12.91 3.74c0 .19.07-.16.19.84h.3v74h.11c.17-2 5.65-3.26 12.41-3.26s12.24 1.26 12.41 3.26h1.07v-74h-.85a3.56 3.56 0 0 1 .18-.93z" fill="#c7a315"/>
  <path d="M137.48 1431.33c0-1.92-5.78-3.45-12.91-3.45s-12.91 1.53-12.91 3.44c0 .19.07.54.19.54h.3v75h.11c.17-2 5.65-3.26 12.41-3.26s12.24 1.26 12.41 3.26h1.07v-75h-.85c.11-.01.18-.34.18-.53zm0-78.1c0-1.92-5.78-3.5-12.91-3.5s-12.91 1.6-12.91 3.52c0 .19.07.61.19.61h.3v74h.11c.17-2 5.65-3.26 12.41-3.26s12.24 1.26 12.41 3.26h1.07v-74h-.85c.11-.01.18-.44.18-.63z" fill="#c7a315"/>
  <path d="M137.48 1275.13c0-1.92-5.78-3.55-12.91-3.55s-12.91 1.68-12.91 3.59c0 .19.07.69.19.69h.3v74h.11c.17-2 5.65-3.26 12.41-3.26s12.24 1.26 12.41 3.26h1.07v-74h-.85c.11-.01.18-.54.18-.73z" fill="#c7a315"/>
  <path d="M137.48 1197.23c0-1.92-5.78-3.5-12.91-3.5s-12.91 1.6-12.91 3.52c0 .19.07.61.19.61h.3v74h.11c.17-2 5.65-3.26 12.41-3.26s12.24 1.26 12.41 3.26h1.07v-74h-.85c.11-.01.18-.44.18-.63z" fill="#c7a315"/>
  <path d="M137.48 1119.23c0-1.92-5.78-3.5-12.91-3.5s-12.91 1.6-12.91 3.52c0 .19.07.61.19.61h.3v74h.11c.17-2 5.65-3.26 12.41-3.26s12.24 1.26 12.41 3.26h1.07v-74h-.85c.11-.01.18-.44.18-.63z" fill="#c7a315"/>
  <path d="M137.48 1041.13c0-1.92-5.78-3.55-12.91-3.55s-12.91 1.68-12.91 3.59c0 .19.07.69.19.69h.3v74h.11c.17-2 5.65-3.26 12.41-3.26s12.24 1.26 12.41 3.26h1.07v-74h-.85c.11-.01.18-.54.18-.73z" fill="#c7a315"/>
  <path d="M137.48 963.23c0-1.92-5.78-3.5-12.91-3.5s-12.91 1.6-12.91 3.52c0 .19.07.61.19.61h.3v74h.11c.17-2 5.65-3.26 12.41-3.26s12.24 1.26 12.41 3.26h1.07v-74h-.85c.11-.01.18-.44.18-.63z" fill="#c7a315"/>
  <path d="M137.48 885.13c0-1.92-5.78-3.55-12.91-3.55s-12.91 1.67-12.91 3.59c0 .19.07.68.19.68h.3v74h.11c.17-2 5.65-3.26 12.41-3.26s12.24 1.26 12.41 3.26h1.07v-74h-.85c.11 0 .18-.53.18-.72z" fill="#c7a315"/>
  <path d="M137.48 807c0-1.92-5.78-3.6-12.91-3.6s-12.91 1.75-12.91 3.67c0 .19.07.76.19.76h.3v74h.11c.17-2 5.65-3.26 12.41-3.26s12.24 1.26 12.41 3.26h1.07v-74h-.85c.11.02.18-.61.18-.83z" fill="#c7a315"/>
  <path d="M137.48 728.93c0-1.92-5.78-3.65-12.91-3.65s-12.91 1.83-12.91 3.74c0 .19.07-.16.19.84h.3v74h.11c.17-2 5.65-3.26 12.41-3.26s12.24 1.26 12.41 3.26h1.07v-74h-.85a3.56 3.56 0 0 1 .18-.93z" fill="#c7a315"/>
  <path d="M137.48 650.33c0-1.92-5.78-3.45-12.91-3.45s-12.91 1.53-12.91 3.44c0 .19.07.54.19.54h.3v75h.11c.17-2 5.65-3.26 12.41-3.26s12.24 1.26 12.41 3.26h1.07v-75h-.85c.11-.01.18-.34.18-.53zm0-78.1c0-1.92-5.78-3.5-12.91-3.5s-12.91 1.6-12.91 3.52c0 .19.07.61.19.61h.3v74h.11c.17-2 5.65-3.26 12.41-3.26s12.24 1.26 12.41 3.26h1.07v-74h-.85c.11-.01.18-.44.18-.63z" fill="#c7a315"/>
  <path d="M137.48 494.13c0-1.92-5.78-3.55-12.91-3.55s-12.91 1.68-12.91 3.59c0 .19.07.69.19.69h.3v74h.11c.17-2 5.65-3.26 12.41-3.26s12.24 1.26 12.41 3.26h1.07v-74h-.85c.11-.01.18-.54.18-.73zM68.85 166.45C58.06 133.69 48 101.25 35.12 69.27 25.75 46.08 18.63 17.79 0 0c17.59 25.7 23.1 63.31 31.54 92.84q15.72 55 30.59 110.22c18.9 70.34 36.7 129.16 45.19 206.4 2.62 23.86 4.51 57 4.51 81 7.07-5 18.84-4.24 26 0 0-40.4-4.11-75.06-13.89-123.36S68.85 166.45 68.85 166.45zm-9.97 485.39s2.83-1.21 7.1-2.86l3.46-1.32c1.22-.47 2.53-.93 3.87-1.42s2.73-1 4.15-1.47l4.3-1.45c1.44-.49 2.86-1 4.26-1.62a29.14 29.14 0 0 1 4.15-1.43 22 22 0 0 1 4.06-.57 32.18 32.18 0 0 1 3.74 0 29.67 29.67 0 0 1 3.24.32 24.59 24.59 0 0 1 2.56.53c.72.18 1.29.36 1.69.51l.61.23.21.92s-.15.18-.45.47-.74.71-1.31 1.18a24.59 24.59 0 0 1-2.09 1.57 29.67 29.67 0 0 1-2.79 1.68 32.18 32.18 0 0 1-3.4 1.58 22 22 0 0 1-3.91 1.22 29.13 29.13 0 0 1-4.37.48c-1.51.07-3 .18-4.54.35l-4.5.52c-1.48.19-3 .31-4.38.44s-2.79.27-4.1.37l-3.69.29c-4.57.33-7.64.45-7.64.45zM71.47 623s2.35.52 5.84 1.43c1.74.46 3.77 1 5.92 1.6s4.44 1.3 6.73 2c1.14.34 2.31.64 3.46.91a24.35 24.35 0 0 1 3.31 1 18.05 18.05 0 0 1 2.87 1.47A26.31 26.31 0 0 1 102 633a24.09 24.09 0 0 1 1.95 1.64 19.78 19.78 0 0 1 1.42 1.46 13.79 13.79 0 0 1 1.15 1.47l-.27.65a13.79 13.79 0 0 1-1.86.22 19.78 19.78 0 0 1-2 0 24.1 24.1 0 0 1-2.54-.22 26.32 26.32 0 0 1-2.88-.56 18 18 0 0 1-3.06-1 24.35 24.35 0 0 1-3-1.66c-1-.62-2-1.24-3.08-1.81-2.1-1.14-4.21-2.25-6.15-3.38s-3.76-2.17-5.31-3.08c-3.09-1.84-5.12-3.14-5.12-3.14zM58.88 970.48s2.83-1.21 7.1-2.86l3.46-1.32c1.22-.47 2.53-.93 3.87-1.42s2.73-1 4.15-1.47l4.3-1.45c1.44-.49 2.86-1 4.26-1.62a29.14 29.14 0 0 1 4.15-1.43 22 22 0 0 1 4.06-.57 32.17 32.17 0 0 1 3.74 0 29.67 29.67 0 0 1 3.24.32 24.59 24.59 0 0 1 2.56.53c.72.18 1.29.36 1.69.51l.61.23.21.92s-.15.18-.45.47-.74.71-1.31 1.18a24.6 24.6 0 0 1-2.09 1.57 29.68 29.68 0 0 1-2.79 1.68 32.17 32.17 0 0 1-3.4 1.58 22 22 0 0 1-3.91 1.22 29.13 29.13 0 0 1-4.37.48c-1.51.07-3 .18-4.54.35l-4.5.52c-1.48.19-3 .31-4.38.44s-2.79.27-4.1.37l-3.69.29c-4.57.33-7.64.45-7.64.45zM86.06 1000s.93-2.45 2.41-6.08c.75-1.81 1.61-3.93 2.58-6.17s2-4.63 3.08-7c.53-1.19 1-2.4 1.49-3.6a34.15 34.15 0 0 1 1.52-3.45 33.15 33.15 0 0 1 3.81-5.5 29.8 29.8 0 0 1 3.42-3.5 16.63 16.63 0 0 1 1.53-1.2l.53.29a16.64 16.64 0 0 1-.17 1.94 29.8 29.8 0 0 1-1.08 4.77 33.15 33.15 0 0 1-2.55 6.19 34.16 34.16 0 0 1-2.07 3.15c-.75 1-1.5 2.12-2.21 3.21-1.42 2.18-2.82 4.38-4.2 6.4s-2.66 3.91-3.77 5.52a281.12 281.12 0 0 1-3.79 5.33zm-14.59-58.35s2.35.52 5.84 1.43c1.74.46 3.77 1 5.92 1.6s4.44 1.3 6.73 2c1.14.34 2.31.64 3.46.91a24.35 24.35 0 0 1 3.31 1 18 18 0 0 1 2.86 1.41 26.31 26.31 0 0 1 2.43 1.65 24.1 24.1 0 0 1 1.95 1.64 19.79 19.79 0 0 1 1.42 1.46 13.79 13.79 0 0 1 1.15 1.47l-.27.65a13.78 13.78 0 0 1-1.86.22 19.77 19.77 0 0 1-2 0 24.07 24.07 0 0 1-2.54-.22 26.31 26.31 0 0 1-2.88-.56 18 18 0 0 1-3.06-1 24.35 24.35 0 0 1-3-1.66c-1-.62-2-1.24-3.08-1.81-2.1-1.14-4.21-2.25-6.15-3.38s-3.76-2.17-5.31-3.08c-3.09-1.84-5.12-3.14-5.12-3.14zm-12.59 491.19s2.83-1.21 7.1-2.86l3.46-1.32c1.22-.47 2.53-.93 3.87-1.42s2.73-1 4.15-1.47l4.3-1.45c1.44-.49 2.86-1 4.26-1.62a29.13 29.13 0 0 1 4.15-1.43 22 22 0 0 1 4.06-.57 32.18 32.18 0 0 1 3.74 0 29.66 29.66 0 0 1 3.24.32 24.59 24.59 0 0 1 2.56.53c.72.18 1.29.36 1.69.51l.61.23.21.92s-.15.18-.45.47-.74.71-1.31 1.18a24.6 24.6 0 0 1-2.09 1.57 29.68 29.68 0 0 1-2.79 1.68 32.16 32.16 0 0 1-3.4 1.58 22 22 0 0 1-3.91 1.22 29.14 29.14 0 0 1-4.37.48c-1.51.07-3 .18-4.54.35l-4.5.52c-1.48.19-3 .31-4.38.44s-2.79.27-4.1.37l-3.69.29c-4.57.33-7.64.45-7.64.45zM71.47 1404s2.35.52 5.84 1.43c1.74.46 3.77 1 5.92 1.6s4.44 1.3 6.73 2c1.14.34 2.31.64 3.46.91a24.32 24.32 0 0 1 3.31 1 18.06 18.06 0 0 1 2.87 1.47 26.31 26.31 0 0 1 2.4 1.59 24.09 24.09 0 0 1 1.95 1.64 19.79 19.79 0 0 1 1.42 1.46 13.78 13.78 0 0 1 1.15 1.47l-.27.65a13.8 13.8 0 0 1-1.86.22 19.79 19.79 0 0 1-2 0 24.1 24.1 0 0 1-2.54-.22 26.34 26.34 0 0 1-2.88-.56 18 18 0 0 1-3.06-1 24.35 24.35 0 0 1-3-1.66c-1-.62-2-1.24-3.08-1.81-2.1-1.14-4.21-2.25-6.15-3.38s-3.76-2.17-5.31-3.08c-3.09-1.84-5.12-3.14-5.12-3.14zm-12.59 347.48s2.83-1.21 7.1-2.86l3.46-1.32c1.22-.47 2.53-.93 3.87-1.42s2.73-1 4.15-1.47l4.3-1.45c1.44-.49 2.86-1 4.26-1.62a29.13 29.13 0 0 1 4.15-1.43 22 22 0 0 1 4.06-.57 32.18 32.18 0 0 1 3.74 0 29.66 29.66 0 0 1 3.24.32 24.56 24.56 0 0 1 2.56.53c.72.18 1.29.36 1.69.51l.61.23.21.92s-.15.18-.45.47-.74.71-1.31 1.18a24.6 24.6 0 0 1-2.09 1.57 29.68 29.68 0 0 1-2.79 1.68 32.21 32.21 0 0 1-3.4 1.58 22 22 0 0 1-3.91 1.22 29.14 29.14 0 0 1-4.37.48c-1.51.07-3 .18-4.54.35l-4.5.52c-1.48.19-3 .31-4.38.44s-2.79.27-4.1.37l-3.69.29c-4.57.33-7.64.45-7.64.45zM86.06 1781s.93-2.45 2.41-6.08c.75-1.81 1.61-3.93 2.58-6.17s2-4.63 3.08-7c.53-1.19 1-2.4 1.49-3.6a34.15 34.15 0 0 1 1.52-3.45 33.14 33.14 0 0 1 3.81-5.5 29.81 29.81 0 0 1 3.42-3.5 16.64 16.64 0 0 1 1.53-1.2l.53.29a16.64 16.64 0 0 1-.17 1.94 29.8 29.8 0 0 1-1.08 4.77 33.15 33.15 0 0 1-2.55 6.19 34.15 34.15 0 0 1-2.07 3.15c-.75 1-1.5 2.12-2.21 3.21-1.42 2.18-2.82 4.38-4.2 6.4s-2.66 3.91-3.77 5.52a281.12 281.12 0 0 1-3.79 5.33zm-14.59-58.35s2.35.52 5.84 1.43c1.74.46 3.77 1 5.92 1.6s4.44 1.3 6.73 2c1.14.34 2.31.64 3.46.91a24.36 24.36 0 0 1 3.31 1 18 18 0 0 1 2.87 1.47 26.3 26.3 0 0 1 2.43 1.65 24.11 24.11 0 0 1 1.95 1.64 19.79 19.79 0 0 1 1.42 1.46 13.8 13.8 0 0 1 1.15 1.47l-.27.65a13.78 13.78 0 0 1-1.86.22 19.76 19.76 0 0 1-2 0 24.1 24.1 0 0 1-2.54-.22 26.31 26.31 0 0 1-2.88-.56 18.06 18.06 0 0 1-3.06-1 24.36 24.36 0 0 1-3-1.66c-1-.62-2-1.24-3.08-1.81-2.1-1.14-4.21-2.25-6.15-3.38s-3.76-2.17-5.31-3.08c-3.09-1.84-5.12-3.14-5.12-3.14z" fill="#c7a315"/>
  <path d="M3.88 93.34S5 92.06 6.63 90.21c.83-.93 1.8-2 2.87-3.15s2.21-2.34 3.36-3.54S15 81 16.18 79.94a20.66 20.66 0 0 1 3.49-2.46 19.62 19.62 0 0 1 2.83-1.33 9.81 9.81 0 0 1 1.19-.37l.26.3a9.8 9.8 0 0 1-.51 1.14 19.62 19.62 0 0 1-1.66 2.65A20.65 20.65 0 0 1 18.92 83c-1.18 1-2.64 1.85-4 2.86s-2.64 2-3.92 2.91-2.45 1.75-3.48 2.47c-2 1.44-3.43 2.36-3.43 2.36zM7.1 77.3s1-.43 2.59-1 3.64-1.38 5.73-2.09c1-.35 2.06-.85 3.06-1.12a12.76 12.76 0 0 1 2.82-.37 10.57 10.57 0 0 1 2.91.26l.07.27a10.57 10.57 0 0 1-2.44 1.62 12.76 12.76 0 0 1-2.66 1c-1 .24-2.13.28-3.22.47-2.18.37-4.38.69-6 .9s-2.76.33-2.76.33zm19.55 262.18s3.16-2.79 8-6.82l3.92-3.24c1.39-1.16 2.88-2.33 4.4-3.57s3.1-2.52 4.74-3.78l4.93-3.84c1.65-1.29 3.26-2.64 4.83-4a53 53 0 0 1 4.76-3.75 39.38 39.38 0 0 1 4.91-2.8c1.62-.8 3.19-1.49 4.69-2.07a47.8 47.8 0 0 1 7.54-2.3c1-.19 1.74-.33 2.28-.39s.84-.09.84-.09l.55.84s-.14.27-.42.73-.71 1.12-1.27 1.93a47.8 47.8 0 0 1-5.11 6 56.573 56.573 0 0 1-3.76 3.48 39.38 39.38 0 0 1-4.52 3.39 53 53 0 0 1-5.33 2.87c-1.86.9-3.74 1.84-5.58 2.85l-5.48 3c-1.8 1-3.61 1.93-5.35 2.84s-3.42 1.8-5 2.62l-4.53 2.31c-5.63 2.84-9.44 4.63-9.44 4.63zm49.78 12.2s.25-2.8.76-7c.26-2.09.55-4.52.92-7.12s.79-5.36 1.21-8.12c.21-1.38.37-2.77.52-4.15a33.73 33.73 0 0 1 .59-4 25.06 25.06 0 0 1 1.13-3.6c.43-1.13.89-2.18 1.37-3.14s1-1.83 1.41-2.59.91-1.41 1.29-1.95a17.15 17.15 0 0 1 1.37-1.62l.68.17a17.14 17.14 0 0 1 .43 2.07c.09.65.2 1.44.25 2.32s.09 1.88.06 2.95-.09 2.22-.23 3.42a25.06 25.06 0 0 1-.65 3.72 33.73 33.73 0 0 1-1.31 3.82c-.51 1.29-1 2.6-1.45 3.92-.89 2.65-1.75 5.3-2.66 7.77s-1.73 4.77-2.46 6.75c-1.47 3.94-2.54 6.55-2.54 6.55zm-38.3-51.96s2.73-.7 6.83-1.63c2.05-.46 4.45-1 7-1.53S57.29 295.5 60 295c1.37-.26 2.74-.58 4.08-.91a33.73 33.73 0 0 1 4-.78 25.06 25.06 0 0 1 3.77-.14c1.21 0 2.35.11 3.41.23s2 .28 2.91.46 1.64.38 2.27.56a17.16 17.16 0 0 1 2 .7l.07.7a17.15 17.15 0 0 1-1.81 1.1c-.58.31-1.29.68-2.1 1s-1.74.72-2.76 1.05-2.12.66-3.29.93a25.06 25.06 0 0 1-3.72.64 33.73 33.73 0 0 1-4 .05c-1.38 0-2.79-.07-4.18 0-2.79 0-5.59.13-8.21.11s-5.08 0-7.18 0c-4.21-.06-7-.19-7-.19z" fill="#c7a315"/>
</svg>
