<svg xmlns="http://www.w3.org/2000/svg" viewBox="0 0 364.48 932.6">
  <path d="M197.81 462s-1.84-2.54-4.48-6.4c-1.31-1.94-2.85-4.19-4.45-6.64s-3.27-5.07-4.95-7.69c-.84-1.31-1.72-2.6-2.61-3.86a39.36 39.36 0 0 1-2.44-3.78 29.26 29.26 0 0 1-1.72-3.83 42.409 42.409 0 0 1-1.97-6.79 30.636 30.636 0 0 1-.53-4.27c-.02-.4 0-.62 0-.62l.66-.35s.19.12.51.36.79.6 1.33 1.08 1.21 1.06 1.89 1.77 1.44 1.51 2.19 2.43 1.54 1.93 2.3 3a29.26 29.26 0 0 1 2.19 3.58 39.36 39.36 0 0 1 1.75 4.15c.54 1.44 1.1 2.9 1.71 4.33 1.22 2.86 2.47 5.71 3.55 8.43s2.11 5.24 3 7.42c1.7 4.36 2.76 7.31 2.76 7.31zm-36.6-10.41s.24-2.08.7-5.17c.23-1.54.5-3.35.83-5.27s.69-4 1.06-6c.19-1 .33-2.05.47-3.07a25.06 25.06 0 0 1 .52-3 24.36 24.36 0 0 1 2-5c.37-.7.74-1.34 1.1-1.89s.69-1 1-1.42a12 12 0 0 1 1-1.2l.5.14a12 12 0 0 1 .28 1.55c.06.49.11 1.07.14 1.73s0 1.4 0 2.19a24.36 24.36 0 0 1-.79 5.28 25.06 25.06 0 0 1-1 2.81c-.4.95-.8 1.91-1.15 2.89-.72 1.95-1.41 3.91-2.13 5.72s-1.38 3.51-2 5c-1.17 2.9-2 4.81-2 4.81zm41.66-20.43s-1.87-.93-4.63-2.4c-1.38-.74-3-1.6-4.69-2.55s-3.5-2-5.3-3c-.9-.52-1.82-1-2.74-1.47a25.06 25.06 0 0 1-2.61-1.49 24.36 24.36 0 0 1-4-3.54c-.54-.58-1-1.15-1.41-1.68s-.74-1-1-1.42a12 12 0 0 1-.78-1.36l.3-.43a12 12 0 0 1 1.55.26c.48.1 1 .26 1.68.45s1.33.44 2.06.74a24.36 24.36 0 0 1 4.71 2.52 25.06 25.06 0 0 1 2.3 1.93c.76.7 1.53 1.39 2.33 2.06 1.59 1.33 3.2 2.64 4.67 3.93s2.84 2.48 4 3.51c2.33 2.08 3.85 3.52 3.85 3.52z" fill="#7b7031"/>
  <path d="M0 932.6s.68-3.88 2.09-11.14 3.46-17.9 6.34-31.39 6.32-29.89 10.65-48.6L26 811.65c2.45-10.5 5.17-21.49 8-33 5.68-23 12.06-47.77 19.1-73.94S67.8 651 76.15 622.65q6.22-21.29 12.95-43.14t13.81-44c4.76-14.78 9.59-29.68 14.62-44.57s10.15-29.82 15.39-44.72c10.56-29.75 21.44-59.4 32.79-88.35 2.81-7.25 5.7-14.43 8.52-21.6l8.69-21.29 8.77-21c3-6.92 5.9-13.78 8.89-20.56 11.88-27.15 24-53.12 36.1-77.47l4.53-9.05 4.56-8.88 4.5-8.74 4.55-8.54 4.49-8.38 4.51-8.18 4.44-8c1.48-2.64 3-5.23 4.47-7.81 3-5.14 5.85-10.18 8.8-15s5.71-9.66 8.64-14.22c5.7-9.2 11.33-17.78 16.65-25.82 10.68-16.06 20.8-29.5 29.29-40.42 4.36-5.38 8.12-10.26 11.7-14.27l4.86-5.63 2.13-2.46 2-2.16L364.48 0l-6.82 9c-4.44 5.89-10.67 14.74-18.35 26.13s-16.42 25.6-26 42.13c-4.74 8.3-9.75 17.15-14.78 26.61-2.57 4.7-5.1 9.58-7.72 14.56s-5.24 10.11-7.88 15.36c-10.62 21-21.57 44-32.63 68.56s-22.24 50.71-33.38 77.93l-8.33 20.62-8.32 21q-8.21 21.18-16.45 42.86c-10.86 28.93-21.65 58.42-32 88.05s-20.62 59.34-30.45 88.67l-7.27 21.93-7.16 21.72-13.88 42.72c-9 28.07-17.56 55.25-25.58 81.06s-15.53 50.25-22.39 72.83l-18.64 61.67L12.27 891zM338.21 19.15s-.35 1.25-.94 3.1c-.29.93-.62 2-1 3.16s-.8 2.37-1.22 3.59-.72 2.5-1.18 3.61a16.07 16.07 0 0 1-1.67 2.87 15.27 15.27 0 0 1-1.57 1.86 7.64 7.64 0 0 1-.72.65l-.28-.12a7.64 7.64 0 0 1 0-1 15.27 15.27 0 0 1 .31-2.41 16.07 16.07 0 0 1 1-3.17c.51-1.1 1.26-2.17 1.87-3.31s1.22-2.28 1.82-3.33 1.17-2 1.66-2.87l1.66-2.79z" fill="#7b7031"/>
</svg>
