<svg xmlns="http://www.w3.org/2000/svg" viewBox="0 0 401.85 560.84">
  <path d="M5.74 560.84l-1.46-8.3c-.21-1.36-.52-2.86-.74-4.54l-.72-5.5c-.24-2-.58-4.13-.8-6.41l-.68-7.28a356.36 356.36 0 0 1-1.28-37.27 434.71 434.71 0 0 1 3.55-48.4A501.45 501.45 0 0 1 14.3 386.6a583.86 583.86 0 0 1 19.09-61.4c3.93-10.44 8.13-21 12.8-31.49 2.26-5.28 4.71-10.51 7.13-15.8 1.19-2.65 2.54-5.23 3.8-7.86s2.55-5.26 3.91-7.86c2.67-5.22 5.35-10.46 8.18-15.64 1.41-2.59 2.77-5.22 4.24-7.79l4.4-7.72c6-10.24 12.14-20.45 18.66-30.42 3.21-5 6.65-9.89 10-14.82l5.16-7.29 2.58-3.64 2.64-3.59 5.29-7.16 5.45-7c1.8-2.34 3.66-4.63 5.52-6.92s3.68-4.59 5.57-6.84c3.79-4.49 7.52-9 11.39-13.34s7.8-8.61 11.71-12.84c7.95-8.35 15.87-16.52 24.14-24.1s16.43-15 24.87-21.73 16.82-13.19 25.26-19.09l6.34-4.32c2.09-1.44 4.25-2.76 6.34-4.13 4.18-2.75 8.43-5.27 12.59-7.74 8.42-4.8 16.64-9.3 24.83-13.07s16.14-7.12 23.81-10c7.76-2.68 15.15-5.11 22.25-6.84A194.61 194.61 0 0 1 369.44.28l3.79-.18c1.22-.1 2.41-.1 3.57-.1l6.49.06c4 .14 7.43.43 10.18.63l8.38 1.09-8.38.65c-1.36.14-2.87.36-4.54.56s-3.47.37-5.42.71l-6.24 1.08c-1.11.16-2.25.41-3.41.67l-3.6.79a221.34 221.34 0 0 0-34.4 10.93c-3.24 1.24-6.49 2.79-9.87 4.24-1.69.71-3.36 1.57-5.07 2.39l-5.17 2.52c-6.89 3.63-14.1 7.44-21.33 12a391.6 391.6 0 0 0-44.73 32c-1.92 1.51-3.74 3.17-5.65 4.74s-3.83 3.16-5.69 4.85l-5.67 5c-1.9 1.67-3.75 3.45-5.64 5.18s-3.79 3.48-5.63 5.31l-5.65 5.41-5.59 5.58-2.81 2.81-2.76 2.89-5.6 5.79-5.5 6c-1.86 2-3.67 4-5.49 6s-3.66 4.06-5.45 6.15c-3.57 4.18-7.21 8.35-10.7 12.68s-7.07 8.62-10.59 13q-10.4 13.25-20.38 27.1l-2.5 3.45-2.44 3.5-4.89 7c-3.16 4.75-6.4 9.45-9.47 14.26-12.59 19.06-24.08 38.81-34.79 58.59-5.26 9.94-10.4 19.85-15.18 29.79-1.19 2.49-2.41 5-3.56 7.44l-3.42 7.45c-2.29 4.94-4.43 9.9-6.63 14.79-8.45 19.71-15.86 39.1-22.1 57.77q-2.31 7-4.46 13.86l-2 6.83c-.67 2.26-1.38 4.49-2 6.73-2.56 8.91-4.82 17.6-6.81 26-4 16.76-7 32.33-9.08 46.24-.5 3.48-1 6.85-1.46 10.11l-1.16 9.45c-.37 3-.6 6-.89 8.74l-.41 4.09-.3 3.9-.54 7.2c-.17 2.26-.24 4.37-.35 6.35-.2 3.95-.41 7.33-.44 10.08zM94.69 78.35s3.76 1.91 9.29 4.92l4.46 2.45c1.59.86 3.23 1.81 4.95 2.77s3.49 2 5.26 3l5.35 3.18c1.81 1.06 3.66 2.06 5.49 3a53 53 0 0 1 5.24 3 39.37 39.37 0 0 1 4.41 3.53 56.78 56.78 0 0 1 3.65 3.59 47.8 47.8 0 0 1 4.92 6.16c.54.82.94 1.49 1.21 2s.4.74.4.74l-.57.82s-.3 0-.83-.12-1.3-.24-2.26-.47a47.8 47.8 0 0 1-7.46-2.53c-1.47-.62-3-1.36-4.62-2.22a39.38 39.38 0 0 1-4.82-3 53 53 0 0 1-4.64-3.9c-1.53-1.4-3.1-2.8-4.7-4.14l-4.81-4c-1.6-1.3-3.13-2.64-4.62-3.92s-2.94-2.51-4.29-3.71l-3.82-3.36c-4.71-4.18-7.79-7.07-7.79-7.07zm7.04 50.76s2.7-.8 6.77-1.87c2-.53 4.41-1.15 7-1.77s5.27-1.24 8-1.87c1.36-.31 2.72-.68 4-1.05a33.73 33.73 0 0 1 3.93-.92 25.06 25.06 0 0 1 3.76-.28c1.21 0 2.35 0 3.42.11s2.05.21 2.93.36 1.65.33 2.29.48a17.15 17.15 0 0 1 2 .63l.1.69a17.16 17.16 0 0 1-1.77 1.16c-.57.33-1.26.72-2.07 1.09s-1.71.78-2.72 1.15-2.09.73-3.26 1.05a25.06 25.06 0 0 1-3.69.77 33.73 33.73 0 0 1-4 .19c-1.38 0-2.79 0-4.18.1-2.79.15-5.58.33-8.2.4s-5.07.16-7.18.21c-4.21.08-7 .06-7 .06zm34.15-54.77s1.66 2.27 4 5.74c1.18 1.74 2.57 3.76 4 6s2.95 4.55 4.45 6.9c.75 1.18 1.55 2.33 2.35 3.46a33.73 33.73 0 0 1 2.19 3.4 25.06 25.06 0 0 1 1.52 3.45c.42 1.13.77 2.23 1 3.26s.49 2 .65 2.88.25 1.66.31 2.32a17.15 17.15 0 0 1 .09 2.12l-.62.32a17.15 17.15 0 0 1-1.69-1.28c-.5-.43-1.1-.95-1.72-1.58s-1.31-1.35-2-2.17-1.4-1.73-2.08-2.72a25.06 25.06 0 0 1-2-3.22 33.72 33.72 0 0 1-1.54-3.74c-.47-1.3-1-2.61-1.5-3.9-1.08-2.58-2.18-5.14-3.13-7.59s-1.85-4.73-2.61-6.69c-1.49-3.93-2.42-6.59-2.42-6.59z" fill="#c7a315"/>
</svg>
