<svg xmlns="http://www.w3.org/2000/svg" viewBox="0 0 144.7 2000.27">
  <defs>
    <linearGradient id="a" x1="80.77" y1="1922.27" x2="80.77" y2="1843.99" gradientUnits="userSpaceOnUse">
      <stop offset="0" stop-color="#c7a315"/>
      <stop offset=".28" stop-color="#c4a517"/>
      <stop offset=".53" stop-color="#b9ab1f"/>
      <stop offset=".76" stop-color="#a7b62c"/>
      <stop offset=".98" stop-color="#8dc53e"/>
      <stop offset=".99" stop-color="#8cc63f"/>
    </linearGradient>
    <linearGradient id="b" x1="80.77" y1="1766.27" x2="80.77" y2="1687.69" gradientUnits="userSpaceOnUse">
      <stop offset=".01" stop-color="#8cc63f"/>
      <stop offset=".13" stop-color="#a4cf38"/>
      <stop offset=".37" stop-color="#cadc2e"/>
      <stop offset=".58" stop-color="#e6e627"/>
      <stop offset=".77" stop-color="#f6ec23"/>
      <stop offset=".91" stop-color="#fcee21"/>
    </linearGradient>
    <linearGradient id="c" x1="80.77" y1="1688.27" x2="80.77" y2="1609.29" gradientUnits="userSpaceOnUse">
      <stop offset="0" stop-color="#fcee21"/>
      <stop offset=".14" stop-color="#e8e726"/>
      <stop offset=".54" stop-color="#b6d534"/>
      <stop offset=".83" stop-color="#98ca3c"/>
      <stop offset="1" stop-color="#8cc63f"/>
    </linearGradient>
    <linearGradient id="d" x1="80.77" y1="1531.27" x2="80.77" y2="1452.99" gradientUnits="userSpaceOnUse">
      <stop offset=".01" stop-color="#8cc63f"/>
      <stop offset=".53" stop-color="#aeb227"/>
      <stop offset="1" stop-color="#c7a315"/>
    </linearGradient>
  </defs>
  <path d="M93.35 1925.64c0-1.92-5.78-3.5-12.91-3.5s-12.91 1.6-12.91 3.52c0 .19.07.61.19.61H68v74h.11c.17-2 5.65-3.26 12.41-3.26s12.24 1.26 12.41 3.26H94v-74h-.85c.12 0 .2-.43.2-.63z" fill="#c7a315"/>
  <path d="M93.35 1847.54c0-1.92-5.78-3.55-12.91-3.55s-12.91 1.67-12.91 3.59c0 .19.07.68.19.68H68v74h.11c.17-2 5.65-3.26 12.41-3.26s12.24 1.26 12.41 3.26H94v-74h-.85c.12.01.2-.52.2-.72z" fill="url(#a)"/>
  <path d="M93.35 1769.44c0-1.92-5.78-3.6-12.91-3.6s-12.91 1.75-12.91 3.67c0 .19.07.76.19.76H68v74h.11c.17-2 5.65-3.26 12.41-3.26s12.24 1.26 12.41 3.26H94v-74h-.85c.12 0 .2-.63.2-.83z" fill="#8cc63f"/>
  <path d="M93.35 1691.34c0-1.92-5.78-3.65-12.91-3.65s-12.91 1.83-12.91 3.74c0 .19.07-.16.19.84H68v74h.11c.17-2 5.65-3.26 12.41-3.26s12.24 1.26 12.41 3.26H94v-74h-.85a3.56 3.56 0 0 1 .2-.93z" fill="url(#b)"/>
  <path d="M93.35 1612.74c0-1.92-5.78-3.45-12.91-3.45s-12.91 1.53-12.91 3.44c0 .19.07.54.19.54H68v75h.11c.17-2 5.65-3.26 12.41-3.26s12.24 1.26 12.41 3.26H94v-75h-.85c.12 0 .2-.33.2-.53z" fill="url(#c)"/>
  <path d="M93.35 1534.64c0-1.92-5.78-3.5-12.91-3.5s-12.91 1.6-12.91 3.52c0 .19.07.61.19.61H68v74h.11c.17-2 5.65-3.26 12.41-3.26s12.24 1.26 12.41 3.26H94v-74h-.85c.12 0 .2-.43.2-.63z" fill="#8cc63f"/>
  <path d="M93.35 1456.54c0-1.92-5.78-3.55-12.91-3.55s-12.91 1.68-12.91 3.59c0 .19.07.69.19.69H68v74h.11c.17-2 5.65-3.26 12.41-3.26s12.24 1.26 12.41 3.26H94v-74h-.85c.12 0 .2-.53.2-.73z" fill="url(#d)"/>
  <path d="M93.35 1378.64c0-1.92-5.78-3.5-12.91-3.5s-12.91 1.6-12.91 3.52c0 .19.07.61.19.61H68v74h.11c.17-2 5.65-3.26 12.41-3.26s12.24 1.26 12.41 3.26H94v-74h-.85c.12 0 .2-.43.2-.63z" fill="#c7a315"/>
  <path d="M93.35 1300.64c0-1.92-5.78-3.5-12.91-3.5s-12.91 1.6-12.91 3.52c0 .19.07.61.19.61H68v74h.11c.17-2 5.65-3.26 12.41-3.26s12.24 1.26 12.41 3.26H94v-74h-.85c.12 0 .2-.43.2-.63z" fill="#c7a315"/>
  <path d="M93.35 1222.54c0-1.92-5.78-3.55-12.91-3.55s-12.91 1.68-12.91 3.59c0 .19.07.69.19.69H68v74h.11c.17-2 5.65-3.26 12.41-3.26s12.24 1.26 12.41 3.26H94v-74h-.85c.12 0 .2-.53.2-.73z" fill="#c7a315"/>
  <path d="M93.35 1145.64c0-1.92-5.78-3.5-12.91-3.5s-12.91 1.6-12.91 3.52c0 .19.07.61.19.61H68v74h.11c.17-2 5.65-3.26 12.41-3.26s12.24 1.26 12.41 3.26H94v-74h-.85c.12 0 .2-.43.2-.63z" fill="#c7a315"/>
  <path d="M93.35 1067.64c0-1.92-5.78-3.5-12.91-3.5s-12.91 1.6-12.91 3.52c0 .19.07.61.19.61H68v74h.11c.17-2 5.65-3.26 12.41-3.26s12.24 1.26 12.41 3.26H94v-74h-.85c.12 0 .2-.43.2-.63z" fill="#c7a315"/>
  <path d="M93.35 989.54c0-1.92-5.78-3.55-12.91-3.55s-12.91 1.68-12.91 3.59c0 .19.07.69.19.69H68v74h.11c.17-2 5.65-3.26 12.41-3.26s12.24 1.26 12.41 3.26H94v-74h-.85c.12 0 .2-.53.2-.73z" fill="#c7a315"/>
  <path d="M93.35 912.64c0-1.92-5.78-3.5-12.91-3.5s-12.91 1.6-12.91 3.52c0 .19.07.61.19.61H68v74h.11c.17-2 5.65-3.26 12.41-3.26s12.24 1.26 12.41 3.26H94v-74h-.85c.12 0 .2-.43.2-.63z" fill="#c7a315"/>
  <path d="M93.35 834.64c0-1.92-5.78-3.5-12.91-3.5s-12.91 1.6-12.91 3.52c0 .19.07.61.19.61H68v74h.11c.17-2 5.65-3.26 12.41-3.26s12.24 1.26 12.41 3.26H94v-74h-.85c.12 0 .2-.43.2-.63z" fill="#c7a315"/>
  <path d="M93.35 756.54c0-1.92-5.78-3.55-12.91-3.55s-12.91 1.68-12.91 3.59c0 .19.07.69.19.69H68v74h.11c.17-2 5.65-3.26 12.41-3.26s12.24 1.26 12.41 3.26H94v-74h-.85c.12 0 .2-.53.2-.73z" fill="#c7a315"/>
  <path d="M93.35 678.64c0-1.92-5.78-3.5-12.91-3.5s-12.91 1.6-12.91 3.52c0 .19.07.61.19.61H68v74h.11c.17-2 5.65-3.26 12.41-3.26s12.24 1.26 12.41 3.26H94v-74h-.85c.12 0 .2-.43.2-.63z" fill="#c7a315"/>
  <path d="M93.35 600.64c0-1.92-5.78-3.5-12.91-3.5s-12.91 1.6-12.91 3.52c0 .19.07.61.19.61H68v74h.11c.17-2 5.65-3.26 12.41-3.26s12.24 1.26 12.41 3.26H94v-74h-.85c.12 0 .2-.43.2-.63zm-77.84 786.63s2.83-1.21 7.1-2.86l3.46-1.32c1.22-.47 2.53-.93 3.87-1.42s2.73-1 4.15-1.47l4.3-1.45c1.44-.49 2.86-1 4.26-1.62a29.13 29.13 0 0 1 4.15-1.43 22 22 0 0 1 4.06-.57 32.18 32.18 0 0 1 3.74 0 29.66 29.66 0 0 1 3.24.32 24.61 24.61 0 0 1 2.56.53c.72.18 1.29.36 1.69.51l.61.23.21.92s-.15.18-.45.47-.74.71-1.31 1.18a24.59 24.59 0 0 1-2.09 1.57 29.66 29.66 0 0 1-2.79 1.68 32.18 32.18 0 0 1-3.4 1.58 22 22 0 0 1-3.91 1.22 29.14 29.14 0 0 1-4.37.48c-1.51.07-3 .18-4.54.35l-4.5.52c-1.48.19-3 .31-4.38.44s-2.79.27-4.1.37l-3.69.29c-4.57.33-7.64.45-7.64.45zm27.18 29.53s.93-2.45 2.41-6.08c.75-1.81 1.61-3.93 2.58-6.17s2-4.63 3.08-7c.53-1.19 1-2.4 1.49-3.6a34.15 34.15 0 0 1 1.52-3.45 33.15 33.15 0 0 1 3.81-5.5 29.81 29.81 0 0 1 3.42-3.5 16.64 16.64 0 0 1 1.53-1.2l.53.29a16.65 16.65 0 0 1-.17 1.94 29.81 29.81 0 0 1-1.08 4.77 33.15 33.15 0 0 1-2.55 6.19 34.15 34.15 0 0 1-2.07 3.15c-.75 1-1.5 2.12-2.21 3.21-1.42 2.18-2.82 4.38-4.2 6.4s-2.66 3.91-3.77 5.52a281.12 281.12 0 0 1-3.79 5.33zm-14.59-58.36s2.35.52 5.84 1.43c1.74.46 3.77 1 5.92 1.6s4.44 1.3 6.73 2c1.14.34 2.31.64 3.46.91a24.35 24.35 0 0 1 3.31 1 18.05 18.05 0 0 1 2.87 1.47 26.33 26.33 0 0 1 2.43 1.65 24.1 24.1 0 0 1 1.95 1.64 19.78 19.78 0 0 1 1.42 1.46 13.79 13.79 0 0 1 1.15 1.47l-.27.65a13.79 13.79 0 0 1-1.86.22 19.78 19.78 0 0 1-2 0 24.1 24.1 0 0 1-2.54-.22 26.33 26.33 0 0 1-2.88-.56 18.05 18.05 0 0 1-3.06-1 24.36 24.36 0 0 1-3-1.66c-1-.62-2-1.24-3.08-1.81-2.1-1.14-4.21-2.25-6.15-3.38s-3.76-2.17-5.31-3.08c-3.09-1.84-5.12-3.14-5.12-3.14zM144.49 1941s-3.07-.11-7.64-.45l-3.69-.29c-1.31-.1-2.68-.24-4.1-.37s-2.89-.25-4.38-.44l-4.5-.52c-1.51-.17-3-.28-4.54-.35a29.14 29.14 0 0 1-4.37-.48 22 22 0 0 1-3.91-1.22 32.16 32.16 0 0 1-3.4-1.58 29.65 29.65 0 0 1-2.79-1.68 24.59 24.59 0 0 1-2.09-1.57c-.57-.47-1-.88-1.31-1.18s-.45-.47-.45-.47l.21-.92s.21-.09.61-.23 1-.32 1.69-.51a24.6 24.6 0 0 1 2.56-.53 29.66 29.66 0 0 1 3.24-.32 32.16 32.16 0 0 1 3.74 0 22 22 0 0 1 4.06.57 29.14 29.14 0 0 1 4.15 1.43c1.39.58 2.82 1.13 4.26 1.63l4.3 1.45c1.42.46 2.8 1 4.15 1.47s2.64.95 3.87 1.42l3.46 1.32c4.28 1.65 7.1 2.86 7.1 2.86zM117 1969.92s-1.55-2.11-3.79-5.33c-1.11-1.61-2.42-3.49-3.77-5.52s-2.78-4.22-4.2-6.4c-.71-1.09-1.46-2.16-2.21-3.21a34.14 34.14 0 0 1-2.07-3.15 33.15 33.15 0 0 1-2.55-6.19 29.8 29.8 0 0 1-1.08-4.77 16.63 16.63 0 0 1-.17-1.94l.53-.29a16.62 16.62 0 0 1 1.53 1.2 29.8 29.8 0 0 1 3.42 3.5 33.15 33.15 0 0 1 3.81 5.5 34.15 34.15 0 0 1 1.52 3.45c.47 1.2 1 2.41 1.49 3.6 1.06 2.38 2.14 4.75 3.08 7s1.84 4.36 2.58 6.17c1.48 3.63 2.41 6.08 2.41 6.08zm15.38-57.99s-2 1.3-5.12 3.14c-1.55.91-3.35 2-5.31 3.08s-4.05 2.24-6.15 3.38c-1 .57-2.08 1.19-3.08 1.81a24.34 24.34 0 0 1-3 1.66 18 18 0 0 1-3.06 1 26.29 26.29 0 0 1-2.88.56 24.07 24.07 0 0 1-2.54.22 19.76 19.76 0 0 1-2 0 13.78 13.78 0 0 1-1.86-.22l-.27-.65a13.79 13.79 0 0 1 1.15-1.47 19.78 19.78 0 0 1 1.42-1.46 24.09 24.09 0 0 1 1.95-1.64 26.32 26.32 0 0 1 2.43-1.65 18 18 0 0 1 2.87-1.47 24.33 24.33 0 0 1 3.31-1c1.15-.28 2.31-.57 3.46-.91 2.29-.69 4.56-1.41 6.73-2s4.19-1.14 5.92-1.6c3.48-.9 5.84-1.43 5.84-1.43z" fill="#c7a315"/>
  <path d="M144.49 1622.39s-3.07-.11-7.64-.45l-3.69-.29c-1.31-.1-2.68-.24-4.1-.37s-2.89-.25-4.38-.44l-4.5-.52c-1.51-.17-3-.28-4.54-.35a29.14 29.14 0 0 1-4.37-.48 22 22 0 0 1-3.91-1.22 32.16 32.16 0 0 1-3.4-1.58 29.68 29.68 0 0 1-2.79-1.68 24.6 24.6 0 0 1-2.09-1.57c-.57-.47-1-.88-1.31-1.18s-.45-.47-.45-.47l.21-.92s.21-.09.61-.23 1-.32 1.69-.51a24.59 24.59 0 0 1 2.56-.53 29.66 29.66 0 0 1 3.24-.32 32.18 32.18 0 0 1 3.74 0 22 22 0 0 1 4.06.57 29.13 29.13 0 0 1 4.15 1.43c1.39.58 2.82 1.13 4.26 1.62l4.3 1.45c1.42.46 2.8 1 4.15 1.47s2.64.95 3.87 1.42l3.46 1.32c4.28 1.65 7.1 2.86 7.1 2.86zM117 1651.28s-1.55-2.11-3.79-5.33c-1.11-1.61-2.42-3.49-3.77-5.52s-2.78-4.22-4.2-6.4c-.71-1.09-1.46-2.16-2.21-3.21a34.15 34.15 0 0 1-2.07-3.15 33.15 33.15 0 0 1-2.55-6.19 29.81 29.81 0 0 1-1.08-4.77 16.65 16.65 0 0 1-.17-1.94l.53-.29a16.66 16.66 0 0 1 1.53 1.2 29.81 29.81 0 0 1 3.42 3.5 33.15 33.15 0 0 1 3.81 5.5 34.16 34.16 0 0 1 1.52 3.45c.47 1.2 1 2.41 1.49 3.6 1.06 2.38 2.14 4.75 3.08 7s1.84 4.36 2.58 6.17c1.48 3.63 2.41 6.08 2.41 6.08z" fill="#8cc63f"/>
  <path d="M15.51 609.13s2.83-1.21 7.1-2.86l3.46-1.32c1.22-.47 2.53-.93 3.87-1.42s2.73-1 4.15-1.47l4.3-1.45c1.44-.49 2.86-1 4.26-1.62a29.13 29.13 0 0 1 4.15-1.43 22 22 0 0 1 4.06-.57 32.18 32.18 0 0 1 3.74 0 29.66 29.66 0 0 1 3.24.32 24.61 24.61 0 0 1 2.56.53c.72.18 1.29.36 1.69.51l.61.23.21.92s-.15.18-.45.47-.74.71-1.31 1.18a24.59 24.59 0 0 1-2.15 1.53 29.66 29.66 0 0 1-2.79 1.68 32.18 32.18 0 0 1-3.4 1.58 22 22 0 0 1-3.91 1.22 29.14 29.14 0 0 1-4.37.48c-1.51.07-3 .18-4.54.35l-4.5.52c-1.48.19-3 .31-4.38.44s-2.79.27-4.1.37l-3.69.29c-4.57.33-7.64.45-7.64.45zm27.18 29.52s.93-2.45 2.41-6.08c.75-1.81 1.61-3.93 2.58-6.17s2-4.63 3.08-7c.53-1.19 1-2.4 1.49-3.6a34.15 34.15 0 0 1 1.52-3.45 33.15 33.15 0 0 1 3.81-5.5 29.81 29.81 0 0 1 3.42-3.5 16.64 16.64 0 0 1 1.53-1.2l.53.29a16.65 16.65 0 0 1-.17 1.94 29.81 29.81 0 0 1-1.08 4.77 33.15 33.15 0 0 1-2.55 6.19 34.15 34.15 0 0 1-2.07 3.15c-.75 1-1.5 2.12-2.21 3.21-1.42 2.18-2.82 4.38-4.2 6.4s-2.66 3.9-3.78 5.51a281.12 281.12 0 0 1-3.79 5.33zM28.1 580.29s2.35.52 5.84 1.43c1.74.46 3.77 1 5.92 1.6s4.44 1.3 6.73 2c1.14.34 2.31.64 3.46.91a24.35 24.35 0 0 1 3.31 1 18.05 18.05 0 0 1 2.87 1.47 26.33 26.33 0 0 1 2.43 1.65A24.1 24.1 0 0 1 60.6 592a19.78 19.78 0 0 1 1.4 1.43 13.79 13.79 0 0 1 1.15 1.47l-.27.65a13.79 13.79 0 0 1-1.86.22 19.78 19.78 0 0 1-2 0 24.1 24.1 0 0 1-2.54-.22 26.33 26.33 0 0 1-2.88-.56 18.05 18.05 0 0 1-3.06-1 24.36 24.36 0 0 1-3-1.66c-1-.62-2-1.24-3.08-1.81-2.1-1.14-4.21-2.25-6.15-3.38S34.5 585 33 584.09c-3.09-1.84-5.12-3.14-5.12-3.14zm116.39 582.59s-3.07-.11-7.64-.45l-3.69-.29c-1.31-.1-2.68-.24-4.1-.37s-2.89-.25-4.38-.44l-4.5-.52c-1.51-.17-3-.28-4.54-.35a29.14 29.14 0 0 1-4.37-.48 22 22 0 0 1-3.91-1.22 32.16 32.16 0 0 1-3.4-1.58 29.65 29.65 0 0 1-2.79-1.68 24.59 24.59 0 0 1-2.09-1.57c-.57-.47-1-.88-1.31-1.18s-.45-.47-.45-.47l.21-.92s.21-.09.61-.23 1-.32 1.69-.51a24.6 24.6 0 0 1 2.56-.53 29.66 29.66 0 0 1 3.24-.32 32.16 32.16 0 0 1 3.74 0 22 22 0 0 1 4.06.57 29.14 29.14 0 0 1 4.15 1.43c1.39.58 2.82 1.13 4.26 1.63l4.3 1.45c1.42.46 2.8 1 4.15 1.47s2.64.95 3.87 1.42l3.46 1.32c4.28 1.65 7.1 2.86 7.1 2.86zM117 1191.77s-1.55-2.11-3.79-5.33c-1.11-1.61-2.42-3.49-3.77-5.52s-2.78-4.22-4.2-6.4c-.71-1.09-1.46-2.16-2.21-3.21a34.14 34.14 0 0 1-2.07-3.15 33.15 33.15 0 0 1-2.56-6.16 29.8 29.8 0 0 1-1.08-4.77 16.63 16.63 0 0 1-.17-1.94l.53-.29a16.62 16.62 0 0 1 1.53 1.2 29.8 29.8 0 0 1 3.42 3.5 33.15 33.15 0 0 1 3.81 5.5 34.15 34.15 0 0 1 1.52 3.45c.47 1.2 1 2.41 1.49 3.6 1.06 2.38 2.14 4.75 3.08 7s1.84 4.36 2.58 6.17c1.48 3.63 2.41 6.08 2.41 6.08zm15.38-57.99s-2 1.3-5.12 3.14c-1.55.91-3.35 2-5.31 3.08s-4.05 2.24-6.15 3.38c-1 .57-2.08 1.19-3.08 1.81a24.34 24.34 0 0 1-3 1.66 18 18 0 0 1-3.06 1 26.29 26.29 0 0 1-2.88.56 24.07 24.07 0 0 1-2.54.22 19.76 19.76 0 0 1-2 0 13.78 13.78 0 0 1-1.86-.22l-.27-.65a13.79 13.79 0 0 1 1.15-1.47 19.78 19.78 0 0 1 1.42-1.46 24.09 24.09 0 0 1 1.95-1.64 26.32 26.32 0 0 1 2.43-1.65 18 18 0 0 1 2.87-1.47 24.33 24.33 0 0 1 3.31-1c1.15-.28 2.31-.57 3.46-.91 2.29-.69 4.56-1.41 6.73-2s4.19-1.14 5.92-1.6c3.48-.9 5.84-1.43 5.84-1.43zm12.11-289.53s-3.07-.11-7.64-.45l-3.69-.29c-1.31-.1-2.68-.24-4.1-.37s-2.89-.25-4.38-.44l-4.5-.52c-1.51-.17-3-.28-4.54-.35a29.13 29.13 0 0 1-4.37-.48 22 22 0 0 1-3.91-1.22 32.18 32.18 0 0 1-3.4-1.58 29.66 29.66 0 0 1-2.79-1.68 24.59 24.59 0 0 1-2.09-1.57c-.57-.47-1-.88-1.31-1.18s-.45-.47-.45-.47l.21-.92s.21-.09.61-.23 1-.32 1.69-.51a24.6 24.6 0 0 1 2.56-.53 29.67 29.67 0 0 1 3.24-.32 32.18 32.18 0 0 1 3.74 0 22 22 0 0 1 4.06.57 29.13 29.13 0 0 1 4.15 1.43c1.39.58 2.82 1.13 4.26 1.62l4.3 1.45c1.42.46 2.8 1 4.15 1.47s2.64.95 3.87 1.42l3.46 1.32c4.28 1.65 7.1 2.86 7.1 2.86zm-27.65 28.97s-1.73-2-4.19-5.11l-2-2.51c-.7-.89-1.4-1.85-2.15-2.83s-1.52-2-2.26-3l-2.24-3.23c-1.48-2.15-3.45-4-4.65-6.16a16.29 16.29 0 0 1-1.35-3.24 24.34 24.34 0 0 1-.8-3.14 23.08 23.08 0 0 1-.37-2.82 19.84 19.84 0 0 1 0-2.31 15.36 15.36 0 0 1 .13-1.57c0-.37.09-.58.09-.58l.83-.45s.2.08.54.24a15.36 15.36 0 0 1 1.39.75 19.83 19.83 0 0 1 1.92 1.29 23.08 23.08 0 0 1 2.17 1.85 24.33 24.33 0 0 1 2.2 2.38 16.28 16.28 0 0 1 2 2.92c1.13 2.16 1.63 4.84 2.64 7.25l1.43 3.63c.49 1.19.91 2.39 1.33 3.55s.84 2.27 1.2 3.34l1 3c1.27 3.75 2 6.3 2 6.3zM0 454.29s3.16-2.79 8-6.82l3.92-3.24c1.39-1.16 2.88-2.33 4.4-3.57s3.1-2.52 4.74-3.78L26 433c1.65-1.29 3.26-2.64 4.83-4a53 53 0 0 1 4.76-3.75 39.38 39.38 0 0 1 4.91-2.8c1.62-.8 3.19-1.49 4.69-2.07a47.8 47.8 0 0 1 7.54-2.3c1-.19 1.74-.33 2.28-.39s.84-.09.84-.09l.55.84s-.14.27-.42.73-.71 1.12-1.27 1.93a47.81 47.81 0 0 1-5.11 6 56.573 56.573 0 0 1-3.76 3.48A39.38 39.38 0 0 1 41.3 434a53 53 0 0 1-5.3 2.88c-1.86.9-3.74 1.84-5.58 2.85l-5.48 3c-1.8 1-3.61 1.93-5.35 2.84s-3.42 1.8-5 2.62l-4.59 2.3c-5.63 2.84-9.44 4.63-9.44 4.63zm49.78 12.19s.25-2.8.76-7c.26-2.09.55-4.52.92-7.12s.79-5.36 1.21-8.12c.21-1.38.37-2.77.52-4.15a33.73 33.73 0 0 1 .59-4 25.05 25.05 0 0 1 1.13-3.6c.43-1.13.89-2.18 1.37-3.14s1-1.83 1.41-2.59.91-1.41 1.29-1.95a17.16 17.16 0 0 1 1.33-1.65l.68.17a17.16 17.16 0 0 1 .43 2.07c.09.65.2 1.44.25 2.32s.09 1.88.06 2.95-.09 2.22-.23 3.42a25.06 25.06 0 0 1-.65 3.72 33.73 33.73 0 0 1-1.31 3.82c-.51 1.29-1 2.6-1.45 3.92-.89 2.65-1.75 5.3-2.66 7.77s-1.73 4.77-2.46 6.75c-1.47 3.94-2.54 6.55-2.54 6.55zm-38.3-51.96s2.73-.7 6.83-1.63c2.05-.46 4.45-1 7-1.53s5.31-1.06 8.06-1.59c1.37-.26 2.74-.58 4.08-.91a33.72 33.72 0 0 1 4-.78 25.06 25.06 0 0 1 3.77-.14c1.21 0 2.35.11 3.41.23s2 .28 2.91.46 1.64.38 2.27.56a17.15 17.15 0 0 1 2 .7l.07.7a17.16 17.16 0 0 1-1.81 1.1c-.58.31-1.29.68-2.1 1s-1.74.72-2.76 1.05-2.12.66-3.29.93a25.06 25.06 0 0 1-3.72.64 33.72 33.72 0 0 1-4 .05c-1.38 0-2.79-.07-4.18 0-2.79 0-5.59.13-8.21.11s-5.08 0-7.18 0c-4.21-.06-7-.19-7-.19zm80.6 107.12C87 392.56 79.93 263.41 73.11 134.4 70.9 92.51 72.37 43.17 60.22 0c-3.41 1.15.69 70.5.43 79.69-.8 29.16-1 58.29-.93 87.46.11 59.91.93 119.81 2.09 179.71 1.61 83.37 5.88 166.63 5.88 250 6.69-5 19.28-4.56 26 0 .01-25.07-.69-50.15-1.61-75.22z" fill="#c7a315"/>
  <path d="M73.16 135.14c0 .65.07 1.3.1 2 4.03 69.93.38 6.17-.1-2zm52.44 102.04s-2.77-1-6.87-2.73c-2-.85-4.44-1.83-7-2.93s-5.23-2.3-7.92-3.5a89.53 89.53 0 0 0-4.07-1.69 37.26 37.26 0 0 1-3.9-1.72 27.69 27.69 0 0 1-3.36-2.13c-1-.74-2-1.49-2.83-2.23s-1.61-1.45-2.27-2.12-1.2-1.29-1.64-1.82a18.48 18.48 0 0 1-1.33-1.77l.34-.62a18.48 18.48 0 0 1 2.21.17c.68.09 1.51.21 2.41.41s1.93.45 3 .78 2.22.72 3.4 1.19a27.7 27.7 0 0 1 3.6 1.69 37.27 37.27 0 0 1 3.54 2.37c1.18.86 2.38 1.72 3.61 2.53 2.46 1.63 4.93 3.22 7.2 4.81s4.4 3 6.21 4.32c3.62 2.56 6 4.34 6 4.34zM91.25 248s-.89-1.77-2.14-4.45c-.62-1.34-1.35-2.91-2.09-4.59s-1.52-3.49-2.29-5.3-1.76-3.55-2.36-5.28a23.06 23.06 0 0 1-1-5c-.08-.75-.11-1.44-.11-2.07v-1.64a11.37 11.37 0 0 1 .18-1.48l.47-.15a11.36 11.36 0 0 1 1 1.08c.3.35.64.79 1 1.29s.75 1.09 1.14 1.74a23.06 23.06 0 0 1 2.12 4.58c.54 1.75.75 3.75 1.23 5.65s.92 3.82 1.3 5.63.74 3.49 1 4.94c.58 2.9.91 4.85.91 4.85zm24.44-38.19s-2 .24-4.91.52c-1.47.13-3.19.29-5 .43s-3.8.25-5.76.38-3.93.46-5.77.45a23.06 23.06 0 0 1-5-.72c-.73-.18-1.4-.38-2-.59s-1.11-.4-1.53-.6a11.36 11.36 0 0 1-1.33-.67v-.49a11.37 11.37 0 0 1 1.36-.6c.43-.17 1-.34 1.56-.52s1.28-.34 2-.49a23.06 23.06 0 0 1 5-.46c1.83.08 3.78.55 5.74.74s3.91.42 5.74.67 3.54.48 5 .68c2.93.43 4.88.77 4.88.77zM39.82 73.17s1-1.16 2.5-2.83c.76-.84 1.64-1.83 2.6-2.86s2-2.12 3-3.21 2-2.3 3-3.25a18.5 18.5 0 0 1 3.16-2.23 17.81 17.81 0 0 1 2.57-1.21 8.9 8.9 0 0 1 1.08-.34l.24.27a8.9 8.9 0 0 1-.46 1 17.81 17.81 0 0 1-1.51 2.4 18.5 18.5 0 0 1-2.59 2.87c-1.07.91-2.4 1.68-3.59 2.6s-2.4 1.82-3.55 2.64-2.23 1.59-3.15 2.24c-1.85 1.31-3.11 2.14-3.11 2.14zm2.93-14.56s.93-.39 2.35-.93 3.3-1.25 5.2-1.9c1-.33 1.87-.76 2.78-1a12 12 0 0 1 2.56-.34 9.59 9.59 0 0 1 2.64.24l.06.24a9.59 9.59 0 0 1-2.21 1.47 12 12 0 0 1-2.41.93c-.92.21-1.93.26-2.93.43-2 .34-4 .63-5.48.81s-2.51.3-2.51.3z" fill="#c7a315"/>
</svg>
