<svg xmlns="http://www.w3.org/2000/svg" viewBox="0 0 133.66 1844.69">
  <path d="M76.64 1770.07c0-1.92-5.78-3.5-12.91-3.5s-12.91 1.6-12.91 3.52c0 .19.07.61.19.61h.3v74h.11c.17-2 5.65-3.26 12.41-3.26s12.24 1.26 12.41 3.26h1.06v-74h-.85c.12-.01.19-.44.19-.63z" fill="#c7a315"/>
  <path d="M76.64 1692c0-1.92-5.78-3.55-12.91-3.55s-12.91 1.67-12.91 3.59c0 .19.07.68.19.68h.3v74h.11c.17-2 5.65-3.26 12.41-3.26s12.24 1.26 12.41 3.26h1.06v-74h-.85c.12-.03.19-.56.19-.72z" fill="#c7a315"/>
  <path d="M76.64 1613.87c0-1.92-5.78-3.6-12.91-3.6s-12.91 1.75-12.91 3.67c0 .19.07.76.19.76h.3v74h.11c.17-2 5.65-3.26 12.41-3.26s12.24 1.26 12.41 3.26h1.06v-74h-.85c.12-.01.19-.64.19-.83z" fill="#c7a315"/>
  <path d="M76.64 1535.77c0-1.92-5.78-3.65-12.91-3.65s-12.91 1.83-12.91 3.74c0 .19.07-.16.19.84h.3v74h.11c.17-2 5.65-3.26 12.41-3.26s12.24 1.26 12.41 3.26h1.06v-74h-.85a3.56 3.56 0 0 1 .19-.93z" fill="#c7a315"/>
  <path d="M76.64 1457.17c0-1.92-5.78-3.45-12.91-3.45s-12.91 1.53-12.91 3.44c0 .19.07.54.19.54h.3v75h.11c.17-2 5.65-3.26 12.41-3.26s12.24 1.26 12.41 3.26h1.06v-75h-.85c.12-.01.19-.34.19-.53zm0-78.1c0-1.92-5.78-3.5-12.91-3.5s-12.91 1.6-12.91 3.52c0 .19.07.61.19.61h.3v74h.11c.17-2 5.65-3.26 12.41-3.26s12.24 1.26 12.41 3.26h1.06v-74h-.85c.12-.01.19-.44.19-.63z" fill="#c7a315"/>
  <path d="M76.64 1301c0-1.92-5.78-3.55-12.91-3.55s-12.91 1.68-12.91 3.59c0 .19.07.69.19.69h.3v74h.11c.17-2 5.65-3.26 12.41-3.26s12.24 1.26 12.41 3.26h1.06v-74h-.85c.12-.04.19-.57.19-.73z" fill="#c7a315"/>
  <path d="M76.64 1223.07c0-1.92-5.78-3.5-12.91-3.5s-12.91 1.6-12.91 3.52c0 .19.07.61.19.61h.3v74h.11c.17-2 5.65-3.26 12.41-3.26s12.24 1.26 12.41 3.26h1.06v-74h-.85c.12-.01.19-.44.19-.63z" fill="#c7a315"/>
  <path d="M76.64 1145.07c0-1.92-5.78-3.5-12.91-3.5s-12.91 1.6-12.91 3.52c0 .19.07.61.19.61h.3v74h.11c.17-2 5.65-3.26 12.41-3.26s12.24 1.26 12.41 3.26h1.06v-74h-.85c.12-.01.19-.44.19-.63z" fill="#c7a315"/>
  <path d="M76.64 1067c0-1.92-5.78-3.55-12.91-3.55s-12.91 1.68-12.91 3.59c0 .19.07.69.19.69h.3v74h.11c.17-2 5.65-3.26 12.41-3.26s12.24 1.26 12.41 3.26h1.06v-74h-.85c.12-.04.19-.57.19-.73z" fill="#c7a315"/>
  <path d="M76.64 989.07c0-1.92-5.78-3.5-12.91-3.5s-12.91 1.6-12.91 3.52c0 .19.07.61.19.61h.3v74h.11c.17-2 5.65-3.26 12.41-3.26s12.24 1.26 12.41 3.26h1.06v-74h-.85c.12-.01.19-.44.19-.63z" fill="#c7a315"/>
  <path d="M76.64 911c0-1.92-5.78-3.55-12.91-3.55s-12.91 1.64-12.91 3.55c0 .19.07.68.19.68h.3v74h.11c.17-2 5.65-3.26 12.41-3.26s12.24 1.26 12.41 3.26h1.06v-74h-.85c.12.01.19-.52.19-.68z" fill="#c7a315"/>
  <path d="M76.64 832.87c0-1.92-5.78-3.6-12.91-3.6s-12.91 1.73-12.91 3.66c0 .19.07.76.19.76h.3v74h.11c.17-2 5.65-3.26 12.41-3.26s12.24 1.26 12.41 3.26h1.06v-74h-.85c.12 0 .19-.63.19-.82z" fill="#c7a315"/>
  <path d="M76.64 754.77c0-1.92-5.78-3.65-12.91-3.65s-12.91 1.83-12.91 3.74c0 .19.07-.16.19.84h.3v74h.11c.17-2 5.65-3.26 12.41-3.26s12.24 1.26 12.41 3.26h1.06v-74h-.85a3.56 3.56 0 0 1 .19-.93z" fill="#c7a315"/>
  <path d="M76.64 676.17c0-1.92-5.78-3.45-12.91-3.45s-12.91 1.53-12.91 3.44c0 .19.07.54.19.54h.3v75h.11c.17-2 5.65-3.26 12.41-3.26s12.24 1.26 12.41 3.26h1.06v-75h-.85c.12-.01.19-.34.19-.53zm0-78.1c0-1.92-5.78-3.5-12.91-3.5s-12.91 1.6-12.91 3.52c0 .19.07.61.19.61h.3v74h.11c.17-2 5.65-3.26 12.41-3.26s12.24 1.26 12.41 3.26h1.06v-74h-.85c.12-.01.19-.44.19-.63z" fill="#c7a315"/>
  <path d="M76.64 520c0-1.92-5.78-3.55-12.91-3.55s-12.91 1.64-12.91 3.55c0 .19.07.69.19.69h.3v74h.11c.17-2 5.65-3.26 12.41-3.26s12.24 1.26 12.41 3.26h1.06v-74h-.85c.12 0 .19-.53.19-.69zM0 924.36s2.83-1.21 7.1-2.86l3.46-1.32c1.22-.47 2.53-.93 3.87-1.42s2.73-1 4.15-1.47l4.3-1.45c1.44-.49 2.86-1 4.26-1.62a29.14 29.14 0 0 1 4.15-1.43 22 22 0 0 1 4.06-.57 32.18 32.18 0 0 1 3.74 0 29.66 29.66 0 0 1 3.24.32 24.59 24.59 0 0 1 2.56.53c.72.18 1.29.36 1.69.51l.61.23.21.92s-.15.18-.45.47-.74.71-1.31 1.18a24.6 24.6 0 0 1-2.09 1.57 29.65 29.65 0 0 1-2.79 1.68 32.21 32.21 0 0 1-3.4 1.58 22 22 0 0 1-3.91 1.22 29.14 29.14 0 0 1-4.37.48c-1.51.07-3 .18-4.54.35l-4.5.52c-1.48.19-3 .31-4.38.44s-2.79.27-4.1.37l-3.69.29c-4.57.33-7.64.45-7.64.45zm27.18 29.53s.93-2.45 2.41-6.08c.75-1.81 1.61-3.93 2.58-6.17s2-4.63 3.08-7c.53-1.19 1-2.4 1.49-3.6a34.15 34.15 0 0 1 1.52-3.45 33.15 33.15 0 0 1 3.81-5.5 29.82 29.82 0 0 1 3.42-3.5 16.64 16.64 0 0 1 1.53-1.2l.53.29a16.64 16.64 0 0 1-.17 1.94 29.8 29.8 0 0 1-1.08 4.77 33.15 33.15 0 0 1-2.55 6.19 34.15 34.15 0 0 1-2.07 3.15c-.75 1-1.5 2.12-2.21 3.21-1.42 2.18-2.82 4.38-4.2 6.4s-2.66 3.91-3.77 5.52a281.12 281.12 0 0 1-3.79 5.33zm-14.59-58.36s2.35.52 5.84 1.43c1.74.46 3.77 1 5.92 1.6s4.44 1.3 6.73 2c1.14.34 2.31.64 3.46.91a24.35 24.35 0 0 1 3.31 1 18 18 0 0 1 2.87 1.47 26.34 26.34 0 0 1 2.43 1.65 24.11 24.11 0 0 1 1.95 1.64 19.78 19.78 0 0 1 1.42 1.46 13.8 13.8 0 0 1 1.15 1.47l-.27.65a13.78 13.78 0 0 1-1.86.22 19.76 19.76 0 0 1-2 0 24.1 24.1 0 0 1-2.54-.22 26.31 26.31 0 0 1-2.88-.56 18.06 18.06 0 0 1-3.06-1 24.36 24.36 0 0 1-3-1.66c-1-.62-2-1.24-3.08-1.81-2.1-1.14-4.21-2.25-6.15-3.38s-3.76-2.17-5.31-3.08c-3.09-1.84-5.12-3.14-5.12-3.14zM0 605.72s2.83-1.21 7.1-2.86l3.46-1.32c1.22-.47 2.53-.93 3.87-1.42s2.73-1 4.15-1.47l4.3-1.45c1.44-.49 2.86-1 4.26-1.62a29.13 29.13 0 0 1 4.15-1.43 22 22 0 0 1 4.06-.57 32.17 32.17 0 0 1 3.74 0 29.68 29.68 0 0 1 3.24.32 24.59 24.59 0 0 1 2.56.53c.72.18 1.29.36 1.69.51l.61.23.21.92s-.15.18-.45.47-.74.71-1.31 1.18a24.6 24.6 0 0 1-2.09 1.57 29.66 29.66 0 0 1-2.79 1.68 32.17 32.17 0 0 1-3.4 1.58 22 22 0 0 1-3.91 1.22 29.13 29.13 0 0 1-4.37.48c-1.51.07-3 .18-4.54.35l-4.5.52c-1.48.19-3 .31-4.38.44s-2.79.27-4.1.37l-3.69.29c-4.57.33-7.64.45-7.64.45zm12.59-28.83s2.35.52 5.84 1.43c1.74.46 3.77 1 5.92 1.6s4.44 1.3 6.73 2c1.14.34 2.31.64 3.46.91a24.34 24.34 0 0 1 3.31 1 18 18 0 0 1 2.87 1.47 26.33 26.33 0 0 1 2.43 1.65 24.1 24.1 0 0 1 1.95 1.64 19.78 19.78 0 0 1 1.4 1.41 13.78 13.78 0 0 1 1.15 1.47l-.27.65a13.78 13.78 0 0 1-1.86.22 19.81 19.81 0 0 1-2 0 24.09 24.09 0 0 1-2.54-.22 26.3 26.3 0 0 1-2.88-.56 18 18 0 0 1-3.06-1 24.35 24.35 0 0 1-3-1.66c-1-.62-2-1.24-3.08-1.81-2.1-1.14-4.21-2.25-6.15-3.38s-3.76-2.17-5.31-3.08c-3.09-1.84-5.12-3.14-5.12-3.14zm116.57 574.92s-3.07-.11-7.64-.45l-3.69-.29c-1.31-.1-2.68-.24-4.1-.37s-2.89-.25-4.38-.44l-4.5-.52c-1.51-.17-3-.28-4.54-.35a29.14 29.14 0 0 1-4.37-.48 22 22 0 0 1-3.91-1.22 32.18 32.18 0 0 1-3.4-1.58 29.68 29.68 0 0 1-2.79-1.68 24.59 24.59 0 0 1-2.09-1.57c-.57-.47-1-.88-1.31-1.18s-.45-.47-.45-.47l.21-.92s.21-.09.61-.23 1-.32 1.69-.51a24.58 24.58 0 0 1 2.5-.55 29.66 29.66 0 0 1 3.24-.32 32.18 32.18 0 0 1 3.74 0 22 22 0 0 1 4.06.57 29.12 29.12 0 0 1 4.15 1.43c1.39.58 2.82 1.13 4.26 1.62l4.3 1.45c1.42.46 2.8 1 4.15 1.47s2.64.95 3.87 1.42l3.46 1.32c4.28 1.65 7.1 2.86 7.1 2.86zm-27.5 28.89s-1.55-2.11-3.79-5.33c-1.11-1.61-2.42-3.49-3.77-5.52s-2.78-4.22-4.2-6.4c-.71-1.09-1.46-2.16-2.21-3.21a34.14 34.14 0 0 1-2.07-3.15 33.15 33.15 0 0 1-2.55-6.19 29.8 29.8 0 0 1-1.08-4.77 16.63 16.63 0 0 1-.17-1.94l.53-.29a16.64 16.64 0 0 1 1.53 1.2 29.8 29.8 0 0 1 3.42 3.5 33.15 33.15 0 0 1 3.81 5.5 34.16 34.16 0 0 1 1.52 3.45c.47 1.2 1 2.41 1.49 3.6 1.06 2.38 2.14 4.75 3.08 7s1.84 4.36 2.58 6.17c1.48 3.63 2.41 6.08 2.41 6.08zm15.34-57.99s-2 1.3-5.12 3.14c-1.55.91-3.35 2-5.31 3.08s-4.05 2.24-6.15 3.38c-1 .57-2.08 1.19-3.08 1.81a24.35 24.35 0 0 1-3 1.66 18.05 18.05 0 0 1-3.06 1 26.33 26.33 0 0 1-2.88.56 24.1 24.1 0 0 1-2.54.22 19.78 19.78 0 0 1-2 0 13.79 13.79 0 0 1-1.86-.22l-.27-.65a13.79 13.79 0 0 1 1.15-1.47 19.78 19.78 0 0 1 1.42-1.46 24.1 24.1 0 0 1 1.95-1.64 26.32 26.32 0 0 1 2.43-1.65 18.05 18.05 0 0 1 2.87-1.47 24.33 24.33 0 0 1 3.31-1c1.15-.28 2.31-.57 3.46-.91 2.29-.69 4.56-1.41 6.73-2s4.19-1.14 5.92-1.6c3.48-.9 5.84-1.43 5.84-1.43zM0 1705.36s2.83-1.21 7.1-2.86l3.46-1.32c1.22-.47 2.53-.93 3.87-1.42s2.73-1 4.15-1.47l4.3-1.45c1.44-.49 2.86-1 4.26-1.62a29.13 29.13 0 0 1 4.15-1.43 22 22 0 0 1 4.06-.57 32.18 32.18 0 0 1 3.74 0 29.66 29.66 0 0 1 3.24.32 24.61 24.61 0 0 1 2.56.53c.72.18 1.29.36 1.69.51l.61.23.21.92s-.15.18-.45.47-.74.71-1.31 1.18a24.59 24.59 0 0 1-2.09 1.57 29.66 29.66 0 0 1-2.79 1.68 32.18 32.18 0 0 1-3.4 1.58 22 22 0 0 1-3.91 1.22 29.14 29.14 0 0 1-4.37.48c-1.51.07-3 .18-4.54.35l-4.5.52c-1.48.19-3 .31-4.38.44s-2.79.27-4.1.37l-3.69.29c-4.57.33-7.64.45-7.64.45zm27.18 29.53s.93-2.45 2.41-6.08c.75-1.81 1.61-3.93 2.58-6.17s2-4.63 3.08-7c.53-1.19 1-2.4 1.49-3.6a34.15 34.15 0 0 1 1.52-3.45 33.15 33.15 0 0 1 3.81-5.5 29.81 29.81 0 0 1 3.42-3.5 16.64 16.64 0 0 1 1.53-1.2l.53.29a16.65 16.65 0 0 1-.17 1.94 29.81 29.81 0 0 1-1.08 4.77 33.15 33.15 0 0 1-2.55 6.19 34.15 34.15 0 0 1-2.07 3.15c-.75 1-1.5 2.12-2.21 3.21-1.42 2.18-2.82 4.38-4.2 6.4s-2.66 3.91-3.77 5.52a281.12 281.12 0 0 1-3.79 5.33zm-14.59-58.36s2.35.52 5.84 1.43c1.74.46 3.77 1 5.92 1.6s4.44 1.3 6.73 2c1.14.34 2.31.64 3.46.91a24.35 24.35 0 0 1 3.31 1 18.05 18.05 0 0 1 2.87 1.47 26.33 26.33 0 0 1 2.43 1.65 24.1 24.1 0 0 1 1.95 1.64 19.78 19.78 0 0 1 1.42 1.46 13.79 13.79 0 0 1 1.15 1.47l-.27.65a13.79 13.79 0 0 1-1.86.22 19.78 19.78 0 0 1-2 0 24.1 24.1 0 0 1-2.54-.22 26.33 26.33 0 0 1-2.88-.56 18.05 18.05 0 0 1-3.06-1 24.36 24.36 0 0 1-3-1.66c-1-.62-2-1.24-3.08-1.81-2.1-1.14-4.21-2.25-6.15-3.38s-3.76-2.17-5.31-3.08c-3.09-1.84-5.12-3.14-5.12-3.14zM0 1386.72s2.83-1.21 7.1-2.86l3.46-1.32c1.22-.47 2.53-.93 3.87-1.42s2.73-1 4.15-1.47l4.3-1.45c1.44-.49 2.86-1 4.26-1.62a29.13 29.13 0 0 1 4.15-1.43 22 22 0 0 1 4.06-.57 32.18 32.18 0 0 1 3.74 0 29.66 29.66 0 0 1 3.24.32 24.61 24.61 0 0 1 2.56.53c.72.18 1.29.36 1.69.51l.61.23.21.92s-.15.18-.45.47-.74.71-1.31 1.18a24.59 24.59 0 0 1-2.09 1.57 29.66 29.66 0 0 1-2.79 1.68 32.18 32.18 0 0 1-3.4 1.58 22 22 0 0 1-3.91 1.22 29.14 29.14 0 0 1-4.37.48c-1.51.07-3 .18-4.54.35l-4.5.52c-1.48.19-3 .31-4.38.44s-2.79.27-4.1.37l-3.69.29c-4.57.33-7.64.45-7.64.45zm12.59-28.83s2.35.52 5.84 1.43c1.74.46 3.77 1 5.92 1.6s4.44 1.3 6.73 2c1.14.34 2.31.64 3.46.91a24.35 24.35 0 0 1 3.31 1 18.05 18.05 0 0 1 2.87 1.47 26.33 26.33 0 0 1 2.43 1.65 24.1 24.1 0 0 1 1.95 1.64 19.78 19.78 0 0 1 1.4 1.41 13.79 13.79 0 0 1 1.15 1.47l-.27.65a13.79 13.79 0 0 1-1.86.22 19.78 19.78 0 0 1-2 0 24.1 24.1 0 0 1-2.54-.22 26.33 26.33 0 0 1-2.88-.56 18.05 18.05 0 0 1-3.06-1 24.36 24.36 0 0 1-3-1.66c-1-.62-2-1.24-3.08-1.81-2.1-1.14-4.21-2.25-6.15-3.38s-3.76-2.17-5.31-3.08c-3.09-1.84-5.12-3.14-5.12-3.14zM93.64 102.71c-3.87 61.46.26-3.84 0 0z" fill="#c7a315"/>
  <path d="M51.3 437.3v79.39h.11c.17-3 5.65-3.53 12.41-3.53s12.24.53 12.41 3.53h1.07v-78.22c0-17.66.1-31.47.37-45.29.66-33.75 1-67.4 2.81-101.11 3.42-63.19 9.22-126.21 13.2-189.36 2.33-34-2-68.85 2.51-102.71-20.72 57.11-18.77 123.6-24.94 183.4C63.54 258.24 53.91 360 51 435.48zm82.02-227.35s-2.77-1-6.87-2.73c-2-.85-4.44-1.83-7-2.93s-5.23-2.3-7.92-3.5a89.53 89.53 0 0 0-4.07-1.69 37.26 37.26 0 0 1-3.9-1.72 27.69 27.69 0 0 1-3.36-2.13c-1-.74-2-1.49-2.83-2.23s-1.61-1.45-2.27-2.12-1.2-1.29-1.64-1.82a18.48 18.48 0 0 1-1.33-1.77l.34-.62a18.48 18.48 0 0 1 2.21.17c.68.09 1.51.21 2.41.41s1.93.45 3 .78 2.22.72 3.4 1.19a27.7 27.7 0 0 1 3.6 1.69 37.27 37.27 0 0 1 3.54 2.37c1.18.86 2.38 1.72 3.61 2.53 2.46 1.63 4.93 3.22 7.2 4.81s4.4 3 6.21 4.32c3.62 2.56 6 4.34 6 4.34zm-9.91-27.37s-2 .24-4.91.52c-1.47.13-3.19.29-5 .43s-3.8.25-5.76.38-3.93.46-5.77.45a23.06 23.06 0 0 1-5-.72c-.73-.18-1.4-.38-2-.59s-1.11-.4-1.53-.6a11.36 11.36 0 0 1-1.33-.67v-.49a11.37 11.37 0 0 1 1.36-.6c.43-.17 1-.34 1.56-.52s1.28-.34 2-.49a23.06 23.06 0 0 1 5-.46c1.83.08 3.78.55 5.74.74s3.91.42 5.74.67 3.54.48 5 .68c2.93.43 4.88.77 4.88.77z" fill="#c7a315"/>
</svg>
