<svg xmlns="http://www.w3.org/2000/svg" viewBox="0 0 148.22 1882.83">
  <path d="M25.82 1808.21c0-1.92-5.78-3.5-12.91-3.5S0 1806.3 0 1808.22c0 .19.07.61.19.61h.3v74h.1c.17-2 5.65-3.26 12.41-3.26s12.24 1.26 12.41 3.26h1.07v-74h-.85c.12 0 .19-.43.19-.62z" fill="#c7a315"/>
  <path d="M25.82 1730.11c0-1.92-5.78-3.55-12.91-3.55S0 1728.23 0 1730.15c0 .19.07.68.19.68h.3v74h.1c.17-2 5.65-3.26 12.41-3.26s12.24 1.26 12.41 3.26h1.07v-74h-.85c.12 0 .19-.53.19-.72z" fill="#c7a315"/>
  <path d="M25.82 1652c0-1.92-5.78-3.6-12.91-3.6S0 1650.15 0 1652.07c0 .19.07.76.19.76h.3v74h.1c.17-2 5.65-3.26 12.41-3.26s12.24 1.26 12.41 3.26h1.07v-74h-.85c.12 0 .19-.63.19-.83z" fill="#c7a315"/>
  <path d="M25.82 1573.91c0-1.92-5.78-3.65-12.91-3.65S0 1572.08 0 1574c0 .19.07-.16.19.84h.3v74h.1c.17-2 5.65-3.26 12.41-3.26s12.24 1.26 12.41 3.26h1.07v-74h-.85a3.56 3.56 0 0 1 .19-.93z" fill="#c7a315"/>
  <path d="M25.82 1495.31c0-1.92-5.78-3.45-12.91-3.45S0 1493.38 0 1495.3c0 .19.07.54.19.54h.3v75h.1c.17-2 5.65-3.26 12.41-3.26s12.24 1.26 12.41 3.26h1.07v-75h-.85c.12-.01.19-.34.19-.53zm0-78.1c0-1.92-5.78-3.5-12.91-3.5S0 1415.3 0 1417.22c0 .19.07.61.19.61h.3v74h.1c.17-2 5.65-3.26 12.41-3.26s12.24 1.26 12.41 3.26h1.07v-74h-.85c.12 0 .19-.43.19-.62z" fill="#c7a315"/>
  <path d="M25.82 1339.11c0-1.92-5.78-3.55-12.91-3.55S0 1337.23 0 1339.15c0 .19.07.69.19.69h.3v74h.1c.17-2 5.65-3.26 12.41-3.26s12.24 1.26 12.41 3.26h1.07v-74h-.85c.12-.01.19-.54.19-.73z" fill="#c7a315"/>
  <path d="M25.82 1261.21c0-1.92-5.78-3.5-12.91-3.5S0 1259.3 0 1261.22c0 .19.07.61.19.61h.3v74h.1c.17-2 5.65-3.26 12.41-3.26s12.24 1.26 12.41 3.26h1.07v-74h-.85c.12 0 .19-.43.19-.62z" fill="#c7a315"/>
  <path d="M25.82 1183.21c0-1.92-5.78-3.5-12.91-3.5S0 1181.3 0 1183.22c0 .19.07.61.19.61h.3v74h.1c.17-2 5.65-3.26 12.41-3.26s12.24 1.26 12.41 3.26h1.07v-74h-.85c.12 0 .19-.43.19-.62z" fill="#c7a315"/>
  <path d="M25.82 1105.11c0-1.92-5.78-3.55-12.91-3.55S0 1103.23 0 1105.15c0 .19.07.69.19.69h.3v74h.1c.17-2 5.65-3.26 12.41-3.26s12.24 1.26 12.41 3.26h1.07v-74h-.85c.12-.01.19-.54.19-.73zm0-78.9c0-1.92-5.78-3.5-12.91-3.5S0 1024.3 0 1026.22c0 .19.07.61.19.61h.3v74h.1c.17-2 5.65-3.26 12.41-3.26s12.24 1.26 12.41 3.26h1.07v-74h-.85c.12 0 .19-.43.19-.62z" fill="#c7a315"/>
  <path d="M25.82 948.11c0-1.92-5.78-3.55-12.91-3.55S0 946.23 0 948.15c0 .19.07.68.19.68h.3v74h.1c.17-2 5.65-3.26 12.41-3.26s12.24 1.26 12.41 3.26h1.07v-74h-.85c.12 0 .19-.53.19-.72z" fill="#c7a315"/>
  <path d="M25.82 870c0-1.92-5.78-3.6-12.91-3.6S0 868.15 0 870.07c0 .19.07.76.19.76h.3v74h.1c.17-2 5.65-3.26 12.41-3.26s12.24 1.26 12.41 3.26h1.07v-74h-.85c.12 0 .19-.63.19-.83z" fill="#c7a315"/>
  <path d="M25.82 791.91c0-1.92-5.78-3.65-12.91-3.65S0 790.08 0 792c0 .19.07-.16.19.84h.3v74h.1c.17-2 5.65-3.26 12.41-3.26s12.24 1.26 12.41 3.26h1.07v-74h-.85a3.56 3.56 0 0 1 .19-.93z" fill="#c7a315"/>
  <path d="M25.82 713.31c0-1.92-5.78-3.45-12.91-3.45S0 711.38 0 713.3c0 .19.07.54.19.54h.3v75h.1c.17-2 5.65-3.26 12.41-3.26s12.24 1.26 12.41 3.26h1.07v-75h-.85c.12-.01.19-.34.19-.53zm0-78.1c0-1.92-5.78-3.5-12.91-3.5S0 633.3 0 635.22c0 .19.07.61.19.61h.3v74h.1c.17-2 5.65-3.26 12.41-3.26s12.24 1.26 12.41 3.26h1.07v-74h-.85c.12 0 .19-.43.19-.62z" fill="#c7a315"/>
  <path d="M25.82 557.11c0-1.92-5.78-3.55-12.91-3.55S0 555.23 0 557.15c0 .19.07.69.19.69h.3v74h.1c.17-2 5.65-3.26 12.41-3.26s12.24 1.26 12.41 3.26h1.07v-74h-.85c.12-.01.19-.54.19-.73z" fill="#c7a315"/>
  <path d="M25.82 479.21c0-1.92-5.78-3.5-12.91-3.5S0 477.3 0 479.22c0 .19.07.61.19.61h.3v74h.1c.17-2 5.65-3.26 12.41-3.26s12.24 1.26 12.41 3.26h1.07v-74h-.85c.12 0 .19-.43.19-.62zm49.67 1189.55s-3.07-.11-7.64-.45l-3.69-.29c-1.31-.1-2.68-.24-4.1-.37s-2.89-.25-4.38-.44l-4.5-.52c-1.51-.17-3-.28-4.54-.35a29.14 29.14 0 0 1-4.37-.48 22 22 0 0 1-3.91-1.22 32.16 32.16 0 0 1-3.4-1.58 29.65 29.65 0 0 1-2.79-1.68 24.59 24.59 0 0 1-2.09-1.57c-.57-.47-1-.88-1.31-1.18s-.45-.47-.45-.47l.21-.92s.21-.09.61-.23 1-.32 1.69-.51a24.6 24.6 0 0 1 2.56-.53 29.66 29.66 0 0 1 3.24-.32 32.16 32.16 0 0 1 3.74 0 22 22 0 0 1 4.06.57 29.14 29.14 0 0 1 4.15 1.43c1.39.58 2.82 1.13 4.26 1.63l4.3 1.45c1.42.46 2.8 1 4.15 1.47s2.64.95 3.87 1.42l3.46 1.32c4.28 1.65 7.1 2.86 7.1 2.86zM48 1697.65s-1.55-2.11-3.79-5.33c-1.11-1.61-2.42-3.49-3.77-5.52s-2.78-4.22-4.2-6.4c-.71-1.09-1.46-2.16-2.21-3.21a34.14 34.14 0 0 1-2.07-3.15 33.15 33.15 0 0 1-2.55-6.19 29.8 29.8 0 0 1-1.08-4.77 16.63 16.63 0 0 1-.17-1.94l.53-.29a16.62 16.62 0 0 1 1.53 1.2 29.8 29.8 0 0 1 3.42 3.5 33.15 33.15 0 0 1 3.81 5.5 34.15 34.15 0 0 1 1.55 3.45c.47 1.2 1 2.41 1.49 3.6 1.06 2.38 2.14 4.75 3.08 7s1.84 4.36 2.58 6.17c1.48 3.63 2.41 6.08 2.41 6.08zm27.49-347.53s-3.07-.11-7.64-.45l-3.69-.29c-1.31-.1-2.68-.24-4.1-.37s-2.89-.25-4.38-.44l-4.5-.52c-1.51-.17-3-.28-4.54-.35a29.14 29.14 0 0 1-4.37-.48 22 22 0 0 1-3.91-1.22 32.18 32.18 0 0 1-3.4-1.58 29.68 29.68 0 0 1-2.79-1.68 24.59 24.59 0 0 1-2.09-1.57c-.57-.47-1-.88-1.31-1.18s-.45-.47-.45-.47l.21-.92s.21-.09.61-.23 1-.32 1.69-.51a24.58 24.58 0 0 1 2.56-.53 29.66 29.66 0 0 1 3.24-.32 32.18 32.18 0 0 1 3.74 0 22 22 0 0 1 4.06.57 29.12 29.12 0 0 1 4.15 1.43c1.39.58 2.82 1.13 4.26 1.62l4.3 1.45c1.42.46 2.8 1 4.15 1.47s2.64.95 3.87 1.42l3.46 1.32c4.28 1.65 7.1 2.86 7.1 2.86zM48 1379s-1.55-2.11-3.79-5.33c-1.11-1.61-2.42-3.49-3.77-5.52s-2.78-4.22-4.2-6.4c-.71-1.09-1.46-2.16-2.21-3.21a34.14 34.14 0 0 1-2.07-3.15 33.15 33.15 0 0 1-2.55-6.19 29.8 29.8 0 0 1-1.08-4.77 16.63 16.63 0 0 1-.17-1.94l.53-.29a16.64 16.64 0 0 1 1.53 1.2 29.8 29.8 0 0 1 3.42 3.5 33.15 33.15 0 0 1 3.81 5.5 34.16 34.16 0 0 1 1.52 3.45c.47 1.2 1 2.41 1.49 3.6 1.06 2.38 2.14 4.75 3.08 7s1.84 4.36 2.58 6.17c1.48 3.63 2.41 6.08 2.41 6.08zm15.38-58s-2 1.3-5.12 3.14c-1.55.91-3.35 2-5.31 3.08s-4.05 2.24-6.15 3.38c-1 .57-2.08 1.19-3.08 1.81a24.35 24.35 0 0 1-3 1.66 18.05 18.05 0 0 1-3.06 1 26.33 26.33 0 0 1-2.88.56 24.1 24.1 0 0 1-2.54.22 19.78 19.78 0 0 1-2 0 13.79 13.79 0 0 1-1.86-.22L28 1335a13.79 13.79 0 0 1 1.15-1.47 19.78 19.78 0 0 1 1.42-1.46 24.1 24.1 0 0 1 1.95-1.64 26.32 26.32 0 0 1 2.43-1.65 18.05 18.05 0 0 1 2.87-1.47 24.33 24.33 0 0 1 3.31-1c1.15-.28 2.31-.57 3.46-.91 2.29-.69 4.56-1.41 6.73-2s4.19-1.14 5.92-1.6c3.48-.9 5.84-1.43 5.84-1.43zm38.98-912.72s-4.2-1.59-10.42-4.13l-5-2.07c-1.78-.73-3.63-1.54-5.56-2.36s-3.93-1.66-5.92-2.57l-6.08-2.73c-2-.91-4.11-1.76-6.17-2.55a55.52 55.52 0 0 1-5.9-2.61 42 42 0 0 1-5.1-3.26c-1.56-1.12-3-2.26-4.29-3.38a51 51 0 0 1-5.93-6c-.66-.81-1.17-1.47-1.51-1.95S40 374 40 374l.51-.93h.9c.58 0 1.41.1 2.45.23a51 51 0 0 1 8.2 1.81c1.63.49 3.37 1.09 5.15 1.81a42 42 0 0 1 5.45 2.56A55.52 55.52 0 0 1 68 383.1c1.78 1.31 3.6 2.61 5.46 3.84l5.54 3.67c1.84 1.19 3.62 2.44 5.35 3.62s3.41 2.32 5 3.43l4.44 3.11c5.48 3.88 9.08 6.58 9.08 6.58zM50.29 424.7S48.94 422 47 418c-.94-2-2-4.41-3.17-7s-2.3-5.3-3.47-8c-.58-1.37-1.22-2.72-1.87-4a36 36 0 0 1-1.71-4 26.71 26.71 0 0 1-1-3.89c-.24-1.26-.42-2.47-.53-3.61s-.17-2.19-.18-3.14 0-1.79.08-2.49.12-1.26.18-1.64.1-.6.1-.6l.71-.23s.16.14.44.42.66.68 1.12 1.22 1 1.19 1.54 2 1.14 1.65 1.72 2.63 1.17 2.06 1.72 3.22a26.71 26.71 0 0 1 1.5 3.73 36 36 0 0 1 1 4.2c.27 1.45.56 2.92.9 4.37.68 2.9 1.4 5.79 2 8.53s1.12 5.29 1.57 7.49c.88 4.4 1.39 7.35 1.39 7.35zm37.04-57.9s-3 .37-7.44.79c-2.23.2-4.84.44-7.62.65s-5.76.39-8.74.57c-1.49.09-3 .24-4.44.4a36 36 0 0 1-4.3.28 26.71 26.71 0 0 1-4-.37c-1.27-.19-2.47-.44-3.58-.72s-2.12-.58-3-.89-1.68-.63-2.32-.91-1.15-.53-1.49-.72-.53-.3-.53-.3v-.75s.19-.11.54-.27.87-.4 1.52-.64 1.45-.54 2.36-.79 1.94-.52 3.06-.73 2.33-.41 3.61-.53a26.71 26.71 0 0 1 4-.16 36 36 0 0 1 4.28.5c1.46.24 2.93.46 4.41.62 3 .33 5.92.63 8.7 1s5.36.72 7.58 1c4.44.65 7.39 1.17 7.39 1.17zM43.6 140.36s1.78-1.94 4.52-4.76c1.37-1.41 3-3.05 4.71-4.78s3.62-3.55 5.49-5.37c.94-.91 1.85-1.85 2.73-2.8a33.07 33.07 0 0 1 2.7-2.64 32.11 32.11 0 0 1 5.63-3.66 29.08 29.08 0 0 1 4.53-1.92 16.4 16.4 0 0 1 1.9-.51l.4.48a16.39 16.39 0 0 1-.87 1.76 29.08 29.08 0 0 1-2.77 4.07 32.11 32.11 0 0 1-4.69 4.77 33.06 33.06 0 0 1-3.12 2.13c-1.1.68-2.2 1.39-3.28 2.14-2.15 1.49-4.28 3-6.34 4.34s-4 2.62-5.61 3.69c-3.3 2.13-5.55 3.5-5.55 3.5zm6.04-25.05s1.64-.62 4.13-1.45c1.24-.43 2.69-.93 4.25-1.42s3.23-1 4.9-1.52 3.29-1.21 4.88-1.58a20.46 20.46 0 0 1 4.46-.42 19.15 19.15 0 0 1 3.28.29 10.09 10.09 0 0 1 1.29.3l.09.43a10.08 10.08 0 0 1-1.05.8 19.15 19.15 0 0 1-2.87 1.6 20.46 20.46 0 0 1-4.25 1.44c-1.6.31-3.38.31-5.1.55s-3.46.45-5.09.61-3.15.32-4.46.44c-2.61.25-4.37.36-4.37.36z" fill="#c7a315"/>
  <path d="M64 216.42c8.21-25.62 16.59-49.62 24.9-71.52 2.1-5.47 4.05-10.86 6.3-16 1.1-2.57 2.24-5.1 3.21-7.66s1.87-5.1 2.71-7.64l2.53-7.5c.82-2.47 1.65-4.9 2.52-7.28l5-13.89C117.71 67.05 124 51.65 129.48 39s10.21-22.34 13.57-28.92L148.22 0l-6.95 9-1.79 2.35-1.91 2.65-4.35 6.08c-3.23 4.34-6.53 9.57-10.4 15.36-7.49 11.7-16.39 26.12-25.63 43.19-4.59 8.55-9.39 17.7-14.19 27.45-1.23 2.43-2.47 4.9-3.52 7.48s-2 5.23-3 7.91c-2 5.32-3.77 10.91-6.24 16.33C53 175.56 39 223.49 23.8 292.78 13 341.88 6.28 373.54 0 474.11c9.51-1.5 22.17-1.67 26.17 1.5 0-53.16 6.94-130.3 17.92-177.52C50.74 269.47 55.77 242 64 216.42z" fill="#c7a315"/>
</svg>
