<svg xmlns="http://www.w3.org/2000/svg" viewBox="0 0 77.17 469.28">
  <g fill="#0ff">
    <path d="M25.82 394.56c0-1.92-5.78-3.55-12.91-3.55S0 392.68 0 394.59c0 .19.07.68.19.68h.3v74h.1C.76 467.28 6.25 466 13 466s12.24 1.26 12.41 3.26h1.07v-74h-.85c.12.02.19-.51.19-.7z"/>
    <path d="M25.82 316.45c0-1.92-5.78-3.6-12.91-3.6S0 314.6 0 316.52c0 .19.07.76.19.76h.3v74h.1c.17-2 5.66-3.28 12.41-3.28s12.24 1.26 12.41 3.26h1.07v-74h-.85c.12.02.19-.61.19-.81z"/>
    <path d="M25.82 238.35c0-1.92-5.78-3.65-12.91-3.65S0 236.53 0 238.44c0 .19.07-.16.19.84h.3v74h.1c.17-2 5.66-3.28 12.41-3.28s12.24 1.26 12.41 3.26h1.07v-74h-.85a3.56 3.56 0 0 1 .19-.91z"/>
    <path d="M25.82 159.75c0-1.92-5.78-3.45-12.91-3.45S0 157.83 0 159.74c0 .19.07.54.19.54h.3v75h.1c.17-2 5.66-3.28 12.41-3.28s12.24 1.26 12.41 3.26h1.07v-75h-.85c.12.02.19-.31.19-.51z"/>
    <path d="M25.82 81.65c0-1.92-5.78-3.5-12.91-3.5S0 79.75 0 81.67c0 .19.07.61.19.61h.3v74h.1c.17-2 5.66-3.28 12.41-3.28s12.24 1.26 12.41 3.26h1.07v-74h-.85c.12.02.19-.41.19-.61z"/>
    <path d="M25.82 3.55C25.82 1.64 20 0 12.91 0S0 1.68 0 3.59c0 .19.07.69.19.69h.3v74h.1C.76 76.28 6.25 75 13 75s12.24 1.26 12.41 3.26h1.07v-74h-.85c.12.02.19-.51.19-.71z"/>
    <path d="M77 169.4s-3.07-.11-7.64-.45l-3.69-.29c-1.31-.1-2.68-.24-4.1-.37s-2.89-.25-4.38-.44l-4.5-.52c-1.51-.17-3-.28-4.54-.35a29.14 29.14 0 0 1-4.37-.48 22 22 0 0 1-3.91-1.22 32.16 32.16 0 0 1-3.4-1.58 29.68 29.68 0 0 1-2.83-1.7 24.6 24.6 0 0 1-2.09-1.57c-.57-.47-1-.88-1.31-1.18s-.45-.47-.45-.47l.21-.92s.21-.09.61-.23 1-.32 1.69-.51a24.59 24.59 0 0 1 2.56-.53 29.66 29.66 0 0 1 3.24-.32 32.18 32.18 0 0 1 3.74 0 22 22 0 0 1 4.06.57 29.13 29.13 0 0 1 4.15 1.43c1.39.58 2.82 1.13 4.26 1.62l4.3 1.45c1.42.46 2.8 1 4.15 1.47s2.64.95 3.87 1.42l3.46 1.32c4.28 1.65 7.1 2.86 7.1 2.86zm-27.53 28.89s-1.55-2.11-3.79-5.33c-1.11-1.61-2.42-3.49-3.77-5.52s-2.78-4.22-4.2-6.4c-.71-1.09-1.46-2.16-2.21-3.21a34.15 34.15 0 0 1-2.07-3.15 33.15 33.15 0 0 1-2.55-6.19 29.81 29.81 0 0 1-1.08-4.77 16.65 16.65 0 0 1-.17-1.94l.53-.29a16.66 16.66 0 0 1 1.53 1.2 29.81 29.81 0 0 1 3.42 3.5 33.15 33.15 0 0 1 3.81 5.5 34.16 34.16 0 0 1 1.52 3.45c.47 1.2 1 2.41 1.49 3.6 1.06 2.38 2.14 4.75 3.08 7s1.84 4.36 2.58 6.17C49.07 195.56 50 198 50 198z"/>
  </g>
</svg>
