<svg xmlns="http://www.w3.org/2000/svg" viewBox="0 0 303.36 499.88">
  <path d="M0 499.88l.13-1.7c.1-1.12.18-2.78.43-4.94l.44-3.61.27-2.09.36-2.25c.26-1.56.51-3.25.84-5l1.14-5.67c1.7-8 4.19-17.57 7.56-28.41s7.62-22.92 12.71-35.92 11-26.9 17.67-41.4 14-29.64 22-45.09c4-7.75 8.13-15.54 12.39-23.41l6.48-11.84c2.21-3.95 4.42-7.92 6.69-11.88 9-15.89 18.47-31.82 28.13-47.64s19.68-31.41 29.79-46.6l7.55-11.34 7.61-11.14c5.08-7.36 10.11-14.62 15.19-21.67 10.09-14.15 20.13-27.63 29.88-40.24s19.27-24.32 28.28-34.94S253.16 42.94 261 34.77s15-15 21.2-20.37A113.9 113.9 0 0 1 297.38 3 38.91 38.91 0 0 1 301.8.68l1.56-.68-1.41 1a48.92 48.92 0 0 0-3.9 3 128.09 128.09 0 0 0-13 13.31C274.5 29.4 260.61 47.7 244.74 70.23c-7.95 11.26-16.41 23.56-25.24 36.66s-18 27-27.43 41.42l-14.26 22-14.46 22.67c-9.65 15.3-19.46 30.85-29 46.53s-19.13 31.37-28.41 46.89l-13.69 23.1-13.11 22.7c-8.53 15-16.65 29.47-24.15 43.34s-14.41 27.08-20.55 39.39-11.53 23.71-16 33.93-8.15 19.27-10.92 26.82-4.62 13.6-5.79 17.75zm127.88-329.19s2.12-1.9 5.36-4.65c1.63-1.37 3.52-3 5.58-4.64s4.27-3.43 6.49-5.18c1.11-.88 2.19-1.8 3.24-2.72a34.1 34.1 0 0 1 3.19-2.55 25.33 25.33 0 0 1 3.31-1.89c1.09-.54 2.16-1 3.17-1.38s2-.7 2.83-.95 1.65-.42 2.3-.55a17.35 17.35 0 0 1 2.12-.3l.39.59a17.34 17.34 0 0 1-1.11 1.83c-.38.55-.84 1.21-1.41 1.9s-1.23 1.46-2 2.23-1.59 1.58-2.52 2.37a25.33 25.33 0 0 1-3 2.31 34.1 34.1 0 0 1-3.6 1.93c-1.26.61-2.53 1.24-3.77 1.91-2.48 1.35-4.95 2.72-7.32 3.93s-4.56 2.35-6.46 3.31c-3.8 1.9-6.38 3.1-6.38 3.1zm-4.88-26.8s2.76-.68 6.92-1.58c2.08-.44 4.51-1 7.11-1.46s5.38-1 8.16-1.52c1.39-.25 2.78-.56 4.14-.87a34.1 34.1 0 0 1 4-.75 25.33 25.33 0 0 1 3.81-.1c1.22 0 2.38.14 3.45.28s2.06.31 2.94.5 1.65.41 2.29.6a17.34 17.34 0 0 1 2 .73l.07.7a17.34 17.34 0 0 1-1.84 1.09c-.59.3-1.31.67-2.14 1s-1.77.71-2.8 1-2.15.64-3.34.91a25.33 25.33 0 0 1-3.77.6 34.1 34.1 0 0 1-4.09 0c-1.4-.06-2.81-.1-4.23-.09-2.83 0-5.65.07-8.3 0s-5.13-.08-7.26-.13c-4.25-.11-7.09-.27-7.09-.27z" fill="#c7a315"/>
</svg>
