<svg xmlns="http://www.w3.org/2000/svg" viewBox="0 0 275.76 537.56">
  <path fill="#c1272d" d="M214 41.1C190.19 32.64 154.66.33 154.3 0l-9.45 10.33c.8.73 11.14 10.13 24.59 20.28a9 9 0 0 0-1.28 3.55c-.29 2.15-24 173.56-72 285.12C70.47 390.88 24 489.52 0 519.27c0 0 11.33 22.21 27.33 0s74.27-161.65 88.42-200q22.58-54.57 42-135.38c8.73-36.33 15.43-70.54 20.11-96.84l39.53 17.24c-11.25 55-35.53 149.29-45.46 216-4.14 18.33-43.76 193.31-51.43 206.71s22.52 12.86 22.94 4.94 42.14-172.66 46.68-211.66c13.64-89.84 48.72-230.77 53.66-254.2 15.2 5 27.49 9 27.71 9.06l4.27-13.33C275.4 61.7 239 50 214 41.1zm7.19 45.15L181 68.76c2.05-12.28 3.47-21.62 4.26-27 8.11 5.24 16.43 9.84 24 12.52 5.4 1.92 11.33 4 17.31 6-.77 3.63-2.71 12.83-5.43 25.97z"/>
</svg>
