<svg xmlns="http://www.w3.org/2000/svg" viewBox="0 0 1279 1249.19"
  width="100%" height="100%">
  <path fill="#211c36" d="M361 182.57c-3-34.69-5-63.06-12.2-95.85-6.79-31.14-9.34-51-56.29-77.51-26.14-14.78-72.49-8-103.59-5C137.42 9.2 18.27 52.71 0 75.4v1158.28s175 42.52 178-13.24 111.33-534.61 122.67-618S373.39 326.39 361 182.57zm757 654.78c-15.43-67.82-32.61-147-51.85-234.91s-38.15-117.07-57.72-175.21C974 325 936.35 219.8 874.19 152.1c-16.88-18.39-37.82-34.22-58.08-26.28-22 8.6-34.82 41.38-45.3 71.23l-29 82.59c-4.54 12.93-9.94 27-19.27 31.62-5.41 2.69-11.35 1.69-16.87-.45-23.22-9-40.73-36.33-58.36-60.44s-39.13-47.37-63.08-44.84c-24.93 2.61-44.48 32.31-59 62.48-46.87 97.66-79.13 261.82-84.06 334.42S383.9 1111.31 399 1179.66s700 58.95 719 24.65 15.43-299.14 0-366.96zm83.52-755.95c-47.56-17.09-99.06-24-147.4-10-16.12 4.6-32.57 12.26-42.72 27.3-8.46 12.55-11.53 28.9-11.64 44.74-.35 48.92 24.64 92.94 50.26 132.16 64.48 98.72 140.13 189.55 229 258.79V117.66c-25.17-14-50.83-26.66-77.5-36.26z"/>
</svg>
