<svg xmlns="http://www.w3.org/2000/svg" viewBox="0 0 264.27 95.71"><defs><style>.cls-1{fill:#f2f2f2;opacity:0.74;}</style></defs><title>kumo-migi</title><g id="Layer_2" data-name="Layer 2"><g id="オブジェクト"><path class="cls-1" d="M216.52,71.78H174.83a6,6,0,0,1,0-12h5.8v-.14a12,12,0,0,0-1.73-23.79h-4.06a6,6,0,0,1,0-12h77.48a12,12,0,0,0,0-23.93H85.38a12,12,0,1,0,0,23.93h1.41a6,6,0,0,1,0,12H12a12,12,0,0,0,0,23.93H50.65a6,6,0,1,1,0,12H48.18v.09a12,12,0,0,0,1.41,23.84H216.52a12,12,0,0,0,0-23.93Z"/></g></g></svg>