<svg xmlns="http://www.w3.org/2000/svg" viewBox="0 0 317.67 306.65"><defs><style>.cls-1{fill:#20c4bb;}.cls-2{fill:#ff931e;}.cls-3,.cls-7{fill:#e2cc03;}.cls-4{fill:#fcf200;}.cls-5{fill:#d9e021;}.cls-6{fill:#1aa399;}.cls-7{stroke:#e2cc03;stroke-miterlimit:10;stroke-width:2px;}</style></defs><title>kuruma</title><g id="Layer_2" data-name="Layer 2"><g id="オブジェクト"><path class="cls-1" d="M288,104.83c0-42.34-38.28-76.6-85.5-76.6A92.56,92.56,0,0,0,158,39.45a92.54,92.54,0,0,0-44.5-11.18C66.25,28.27,28,62.49,28,104.83a68.38,68.38,0,0,0,1.75,15.39h256.5A68.32,68.32,0,0,0,288,104.83Z"/><ellipse class="cls-2" cx="67.81" cy="296.94" rx="22.41" ry="9.71"/><ellipse class="cls-2" cx="158.47" cy="296.94" rx="22.41" ry="9.71"/><ellipse class="cls-2" cx="250.25" cy="296.94" rx="22.41" ry="9.71"/><rect class="cls-3" x="24.25" y="110.3" width="10.22" height="167.84"/><path class="cls-4" d="M38.44,106.22a9.09,9.09,0,1,1-18.18,0c0-2.51,3.55-3,5.5-4.31,4.44-2.88-.64-6.36,3.59-4.78C34.06,98.88,38.44,101.2,38.44,106.22Z"/><rect class="cls-3" x="284.88" y="110.3" width="10.22" height="167.84"/><path class="cls-4" d="M299.1,106.22a9.09,9.09,0,1,1-18.18,0c0-2.51,3.55-3,5.5-4.31,4.44-2.88-.64-6.36,3.59-4.78C294.71,98.88,299.1,101.2,299.1,106.22Z"/><rect class="cls-5" y="278.14" width="317.67" height="18.57"/><path class="cls-6" d="M184,119.81c0-45.37-12-81.59-26.8-81.59h-.4C142,38.22,130,74.68,130,120.06"/><line class="cls-7" x1="34.25" y1="121.22" x2="287.25" y2="121.22"/><path class="cls-4" d="M171.35,14.54a13.94,13.94,0,1,1-27.88,0c0-3.85,5.44-4.67,8.43-6.61,6.8-4.42-1-9.74,5.51-7.33C164.63,3.29,171.35,6.84,171.35,14.54Z"/><circle class="cls-4" cx="157.51" cy="29.56" r="4.16"/><circle class="cls-4" cx="157.51" cy="36.36" r="4.16"/></g></g></svg>