<svg xmlns="http://www.w3.org/2000/svg" viewBox="0 0 249.63 445.31"><defs><style>.cls-1{fill:#1a1a1a;}.cls-2{fill:#43b0ca;}.cls-3{fill:#e6e6e6;}.cls-4{fill:#fbebd8;}.cls-5{fill:#ff7bac;}</style></defs><title>hime</title><g id="Layer_2" data-name="Layer 2"><g id="人物"><rect class="cls-1" x="20.38" y="118.35" width="24.26" height="85.67"/><rect class="cls-1" x="191.61" y="118.35" width="24.26" height="85.67"/><path class="cls-2" d="M64.37,434.45c-8.49-37.48-8.08-79.19,4.92-114.61a56.48,56.48,0,0,1,16.48-23.06l28.87,9.73c-4.14,3.32-8.45,10.52-12.13,15.06-9.14,11.3-15.65,23.94-20.88,39.41-7.64,22.58-6.94,50.86-1.08,70.95Z"/><path class="cls-2" d="M162.14,434.45c-8.49-37.48-8.08-79.19,4.92-114.61a56.48,56.48,0,0,1,16.48-23.06l28.87,9.73c-4.14,3.32-8.45,10.52-12.13,15.06-9.14,11.3-15.65,23.94-20.88,39.41-7.64,22.58-6.94,50.86-1.08,70.95Z"/><polygon class="cls-3" points="82.69 437.08 44.25 445.31 41.77 437.33 80.2 429.1 82.69 437.08"/><polygon class="cls-3" points="180.37 437.08 141.93 445.31 139.44 437.33 177.88 429.1 180.37 437.08"/><ellipse class="cls-4" cx="8.38" cy="304.16" rx="8.37" ry="10.62"/><path class="cls-5" d="M32.09,416S27.41,306.56,16.74,300.17C13.15,298,0,299.56,0,299.56,0,239.93,18.69,172,54.72,172l2.14,33.46c-1.22,11.69-1.83,8.35-2.77,21.65C53.68,232.9,55.6,412,55.6,412S52,412.32,32.09,416Z"/><ellipse class="cls-4" cx="241.26" cy="304.16" rx="8.37" ry="10.62"/><path class="cls-5" d="M216.91,416s4.68-109.47,15.35-115.87c3.59-2.15,16.74-.61,16.74-.61C249,239.93,230.3,172,194.27,172l-2.14,33.46c1.22,11.69,1.83,8.35,2.77,21.65.41,5.8-1.51,184.92-1.51,184.92S197,412.32,216.91,416Z"/><path class="cls-5" d="M206.68,405.08c8.5,12.33-171.71,12.33-163,0C35,417.41,32,158.5,41,170.83c-8.94-12.33,178.84-12.33,169.9,0C219.82,158.5,215.18,417.41,206.68,405.08Z"/><path class="cls-1" d="M216.9,105.83c-.84-6.2-1.43-10.25-1.43-10.25-8.75-33.52-21.14-61-43-77.85-7.8-6-17.57-10.6-27.67-13.64a91.94,91.94,0,0,0-26-4.1,68.48,68.48,0,0,0-8.43.56A93.88,93.88,0,0,0,59.86,24.35C41.42,41.71,30.61,66.76,23,95.48c-.93,7.52-2.16,15.1-2.67,22.87-1.69,26,63.84,135.79,46.48,178.44L188.54,294C160.08,264.77,217,151.28,216.9,105.83Z"/></g></g></svg>