<svg xmlns="http://www.w3.org/2000/svg" viewBox="0 0 131.35 790.47">
  <defs>
    <linearGradient id="a" x1="66.35" y1="790.47" x2="66.35" y2="394.21" gradientUnits="userSpaceOnUse">
      <stop offset=".01" stop-color="#8cc63f"/>
      <stop offset=".13" stop-color="#a4cf38"/>
      <stop offset=".37" stop-color="#cadc2e"/>
      <stop offset=".58" stop-color="#e6e627"/>
      <stop offset=".77" stop-color="#f6ec23"/>
      <stop offset=".91" stop-color="#fcee21"/>
    </linearGradient>
    <linearGradient id="b" x1="65.67" y1="396.47" x2="65.67" gradientUnits="userSpaceOnUse">
      <stop offset="0" stop-color="#fcee21"/>
      <stop offset=".14" stop-color="#e8e726"/>
      <stop offset=".54" stop-color="#b6d534"/>
      <stop offset=".83" stop-color="#98ca3c"/>
      <stop offset="1" stop-color="#8cc63f"/>
    </linearGradient>
  </defs>
  <path d="M131.35 415.47c0-9.66-30.47-21.26-66.36-21.26s-63.64 11.6-63.64 21.26v375H3c.85-11 28.45-16.4 62.45-16.4s61.6 5.4 62.45 16.4h3.46v-375z" fill="url(#a)"/>
  <path d="M130 17.2C130 7.54 100.88 0 65 0S0 7.39 0 17.05c0 1 .37 2.41.94 2.41h.41v377H3c.85-11 28.45-16.4 62.45-16.4s61.6 5.4 62.45 16.4h3.46v-377H129c.6.01 1-1.29 1-2.26z" fill="url(#b)"/>
</svg>
