<svg xmlns="http://www.w3.org/2000/svg" viewBox="0 0 1339.96 451.87">
  <path d="M1021.08 451.87H90.33a43.17 43.17 0 0 1 0-86.33h930.75a43.17 43.17 0 1 1 0 86.33z" fill="#9cc"/>
  <path d="M1296.8 377.81H176.22a43.17 43.17 0 0 1 0-86.33H1296.8a43.17 43.17 0 1 1 0 86.33z" fill="#069"/>
  <path d="M866.8 318.68H43.17a43.17 43.17 0 0 1 0-86.33H866.8a43.17 43.17 0 0 1 0 86.33zm213.94-232.35h-893.9a43.17 43.17 0 0 1 0-86.33h893.9a43.17 43.17 0 1 1 0 86.33z" fill="#069"/>
  <path d="M1089.92 248.23H266.29a43.17 43.17 0 1 1 0-86.33h823.63a43.17 43.17 0 0 1 0 86.33z" fill="#9cc"/>
  <path d="M1296.8 163.59H81.42a43.17 43.17 0 1 1 0-86.33H1296.8a43.17 43.17 0 1 1 0 86.33z" fill="#069"/>
</svg>
