<svg xmlns="http://www.w3.org/2000/svg" viewBox="0 0 273.27 98.97"><defs><style>.cls-1{fill:#f2f2f2;opacity:0.74;}</style></defs><title>kumo-hidari</title><g id="Layer_2" data-name="Layer 2"><g id="オブジェクト"><path class="cls-1" d="M223.88,74.22H180.78a6.19,6.19,0,1,1,0-12.37h6v-.14A12.36,12.36,0,0,0,185,37.11h-4.2a6.19,6.19,0,1,1,0-12.37H260.9A12.37,12.37,0,0,0,260.9,0H88.29a12.37,12.37,0,0,0,0,24.74h1.46a6.19,6.19,0,1,1,0,12.37H12.37a12.37,12.37,0,1,0,0,24.74h40a6.19,6.19,0,0,1,0,12.37H49.82v.09A12.37,12.37,0,0,0,51.28,99H223.88a12.37,12.37,0,0,0,0-24.74Z"/></g></g></svg>