<svg width="700" height="700" xmlns="http://www.w3.org/2000/svg">
  <defs>
    <style>path {fill:#f6e600;}</style>
  </defs>
  <path d="m189.14581,221.92802c3.14001,-28.92998 -15.55005,-55.16002 -32.91003,-78.49998s-35.28998,-50.52996 -30.28998,-79.18995a34.59,34.59 0 0 1 6.06,-15.10001c9,-11.91001 27.60999,-13.19999 40.72998,-6.00001s21.57996,20.72001 27.16003,34.57006c7.37,18.32996 10.78003,37.99997 13.30005,57.5799a683.67999,683.67999 0 0 1 5.5,78.80005"/>
  <path d="m410.08575,240.63802a299.29999,299.29999 0 0 1 36.86008,-70.15999c11.61987,-16.40997 26.70996,-32.69 46.61987,-35.53998c12.70007,-1.82001 25.79001,2.29999 36.35007,9.57996s18.78003,17.52002 25.40991,28.5c12.43005,20.59003 19.66003,46.10004 11.80005,68.82008c-2.66992,7.71997 -7.48999,15.27998 -15,18.40999c-10.44995,4.34003 -22.43994,-1.11005 -31.25,-8.21004c-15.91,-12.81 -26.84995,-31.00003 -42.73996,-43.8c-3.16003,-2.54999 -6.76001,-5 -10.82007,-5.14001c-7.16992,-0.29999 -12.54993,6.27002 -16.3999,12.33002a247,247 0 0 0 -21.63,42.73001"/>
</svg>
