<svg xmlns="http://www.w3.org/2000/svg" viewBox="0 0 172.08 505.81"><defs><style>.cls-1{fill:#211c36;}</style></defs><title>kusa</title><g id="Layer_2" data-name="Layer 2"><g id="オブジェクト"><path class="cls-1" d="M74.37,236.68s-.86-1-2.1-2.61c-.62-.79-1.36-1.7-2.11-2.7s-1.55-2.07-2.35-3.14-1.71-2.06-2.39-3.11A16.59,16.59,0,0,1,63.95,222a15.69,15.69,0,0,1-.67-2.42,7.91,7.91,0,0,1-.13-1l.27-.17a7.91,7.91,0,0,1,.83.56,15.78,15.78,0,0,1,1.87,1.67,16.59,16.59,0,0,1,2.12,2.69c.64,1.07,1.11,2.34,1.74,3.52s1.23,2.36,1.77,3.49,1.06,2.18,1.49,3.09c.87,1.81,1.41,3,1.41,3Z"/><path class="cls-1" d="M58.41,233.33s.19-3.58.61-7.11c.11-.88.09-1.79.24-2.61a10.28,10.28,0,0,1,.7-2.18,8.49,8.49,0,0,1,1.19-2l.22,0a8.49,8.49,0,0,1,.34,2.33,10.28,10.28,0,0,1-.18,2.28c-.18.81-.53,1.65-.77,2.5-1,3.43-2.14,6.81-2.14,6.81Z"/><path class="cls-1" d="M75.6,223.33s-3.3-1.38-6.49-3c-.79-.4-1.65-.69-2.37-1.1a10.27,10.27,0,0,1-1.81-1.39,8.49,8.49,0,0,1-1.5-1.8l.11-.19a8.49,8.49,0,0,1,2.3.46,10.26,10.26,0,0,1,2.09.93c.71.44,1.37,1.06,2.1,1.56,2.9,2.05,5.69,4.3,5.69,4.3Z"/><path class="cls-1" d="M0,505.81l.86-5.63c.61-3.66,1.43-9,2.67-15.86s2.69-15.1,4.58-24.56,4-20.14,6.5-31.74c5-23.21,11.33-50.18,18.87-78.9,1.86-7.19,3.85-14.47,5.88-21.83s4.12-14.81,6.3-22.3c4.33-15,9-30.13,13.81-45.23S69.4,229.67,74.71,215l4-11,4.09-10.8c2.75-7.15,5.48-14.2,8.32-21.08,5.61-13.79,11.38-27,17.17-39.36s11.65-23.9,17.41-34.35,11.46-19.81,16.82-27.9A245.61,245.61,0,0,1,157.3,50.24c2.18-2.71,4.23-5.05,6-7.07s3.38-3.68,4.69-5l4.07-4-3.51,4.47c-1.14,1.46-2.45,3.33-4,5.48-.79,1.08-1.56,2.3-2.44,3.56s-1.81,2.59-2.73,4.05l-2.93,4.57-3.08,5.11c-1.08,1.76-2.11,3.67-3.25,5.59s-2.25,4-3.39,6.06c-4.59,8.4-9.41,18.06-14.39,28.73s-10.07,22.38-15.19,34.87-10.27,25.78-15.41,39.6q-3.82,10.38-7.67,21.11l-7.58,21.73c-5,14.67-10,29.6-14.77,44.6s-9.53,30-14.11,44.85l-6.71,22.06L44.43,352.2C36,380.54,28.34,407.08,21.8,429.84Z"/><path class="cls-1" d="M4.12,443.8,4.68,439c.39-3.14.94-7.76,1.76-13.61s1.8-13,3.07-21.1S12.22,387,14,377s3.67-20.79,5.92-32.18l3.48-17.52c1.2-6,2.55-12.06,3.88-18.25C30,296.67,32.85,283.87,36.06,271c1.58-6.46,3.17-13,4.9-19.49s3.44-13.05,5.21-19.58c3.58-13,7.38-26,11.32-38.76,2-6.36,4-12.64,6.06-18.85S67.75,162,69.86,156l3.22-8.88c1.07-2.93,2.09-5.84,3.24-8.68L79.64,130c1.09-2.78,2.16-5.53,3.31-8.21l3.33-7.94L87.9,110c.55-1.28,1.14-2.53,1.71-3.78L93,98.84l1.63-3.57c.55-1.17,1.14-2.32,1.69-3.46l3.3-6.7c1.09-2.18,2.09-4.33,3.24-6.35,2.23-4.07,4.3-7.94,6.32-11.55l6-9.92c.47-.76.9-1.52,1.38-2.23L117.89,53l2.62-3.88c3.2-5,6.18-8.58,8.09-11.11l3-3.83L129,38.27l-3.11,4.92-.95,1.5c-.32.52-.61,1.09-.94,1.66L122,50l-2.28,4-1.22,2.17c-.42.74-.78,1.53-1.19,2.32l-5.21,10.22-5.49,11.83c-1,2.07-1.89,4.25-2.85,6.46l-2.92,6.79c-3.89,9.29-7.85,19.47-11.87,30.29-1,2.69-2,5.46-3,8.25l-3,8.48-6,17.58c-2,6-3.87,12.11-5.85,18.28l-5.71,18.83c-3.73,12.7-7.49,25.62-11,38.61-1.79,6.48-3.58,13-5.26,19.46l-2.57,9.7L44.11,273c-3.29,12.84-6.51,25.48-9.49,37.75l-8.47,35.42L18.79,378l-6.08,26.93L8.1,425.67Z"/><path class="cls-1" d="M17.35,251.17l-.87-3.5c-.29-1.14-.58-2.56-.93-4.25-.17-.84-.38-1.75-.54-2.72l-.5-3.09a154.18,154.18,0,0,1-1.69-15.89,186.3,186.3,0,0,1,0-20.79,214.92,214.92,0,0,1,2.85-24.49A250.22,250.22,0,0,1,22,149.62c1.36-4.58,2.84-9.22,4.51-13.85.8-2.33,1.7-4.64,2.57-7s1.85-4.64,2.82-7c2-4.63,4-9.26,6.24-13.82s4.57-9.11,7.05-13.57A268.65,268.65,0,0,1,61.5,68.71,232.58,232.58,0,0,1,80.16,45.79a193.45,193.45,0,0,1,20.19-19c3.44-2.76,6.88-5.34,10.31-7.69s6.84-4.48,10.22-6.35,6.68-3.53,9.87-5,6.32-2.64,9.3-3.6A83.67,83.67,0,0,1,155.77.56,67,67,0,0,1,166.05,0l3.62.21L166.1.74c-1.15.22-2.57.48-4.22.84s-3.52.85-5.59,1.48a94.39,94.39,0,0,0-14.37,5.73,119.41,119.41,0,0,0-17.07,10.29,167.77,167.77,0,0,0-18.15,15c-3,2.9-6.1,5.9-9.08,9.14-1.51,1.59-3,3.27-4.5,4.92s-3,3.38-4.43,5.16c-2.94,3.5-5.82,7.16-8.67,10.91-1.4,1.9-2.83,3.79-4.19,5.74s-2.76,3.9-4.13,5.87c-5.37,8-10.58,16.27-15.28,24.85s-9.13,17.32-13.1,26.1c-1.95,4.41-3.84,8.8-5.58,13.19s-3.35,8.78-4.92,13.1c-3,8.68-5.59,17.19-7.69,25.36s-3.71,16-4.91,23.28A231.13,231.13,0,0,0,17,237.43c0,2.18,0,4.13,0,5.82s0,3.14.12,4.32Z"/><path class="cls-1" d="M7.19,302.29s0-1,0-2.85.24-4.61.75-8.07,1.23-7.64,2.37-12.37,2.53-10,4.35-15.73S18.56,251.42,21,245s5.06-13.11,8-20,6.11-13.87,9.49-20.92S45.45,190,49.09,182.95s7.46-14,11.31-20.82S68.15,148.69,72,142.34s7.79-12.4,11.57-18.09c1.9-2.84,3.74-5.61,5.59-8.23s3.67-5.15,5.43-7.56c3.5-4.83,6.89-9.14,10-12.87s6-6.88,8.43-9.35a47.6,47.6,0,0,1,6.13-5.33A16.6,16.6,0,0,1,121,79.77l.64-.34-.57.45a21,21,0,0,0-1.57,1.4,56.59,56.59,0,0,0-5.16,6.08c-2.08,2.74-4.44,6.19-7.08,10.18s-5.47,8.61-8.55,13.65Q96.43,115,94,119.11l-5,8.51c-3.38,5.86-6.84,12.11-10.44,18.55L73.18,156l-5.49,10.13c-3.66,6.83-7.38,13.77-11,20.77s-7.22,14-10.72,20.9l-5.13,10.31-4.91,10.1c-3.18,6.66-6.25,13.09-9,19.25s-5.33,12-7.58,17.46-4.21,10.48-5.82,15-2.9,8.48-3.84,11.79-1.55,6-1.93,7.77Z"/><path class="cls-1" d="M40.71,42.26s1.66.7,4.11,1.83c1.23.56,2.67,1.2,4.18,1.94s3.13,1.52,4.74,2.32,3.32,1.42,4.77,2.26a22,22,0,0,1,3.66,2.8,20.46,20.46,0,0,1,2.29,2.49A10.65,10.65,0,0,1,65.24,57l-.22.37a10.58,10.58,0,0,1-1.34-.16,20.43,20.43,0,0,1-3.27-.85,22.06,22.06,0,0,1-4.19-1.92c-1.42-.89-2.77-2.12-4.24-3.15s-2.92-2.08-4.27-3.1-2.6-2-3.67-2.79c-2.15-1.63-3.55-2.77-3.55-2.77Z"/><path class="cls-1" d="M45.26,63.74s1.13-.42,2.84-1c.85-.29,1.85-.64,2.92-1s2.22-.69,3.36-1,2.26-.83,3.35-1.09a14.23,14.23,0,0,1,3.06-.29,13.65,13.65,0,0,1,2.25.2,6.94,6.94,0,0,1,.88.21l.06.29a6.91,6.91,0,0,1-.72.55,13.68,13.68,0,0,1-2,1.1,14.23,14.23,0,0,1-2.92,1c-1.1.21-2.32.21-3.5.38s-2.37.31-3.49.42-2.16.22-3.06.3c-1.79.17-3,.25-3,.25Z"/><path class="cls-1" d="M58.2,39.29s.78.92,1.89,2.34c.56.7,1.22,1.52,1.9,2.42s1.4,1.85,2.11,2.82,1.54,1.85,2.15,2.79a14.22,14.22,0,0,1,1.3,2.79,13.66,13.66,0,0,1,.57,2.19,6.93,6.93,0,0,1,.1.9L68,55.7a6.92,6.92,0,0,1-.76-.49,13.63,13.63,0,0,1-1.7-1.49A14.22,14.22,0,0,1,63.6,51.3c-.57-1-1-2.11-1.53-3.17S61,46,60.49,45s-.93-2-1.31-2.78c-.77-1.63-1.24-2.74-1.24-2.74Z"/><path class="cls-1" d="M105.23,217.28s-.6-1.7-1.41-4.28c-.41-1.28-.9-2.78-1.38-4.4s-1-3.34-1.48-5.06-1.18-3.41-1.54-5.05a22.06,22.06,0,0,1-.4-4.59,20.46,20.46,0,0,1,.3-3.37,10.58,10.58,0,0,1,.3-1.31l.42-.08a10.64,10.64,0,0,1,.78,1.1,20.44,20.44,0,0,1,1.57,3,22,22,0,0,1,1.4,4.39c.3,1.65.29,3.47.52,5.25s.43,3.56.58,5.24.3,3.25.41,4.59c.24,2.69.34,4.49.34,4.49Z"/><path class="cls-1" d="M113.41,203.27s-.88-.82-2.16-2.09c-.64-.63-1.4-1.37-2.18-2.17s-1.61-1.67-2.44-2.54-1.76-1.65-2.47-2.51a14.22,14.22,0,0,1-1.63-2.61,13.64,13.64,0,0,1-.83-2.11,6.87,6.87,0,0,1-.21-.88l.23-.19a6.94,6.94,0,0,1,.81.4,13.67,13.67,0,0,1,1.87,1.27A14.23,14.23,0,0,1,106.6,192c.68.89,1.23,2,1.9,3s1.34,2,1.94,2.94,1.16,1.84,1.64,2.61c1,1.53,1.56,2.57,1.56,2.57Z"/><path class="cls-1" d="M122.83,70.74s3.35,1.44,6.58,3.07c.81.41,1.68.72,2.41,1.14a10.89,10.89,0,0,1,1.85,1.42,8.91,8.91,0,0,1,1.55,1.81l-.11.19a8.92,8.92,0,0,1-2.32-.51,10.94,10.94,0,0,1-2.12-1c-.72-.45-1.4-1.07-2.14-1.59-3-2.09-5.8-4.37-5.8-4.37Z"/><path class="cls-1" d="M131.66,69.24s.39.47,1,1.18,1.29,1.68,2,2.64c.36.49.78.94,1.09,1.41a7.19,7.19,0,0,1,.65,1.41,5.78,5.78,0,0,1,.34,1.56l-.13.08a5.77,5.77,0,0,1-1.24-1,7.19,7.19,0,0,1-1-1.22c-.28-.49-.5-1.06-.77-1.6-.53-1.09-1.08-2.16-1.45-3s-.63-1.38-.63-1.38Z"/><path class="cls-1" d="M51.85,157.71s.85-.88,2.16-2.14c.65-.64,1.41-1.38,2.24-2.16S58,151.81,58.86,151s1.7-1.74,2.59-2.45A14.39,14.39,0,0,1,64.12,147a13.83,13.83,0,0,1,2.15-.8,7,7,0,0,1,.9-.19l.18.24a7,7,0,0,1-.42.82,13.8,13.8,0,0,1-1.32,1.86,14.41,14.41,0,0,1-2.23,2.17c-.91.67-2,1.2-3,1.87s-2,1.31-3,1.9-1.88,1.14-2.67,1.6C53.1,157.36,52,158,52,158Z"/><path class="cls-1" d="M48.94,146.41s1.16-.38,2.91-.87c.87-.26,1.89-.56,3-.85s2.27-.6,3.44-.9,2.32-.73,3.44-.94a14.39,14.39,0,0,1,3.11-.15,13.83,13.83,0,0,1,2.27.31,7,7,0,0,1,.88.25l0,.3a7,7,0,0,1-.75.52,13.82,13.82,0,0,1-2,1,14.39,14.39,0,0,1-3,.86c-1.12.16-2.35.11-3.56.22s-2.41.2-3.55.26-2.2.12-3.11.16c-1.82.09-3,.11-3,.11Z"/></g></g></svg>