<svg xmlns="http://www.w3.org/2000/svg" xmlns:xlink="http://www.w3.org/1999/xlink" viewBox="0 0 391.08 300.94"><defs><style>.cls-1,.cls-3{fill:none;}.cls-2{fill:#fcf200;}.cls-3{stroke:#fcf200;stroke-miterlimit:10;stroke-width:0.43px;}.cls-4{fill:url(#新規パターン_2);}</style><pattern id="新規パターン_2" data-name="新規パターン 2" width="53.94" height="74.34" patternTransform="translate(-63.91 -46.15) scale(1.15 1.19)" patternUnits="userSpaceOnUse" viewBox="0 0 53.94 74.34"><rect class="cls-1" width="53.94" height="74.34"/><line class="cls-2" x1="42.79" y1="60.75" x2="42.79" y2="74.14"/><path class="cls-2" d="M42.79,60.75s.06.21.14.58.18.89.26,1.52a34.26,34.26,0,0,1,.29,4.6,33.88,33.88,0,0,1-.29,4.6c-.08.63-.18,1.15-.26,1.52s-.14.58-.14.58-.06-.21-.14-.58-.18-.89-.26-1.52a33.89,33.89,0,0,1-.29-4.6,34.26,34.26,0,0,1,.29-4.6c.08-.63.18-1.15.26-1.52S42.79,60.75,42.79,60.75Z"/><line class="cls-2" x1="47.33" y1="67.44" x2="38.24" y2="67.44"/><path class="cls-2" d="M47.33,67.44s-.14.06-.39.14-.6.17-1,.26a16.38,16.38,0,0,1-3.12.29,16.21,16.21,0,0,1-3.12-.29c-.43-.09-.78-.18-1-.26s-.39-.14-.39-.14.14-.06.39-.14.6-.17,1-.26a16.21,16.21,0,0,1,3.12-.29,16.38,16.38,0,0,1,3.12.29c.43.09.78.18,1,.26S47.33,67.44,47.33,67.44Z"/><circle class="cls-3" cx="36.61" cy="62.96" r="1.16"/><line class="cls-2" x1="11.97" y1="74.14" x2="11.97" y2="87.52"/><path class="cls-2" d="M12,74.14s.06.21.14.58.18.89.26,1.52a34.26,34.26,0,0,1,.29,4.6,33.88,33.88,0,0,1-.29,4.6c-.08.63-.18,1.15-.26,1.52s-.14.58-.14.58-.06-.21-.14-.58-.18-.89-.26-1.52a33.89,33.89,0,0,1-.29-4.6,34.26,34.26,0,0,1,.29-4.6c.08-.63.18-1.15.26-1.52S12,74.14,12,74.14Z"/><circle class="cls-2" cx="1.65" cy="72.04" r="1.16"/><circle class="cls-2" cx="13.13" cy="67.44" r="1.16"/><circle class="cls-2" cx="3.97" cy="62.96" r="1.16"/><circle class="cls-2" cx="20.81" cy="73.2" r="1.16"/><line class="cls-2" x1="15.81" y1="23.58" x2="15.81" y2="36.97"/><path class="cls-2" d="M15.81,23.58s.06.21.14.58.18.89.26,1.52a34.26,34.26,0,0,1,.29,4.6,33.88,33.88,0,0,1-.29,4.6C16.13,35.5,16,36,16,36.39s-.14.58-.14.58-.06-.21-.14-.58-.18-.89-.26-1.52a33.89,33.89,0,0,1-.29-4.6,34.26,34.26,0,0,1,.29-4.6c.08-.63.18-1.15.26-1.52S15.81,23.58,15.81,23.58Z"/><line class="cls-2" x1="20.36" y1="30.28" x2="11.27" y2="30.28"/><path class="cls-2" d="M20.36,30.28s-.14.06-.39.14-.6.17-1,.26a16.38,16.38,0,0,1-3.12.29,16.21,16.21,0,0,1-3.12-.29c-.43-.09-.78-.18-1-.26s-.39-.14-.39-.14.14-.06.39-.14.6-.17,1-.26a16.21,16.21,0,0,1,3.12-.29,16.38,16.38,0,0,1,3.12.29c.43.09.78.18,1,.26S20.36,30.28,20.36,30.28Z"/><line class="cls-2" x1="38.94" y1="36.97" x2="38.94" y2="50.35"/><path class="cls-2" d="M38.94,37s.06.21.14.58.18.89.26,1.52a34.26,34.26,0,0,1,.29,4.6,33.88,33.88,0,0,1-.29,4.6c-.08.63-.18,1.15-.26,1.52s-.14.58-.14.58-.06-.21-.14-.58-.18-.89-.26-1.52a33.89,33.89,0,0,1-.29-4.6,34.26,34.26,0,0,1,.29-4.6c.08-.63.18-1.15.26-1.52S38.94,37,38.94,37Z"/><line class="cls-2" x1="43.49" y1="43.66" x2="34.4" y2="43.66"/><path class="cls-2" d="M43.49,43.66s-.14.06-.39.14-.6.17-1,.26a16.38,16.38,0,0,1-3.12.29,16.21,16.21,0,0,1-3.12-.29c-.43-.09-.78-.18-1-.26s-.39-.14-.39-.14.14-.06.39-.14.6-.17,1-.26A16.21,16.21,0,0,1,38.94,43a16.38,16.38,0,0,1,3.12.29c.43.09.78.18,1,.26S43.49,43.66,43.49,43.66Z"/><circle class="cls-2" cx="28.62" cy="34.87" r="1.16"/><circle class="cls-2" cx="40.1" cy="30.28" r="1.16"/><circle class="cls-2" cx="30.94" cy="25.79" r="1.16"/><circle class="cls-2" cx="47.78" cy="36.03" r="1.16"/><circle class="cls-2" cx="8.48" cy="49.59" r="1.16"/><circle class="cls-3" cx="30.35" cy="47.27" r="1.16"/><circle class="cls-2" cx="6.16" cy="39.36" r="1.16"/><circle class="cls-3" cx="9.64" cy="25.79" r="1.16"/><circle class="cls-2" cx="20.36" cy="43.13" r="1.16"/><circle class="cls-2" cx="35.45" cy="12.42" r="1.16"/><circle class="cls-2" cx="33.13" cy="2.19" r="1.16"/><circle class="cls-2" cx="47.33" cy="5.96" r="1.16"/><line class="cls-2" x1="11.97" y1="-0.2" x2="11.97" y2="13.18"/><path class="cls-2" d="M12-.2s.06.21.14.58.18.89.26,1.52a34.26,34.26,0,0,1,.29,4.6,33.88,33.88,0,0,1-.29,4.6c-.08.63-.18,1.15-.26,1.52s-.14.58-.14.58-.06-.21-.14-.58-.18-.89-.26-1.52a33.89,33.89,0,0,1-.29-4.6,34.26,34.26,0,0,1,.29-4.6c.08-.63.18-1.15.26-1.52S12-.2,12-.2Z"/><line class="cls-2" x1="16.51" y1="6.49" x2="7.43" y2="6.49"/><path class="cls-2" d="M16.51,6.49s-.14.06-.39.14-.6.17-1,.26A16.38,16.38,0,0,1,12,7.18a16.21,16.21,0,0,1-3.12-.29c-.43-.09-.78-.18-1-.26s-.39-.14-.39-.14.14-.06.39-.14.6-.17,1-.26A16.21,16.21,0,0,1,12,5.81a16.38,16.38,0,0,1,3.12.29c.43.09.78.18,1,.26S16.51,6.49,16.51,6.49Z"/><circle class="cls-2" cx="20.81" cy="-1.14" r="1.16"/><circle class="cls-3" cx="3.38" cy="10.1" r="1.16"/></pattern></defs><title>hoshi</title><g id="Layer_2" data-name="Layer 2"><g id="人物"><polyline class="cls-4" points="166.89 300.94 391.08 0 4.72 233.5"/><line class="cls-2" x1="145.98" y1="114.13" x2="145.98" y2="127.51"/><path class="cls-2" d="M146,114.13s.06.21.14.58.18.89.26,1.52a34.26,34.26,0,0,1,.29,4.6,33.88,33.88,0,0,1-.29,4.6c-.08.63-.18,1.15-.26,1.52s-.14.58-.14.58-.06-.21-.14-.58-.18-.89-.26-1.52a33.89,33.89,0,0,1-.29-4.6,34.26,34.26,0,0,1,.29-4.6c.08-.63.18-1.15.26-1.52S146,114.13,146,114.13Z"/><line class="cls-2" x1="150.53" y1="120.82" x2="141.44" y2="120.82"/><path class="cls-2" d="M150.53,120.82s-.14.06-.39.14-.6.17-1,.26a16.38,16.38,0,0,1-3.12.29,16.21,16.21,0,0,1-3.12-.29c-.43-.09-.78-.18-1-.26s-.39-.14-.39-.14.14-.06.39-.14.6-.17,1-.26a16.21,16.21,0,0,1,3.12-.29,16.38,16.38,0,0,1,3.12.29c.43.09.78.18,1,.26S150.53,120.82,150.53,120.82Z"/><line class="cls-2" x1="293.64" y1="161.62" x2="293.64" y2="175"/><path class="cls-2" d="M293.64,161.62s.06.21.14.58.18.89.26,1.52a34.26,34.26,0,0,1,.29,4.6,33.88,33.88,0,0,1-.29,4.6c-.08.63-.18,1.15-.26,1.52s-.14.58-.14.58-.06-.21-.14-.58-.18-.89-.26-1.52a33.89,33.89,0,0,1-.29-4.6,34.26,34.26,0,0,1,.29-4.6c.08-.63.18-1.15.26-1.52S293.64,161.62,293.64,161.62Z"/><line class="cls-2" x1="298.19" y1="168.31" x2="289.1" y2="168.31"/><path class="cls-2" d="M298.19,168.31s-.14.06-.39.14-.6.17-1,.26a16.38,16.38,0,0,1-3.12.29,16.21,16.21,0,0,1-3.12-.29c-.43-.09-.78-.18-1-.26s-.39-.14-.39-.14.14-.06.39-.14.6-.17,1-.26a16.21,16.21,0,0,1,3.12-.29,16.38,16.38,0,0,1,3.12.29c.43.09.78.18,1,.26S298.19,168.31,298.19,168.31Z"/><circle class="cls-2" cx="110.44" cy="140.21" r="1.16"/><circle class="cls-2" cx="294.8" cy="154.93" r="1.16"/><circle class="cls-2" cx="231.6" cy="232.7" r="1.16"/><circle class="cls-2" cx="302.48" cy="160.68" r="1.16"/><circle class="cls-2" cx="90.29" cy="154.93" r="1.16"/><circle class="cls-3" cx="112.16" cy="152.61" r="1.16"/><circle class="cls-2" cx="87.97" cy="144.69" r="1.16"/><circle class="cls-3" cx="249.93" cy="206.75" r="1.16"/><circle class="cls-2" cx="102.17" cy="148.47" r="1.16"/><line class="cls-2" x1="190.86" y1="283.7" x2="190.86" y2="297.09"/><path class="cls-2" d="M190.86,283.7s.06.21.14.58.18.89.26,1.52a34.26,34.26,0,0,1,.29,4.6,33.88,33.88,0,0,1-.29,4.6c-.08.63-.18,1.15-.26,1.52s-.14.58-.14.58-.06-.21-.14-.58-.18-.89-.26-1.52a33.89,33.89,0,0,1-.29-4.6,34.26,34.26,0,0,1,.29-4.6c.08-.63.18-1.15.26-1.52S190.86,283.7,190.86,283.7Z"/><line class="cls-2" x1="195.41" y1="290.4" x2="186.32" y2="290.4"/><path class="cls-2" d="M195.41,290.4s-.14.06-.39.14-.6.17-1,.26a16.38,16.38,0,0,1-3.12.29,16.21,16.21,0,0,1-3.12-.29c-.43-.09-.78-.18-1-.26s-.39-.14-.39-.14.14-.06.39-.14.6-.17,1-.26a16.21,16.21,0,0,1,3.12-.29A16.38,16.38,0,0,1,194,290c.43.09.78.18,1,.26S195.41,290.4,195.41,290.4Z"/><circle class="cls-2" cx="203.67" cy="294.99" r="1.16"/><circle class="cls-2" cx="132.6" cy="137.33" r="1.16"/><circle class="cls-2" cx="22.68" cy="266" r="1.16"/><circle class="cls-2" cx="140.28" cy="143.08" r="1.16"/><circle class="cls-2" cx="45.41" cy="284.18" r="1.16"/><circle class="cls-3" cx="67.28" cy="281.86" r="1.16"/><circle class="cls-2" cx="43.09" cy="273.94" r="1.16"/><circle class="cls-3" cx="1.38" cy="266" r="1.16"/><circle class="cls-2" cx="57.28" cy="277.72" r="1.16"/><line class="cls-2" x1="221.1" y1="240.66" x2="221.1" y2="254.04"/><path class="cls-2" d="M221.1,240.66s.06.21.14.58.18.89.26,1.52a34.26,34.26,0,0,1,.29,4.6,33.88,33.88,0,0,1-.29,4.6c-.08.63-.18,1.15-.26,1.52s-.14.58-.14.58-.06-.21-.14-.58-.18-.89-.26-1.52a33.89,33.89,0,0,1-.29-4.6,34.26,34.26,0,0,1,.29-4.6c.08-.63.18-1.15.26-1.52S221.1,240.66,221.1,240.66Z"/><line class="cls-2" x1="225.64" y1="247.35" x2="216.55" y2="247.35"/><path class="cls-2" d="M225.64,247.35s-.14.06-.39.14-.6.17-1,.26a16.38,16.38,0,0,1-3.12.29,16.21,16.21,0,0,1-3.12-.29c-.43-.09-.78-.18-1-.26s-.39-.14-.39-.14.14-.06.39-.14.6-.17,1-.26a16.21,16.21,0,0,1,3.12-.29,16.38,16.38,0,0,1,3.12.29c.43.09.78.18,1,.26S225.64,247.35,225.64,247.35Z"/><line class="cls-2" x1="226.38" y1="91.56" x2="226.38" y2="104.94"/><path class="cls-2" d="M226.38,91.56s.06.21.14.58.18.89.26,1.52a34.26,34.26,0,0,1,.29,4.6,33.88,33.88,0,0,1-.29,4.6c-.08.63-.18,1.15-.26,1.52s-.14.58-.14.58-.06-.21-.14-.58-.18-.89-.26-1.52a33.89,33.89,0,0,1-.29-4.6,34.26,34.26,0,0,1,.29-4.6c.08-.63.18-1.15.26-1.52S226.38,91.56,226.38,91.56Z"/><line class="cls-2" x1="230.92" y1="98.25" x2="221.84" y2="98.25"/><path class="cls-2" d="M230.92,98.25s-.14.06-.39.14-.6.17-1,.26a16.38,16.38,0,0,1-3.12.29,16.21,16.21,0,0,1-3.12-.29c-.43-.09-.78-.18-1-.26s-.39-.14-.39-.14.14-.06.39-.14.6-.17,1-.26a16.21,16.21,0,0,1,3.12-.29,16.38,16.38,0,0,1,3.12.29c.43.09.78.18,1,.26S230.92,98.25,230.92,98.25Z"/><circle class="cls-2" cx="216.06" cy="89.46" r="1.16"/><circle class="cls-2" cx="249.93" cy="88.99" r="1.16"/><circle class="cls-2" cx="240.77" cy="84.51" r="1.16"/><circle class="cls-2" cx="235.22" cy="90.62" r="1.16"/><circle class="cls-2" cx="166.95" cy="126.02" r="1.16"/><circle class="cls-3" cx="217.79" cy="101.86" r="1.16"/><circle class="cls-2" cx="164.63" cy="115.79" r="1.16"/><circle class="cls-3" cx="168.12" cy="102.23" r="1.16"/><circle class="cls-2" cx="178.83" cy="119.56" r="1.16"/></g></g></svg>