<svg xmlns="http://www.w3.org/2000/svg" xmlns:xlink="http://www.w3.org/1999/xlink" viewBox="0 0 453.72 330.15"><defs><style>.cls-1{fill:url(#名称未設定グラデーション_166);}.cls-2{fill:#211c36;}.cls-3{fill:#fff;}</style><radialGradient id="名称未設定グラデーション_166" cx="226.84" cy="66.37" r="78.28" gradientTransform="translate(0 6.69) scale(1 0.8)" gradientUnits="userSpaceOnUse"><stop offset="0" stop-color="#fcf200"/><stop offset="0.15" stop-color="#fdf53a" stop-opacity="0.77"/><stop offset="0.32" stop-color="#fdf875" stop-opacity="0.54"/><stop offset="0.48" stop-color="#fefaa6" stop-opacity="0.35"/><stop offset="0.64" stop-color="#fefccd" stop-opacity="0.2"/><stop offset="0.78" stop-color="#fffee8" stop-opacity="0.09"/><stop offset="0.9" stop-color="#fffff9" stop-opacity="0.02"/><stop offset="1" stop-color="#fff" stop-opacity="0"/></radialGradient></defs><title>fuji</title><g id="Layer_2" data-name="Layer 2"><g id="オブジェクト"><path class="cls-1" d="M322,111.23A901,901,0,0,1,293,0H160.8a901.1,901.1,0,0,1-29.51,112.57c-.5,1.51-1,3-1.53,4.49l7.65,2.51,48.71-16,48.71,16,48.71-16,40.39,13.24C323.29,115,322.66,113.11,322,111.23Z"/><path class="cls-2" d="M295.14,117.86l-28.42-8.29-34.27,10-34.27-10-34.26,10L158.55,118C108.44,249.52,19,320.62,0,330.15H453.72C434.69,320.62,345.23,249.47,295.14,117.86Z"/><path class="cls-3" d="M293.81,114.35a514.84,514.84,0,0,1-20.45-69.64h-93a515,515,0,0,1-20.76,70.48c-.35.94-.72,1.87-1.08,2.81l5.38,1.57,34.26-10,34.27,10,34.27-10,28.42,8.29C294.69,116.69,294.25,115.53,293.81,114.35Z"/></g></g></svg>