<svg xmlns="http://www.w3.org/2000/svg" viewBox="0 0 68.33 65.96"><defs><style>.cls-1,.cls-2{fill:#333;}.cls-2{stroke:#333;stroke-miterlimit:10;}</style></defs><title>kuruma</title><g id="Layer_2" data-name="Layer 2"><g id="人物"><path class="cls-1" d="M61.94,22.41C61.94,13.3,53.7,6,43.55,6A19.93,19.93,0,0,0,34,8.45,19.89,19.89,0,0,0,24.4,6.06C14.25,6.06,6,13.29,6,22.4a13.1,13.1,0,0,0,.38,3.18H61.56A13,13,0,0,0,61.94,22.41Z"/><ellipse class="cls-1" cx="14.59" cy="63.87" rx="4.82" ry="2.09"/><ellipse class="cls-1" cx="34.08" cy="63.87" rx="4.82" ry="2.09"/><ellipse class="cls-1" cx="53.83" cy="63.87" rx="4.82" ry="2.09"/><rect class="cls-1" x="5.22" y="23.72" width="2.2" height="36.1"/><path class="cls-1" d="M8.27,22.85a2,2,0,0,1-3.91,0c0-.54.76-.66,1.18-.93,1-.62-.14-1.37.77-1S8.27,21.77,8.27,22.85Z"/><rect class="cls-1" x="61.27" y="23.72" width="2.2" height="36.1"/><path class="cls-1" d="M64.33,22.85a2,2,0,1,1-3.91,0c0-.54.76-.66,1.18-.93,1-.62-.14-1.37.77-1S64.33,21.77,64.33,22.85Z"/><rect class="cls-1" y="59.82" width="68.33" height="3.99"/><path class="cls-1" d="M39.58,25.45c0-9.76-2.58-17.87-5.76-17.87h-.09c-3.19,0-5.76,8-5.76,17.76"/><line class="cls-2" x1="7.41" y1="26.07" x2="61.41" y2="26.07"/><path class="cls-1" d="M36.86,3.13a3,3,0,1,1-6,0c0-.83,1.17-1,1.81-1.42,1.46-.95-.21-2.1,1.18-1.58C35.41.71,36.86,1.47,36.86,3.13Z"/><circle class="cls-1" cx="33.88" cy="6.36" r="0.89"/><circle class="cls-1" cx="33.88" cy="7.82" r="0.89"/></g></g></svg>