<svg xmlns="http://www.w3.org/2000/svg" viewBox="0 0 30.59 48.6"><defs><style>.cls-1{fill:#211c36;}</style></defs><title>emperor</title><g id="Layer_2" data-name="Layer 2"><g id="人物"><path class="cls-1" d="M30.44,42.32,25.6,28.14s-.27.23-.72.57a7.68,7.68,0,0,0,2.27-3.33,1.84,1.84,0,0,0,1.58-1.33A1.7,1.7,0,0,0,28,21.82l-.13,0c0-.21,0-.43,0-.64,0-4.52-3.67-8.67-8.93-10a4.62,4.62,0,0,0-1.06-1.65H16.61a15.23,15.23,0,0,0,.78-5.24C17.39.65,16.54,0,15.49,0s-1.9.65-1.9,4.24a15.23,15.23,0,0,0,.78,5.24H12.95a4.59,4.59,0,0,0-1,1.52c-5.55,1.14-9.59,5.12-9.59,9.77,0,.34,0,.69,0,1l-.1,0a1.69,1.69,0,0,0-.76,2.23,1.8,1.8,0,0,0,1.71,1.34,8.43,8.43,0,0,0,2,2.87l.11.13L5,28.14.15,42.32c-1.94,6.6,15.14,6.27,15.14,6.27S32.38,48.93,30.44,42.32ZM24.88,28.71h0Z"/></g></g></svg>