<svg xmlns="http://www.w3.org/2000/svg" viewBox="0 0 17.29 30.84"><defs><style>.cls-1{fill:#333;}</style></defs><title>hime</title><g id="Layer_2" data-name="Layer 2"><g id="人物"><rect class="cls-1" x="1.41" y="8.2" width="1.68" height="5.93"/><rect class="cls-1" x="13.27" y="8.2" width="1.68" height="5.93"/><path class="cls-1" d="M5.91,30.09a14.37,14.37,0,0,1,.34-7.94,3.91,3.91,0,0,1,1.14-1.6l2,.67a7.68,7.68,0,0,0-.84,1A8.56,8.56,0,0,0,7.11,25,8.8,8.8,0,0,0,7,29.92Z"/><path class="cls-1" d="M11,30.09a14.37,14.37,0,0,1,.34-7.94,3.91,3.91,0,0,1,1.14-1.6l2,.67a7.68,7.68,0,0,0-.84,1A8.56,8.56,0,0,0,12.15,25a8.8,8.8,0,0,0-.07,4.91Z"/><polygon class="cls-1" points="7.18 30.27 4.52 30.84 4.35 30.29 7.01 29.72 7.18 30.27"/><polygon class="cls-1" points="12.22 30.27 9.55 30.84 9.38 30.29 12.04 29.72 12.22 30.27"/><ellipse class="cls-1" cx="0.58" cy="21.07" rx="0.58" ry="0.74"/><path class="cls-1" d="M2.22,28.82s-.32-7.58-1.06-8a3.15,3.15,0,0,0-1.16,0c0-4.13,1.29-8.84,3.79-8.84l.15,2.32c-.08.81-.13.58-.19,1.5,0,.4.1,12.81.1,12.81S3.6,28.56,2.22,28.82Z"/><ellipse class="cls-1" cx="16.71" cy="21.07" rx="0.58" ry="0.74"/><path class="cls-1" d="M15,28.82s.32-7.58,1.06-8a3.15,3.15,0,0,1,1.16,0c0-4.13-1.29-8.84-3.79-8.84l-.15,2.32c.08.81.13.58.19,1.5,0,.4-.1,12.81-.1,12.81S13.64,28.56,15,28.82Z"/><path class="cls-1" d="M14.31,28.06c.59.85-11.89.85-11.29,0-.6.85-.8-17.08-.18-16.22-.62-.85,12.39-.85,11.77,0C15.23,11,14.9,28.91,14.31,28.06Z"/><path class="cls-1" d="M15,7.33c-.06-.43-.1-.71-.1-.71-.61-2.32-1.46-4.23-3-5.39A6,6,0,0,0,10,.28,6.37,6.37,0,0,0,8.23,0a4.74,4.74,0,0,0-.58,0,6.5,6.5,0,0,0-3.5,1.65A10.12,10.12,0,0,0,1.6,6.61c-.06.52-.15,1-.18,1.58-.12,1.8,4,10.24,3.66,13.72h7.21C11.58,19.06,15,10.48,15,7.33Z"/></g></g></svg>