<svg xmlns="http://www.w3.org/2000/svg" xmlns:xlink="http://www.w3.org/1999/xlink" viewBox="0 0 249.19 529.8">
  <defs>
    <style>
      .cls-1{fill:#8cc63f}.cls-2{fill:url(#名称未設定グラデーション_58)}.cls-3{fill:#d7bb5e}.cls-4{fill:#ff7bac}.cls-10,.cls-5{fill:none;stroke-miterlimit:10}.cls-5{stroke:#fff;stroke-width:.82px}.cls-6{fill:#fbebd8}.cls-7,.cls-8{opacity:.54}.cls-7{fill:url(#名称未設定グラデーション_18)}.cls-8{fill:url(#名称未設定グラデーション_18-2)}.cls-9{fill:#1a1a1a}.cls-10{stroke:#000;stroke-linecap:round;stroke-width:1.64px}
    </style>
    <linearGradient id="名称未設定グラデーション_58" x1="124.6" y1="420.8" x2="124.6" gradientUnits="userSpaceOnUse">
      <stop offset="0" stop-color="#8cc63f"/>
      <stop offset=".03" stop-color="#96ca3c"/>
      <stop offset=".13" stop-color="#b6d534"/>
      <stop offset=".25" stop-color="#cfde2d"/>
      <stop offset=".37" stop-color="#e3e528"/>
      <stop offset=".52" stop-color="#f1ea24"/>
      <stop offset=".69" stop-color="#faed22"/>
      <stop offset="1" stop-color="#fcee21"/>
    </linearGradient>
    <radialGradient id="名称未設定グラデーション_18" cx="68.96" cy="203.71" r="23.29" gradientUnits="userSpaceOnUse">
      <stop offset="0" stop-color="#ff7bac"/>
      <stop offset=".37" stop-color="#ff7cad" stop-opacity=".99"/>
      <stop offset=".51" stop-color="#ff7faf" stop-opacity=".97"/>
      <stop offset=".6" stop-color="#ff86b3" stop-opacity=".92"/>
      <stop offset=".68" stop-color="#ff8eb8" stop-opacity=".85"/>
      <stop offset=".75" stop-color="#ff9abf" stop-opacity=".77"/>
      <stop offset=".8" stop-color="#ffa8c8" stop-opacity=".66"/>
      <stop offset=".86" stop-color="#ffb9d3" stop-opacity=".53"/>
      <stop offset=".91" stop-color="#ffccdf" stop-opacity=".39"/>
      <stop offset=".95" stop-color="#ffe3ed" stop-opacity=".22"/>
      <stop offset=".99" stop-color="#fffafc" stop-opacity=".04"/>
      <stop offset="1" stop-color="#fff" stop-opacity="0"/>
    </radialGradient>
    <radialGradient id="名称未設定グラデーション_18-2" cx="182.76" cy="206.98" r="23.29" xlink:href="#名称未設定グラデーション_18"/>
  </defs>
  <g id="Layer_2">
    <g id="人物">
      <path class="cls-1" d="M1.41 400.25h245.73v129.56H1.41z"/>
      <path class="cls-2" d="M154.75 1.15C88-10 20.39 61.61 3.73 161.14a261.55 261.55 0 0 0-2.32 71V420.8h5.75c1.6-6 53.46-10.09 117.35-10.09s115.74 4.09 117.35 10.09h5.56v-229h-.5C259.42 96.24 219.31 12 154.75 1.15z"/>
      <ellipse class="cls-3" cx="124.6" cy="181.36" rx="161.74" ry="108.48" transform="rotate(-80.5 124.6 181.362)"/>
      <path class="cls-4" d="M125.8 114.81c-47.57 0-86.14 62.12-86.14 138.76a212.63 212.63 0 0 0 7.23 55.66c13.64 17 31 28.3 51 31.65 43.75 7.32 87.9-25.56 113.87-78.88.1-2.79.17-5.6.17-8.43.01-76.63-38.55-138.76-86.13-138.76z"/>
      <path class="cls-5" d="M131.69 263c-3.87-5.73-7.76-11.5-12.54-16.5s-10.52-9.26-17.12-11.33m29.05 27.66a60.55 60.55 0 0 1 31.7-26.27"/>
      <path class="cls-6" d="M206.07 158.89c0 22.95 10.49 47.87-5.64 63s-44.35 20.5-69.26 20.5c-22.32 0-48.63-7.15-64.34-19.67-19.21-15.31-25.49-38.44-25.49-63.8 0-46.09 40.22-83.46 89.83-83.46 24.5 0 41.17 10.72 52.9 26.69 12.03 16.37 22 33.41 22 56.74z"/>
      <circle class="cls-7" cx="68.96" cy="203.71" r="23.29"/>
      <circle class="cls-8" cx="182.76" cy="206.98" r="23.29"/>
      <path class="cls-9" d="M144.52 132.83c6.23 11.82 13 17 22.56 23.73.79.56 1.62 1 2.43 1.48l48.62-1.3c-8.66-33.17-20.92-60.41-42.57-77-14.4-11.11-35.56-17.6-53.07-17.6-19.55 0-42.73 9.38-58.36 24.09-20.51 19.3-31.48 48.18-39.08 81.05l94.79-7.92c.56-.57 1.14-1.13 1.68-1.72 8.69-9.27 16.34-12.92 23-24.81z"/>
      <path class="cls-9" d="M82.72 254.28l-54.34-14.57s-2.44-8.05-2.79-10.83c-2.43-19.18-.54-61.59-.54-61.59l30.84-18.57S51 182 63.47 214.11c3.21 8.27 19.25 40.17 19.25 40.17zm89.59 2.09L224 234.28s1.28-8.32 1.23-11.11c-.3-19.33-7.14-66.43-7.14-66.43L184 148.08s9.52 32.28 1.72 65.81c-2.04 8.64-13.41 42.48-13.41 42.48z"/>
      <path d="M100.85 205.39c6.33 0 6.34-9.84 0-9.84s-6.34 9.84 0 9.84zm50.74 0c6.33 0 6.34-9.84 0-9.84s-6.34 9.84 0 9.84z"/>
      <path class="cls-10" d="M127.12 207.1a12.7 12.7 0 0 0 .28 5.56m-5.57 13.91a32.74 32.74 0 0 0 16.53-1.27"/>
    </g>
  </g>
</svg>
